<svg width="663" height="171" viewBox="0 0 663 171" fill="none" xmlns="http://www.w3.org/2000/svg">
<path fill-rule="evenodd" clip-rule="evenodd" d="M426.387 113.869C419.595 113.869 413.645 112.386 408.534 109.42C403.424 106.454 399.479 102.36 396.697 97.1383C393.916 91.9161 392.46 85.9203 392.331 79.1508C392.46 72.3813 393.916 66.3856 396.697 61.1634C399.479 55.9412 403.424 51.8473 408.534 48.8816C413.645 45.9159 419.595 44.4331 426.387 44.4331C433.179 44.4331 439.114 45.9159 444.191 48.8816C449.269 51.8473 453.215 55.9573 456.029 61.2117C458.842 66.4661 460.314 72.4458 460.443 79.1508C460.314 85.8559 458.842 91.8355 456.029 97.0899C453.215 102.344 449.269 106.454 444.191 109.42C439.114 112.386 433.179 113.869 426.387 113.869ZM209.534 112.901C207.852 112.901 206.413 112.305 205.217 111.112C204.02 109.92 203.422 108.485 203.422 106.809V49.3652C203.422 48.1402 203.842 47.0925 204.683 46.2222C205.524 45.3518 206.559 44.9166 207.788 44.9166C209.017 44.9166 210.068 45.3518 210.941 46.2222C211.814 47.0925 212.251 48.1402 212.251 49.3652V104.101H243.978C245.207 104.101 246.259 104.536 247.132 105.407C248.005 106.277 248.442 107.325 248.442 108.55C248.442 109.775 248.005 110.806 247.132 111.644C246.259 112.482 245.207 112.901 243.978 112.901H209.534ZM147.721 113.385C146.492 113.385 145.457 112.966 144.616 112.128C143.775 111.29 143.354 110.258 143.354 109.033V49.8487C143.354 48.6237 143.775 47.5761 144.616 46.7057C145.457 45.8354 146.492 45.4002 147.721 45.4002H185.464C186.628 45.4002 187.614 45.8031 188.423 46.609C189.232 47.4149 189.636 48.3981 189.636 49.5586C189.636 50.7191 189.232 51.6861 188.423 52.4598C187.614 53.2334 186.628 53.6203 185.464 53.6203H152.184V74.9924H182.068C183.232 74.9924 184.219 75.3954 185.027 76.2013C185.836 77.0072 186.24 77.9903 186.24 79.1508C186.24 80.3113 185.836 81.2784 185.027 82.052C184.219 82.8257 183.232 83.2125 182.068 83.2125H152.184V109.033C152.184 110.258 151.747 111.29 150.874 112.128C150.001 112.966 148.95 113.385 147.721 113.385ZM260.76 112.128C261.568 112.966 262.62 113.385 263.913 113.385C264.819 113.385 265.644 113.143 266.387 112.66C267.131 112.176 267.697 111.515 268.085 110.677L274.392 95.591H307.381L313.688 110.677C314.076 111.515 314.642 112.176 315.385 112.66C316.129 113.143 316.954 113.385 317.86 113.385C319.153 113.385 320.204 112.966 321.013 112.128C321.822 111.29 322.226 110.258 322.226 109.033C322.226 108.517 322.064 107.873 321.741 107.099L296.999 48.8816C296.482 47.7211 295.754 46.7702 294.816 46.0288C293.878 45.2873 292.73 44.9166 291.372 44.9166H290.401C289.043 44.9166 287.895 45.2873 286.957 46.0288C286.019 46.7702 285.291 47.7211 284.774 48.8816L260.032 107.099C259.709 107.873 259.547 108.517 259.547 109.033C259.547 110.258 259.951 111.29 260.76 112.128ZM303.985 87.5643L290.886 56.1346L277.788 87.5643H303.985ZM347.776 108.936C349.134 111.902 351.14 113.385 353.792 113.385H355.926C358.578 113.385 360.583 111.902 361.942 108.936L385.907 51.0092C386.101 50.4934 386.198 49.9454 386.198 49.3652C386.198 48.0113 385.81 46.9314 385.034 46.1255C384.258 45.3196 383.19 44.9166 381.832 44.9166C380.926 44.9166 380.102 45.1906 379.358 45.7387C378.614 46.2867 378.048 47.012 377.66 47.9146L354.859 104.585L332.058 47.9146C331.67 47.012 331.104 46.2867 330.36 45.7387C329.616 45.1906 328.791 44.9166 327.886 44.9166C326.527 44.9166 325.46 45.3196 324.684 46.1255C323.908 46.9314 323.52 48.0113 323.52 49.3652C323.52 49.9454 323.617 50.4934 323.811 51.0092L347.776 108.936ZM439.874 102.167C436.057 104.488 431.562 105.648 426.387 105.648C421.148 105.648 416.636 104.488 412.852 102.167C409.068 99.8461 406.173 96.687 404.168 92.6898C402.163 88.6925 401.16 84.1796 401.16 79.1508C401.16 74.122 402.163 69.6091 404.168 65.6119C406.173 61.6147 409.068 58.4556 412.852 56.1346C416.636 53.8137 421.148 52.6532 426.387 52.6532C431.562 52.6532 436.057 53.8137 439.874 56.1346C443.69 58.4556 446.601 61.6147 448.606 65.6119C450.611 69.6091 451.614 74.122 451.614 79.1508C451.614 84.1796 450.611 88.6925 448.606 92.6898C446.601 96.687 443.69 99.8461 439.874 102.167ZM500.935 113.869C496.343 113.869 491.912 112.901 487.643 110.967C483.374 109.033 479.881 106.084 477.164 102.119C474.447 98.1537 473.089 93.3023 473.089 87.5643V49.3652C473.089 48.1402 473.509 47.0926 474.35 46.2222C475.191 45.3518 476.226 44.9166 477.455 44.9166C478.684 44.9166 479.735 45.3518 480.608 46.2222C481.482 47.0926 481.918 48.1402 481.918 49.3652V87.8544C481.918 91.7227 482.808 95.0107 484.587 97.7185C486.365 100.426 488.71 102.457 491.621 103.811C494.532 105.165 497.637 105.842 500.935 105.842C504.234 105.842 507.339 105.165 510.25 103.811C513.161 102.457 515.505 100.426 517.284 97.7185C519.063 95.0107 519.952 91.7227 519.952 87.8544V49.3652C519.952 48.1402 520.373 47.0926 521.214 46.2222C522.055 45.3518 523.09 44.9166 524.319 44.9166C525.548 44.9166 526.599 45.3518 527.472 46.2222C528.345 47.0926 528.782 48.1402 528.782 49.3652V87.5643C528.782 93.3023 527.424 98.1537 524.707 102.119C521.99 106.084 518.497 109.033 514.228 110.967C509.959 112.901 505.528 113.869 500.935 113.869ZM546.764 112.128C547.605 112.966 548.64 113.385 549.869 113.385C551.098 113.385 552.149 112.966 553.022 112.128C553.895 111.29 554.332 110.258 554.332 109.033V86.5972H574.416C578.88 86.5972 582.211 87.6771 584.41 89.8369C586.609 91.9967 588 94.4466 588.582 97.1866C589.164 99.9267 589.455 102.908 589.455 106.132V109.033C589.455 110.323 589.86 111.37 590.668 112.176C591.477 112.982 592.56 113.385 593.919 113.385C595.148 113.385 596.182 112.966 597.023 112.128C597.864 111.29 598.285 110.258 598.285 109.033V104.585C598.285 100.201 597.428 95.7361 595.714 91.1908C593.999 86.6456 590.814 83.7605 586.156 82.5356C590.296 81.1172 593.45 78.8124 595.616 75.621C597.783 72.4297 598.867 68.8999 598.867 65.0316C598.867 59.1647 596.668 54.4262 592.269 50.8158C587.871 47.2054 581.273 45.4002 572.476 45.4002H549.869C548.64 45.4002 547.605 45.8354 546.764 46.7057C545.923 47.5761 545.503 48.6237 545.503 49.8487V109.033C545.503 110.258 545.923 111.29 546.764 112.128ZM571.894 78.2805C577.456 78.2805 581.871 77.1845 585.138 74.9924C588.404 72.8004 590.037 69.7058 590.037 65.7086C590.037 61.8403 588.631 58.8747 585.817 56.8116C583.003 54.7485 578.2 53.717 571.409 53.717H554.332V78.2805H571.894ZM613.914 109.227C621.094 112.321 628.791 113.869 637.006 113.869C641.922 113.869 646.256 113.063 650.008 111.451C653.759 109.839 656.67 107.599 658.74 104.73C660.81 101.861 661.845 98.6211 661.845 95.0107C661.845 90.6267 660.729 87.1453 658.497 84.5664C656.266 81.9875 653.581 80.0857 650.444 78.8607C647.307 77.6357 643.183 76.4108 638.073 75.1858C634.128 74.2832 631.007 73.429 628.71 72.6231C626.414 71.8172 624.506 70.689 622.986 69.2384C621.466 67.7878 620.706 65.902 620.706 63.581C620.706 60.0996 622.307 57.3918 625.509 55.4577C628.71 53.5235 632.866 52.5565 637.976 52.5565C643.345 52.5565 648.552 53.4268 653.598 55.1676C654.244 55.4254 654.762 55.5544 655.15 55.5544C656.314 55.5544 657.252 55.1353 657.964 54.2972C658.675 53.4591 659.031 52.5242 659.031 51.4927C659.031 49.5586 658.125 48.2691 656.314 47.6244C650.557 45.4969 644.121 44.4331 637.006 44.4331C631.702 44.4331 627.158 45.3196 623.374 47.0925C619.59 48.8655 616.728 51.2509 614.787 54.2488C612.847 57.2468 611.876 60.5831 611.876 64.258C611.876 68.4486 613.041 71.8011 615.369 74.3155C617.698 76.8299 620.479 78.7156 623.714 79.9728C626.948 81.23 631.185 82.5355 636.424 83.8894C640.37 84.921 643.41 85.8075 645.544 86.5489C647.679 87.2903 649.474 88.3057 650.929 89.5951C652.385 90.8846 653.112 92.4963 653.112 94.4305C653.112 101.845 647.453 105.552 636.133 105.552C629.341 105.552 622.97 104.23 617.019 101.587C616.437 101.329 615.822 101.2 615.175 101.2C614.011 101.2 613.057 101.603 612.313 102.409C611.569 103.215 611.197 104.166 611.197 105.262C611.197 106.1 611.456 106.89 611.973 107.631C612.491 108.372 613.138 108.904 613.914 109.227Z" fill="black"/>
<path d="M46.0434 136.136C46.0434 132.4 43.0159 129.372 39.2814 129.372C35.5468 129.372 32.5193 132.4 32.5193 136.136V163.038C32.5193 166.773 35.5468 169.801 39.2814 169.801C43.0159 169.801 46.0434 166.773 46.0434 163.038V136.136Z" fill="#FFC99D"/>
<path d="M64.3305 0H14.1161C7.42456 0 2 5.42546 2 12.1181V122.528C2 129.22 7.42456 134.646 14.1161 134.646H64.3305C71.0221 134.646 76.4466 129.22 76.4466 122.528V12.1181C76.4466 5.42546 71.0221 0 64.3305 0Z" fill="url(#paint0_linear)"/>
<path d="M2 99.7549H76.4466V122.645C76.4466 129.337 71.0221 134.763 64.3305 134.763H14.1161C7.42456 134.763 2 129.337 2 122.645V99.7549Z" fill="url(#paint1_linear)"/>
<path d="M13.9369 0H65.7029C71.651 0 76.4728 4.82263 76.4728 10.7717V37.743C76.4728 43.692 71.651 48.5146 65.7029 48.5146H12.8599C6.91192 48.5146 2.09009 43.692 2.09009 37.743V11.8488C2.09009 5.3049 7.3941 0 13.9369 0ZM14.2062 99.755H64.3567C71.0482 99.755 76.4728 105.18 76.4728 111.873V122.645C76.4728 129.337 71.0482 134.763 64.3567 134.763H14.2062C7.51465 134.763 2.09009 129.337 2.09009 122.645V111.873C2.09009 105.18 7.51465 99.755 14.2062 99.755Z" fill="url(#paint2_linear)" fill-opacity="0.1"/>
<mask id="mask0" mask-type="alpha" maskUnits="userSpaceOnUse" x="2" y="30" width="75" height="50">
<path d="M76.4466 30.5645H2V79.0369H76.4466V30.5645Z" fill="white"/>
</mask>
<g mask="url(#mask0)">
<path fill-rule="evenodd" clip-rule="evenodd" d="M2 78.3572C12.7699 64.4481 24.8859 59.7376 38.3483 64.2258C51.8106 68.714 64.5188 66.252 76.4728 56.8398V34.6038C64.5188 43.5801 51.8106 45.8242 38.3483 41.336C24.8859 36.8479 12.7699 41.7912 2 56.166V78.3572Z" fill="url(#paint3_linear)"/>
</g>
<mask id="mask1" mask-type="alpha" maskUnits="userSpaceOnUse" x="2" y="74" width="75" height="49">
<path d="M76.4466 74.0552H2V122.528H76.4466V74.0552Z" fill="white"/>
</mask>
<g mask="url(#mask1)">
<path fill-rule="evenodd" clip-rule="evenodd" d="M2 121.848C12.7699 107.939 24.8859 103.228 38.3483 107.717C51.8106 112.205 64.5188 109.743 76.4728 100.331V78.0945C64.5188 87.0709 51.8106 89.315 38.3483 84.8268C24.8859 80.3386 12.7699 85.2819 2 99.6568V121.848Z" fill="url(#paint4_linear)"/>
</g>
<mask id="mask2" mask-type="alpha" maskUnits="userSpaceOnUse" x="2" y="52" width="75" height="49">
<path d="M76.4466 52.5117H2V100.984H76.4466V52.5117Z" fill="white"/>
</mask>
<g mask="url(#mask2)">
<path fill-rule="evenodd" clip-rule="evenodd" d="M2 100.305C12.7699 86.3954 24.8859 81.6849 38.3483 86.1731C51.8106 90.6613 64.5188 88.1993 76.4728 78.7871V56.551C64.5188 65.5274 51.8106 67.7715 38.3483 63.2833C24.8859 58.7951 12.7699 63.7385 2 78.1133V100.305Z" fill="url(#paint5_linear)"/>
</g>
<mask id="mask3" mask-type="alpha" maskUnits="userSpaceOnUse" x="2" y="8" width="75" height="50">
<path d="M76.4466 8.75195H2V57.2244H76.4466V8.75195Z" fill="white"/>
</mask>
<g mask="url(#mask3)">
<path fill-rule="evenodd" clip-rule="evenodd" d="M2 56.5447C12.7699 42.6356 24.8859 37.9251 38.3483 42.4133C51.8106 46.9015 64.5188 44.4395 76.4728 35.0273V12.7913C64.5188 21.7676 51.8106 24.0117 38.3483 19.5235C24.8859 15.0354 12.7699 19.9787 2 34.3535V56.5447Z" fill="url(#paint6_linear)"/>
</g>
<path d="M13.8468 0H65.6128C71.5609 0 76.3827 4.82263 76.3827 10.7717V37.743C76.3827 43.692 71.5609 48.5146 65.6128 48.5146H12.7699C6.82183 48.5146 2 43.692 2 37.743V11.8488C2 5.3049 7.30401 0 13.8468 0Z" fill="url(#paint7_linear)" fill-opacity="0.1"/>
<path d="M37.9042 35.0383H40.6585C43.6325 35.0383 46.0434 37.4496 46.0434 40.4242V144.197C46.0434 144.941 45.4407 145.544 44.6972 145.544H33.8655C33.122 145.544 32.5193 144.941 32.5193 144.197V40.4242C32.5193 37.4496 34.9302 35.0383 37.9042 35.0383Z" fill="#75675B" fill-opacity="0.33"/>
<path d="M47.3959 59.2957L31.167 59.2957L31.167 134.763H47.3959L47.3959 59.2957Z" fill="url(#paint8_linear)" fill-opacity="0.5"/>
<g opacity="0.701032">
<path opacity="0.701032" d="M35.8943 151.608C35.8943 151.236 35.593 150.935 35.2212 150.935C34.8495 150.935 34.5481 151.236 34.5481 151.608V156.999C34.5481 157.371 34.8495 157.673 35.2212 157.673C35.593 157.673 35.8943 157.371 35.8943 156.999V151.608Z" fill="#E49351" fill-opacity="0.25"/>
<path opacity="0.701032" d="M45.3611 152.955C45.3611 152.584 45.0598 152.282 44.688 152.282C44.3163 152.282 44.0149 152.584 44.0149 152.955V158.347C44.0149 158.719 44.3163 159.02 44.688 159.02C45.0598 159.02 45.3611 158.719 45.3611 158.347V152.955Z" fill="#E49351" fill-opacity="0.25"/>
<path opacity="0.701032" d="M41.3042 136.784C41.3042 136.412 41.0029 136.111 40.6311 136.111C40.2594 136.111 39.958 136.412 39.958 136.784V142.175C39.958 142.547 40.2594 142.849 40.6311 142.849C41.0029 142.849 41.3042 142.547 41.3042 142.175V136.784Z" fill="#A15F29" fill-opacity="0.15"/>
<path opacity="0.701032" d="M38.5992 136.784C38.5992 136.412 38.2978 136.111 37.926 136.111C37.5543 136.111 37.2529 136.412 37.2529 136.784V139.48C37.2529 139.852 37.5543 140.153 37.926 140.153C38.2978 140.153 38.5992 139.852 38.5992 139.48V136.784Z" fill="#A15F29" fill-opacity="0.15"/>
<path opacity="0.701032" d="M37.2469 156.998C37.2469 156.626 36.9455 156.325 36.5738 156.325C36.202 156.325 35.9006 156.626 35.9006 156.998V162.39C35.9006 162.762 36.202 163.063 36.5738 163.063C36.9455 163.063 37.2469 162.762 37.2469 162.39V156.998Z" fill="#E49351" fill-opacity="0.25"/>
<path opacity="0.701032" d="M42.6565 146.217C42.6565 145.845 42.3552 145.544 41.9834 145.544C41.6117 145.544 41.3103 145.845 41.3103 146.217V151.609C41.3103 151.981 41.6117 152.282 41.9834 152.282C42.3552 152.282 42.6565 151.981 42.6565 151.609V146.217Z" fill="#E49351" fill-opacity="0.25"/>
<path opacity="0.701032" d="M34.542 152.955C34.542 152.584 34.2407 152.282 33.8689 152.282C33.4972 152.282 33.1958 152.584 33.1958 152.955V155.652C33.1958 156.024 33.4972 156.325 33.8689 156.325C34.2407 156.325 34.542 156.024 34.542 155.652V152.955Z" fill="#E49351" fill-opacity="0.25"/>
<path opacity="0.701032" d="M39.9517 142.174C39.9517 141.802 39.6503 141.501 39.2786 141.501C38.9068 141.501 38.6055 141.802 38.6055 142.174V144.871C38.6055 145.242 38.9068 145.544 39.2786 145.544C39.6503 145.544 39.9517 145.242 39.9517 144.871V142.174Z" fill="#A15F29" fill-opacity="0.15"/>
<path opacity="0.701032" d="M34.542 139.479C34.542 139.107 34.2407 138.806 33.8689 138.806C33.4972 138.806 33.1958 139.107 33.1958 139.479V142.175C33.1958 142.547 33.4972 142.849 33.8689 142.849C34.2407 142.849 34.542 142.547 34.542 142.175V139.479Z" fill="#A15F29" fill-opacity="0.15"/>
<path opacity="0.701032" d="M37.2469 139.479C37.2469 139.107 36.9455 138.806 36.5738 138.806C36.202 138.806 35.9006 139.107 35.9006 139.479V142.175C35.9006 142.547 36.202 142.849 36.5738 142.849C36.9455 142.849 37.2469 142.547 37.2469 142.175V139.479Z" fill="#A15F29" fill-opacity="0.15"/>
<path opacity="0.701032" d="M35.8943 135.436C35.8943 135.064 35.593 134.763 35.2212 134.763C34.8495 134.763 34.5481 135.064 34.5481 135.436V138.133C34.5481 138.504 34.8495 138.806 35.2212 138.806C35.593 138.806 35.8943 138.504 35.8943 138.133V135.436Z" fill="#A15F29" fill-opacity="0.15"/>
<path opacity="0.701032" d="M34.542 159.693C34.542 159.322 34.2407 159.02 33.8689 159.02C33.4972 159.02 33.1958 159.322 33.1958 159.693V165.085C33.1958 165.457 33.4972 165.758 33.8689 165.758C34.2407 165.758 34.542 165.457 34.542 165.085V159.693Z" fill="#E49351" fill-opacity="0.25"/>
<path opacity="0.701032" d="M39.9517 148.912C39.9517 148.541 39.6503 148.239 39.2786 148.239C38.9068 148.239 38.6055 148.541 38.6055 148.912V154.304C38.6055 154.676 38.9068 154.977 39.2786 154.977C39.6503 154.977 39.9517 154.676 39.9517 154.304V148.912Z" fill="#E49351" fill-opacity="0.25"/>
<path opacity="0.701032" d="M38.5992 161.041C38.5992 160.669 38.2978 160.368 37.926 160.368C37.5543 160.368 37.2529 160.669 37.2529 161.041V167.107C37.2529 167.478 37.5543 167.78 37.926 167.78C38.2978 167.78 38.5992 167.478 38.5992 167.107V161.041Z" fill="#E49351" fill-opacity="0.25"/>
<path opacity="0.701032" d="M44.0091 151.608C44.0091 151.236 43.7077 150.935 43.336 150.935C42.9642 150.935 42.6628 151.236 42.6628 151.608V157.673C42.6628 158.045 42.9642 158.347 43.336 158.347C43.7077 158.347 44.0091 158.045 44.0091 157.673V151.608Z" fill="#E49351" fill-opacity="0.25"/>
<path opacity="0.701032" d="M37.2469 147.565C37.2469 147.193 36.9455 146.892 36.5738 146.892C36.202 146.892 35.9006 147.193 35.9006 147.565V152.957C35.9006 153.328 36.202 153.63 36.5738 153.63C36.9455 153.63 37.2469 153.328 37.2469 152.957V147.565Z" fill="#E49351" fill-opacity="0.25"/>
<path opacity="0.701032" d="M42.6565 162.389C42.6565 162.017 42.3552 161.716 41.9834 161.716C41.6117 161.716 41.3103 162.017 41.3103 162.389V167.781C41.3103 168.152 41.6117 168.454 41.9834 168.454C42.3552 168.454 42.6565 168.152 42.6565 167.781V162.389Z" fill="#E49351" fill-opacity="0.25"/>
<path opacity="0.701032" d="M41.3042 158.346C41.3042 157.974 41.0029 157.673 40.6311 157.673C40.2594 157.673 39.958 157.974 39.958 158.346V163.738C39.958 164.109 40.2594 164.411 40.6311 164.411C41.0029 164.411 41.3042 164.109 41.3042 163.738V158.346Z" fill="#E49351" fill-opacity="0.25"/>
<path opacity="0.701032" d="M42.6565 136.784C42.6565 136.412 42.3552 136.111 41.9834 136.111C41.6117 136.111 41.3103 136.412 41.3103 136.784V142.175C41.3103 142.547 41.6117 142.849 41.9834 142.849C42.3552 142.849 42.6565 142.547 42.6565 142.175V136.784Z" fill="#A15F29" fill-opacity="0.15"/>
<path opacity="0.701032" d="M38.5992 148.912C38.5992 148.541 38.2978 148.239 37.926 148.239C37.5543 148.239 37.2529 148.541 37.2529 148.912V154.304C37.2529 154.676 37.5543 154.977 37.926 154.977C38.2978 154.977 38.5992 154.676 38.5992 154.304V148.912Z" fill="#E49351" fill-opacity="0.25"/>
<path opacity="0.701032" d="M44.0091 139.479C44.0091 139.107 43.7077 138.806 43.336 138.806C42.9642 138.806 42.6628 139.107 42.6628 139.479V144.871C42.6628 145.242 42.9642 145.544 43.336 145.544C43.7077 145.544 44.0091 145.242 44.0091 144.871V139.479Z" fill="#A15F29" fill-opacity="0.15"/>
<path opacity="0.701032" d="M34.542 147.565C34.542 147.193 34.2407 146.892 33.8689 146.892C33.4972 146.892 33.1958 147.193 33.1958 147.565V148.914C33.1958 149.285 33.4972 149.587 33.8689 149.587C34.2407 149.587 34.542 149.285 34.542 148.914V147.565Z" fill="#E49351" fill-opacity="0.25"/>
<path opacity="0.701032" d="M44.0091 165.084C44.0091 164.712 43.7077 164.411 43.336 164.411C42.9642 164.411 42.6628 164.712 42.6628 165.084V166.433C42.6628 166.805 42.9642 167.106 43.336 167.106C43.7077 167.106 44.0091 166.805 44.0091 166.433V165.084Z" fill="#E49351" fill-opacity="0.25"/>
<path opacity="0.701032" d="M37.2469 165.084C37.2469 164.712 36.9455 164.411 36.5738 164.411C36.202 164.411 35.9006 164.712 35.9006 165.084V167.781C35.9006 168.152 36.202 168.454 36.5738 168.454C36.9455 168.454 37.2469 168.152 37.2469 167.781V165.084Z" fill="#E49351" fill-opacity="0.25"/>
<path opacity="0.701032" d="M39.9517 165.758C39.9517 165.386 39.6503 165.084 39.2786 165.084C38.9068 165.084 38.6055 165.386 38.6055 165.758V168.454C38.6055 168.826 38.9068 169.127 39.2786 169.127C39.6503 169.127 39.9517 168.826 39.9517 168.454V165.758Z" fill="#E49351" fill-opacity="0.25"/>
<path opacity="0.701032" d="M42.6565 154.303C42.6565 153.931 42.3552 153.63 41.9834 153.63C41.6117 153.63 41.3103 153.931 41.3103 154.303V156.999C41.3103 157.371 41.6117 157.673 41.9834 157.673C42.3552 157.673 42.6565 157.371 42.6565 156.999V154.303Z" fill="#E49351" fill-opacity="0.25"/>
<path opacity="0.701032" d="M35.8943 159.693C35.8943 159.322 35.593 159.02 35.2212 159.02C34.8495 159.02 34.5481 159.322 34.5481 159.693V161.042C34.5481 161.414 34.8495 161.716 35.2212 161.716C35.593 161.716 35.8943 161.414 35.8943 161.042V159.693Z" fill="#E49351" fill-opacity="0.25"/>
<path opacity="0.701032" d="M41.3042 148.912C41.3042 148.541 41.0029 148.239 40.6311 148.239C40.2594 148.239 39.958 148.541 39.958 148.912V150.261C39.958 150.633 40.2594 150.935 40.6311 150.935C41.0029 150.935 41.3042 150.633 41.3042 150.261V148.912Z" fill="#E49351" fill-opacity="0.25"/>
<path opacity="0.701032" d="M39.9517 162.389C39.9517 162.017 39.6503 161.716 39.2786 161.716C38.9068 161.716 38.6055 162.017 38.6055 162.389V163.738C38.6055 164.109 38.9068 164.411 39.2786 164.411C39.6503 164.411 39.9517 164.109 39.9517 163.738V162.389Z" fill="#E49351" fill-opacity="0.25"/>
<path opacity="0.701032" d="M38.5992 156.998C38.5992 156.626 38.2978 156.325 37.926 156.325C37.5543 156.325 37.2529 156.626 37.2529 156.998V158.347C37.2529 158.719 37.5543 159.02 37.926 159.02C38.2978 159.02 38.5992 158.719 38.5992 158.347V156.998Z" fill="#E49351" fill-opacity="0.25"/>
<path opacity="0.701032" d="M45.3611 160.367C45.3611 159.996 45.0598 159.694 44.688 159.694C44.3163 159.694 44.0149 159.996 44.0149 160.367V161.716C44.0149 162.088 44.3163 162.389 44.688 162.389C45.0598 162.389 45.3611 162.088 45.3611 161.716V160.367Z" fill="#E49351" fill-opacity="0.25"/>
<path opacity="0.701032" d="M45.3611 146.217C45.3611 145.845 45.0598 145.544 44.688 145.544C44.3163 145.544 44.0149 145.845 44.0149 146.217V150.261C44.0149 150.633 44.3163 150.934 44.688 150.934C45.0598 150.934 45.3611 150.633 45.3611 150.261V146.217Z" fill="#E49351" fill-opacity="0.25"/>
<path opacity="0.701032" d="M44.0091 147.565C44.0091 147.193 43.7077 146.892 43.336 146.892C42.9642 146.892 42.6628 147.193 42.6628 147.565V148.914C42.6628 149.285 42.9642 149.587 43.336 149.587C43.7077 149.587 44.0091 149.285 44.0091 148.914V147.565Z" fill="#E49351" fill-opacity="0.25"/>
<path opacity="0.701032" d="M35.8943 163.736C35.8943 163.365 35.593 163.063 35.2212 163.063C34.8495 163.063 34.5481 163.365 34.5481 163.736V166.433C34.5481 166.805 34.8495 167.106 35.2212 167.106C35.593 167.106 35.8943 166.805 35.8943 166.433V163.736Z" fill="#E49351" fill-opacity="0.25"/>
<path opacity="0.701032" d="M39.9517 156.998C39.9517 156.626 39.6503 156.325 39.2786 156.325C38.9068 156.325 38.6055 156.626 38.6055 156.998V159.695C38.6055 160.066 38.9068 160.368 39.2786 160.368C39.6503 160.368 39.9517 160.066 39.9517 159.695V156.998Z" fill="#E49351" fill-opacity="0.25"/>
<path opacity="0.701032" d="M41.3042 167.106C41.3042 166.734 41.0029 166.432 40.6311 166.432C40.2594 166.432 39.958 166.734 39.958 167.106V168.454C39.958 168.826 40.2594 169.128 40.6311 169.128C41.0029 169.128 41.3042 168.826 41.3042 168.454V167.106Z" fill="#E49351" fill-opacity="0.25"/>
<path opacity="0.701032" d="M44.0091 159.693C44.0091 159.322 43.7077 159.02 43.336 159.02C42.9642 159.02 42.6628 159.322 42.6628 159.693V162.39C42.6628 162.762 42.9642 163.063 43.336 163.063C43.7077 163.063 44.0091 162.762 44.0091 162.39V159.693Z" fill="#E49351" fill-opacity="0.25"/>
<path opacity="0.701032" d="M41.3042 152.955C41.3042 152.584 41.0029 152.282 40.6311 152.282C40.2594 152.282 39.958 152.584 39.958 152.955V155.652C39.958 156.024 40.2594 156.325 40.6311 156.325C41.0029 156.325 41.3042 156.024 41.3042 155.652V152.955Z" fill="#E49351" fill-opacity="0.25"/>
<path opacity="0.701032" d="M45.3611 163.736C45.3611 163.365 45.0598 163.063 44.688 163.063C44.3163 163.063 44.0149 163.365 44.0149 163.736V166.433C44.0149 166.805 44.3163 167.106 44.688 167.106C45.0598 167.106 45.3611 166.805 45.3611 166.433V163.736Z" fill="#E49351" fill-opacity="0.25"/>
<path opacity="0.701032" fill-rule="evenodd" clip-rule="evenodd" d="M34.5481 145.544H35.2243V147.903C35.2243 148.088 35.0736 148.239 34.8877 148.239H34.8847C34.6988 148.239 34.5481 148.088 34.5481 147.903V145.544Z" fill="#E49351" fill-opacity="0.25"/>
<path opacity="0.701032" fill-rule="evenodd" clip-rule="evenodd" d="M37.2529 145.544H37.9291V146.555C37.9291 146.741 37.7785 146.892 37.5926 146.892H37.5895C37.4036 146.892 37.2529 146.741 37.2529 146.555V145.544Z" fill="#E49351" fill-opacity="0.25"/>
<path opacity="0.701032" fill-rule="evenodd" clip-rule="evenodd" d="M39.958 145.544H40.6342V146.555C40.6342 146.741 40.4835 146.892 40.2977 146.892H40.2946C40.1087 146.892 39.958 146.741 39.958 146.555V145.544Z" fill="#E49351" fill-opacity="0.25"/>
<path opacity="0.701032" fill-rule="evenodd" clip-rule="evenodd" d="M35.2244 145.544H34.5482V143.185C34.5482 142.999 34.6988 142.849 34.8847 142.849H34.8878C35.0737 142.849 35.2244 142.999 35.2244 143.185V145.544Z" fill="#A15F29" fill-opacity="0.15"/>
<path opacity="0.701032" fill-rule="evenodd" clip-rule="evenodd" d="M37.9294 145.544H37.2532V141.838C37.2532 141.652 37.4039 141.501 37.5898 141.501H37.5929C37.7788 141.501 37.9294 141.652 37.9294 141.838V145.544Z" fill="#A15F29" fill-opacity="0.15"/>
<path opacity="0.701032" fill-rule="evenodd" clip-rule="evenodd" d="M40.634 145.544H39.9578V144.533C39.9578 144.347 40.1085 144.196 40.2944 144.196H40.2975C40.4834 144.196 40.634 144.347 40.634 144.533V145.544Z" fill="#A15F29" fill-opacity="0.15"/>
</g>
<g opacity="0.369792">
<path opacity="0.369792" d="M35.8943 119.265C35.8943 118.893 35.593 118.592 35.2212 118.592C34.8495 118.592 34.5481 118.893 34.5481 119.265V124.656C34.5481 125.028 34.8495 125.33 35.2212 125.33C35.593 125.33 35.8943 125.028 35.8943 124.656V119.265Z" fill="#A15F29" fill-opacity="0.1"/>
<path opacity="0.369792" d="M45.3611 120.612C45.3611 120.241 45.0598 119.939 44.688 119.939C44.3163 119.939 44.0149 120.241 44.0149 120.612V126.004C44.0149 126.376 44.3163 126.677 44.688 126.677C45.0598 126.677 45.3611 126.376 45.3611 126.004V120.612Z" fill="#A15F29" fill-opacity="0.1"/>
<path opacity="0.369792" d="M41.3042 104.441C41.3042 104.069 41.0029 103.768 40.6311 103.768C40.2594 103.768 39.958 104.069 39.958 104.441V109.832C39.958 110.204 40.2594 110.506 40.6311 110.506C41.0029 110.506 41.3042 110.204 41.3042 109.832V104.441Z" fill="#A15F29" fill-opacity="0.1"/>
<path opacity="0.369792" d="M38.5992 104.441C38.5992 104.069 38.2978 103.768 37.926 103.768C37.5543 103.768 37.2529 104.069 37.2529 104.441V107.137C37.2529 107.509 37.5543 107.81 37.926 107.81C38.2978 107.81 38.5992 107.509 38.5992 107.137V104.441Z" fill="#A15F29" fill-opacity="0.1"/>
<path opacity="0.369792" d="M37.2469 124.655C37.2469 124.283 36.9455 123.982 36.5738 123.982C36.202 123.982 35.9006 124.283 35.9006 124.655V130.047C35.9006 130.419 36.202 130.72 36.5738 130.72C36.9455 130.72 37.2469 130.419 37.2469 130.047V124.655Z" fill="#A15F29" fill-opacity="0.1"/>
<path opacity="0.369792" d="M42.6565 113.874C42.6565 113.502 42.3552 113.201 41.9834 113.201C41.6117 113.201 41.3103 113.502 41.3103 113.874V119.266C41.3103 119.638 41.6117 119.939 41.9834 119.939C42.3552 119.939 42.6565 119.638 42.6565 119.266V113.874Z" fill="#A15F29" fill-opacity="0.1"/>
<path opacity="0.369792" d="M34.542 120.612C34.542 120.241 34.2407 119.939 33.8689 119.939C33.4972 119.939 33.1958 120.241 33.1958 120.612V123.309C33.1958 123.681 33.4972 123.982 33.8689 123.982C34.2407 123.982 34.542 123.681 34.542 123.309V120.612Z" fill="#A15F29" fill-opacity="0.1"/>
<path opacity="0.369792" d="M39.9517 109.831C39.9517 109.46 39.6503 109.158 39.2786 109.158C38.9068 109.158 38.6055 109.46 38.6055 109.831V112.528C38.6055 112.9 38.9068 113.201 39.2786 113.201C39.6503 113.201 39.9517 112.9 39.9517 112.528V109.831Z" fill="#A15F29" fill-opacity="0.1"/>
<path opacity="0.369792" d="M34.542 107.136C34.542 106.764 34.2407 106.463 33.8689 106.463C33.4972 106.463 33.1958 106.764 33.1958 107.136V109.832C33.1958 110.204 33.4972 110.506 33.8689 110.506C34.2407 110.506 34.542 110.204 34.542 109.832V107.136Z" fill="#A15F29" fill-opacity="0.1"/>
<path opacity="0.369792" d="M37.2469 107.136C37.2469 106.764 36.9455 106.463 36.5738 106.463C36.202 106.463 35.9006 106.764 35.9006 107.136V109.832C35.9006 110.204 36.202 110.506 36.5738 110.506C36.9455 110.506 37.2469 110.204 37.2469 109.832V107.136Z" fill="#A15F29" fill-opacity="0.1"/>
<path opacity="0.369792" d="M35.8943 103.093C35.8943 102.721 35.593 102.42 35.2212 102.42C34.8495 102.42 34.5481 102.721 34.5481 103.093V105.79C34.5481 106.161 34.8495 106.463 35.2212 106.463C35.593 106.463 35.8943 106.161 35.8943 105.79V103.093Z" fill="#A15F29" fill-opacity="0.1"/>
<path opacity="0.369792" d="M34.542 127.35C34.542 126.979 34.2407 126.677 33.8689 126.677C33.4972 126.677 33.1958 126.979 33.1958 127.35V132.742C33.1958 133.114 33.4972 133.415 33.8689 133.415C34.2407 133.415 34.542 133.114 34.542 132.742V127.35Z" fill="#A15F29" fill-opacity="0.1"/>
<path opacity="0.369792" d="M39.9517 116.569C39.9517 116.198 39.6503 115.896 39.2786 115.896C38.9068 115.896 38.6055 116.198 38.6055 116.569V121.961C38.6055 122.333 38.9068 122.634 39.2786 122.634C39.6503 122.634 39.9517 122.333 39.9517 121.961V116.569Z" fill="#A15F29" fill-opacity="0.1"/>
<path opacity="0.369792" d="M38.5992 128.698C38.5992 128.326 38.2978 128.025 37.926 128.025C37.5543 128.025 37.2529 128.326 37.2529 128.698V134.764C37.2529 135.135 37.5543 135.437 37.926 135.437C38.2978 135.437 38.5992 135.135 38.5992 134.764V128.698Z" fill="#A15F29" fill-opacity="0.1"/>
<path opacity="0.369792" d="M44.0091 119.265C44.0091 118.893 43.7077 118.592 43.336 118.592C42.9642 118.592 42.6628 118.893 42.6628 119.265V125.33C42.6628 125.702 42.9642 126.004 43.336 126.004C43.7077 126.004 44.0091 125.702 44.0091 125.33V119.265Z" fill="#A15F29" fill-opacity="0.1"/>
<path opacity="0.369792" d="M37.2469 115.222C37.2469 114.85 36.9455 114.549 36.5738 114.549C36.202 114.549 35.9006 114.85 35.9006 115.222V120.614C35.9006 120.985 36.202 121.287 36.5738 121.287C36.9455 121.287 37.2469 120.985 37.2469 120.614V115.222Z" fill="#A15F29" fill-opacity="0.1"/>
<path opacity="0.369792" d="M42.6565 130.046C42.6565 129.674 42.3552 129.373 41.9834 129.373C41.6117 129.373 41.3103 129.674 41.3103 130.046V135.437C41.3103 135.809 41.6117 136.111 41.9834 136.111C42.3552 136.111 42.6565 135.809 42.6565 135.437V130.046Z" fill="#A15F29" fill-opacity="0.1"/>
<path opacity="0.369792" d="M41.3042 126.003C41.3042 125.631 41.0029 125.33 40.6311 125.33C40.2594 125.33 39.958 125.631 39.958 126.003V131.395C39.958 131.766 40.2594 132.068 40.6311 132.068C41.0029 132.068 41.3042 131.766 41.3042 131.395V126.003Z" fill="#A15F29" fill-opacity="0.1"/>
<path opacity="0.369792" d="M42.6565 104.441C42.6565 104.069 42.3552 103.768 41.9834 103.768C41.6117 103.768 41.3103 104.069 41.3103 104.441V109.832C41.3103 110.204 41.6117 110.506 41.9834 110.506C42.3552 110.506 42.6565 110.204 42.6565 109.832V104.441Z" fill="#A15F29" fill-opacity="0.1"/>
<path opacity="0.369792" d="M38.5992 116.569C38.5992 116.198 38.2978 115.896 37.926 115.896C37.5543 115.896 37.2529 116.198 37.2529 116.569V121.961C37.2529 122.333 37.5543 122.634 37.926 122.634C38.2978 122.634 38.5992 122.333 38.5992 121.961V116.569Z" fill="#A15F29" fill-opacity="0.1"/>
<path opacity="0.369792" d="M44.0091 107.136C44.0091 106.764 43.7077 106.463 43.336 106.463C42.9642 106.463 42.6628 106.764 42.6628 107.136V112.528C42.6628 112.899 42.9642 113.201 43.336 113.201C43.7077 113.201 44.0091 112.899 44.0091 112.528V107.136Z" fill="#A15F29" fill-opacity="0.1"/>
<path opacity="0.369792" d="M34.542 115.222C34.542 114.85 34.2407 114.549 33.8689 114.549C33.4972 114.549 33.1958 114.85 33.1958 115.222V116.571C33.1958 116.942 33.4972 117.244 33.8689 117.244C34.2407 117.244 34.542 116.942 34.542 116.571V115.222Z" fill="#A15F29" fill-opacity="0.1"/>
<path opacity="0.369792" d="M44.0091 132.741C44.0091 132.369 43.7077 132.068 43.336 132.068C42.9642 132.068 42.6628 132.369 42.6628 132.741V134.09C42.6628 134.461 42.9642 134.763 43.336 134.763C43.7077 134.763 44.0091 134.461 44.0091 134.09V132.741Z" fill="#A15F29" fill-opacity="0.1"/>
<path opacity="0.369792" d="M37.2469 132.741C37.2469 132.369 36.9455 132.068 36.5738 132.068C36.202 132.068 35.9006 132.369 35.9006 132.741V135.437C35.9006 135.809 36.202 136.11 36.5738 136.11C36.9455 136.11 37.2469 135.809 37.2469 135.437V132.741Z" fill="#A15F29" fill-opacity="0.1"/>
<path opacity="0.369792" d="M39.9517 133.415C39.9517 133.043 39.6503 132.741 39.2786 132.741C38.9068 132.741 38.6055 133.043 38.6055 133.415V136.111C38.6055 136.483 38.9068 136.784 39.2786 136.784C39.6503 136.784 39.9517 136.483 39.9517 136.111V133.415Z" fill="#A15F29" fill-opacity="0.1"/>
<path opacity="0.369792" d="M42.6565 121.96C42.6565 121.588 42.3552 121.287 41.9834 121.287C41.6117 121.287 41.3103 121.588 41.3103 121.96V124.656C41.3103 125.028 41.6117 125.33 41.9834 125.33C42.3552 125.33 42.6565 125.028 42.6565 124.656V121.96Z" fill="#A15F29" fill-opacity="0.1"/>
<path opacity="0.369792" d="M35.8943 127.35C35.8943 126.979 35.593 126.677 35.2212 126.677C34.8495 126.677 34.5481 126.979 34.5481 127.35V128.699C34.5481 129.071 34.8495 129.372 35.2212 129.372C35.593 129.372 35.8943 129.071 35.8943 128.699V127.35Z" fill="#A15F29" fill-opacity="0.1"/>
<path opacity="0.369792" d="M41.3042 116.569C41.3042 116.198 41.0029 115.896 40.6311 115.896C40.2594 115.896 39.958 116.198 39.958 116.569V117.918C39.958 118.29 40.2594 118.591 40.6311 118.591C41.0029 118.591 41.3042 118.29 41.3042 117.918V116.569Z" fill="#A15F29" fill-opacity="0.1"/>
<path opacity="0.369792" d="M39.9517 130.046C39.9517 129.674 39.6503 129.373 39.2786 129.373C38.9068 129.373 38.6055 129.674 38.6055 130.046V131.395C38.6055 131.766 38.9068 132.068 39.2786 132.068C39.6503 132.068 39.9517 131.766 39.9517 131.395V130.046Z" fill="#A15F29" fill-opacity="0.1"/>
<path opacity="0.369792" d="M38.5992 124.655C38.5992 124.283 38.2978 123.982 37.926 123.982C37.5543 123.982 37.2529 124.283 37.2529 124.655V126.004C37.2529 126.376 37.5543 126.677 37.926 126.677C38.2978 126.677 38.5992 126.376 38.5992 126.004V124.655Z" fill="#A15F29" fill-opacity="0.1"/>
<path opacity="0.369792" d="M45.3611 128.024C45.3611 127.652 45.0598 127.351 44.688 127.351C44.3163 127.351 44.0149 127.652 44.0149 128.024V129.373C44.0149 129.745 44.3163 130.046 44.688 130.046C45.0598 130.046 45.3611 129.745 45.3611 129.373V128.024Z" fill="#A15F29" fill-opacity="0.1"/>
<path opacity="0.369792" d="M45.3611 113.874C45.3611 113.502 45.0598 113.201 44.688 113.201C44.3163 113.201 44.0149 113.502 44.0149 113.874V117.918C44.0149 118.29 44.3163 118.591 44.688 118.591C45.0598 118.591 45.3611 118.29 45.3611 117.918V113.874Z" fill="#A15F29" fill-opacity="0.1"/>
<path opacity="0.369792" d="M44.0091 115.222C44.0091 114.85 43.7077 114.549 43.336 114.549C42.9642 114.549 42.6628 114.85 42.6628 115.222V116.571C42.6628 116.942 42.9642 117.244 43.336 117.244C43.7077 117.244 44.0091 116.942 44.0091 116.571V115.222Z" fill="#A15F29" fill-opacity="0.1"/>
<path opacity="0.369792" d="M35.8943 131.393C35.8943 131.022 35.593 130.72 35.2212 130.72C34.8495 130.72 34.5481 131.022 34.5481 131.393V134.09C34.5481 134.462 34.8495 134.763 35.2212 134.763C35.593 134.763 35.8943 134.462 35.8943 134.09V131.393Z" fill="#A15F29" fill-opacity="0.1"/>
<path opacity="0.369792" d="M39.9517 124.655C39.9517 124.283 39.6503 123.982 39.2786 123.982C38.9068 123.982 38.6055 124.283 38.6055 124.655V127.352C38.6055 127.723 38.9068 128.025 39.2786 128.025C39.6503 128.025 39.9517 127.723 39.9517 127.352V124.655Z" fill="#A15F29" fill-opacity="0.1"/>
<path opacity="0.369792" d="M41.3042 134.763C41.3042 134.391 41.0029 134.089 40.6311 134.089C40.2594 134.089 39.958 134.391 39.958 134.763V136.111C39.958 136.483 40.2594 136.785 40.6311 136.785C41.0029 136.785 41.3042 136.483 41.3042 136.111V134.763Z" fill="#A15F29" fill-opacity="0.1"/>
<path opacity="0.369792" d="M44.0091 127.35C44.0091 126.979 43.7077 126.677 43.336 126.677C42.9642 126.677 42.6628 126.979 42.6628 127.35V130.047C42.6628 130.419 42.9642 130.72 43.336 130.72C43.7077 130.72 44.0091 130.419 44.0091 130.047V127.35Z" fill="#A15F29" fill-opacity="0.1"/>
<path opacity="0.369792" d="M41.3042 120.612C41.3042 120.241 41.0029 119.939 40.6311 119.939C40.2594 119.939 39.958 120.241 39.958 120.612V123.309C39.958 123.681 40.2594 123.982 40.6311 123.982C41.0029 123.982 41.3042 123.681 41.3042 123.309V120.612Z" fill="#A15F29" fill-opacity="0.1"/>
<path opacity="0.369792" d="M45.3611 131.393C45.3611 131.022 45.0598 130.72 44.688 130.72C44.3163 130.72 44.0149 131.022 44.0149 131.393V134.09C44.0149 134.462 44.3163 134.763 44.688 134.763C45.0598 134.763 45.3611 134.462 45.3611 134.09V131.393Z" fill="#A15F29" fill-opacity="0.1"/>
<path opacity="0.369792" fill-rule="evenodd" clip-rule="evenodd" d="M34.5481 113.201H35.2243V115.56C35.2243 115.745 35.0736 115.896 34.8877 115.896H34.8847C34.6988 115.896 34.5481 115.745 34.5481 115.56V113.201Z" fill="#A15F29" fill-opacity="0.1"/>
<path opacity="0.369792" fill-rule="evenodd" clip-rule="evenodd" d="M37.2529 113.201H37.9291V114.212C37.9291 114.398 37.7785 114.549 37.5926 114.549H37.5895C37.4036 114.549 37.2529 114.398 37.2529 114.212V113.201Z" fill="#A15F29" fill-opacity="0.1"/>
<path opacity="0.369792" fill-rule="evenodd" clip-rule="evenodd" d="M39.958 113.201H40.6342V114.212C40.6342 114.398 40.4835 114.549 40.2977 114.549H40.2946C40.1087 114.549 39.958 114.398 39.958 114.212V113.201Z" fill="#A15F29" fill-opacity="0.1"/>
<path opacity="0.369792" fill-rule="evenodd" clip-rule="evenodd" d="M35.2244 113.201H34.5482V110.842C34.5482 110.656 34.6988 110.506 34.8847 110.506H34.8878C35.0737 110.506 35.2244 110.656 35.2244 110.842V113.201Z" fill="#A15F29" fill-opacity="0.1"/>
<path opacity="0.369792" fill-rule="evenodd" clip-rule="evenodd" d="M37.9294 113.201H37.2532V109.495C37.2532 109.309 37.4039 109.158 37.5898 109.158H37.5929C37.7788 109.158 37.9294 109.309 37.9294 109.495V113.201Z" fill="#A15F29" fill-opacity="0.1"/>
<path opacity="0.369792" fill-rule="evenodd" clip-rule="evenodd" d="M40.634 113.201H39.9578V112.19C39.9578 112.004 40.1085 111.853 40.2944 111.853H40.2975C40.4834 111.853 40.634 112.004 40.634 112.19V113.201Z" fill="#A15F29" fill-opacity="0.1"/>
</g>
<g opacity="0.3">
<path opacity="0.3" d="M41.9924 89.6168C41.9924 89.245 42.2938 88.9436 42.6655 88.9436C43.0373 88.9436 43.3386 89.245 43.3386 89.6168V95.0085C43.3386 95.3803 43.0373 95.6817 42.6655 95.6817C42.2938 95.6817 41.9924 95.3803 41.9924 95.0085V89.6168Z" fill="#A15F29" fill-opacity="0.1"/>
<path opacity="0.3" d="M32.5258 90.9645C32.5258 90.5927 32.8272 90.2913 33.199 90.2913C33.5707 90.2913 33.8721 90.5927 33.8721 90.9645V96.3562C33.8721 96.728 33.5707 97.0294 33.199 97.0294C32.8272 97.0294 32.5258 96.728 32.5258 96.3562V90.9645Z" fill="#A15F29" fill-opacity="0.1"/>
<path opacity="0.3" d="M36.5827 74.7929C36.5827 74.421 36.8841 74.1196 37.2558 74.1196C37.6276 74.1196 37.929 74.421 37.929 74.7929V80.1845C37.929 80.5563 37.6276 80.8578 37.2558 80.8578C36.8841 80.8578 36.5827 80.5563 36.5827 80.1845V74.7929Z" fill="#A15F29" fill-opacity="0.1"/>
<path opacity="0.3" d="M39.2878 74.7929C39.2878 74.421 39.5892 74.1196 39.9609 74.1196C40.3327 74.1196 40.634 74.421 40.634 74.7929V77.4893C40.634 77.8611 40.3327 78.1625 39.9609 78.1625C39.5892 78.1625 39.2878 77.8611 39.2878 77.4893V74.7929Z" fill="#A15F29" fill-opacity="0.1"/>
<path opacity="0.3" d="M40.6399 95.0072C40.6399 94.6354 40.9412 94.334 41.313 94.334C41.6847 94.334 41.9861 94.6354 41.9861 95.0072V100.399C41.9861 100.771 41.6847 101.072 41.313 101.072C40.9412 101.072 40.6399 100.771 40.6399 100.399V95.0072Z" fill="#A15F29" fill-opacity="0.1"/>
<path opacity="0.3" d="M35.2304 84.2262C35.2304 83.8544 35.5318 83.553 35.9035 83.553C36.2753 83.553 36.5767 83.8544 36.5767 84.2262V89.6179C36.5767 89.9897 36.2753 90.2911 35.9035 90.2911C35.5318 90.2911 35.2304 89.9897 35.2304 89.6179V84.2262Z" fill="#A15F29" fill-opacity="0.1"/>
<path opacity="0.3" d="M43.3449 90.9645C43.3449 90.5927 43.6463 90.2913 44.018 90.2913C44.3898 90.2913 44.6912 90.5927 44.6912 90.9645V93.6609C44.6912 94.0327 44.3898 94.3342 44.018 94.3342C43.6463 94.3342 43.3449 94.0327 43.3449 93.6609V90.9645Z" fill="#A15F29" fill-opacity="0.1"/>
<path opacity="0.3" d="M37.9353 80.1835C37.9353 79.8117 38.2366 79.5103 38.6084 79.5103C38.9801 79.5103 39.2815 79.8117 39.2815 80.1835V82.8799C39.2815 83.2517 38.9801 83.5531 38.6084 83.5531C38.2366 83.5531 37.9353 83.2517 37.9353 82.8799V80.1835Z" fill="#A15F29" fill-opacity="0.1"/>
<path opacity="0.3" d="M43.3449 77.4879C43.3449 77.1161 43.6463 76.8147 44.018 76.8147C44.3898 76.8147 44.6912 77.1161 44.6912 77.4879V80.1843C44.6912 80.5562 44.3898 80.8576 44.018 80.8576C43.6463 80.8576 43.3449 80.5562 43.3449 80.1843V77.4879Z" fill="#A15F29" fill-opacity="0.1"/>
<path opacity="0.3" d="M40.6399 77.4879C40.6399 77.1161 40.9412 76.8147 41.313 76.8147C41.6847 76.8147 41.9861 77.1161 41.9861 77.4879V80.1843C41.9861 80.5562 41.6847 80.8576 41.313 80.8576C40.9412 80.8576 40.6399 80.5562 40.6399 80.1843V77.4879Z" fill="#A15F29" fill-opacity="0.1"/>
<path opacity="0.3" d="M41.9924 73.4452C41.9924 73.0734 42.2938 72.772 42.6655 72.772C43.0373 72.772 43.3386 73.0734 43.3386 73.4452V76.1416C43.3386 76.5134 43.0373 76.8149 42.6655 76.8149C42.2938 76.8149 41.9924 76.5134 41.9924 76.1416V73.4452Z" fill="#A15F29" fill-opacity="0.1"/>
<path opacity="0.3" d="M43.3449 97.7025C43.3449 97.3307 43.6463 97.0293 44.018 97.0293C44.3898 97.0293 44.6912 97.3307 44.6912 97.7025V103.094C44.6912 103.466 44.3898 103.767 44.018 103.767C43.6463 103.767 43.3449 103.466 43.3449 103.094V97.7025Z" fill="#A15F29" fill-opacity="0.1"/>
<path opacity="0.3" d="M37.9353 86.9215C37.9353 86.5497 38.2366 86.2483 38.6084 86.2483C38.9801 86.2483 39.2815 86.5497 39.2815 86.9215V92.3132C39.2815 92.685 38.9801 92.9864 38.6084 92.9864C38.2366 92.9864 37.9353 92.685 37.9353 92.3132V86.9215Z" fill="#A15F29" fill-opacity="0.1"/>
<path opacity="0.3" d="M39.2878 99.0502C39.2878 98.6784 39.5892 98.377 39.9609 98.377C40.3327 98.377 40.634 98.6784 40.634 99.0502V105.116C40.634 105.487 40.3327 105.789 39.9609 105.789C39.5892 105.789 39.2878 105.487 39.2878 105.116V99.0502Z" fill="#A15F29" fill-opacity="0.1"/>
<path opacity="0.3" d="M33.8779 89.6168C33.8779 89.245 34.1793 88.9436 34.551 88.9436C34.9228 88.9436 35.2241 89.245 35.2241 89.6168V95.6823C35.2241 96.0541 34.9228 96.3555 34.551 96.3555C34.1793 96.3555 33.8779 96.0541 33.8779 95.6823V89.6168Z" fill="#A15F29" fill-opacity="0.1"/>
<path opacity="0.3" d="M40.6399 85.5739C40.6399 85.202 40.9412 84.9006 41.313 84.9006C41.6847 84.9006 41.9861 85.202 41.9861 85.5739V90.9655C41.9861 91.3373 41.6847 91.6388 41.313 91.6388C40.9412 91.6388 40.6399 91.3373 40.6399 90.9655V85.5739Z" fill="#A15F29" fill-opacity="0.1"/>
<path opacity="0.3" d="M35.2304 100.398C35.2304 100.026 35.5318 99.7246 35.9035 99.7246C36.2753 99.7246 36.5767 100.026 36.5767 100.398V105.79C36.5767 106.161 36.2753 106.463 35.9035 106.463C35.5318 106.463 35.2304 106.161 35.2304 105.79V100.398Z" fill="#A15F29" fill-opacity="0.1"/>
<path opacity="0.3" d="M36.5827 96.3549C36.5827 95.9831 36.8841 95.6816 37.2558 95.6816C37.6276 95.6816 37.929 95.9831 37.929 96.3549V101.747C37.929 102.118 37.6276 102.42 37.2558 102.42C36.8841 102.42 36.5827 102.118 36.5827 101.747V96.3549Z" fill="#A15F29" fill-opacity="0.1"/>
<path opacity="0.3" d="M35.2304 74.7929C35.2304 74.421 35.5318 74.1196 35.9035 74.1196C36.2753 74.1196 36.5767 74.421 36.5767 74.7929V80.1845C36.5767 80.5563 36.2753 80.8578 35.9035 80.8578C35.5318 80.8578 35.2304 80.5563 35.2304 80.1845V74.7929Z" fill="#A15F29" fill-opacity="0.1"/>
<path opacity="0.3" d="M39.2878 86.9215C39.2878 86.5497 39.5892 86.2483 39.9609 86.2483C40.3327 86.2483 40.634 86.5497 40.634 86.9215V92.3132C40.634 92.685 40.3327 92.9864 39.9609 92.9864C39.5892 92.9864 39.2878 92.685 39.2878 92.3132V86.9215Z" fill="#A15F29" fill-opacity="0.1"/>
<path opacity="0.3" d="M33.8779 77.4879C33.8779 77.1161 34.1793 76.8147 34.551 76.8147C34.9228 76.8147 35.2241 77.1161 35.2241 77.4879V82.8796C35.2241 83.2514 34.9228 83.5528 34.551 83.5528C34.1793 83.5528 33.8779 83.2514 33.8779 82.8796V77.4879Z" fill="#A15F29" fill-opacity="0.1"/>
<path opacity="0.3" d="M43.3449 85.5739C43.3449 85.202 43.6463 84.9006 44.018 84.9006C44.3898 84.9006 44.6912 85.202 44.6912 85.5739V86.9226C44.6912 87.2945 44.3898 87.5959 44.018 87.5959C43.6463 87.5959 43.3449 87.2945 43.3449 86.9226V85.5739Z" fill="#A15F29" fill-opacity="0.1"/>
<path opacity="0.3" d="M33.8779 103.093C33.8779 102.721 34.1793 102.42 34.551 102.42C34.9228 102.42 35.2241 102.721 35.2241 103.093V104.442C35.2241 104.814 34.9228 105.115 34.551 105.115C34.1793 105.115 33.8779 104.814 33.8779 104.442V103.093Z" fill="#A15F29" fill-opacity="0.1"/>
<path opacity="0.3" d="M40.6399 103.093C40.6399 102.721 40.9412 102.42 41.313 102.42C41.6847 102.42 41.9861 102.721 41.9861 103.093V105.79C41.9861 106.161 41.6847 106.463 41.313 106.463C40.9412 106.463 40.6399 106.161 40.6399 105.79V103.093Z" fill="#A15F29" fill-opacity="0.1"/>
<path opacity="0.3" d="M37.9353 103.767C37.9353 103.395 38.2366 103.094 38.6084 103.094C38.9801 103.094 39.2815 103.395 39.2815 103.767V106.463C39.2815 106.835 38.9801 107.136 38.6084 107.136C38.2366 107.136 37.9353 106.835 37.9353 106.463V103.767Z" fill="#A15F29" fill-opacity="0.1"/>
<path opacity="0.3" d="M35.2304 92.3119C35.2304 91.9401 35.5318 91.6387 35.9035 91.6387C36.2753 91.6387 36.5767 91.9401 36.5767 92.3119V95.0083C36.5767 95.3802 36.2753 95.6816 35.9035 95.6816C35.5318 95.6816 35.2304 95.3802 35.2304 95.0083V92.3119Z" fill="#A15F29" fill-opacity="0.1"/>
<path opacity="0.3" d="M41.9924 97.7025C41.9924 97.3307 42.2938 97.0293 42.6655 97.0293C43.0373 97.0293 43.3386 97.3307 43.3386 97.7025V99.0513C43.3386 99.4231 43.0373 99.7246 42.6655 99.7246C42.2938 99.7246 41.9924 99.4231 41.9924 99.0513V97.7025Z" fill="#A15F29" fill-opacity="0.1"/>
<path opacity="0.3" d="M36.5827 86.9215C36.5827 86.5497 36.8841 86.2483 37.2558 86.2483C37.6276 86.2483 37.929 86.5497 37.929 86.9215V88.2703C37.929 88.6421 37.6276 88.9435 37.2558 88.9435C36.8841 88.9435 36.5827 88.6421 36.5827 88.2703V86.9215Z" fill="#A15F29" fill-opacity="0.1"/>
<path opacity="0.3" d="M37.9353 100.398C37.9353 100.026 38.2366 99.7246 38.6084 99.7246C38.9801 99.7246 39.2815 100.026 39.2815 100.398V101.747C39.2815 102.118 38.9801 102.42 38.6084 102.42C38.2366 102.42 37.9353 102.118 37.9353 101.747V100.398Z" fill="#A15F29" fill-opacity="0.1"/>
<path opacity="0.3" d="M39.2878 95.0072C39.2878 94.6354 39.5892 94.334 39.9609 94.334C40.3327 94.334 40.634 94.6354 40.634 95.0072V96.356C40.634 96.7278 40.3327 97.0293 39.9609 97.0293C39.5892 97.0293 39.2878 96.7278 39.2878 96.356V95.0072Z" fill="#A15F29" fill-opacity="0.1"/>
<path opacity="0.3" d="M32.5258 98.3764C32.5258 98.0045 32.8272 97.7031 33.199 97.7031C33.5707 97.7031 33.8721 98.0045 33.8721 98.3764V99.7252C33.8721 100.097 33.5707 100.398 33.199 100.398C32.8272 100.398 32.5258 100.097 32.5258 99.7252V98.3764Z" fill="#A15F29" fill-opacity="0.1"/>
<path opacity="0.3" d="M32.5258 84.2262C32.5258 83.8544 32.8272 83.553 33.199 83.553C33.5707 83.553 33.8721 83.8544 33.8721 84.2262V88.2703C33.8721 88.6421 33.5707 88.9435 33.199 88.9435C32.8272 88.9435 32.5258 88.6421 32.5258 88.2703V84.2262Z" fill="#A15F29" fill-opacity="0.1"/>
<path opacity="0.3" d="M33.8779 85.5739C33.8779 85.202 34.1793 84.9006 34.551 84.9006C34.9228 84.9006 35.2241 85.202 35.2241 85.5739V86.9226C35.2241 87.2945 34.9228 87.5959 34.551 87.5959C34.1793 87.5959 33.8779 87.2945 33.8779 86.9226V85.5739Z" fill="#A15F29" fill-opacity="0.1"/>
<path opacity="0.3" d="M41.9924 101.745C41.9924 101.374 42.2938 101.072 42.6655 101.072C43.0373 101.072 43.3386 101.374 43.3386 101.745V104.442C43.3386 104.814 43.0373 105.115 42.6655 105.115C42.2938 105.115 41.9924 104.814 41.9924 104.442V101.745Z" fill="#A15F29" fill-opacity="0.1"/>
<path opacity="0.3" d="M37.9353 95.0072C37.9353 94.6354 38.2366 94.334 38.6084 94.334C38.9801 94.334 39.2815 94.6354 39.2815 95.0072V97.7036C39.2815 98.0755 38.9801 98.3769 38.6084 98.3769C38.2366 98.3769 37.9353 98.0755 37.9353 97.7036V95.0072Z" fill="#A15F29" fill-opacity="0.1"/>
<path opacity="0.3" d="M36.5827 105.115C36.5827 104.743 36.8841 104.441 37.2558 104.441C37.6276 104.441 37.929 104.743 37.929 105.115V106.463C37.929 106.835 37.6276 107.137 37.2558 107.137C36.8841 107.137 36.5827 106.835 36.5827 106.463V105.115Z" fill="#A15F29" fill-opacity="0.1"/>
<path opacity="0.3" d="M33.8779 97.7025C33.8779 97.3307 34.1793 97.0293 34.551 97.0293C34.9228 97.0293 35.2241 97.3307 35.2241 97.7025V100.399C35.2241 100.771 34.9228 101.072 34.551 101.072C34.1793 101.072 33.8779 100.771 33.8779 100.399V97.7025Z" fill="#A15F29" fill-opacity="0.1"/>
<path opacity="0.3" d="M36.5827 90.9645C36.5827 90.5927 36.8841 90.2913 37.2558 90.2913C37.6276 90.2913 37.929 90.5927 37.929 90.9645V93.6609C37.929 94.0327 37.6276 94.3342 37.2558 94.3342C36.8841 94.3342 36.5827 94.0327 36.5827 93.6609V90.9645Z" fill="#A15F29" fill-opacity="0.1"/>
<path opacity="0.3" d="M32.5258 101.745C32.5258 101.374 32.8272 101.072 33.199 101.072C33.5707 101.072 33.8721 101.374 33.8721 101.745V104.442C33.8721 104.814 33.5707 105.115 33.199 105.115C32.8272 105.115 32.5258 104.814 32.5258 104.442V101.745Z" fill="#A15F29" fill-opacity="0.1"/>
<path opacity="0.3" fill-rule="evenodd" clip-rule="evenodd" d="M43.3386 83.553H42.6624V85.9116C42.6624 86.0975 42.8131 86.2482 42.999 86.2482H43.0021C43.1879 86.2482 43.3386 86.0975 43.3386 85.9116V83.553Z" fill="#A15F29" fill-opacity="0.1"/>
<path opacity="0.3" fill-rule="evenodd" clip-rule="evenodd" d="M40.634 83.553H39.9578V84.564C39.9578 84.7499 40.1085 84.9006 40.2944 84.9006H40.2975C40.4834 84.9006 40.634 84.7499 40.634 84.564V83.553Z" fill="#A15F29" fill-opacity="0.1"/>
<path opacity="0.3" fill-rule="evenodd" clip-rule="evenodd" d="M37.929 83.553H37.2527V84.564C37.2527 84.7499 37.4034 84.9006 37.5893 84.9006H37.5924C37.7783 84.9006 37.929 84.7499 37.929 84.564V83.553Z" fill="#A15F29" fill-opacity="0.1"/>
<path opacity="0.3" fill-rule="evenodd" clip-rule="evenodd" d="M42.6626 83.553H43.3388V81.1943C43.3388 81.0084 43.1881 80.8577 43.0022 80.8577H42.9992C42.8133 80.8577 42.6626 81.0084 42.6626 81.1943V83.553Z" fill="#A15F29" fill-opacity="0.1"/>
<path opacity="0.3" fill-rule="evenodd" clip-rule="evenodd" d="M39.9575 83.553H40.6337V79.8467C40.6337 79.6608 40.483 79.5101 40.2972 79.5101H40.2941C40.1082 79.5101 39.9575 79.6608 39.9575 79.8467V83.553Z" fill="#A15F29" fill-opacity="0.1"/>
<path opacity="0.3" fill-rule="evenodd" clip-rule="evenodd" d="M37.2529 83.553H37.9291V82.542C37.9291 82.3561 37.7785 82.2054 37.5926 82.2054H37.5895C37.4036 82.2054 37.2529 82.3561 37.2529 82.542V83.553Z" fill="#A15F29" fill-opacity="0.1"/>
</g>
<g opacity="0.3">
<path opacity="0.3" d="M41.9924 53.2318C41.9924 53.6036 42.2938 53.905 42.6655 53.905C43.0373 53.905 43.3386 53.6036 43.3386 53.2318V47.8401C43.3386 47.4683 43.0373 47.1669 42.6655 47.1669C42.2938 47.1669 41.9924 47.4683 41.9924 47.8401V53.2318Z" fill="#A15F29" fill-opacity="0.1"/>
<path opacity="0.3" d="M32.5258 51.8841C32.5258 52.256 32.8272 52.5574 33.199 52.5574C33.5707 52.5574 33.8721 52.256 33.8721 51.8841V46.4925C33.8721 46.1206 33.5707 45.8192 33.199 45.8192C32.8272 45.8192 32.5258 46.1206 32.5258 46.4925V51.8841Z" fill="#A15F29" fill-opacity="0.1"/>
<path opacity="0.3" d="M36.5827 68.0558C36.5827 68.4276 36.8841 68.729 37.2558 68.729C37.6276 68.729 37.929 68.4276 37.929 68.0558V62.6641C37.929 62.2923 37.6276 61.9909 37.2558 61.9909C36.8841 61.9909 36.5827 62.2923 36.5827 62.6641V68.0558Z" fill="#A15F29" fill-opacity="0.1"/>
<path opacity="0.3" d="M39.2878 68.0558C39.2878 68.4276 39.5892 68.729 39.9609 68.729C40.3327 68.729 40.634 68.4276 40.634 68.0558V65.3594C40.634 64.9875 40.3327 64.6861 39.9609 64.6861C39.5892 64.6861 39.2878 64.9875 39.2878 65.3594V68.0558Z" fill="#A15F29" fill-opacity="0.1"/>
<path opacity="0.3" d="M40.6399 47.8414C40.6399 48.2132 40.9412 48.5146 41.313 48.5146C41.6847 48.5146 41.9861 48.2132 41.9861 47.8414V42.4497C41.9861 42.0779 41.6847 41.7765 41.313 41.7765C40.9412 41.7765 40.6399 42.0779 40.6399 42.4497V47.8414Z" fill="#A15F29" fill-opacity="0.1"/>
<path opacity="0.3" d="M35.2304 58.6224C35.2304 58.9942 35.5318 59.2957 35.9035 59.2957C36.2753 59.2957 36.5767 58.9942 36.5767 58.6224V53.2307C36.5767 52.8589 36.2753 52.5575 35.9035 52.5575C35.5318 52.5575 35.2304 52.8589 35.2304 53.2307V58.6224Z" fill="#A15F29" fill-opacity="0.1"/>
<path opacity="0.3" d="M43.3449 51.8841C43.3449 52.256 43.6463 52.5574 44.018 52.5574C44.3898 52.5574 44.6912 52.256 44.6912 51.8841V49.1877C44.6912 48.8159 44.3898 48.5145 44.018 48.5145C43.6463 48.5145 43.3449 48.8159 43.3449 49.1877V51.8841Z" fill="#A15F29" fill-opacity="0.1"/>
<path opacity="0.3" d="M37.9353 62.6651C37.9353 63.037 38.2366 63.3384 38.6084 63.3384C38.9801 63.3384 39.2815 63.037 39.2815 62.6651V59.9687C39.2815 59.5969 38.9801 59.2955 38.6084 59.2955C38.2366 59.2955 37.9353 59.5969 37.9353 59.9687V62.6651Z" fill="#A15F29" fill-opacity="0.1"/>
<path opacity="0.3" d="M43.3449 65.3607C43.3449 65.7325 43.6463 66.0339 44.018 66.0339C44.3898 66.0339 44.6912 65.7325 44.6912 65.3607V62.6643C44.6912 62.2925 44.3898 61.9911 44.018 61.9911C43.6463 61.9911 43.3449 62.2925 43.3449 62.6643V65.3607Z" fill="#A15F29" fill-opacity="0.1"/>
<path opacity="0.3" d="M40.6399 65.3607C40.6399 65.7325 40.9412 66.0339 41.313 66.0339C41.6847 66.0339 41.9861 65.7325 41.9861 65.3607V62.6643C41.9861 62.2925 41.6847 61.9911 41.313 61.9911C40.9412 61.9911 40.6399 62.2925 40.6399 62.6643V65.3607Z" fill="#A15F29" fill-opacity="0.1"/>
<path opacity="0.3" d="M41.9924 69.4034C41.9924 69.7752 42.2938 70.0767 42.6655 70.0767C43.0373 70.0767 43.3386 69.7752 43.3386 69.4034V66.707C43.3386 66.3352 43.0373 66.0338 42.6655 66.0338C42.2938 66.0338 41.9924 66.3352 41.9924 66.707V69.4034Z" fill="#A15F29" fill-opacity="0.1"/>
<path opacity="0.3" d="M43.3449 45.1461C43.3449 45.5179 43.6463 45.8193 44.018 45.8193C44.3898 45.8193 44.6912 45.5179 44.6912 45.1461V39.7544C44.6912 39.3826 44.3898 39.0812 44.018 39.0812C43.6463 39.0812 43.3449 39.3826 43.3449 39.7544V45.1461Z" fill="#A15F29" fill-opacity="0.1"/>
<path opacity="0.3" d="M37.9353 55.9271C37.9353 56.2989 38.2366 56.6003 38.6084 56.6003C38.9801 56.6003 39.2815 56.2989 39.2815 55.9271V50.5354C39.2815 50.1636 38.9801 49.8622 38.6084 49.8622C38.2366 49.8622 37.9353 50.1636 37.9353 50.5354V55.9271Z" fill="#A15F29" fill-opacity="0.1"/>
<path opacity="0.3" d="M39.2878 43.7985C39.2878 44.1703 39.5892 44.4717 39.9609 44.4717C40.3327 44.4717 40.634 44.1703 40.634 43.7985V37.733C40.634 37.3611 40.3327 37.0597 39.9609 37.0597C39.5892 37.0597 39.2878 37.3611 39.2878 37.733V43.7985Z" fill="#A15F29" fill-opacity="0.1"/>
<path opacity="0.3" d="M33.8779 53.2318C33.8779 53.6036 34.1793 53.905 34.551 53.905C34.9228 53.905 35.2241 53.6036 35.2241 53.2318V47.1663C35.2241 46.7945 34.9228 46.4931 34.551 46.4931C34.1793 46.4931 33.8779 46.7945 33.8779 47.1663V53.2318Z" fill="#A15F29" fill-opacity="0.1"/>
<path opacity="0.3" d="M40.6399 57.2748C40.6399 57.6466 40.9412 57.948 41.313 57.948C41.6847 57.948 41.9861 57.6466 41.9861 57.2748V51.8831C41.9861 51.5113 41.6847 51.2099 41.313 51.2099C40.9412 51.2099 40.6399 51.5113 40.6399 51.8831V57.2748Z" fill="#A15F29" fill-opacity="0.1"/>
<path opacity="0.3" d="M35.2304 42.4508C35.2304 42.8226 35.5318 43.124 35.9035 43.124C36.2753 43.124 36.5767 42.8226 36.5767 42.4508V37.0591C36.5767 36.6873 36.2753 36.3859 35.9035 36.3859C35.5318 36.3859 35.2304 36.6873 35.2304 37.0591V42.4508Z" fill="#A15F29" fill-opacity="0.1"/>
<path opacity="0.3" d="M36.5827 46.4938C36.5827 46.8656 36.8841 47.167 37.2558 47.167C37.6276 47.167 37.929 46.8656 37.929 46.4938V41.1021C37.929 40.7303 37.6276 40.4289 37.2558 40.4289C36.8841 40.4289 36.5827 40.7303 36.5827 41.1021V46.4938Z" fill="#A15F29" fill-opacity="0.1"/>
<path opacity="0.3" d="M35.2304 68.0558C35.2304 68.4276 35.5318 68.729 35.9035 68.729C36.2753 68.729 36.5767 68.4276 36.5767 68.0558V62.6641C36.5767 62.2923 36.2753 61.9909 35.9035 61.9909C35.5318 61.9909 35.2304 62.2923 35.2304 62.6641V68.0558Z" fill="#A15F29" fill-opacity="0.1"/>
<path opacity="0.3" d="M39.2878 55.9271C39.2878 56.2989 39.5892 56.6003 39.9609 56.6003C40.3327 56.6003 40.634 56.2989 40.634 55.9271V50.5354C40.634 50.1636 40.3327 49.8622 39.9609 49.8622C39.5892 49.8622 39.2878 50.1636 39.2878 50.5354V55.9271Z" fill="#A15F29" fill-opacity="0.1"/>
<path opacity="0.3" d="M33.8779 65.3607C33.8779 65.7325 34.1793 66.0339 34.551 66.0339C34.9228 66.0339 35.2241 65.7325 35.2241 65.3607V59.969C35.2241 59.5972 34.9228 59.2958 34.551 59.2958C34.1793 59.2958 33.8779 59.5972 33.8779 59.969V65.3607Z" fill="#A15F29" fill-opacity="0.1"/>
<path opacity="0.3" d="M43.3449 57.2748C43.3449 57.6466 43.6463 57.948 44.018 57.948C44.3898 57.948 44.6912 57.6466 44.6912 57.2748V55.926C44.6912 55.5542 44.3898 55.2527 44.018 55.2527C43.6463 55.2527 43.3449 55.5542 43.3449 55.926V57.2748Z" fill="#A15F29" fill-opacity="0.1"/>
<path opacity="0.3" d="M33.8779 39.7555C33.8779 40.1273 34.1793 40.4287 34.551 40.4287C34.9228 40.4287 35.2241 40.1273 35.2241 39.7555V38.4067C35.2241 38.0349 34.9228 37.7335 34.551 37.7335C34.1793 37.7335 33.8779 38.0349 33.8779 38.4067V39.7555Z" fill="#A15F29" fill-opacity="0.1"/>
<path opacity="0.3" d="M40.6399 39.7555C40.6399 40.1273 40.9412 40.4287 41.313 40.4287C41.6847 40.4287 41.9861 40.1273 41.9861 39.7555V37.0591C41.9861 36.6872 41.6847 36.3858 41.313 36.3858C40.9412 36.3858 40.6399 36.6872 40.6399 37.0591V39.7555Z" fill="#A15F29" fill-opacity="0.1"/>
<path opacity="0.3" d="M37.9353 39.0819C37.9353 39.4537 38.2366 39.7551 38.6084 39.7551C38.9801 39.7551 39.2815 39.4537 39.2815 39.0819V36.3855C39.2815 36.0137 38.9801 35.7122 38.6084 35.7122C38.2366 35.7122 37.9353 36.0137 37.9353 36.3855V39.0819Z" fill="#A15F29" fill-opacity="0.1"/>
<path opacity="0.3" d="M35.2304 50.5367C35.2304 50.9085 35.5318 51.21 35.9035 51.21C36.2753 51.21 36.5767 50.9085 36.5767 50.5367V47.8403C36.5767 47.4685 36.2753 47.1671 35.9035 47.1671C35.5318 47.1671 35.2304 47.4685 35.2304 47.8403V50.5367Z" fill="#A15F29" fill-opacity="0.1"/>
<path opacity="0.3" d="M41.9924 45.1461C41.9924 45.5179 42.2938 45.8193 42.6655 45.8193C43.0373 45.8193 43.3386 45.5179 43.3386 45.1461V43.7973C43.3386 43.4255 43.0373 43.1241 42.6655 43.1241C42.2938 43.1241 41.9924 43.4255 41.9924 43.7973V45.1461Z" fill="#A15F29" fill-opacity="0.1"/>
<path opacity="0.3" d="M36.5827 55.9271C36.5827 56.2989 36.8841 56.6003 37.2558 56.6003C37.6276 56.6003 37.929 56.2989 37.929 55.9271V54.5783C37.929 54.2065 37.6276 53.9051 37.2558 53.9051C36.8841 53.9051 36.5827 54.2065 36.5827 54.5783V55.9271Z" fill="#A15F29" fill-opacity="0.1"/>
<path opacity="0.3" d="M37.9353 42.4508C37.9353 42.8226 38.2366 43.124 38.6084 43.124C38.9801 43.124 39.2815 42.8226 39.2815 42.4508V41.102C39.2815 40.7302 38.9801 40.4288 38.6084 40.4288C38.2366 40.4288 37.9353 40.7302 37.9353 41.102V42.4508Z" fill="#A15F29" fill-opacity="0.1"/>
<path opacity="0.3" d="M39.2878 47.8414C39.2878 48.2132 39.5892 48.5146 39.9609 48.5146C40.3327 48.5146 40.634 48.2132 40.634 47.8414V46.4926C40.634 46.1208 40.3327 45.8194 39.9609 45.8194C39.5892 45.8194 39.2878 46.1208 39.2878 46.4926V47.8414Z" fill="#A15F29" fill-opacity="0.1"/>
<path opacity="0.3" d="M32.5258 44.4723C32.5258 44.8441 32.8272 45.1455 33.199 45.1455C33.5707 45.1455 33.8721 44.8441 33.8721 44.4723V43.1235C33.8721 42.7517 33.5707 42.4503 33.199 42.4503C32.8272 42.4503 32.5258 42.7517 32.5258 43.1235V44.4723Z" fill="#A15F29" fill-opacity="0.1"/>
<path opacity="0.3" d="M32.5258 58.6224C32.5258 58.9942 32.8272 59.2957 33.199 59.2957C33.5707 59.2957 33.8721 58.9942 33.8721 58.6224V54.5784C33.8721 54.2066 33.5707 53.9051 33.199 53.9051C32.8272 53.9051 32.5258 54.2066 32.5258 54.5784V58.6224Z" fill="#A15F29" fill-opacity="0.1"/>
<path opacity="0.3" d="M33.8779 57.2748C33.8779 57.6466 34.1793 57.948 34.551 57.948C34.9228 57.948 35.2241 57.6466 35.2241 57.2748V55.926C35.2241 55.5542 34.9228 55.2527 34.551 55.2527C34.1793 55.2527 33.8779 55.5542 33.8779 55.926V57.2748Z" fill="#A15F29" fill-opacity="0.1"/>
<path opacity="0.3" d="M41.9924 41.1031C41.9924 41.475 42.2938 41.7764 42.6655 41.7764C43.0373 41.7764 43.3386 41.475 43.3386 41.1031V38.4067C43.3386 38.0349 43.0373 37.7335 42.6655 37.7335C42.2938 37.7335 41.9924 38.0349 41.9924 38.4067V41.1031Z" fill="#A15F29" fill-opacity="0.1"/>
<path opacity="0.3" d="M37.9353 47.8414C37.9353 48.2132 38.2366 48.5146 38.6084 48.5146C38.9801 48.5146 39.2815 48.2132 39.2815 47.8414V45.145C39.2815 44.7732 38.9801 44.4718 38.6084 44.4718C38.2366 44.4718 37.9353 44.7732 37.9353 45.145V47.8414Z" fill="#A15F29" fill-opacity="0.1"/>
<path opacity="0.3" d="M36.5827 37.734C36.5827 38.1058 36.8841 38.4072 37.2558 38.4072C37.6276 38.4072 37.929 38.1058 37.929 37.734V36.3852C37.929 36.0134 37.6276 35.712 37.2558 35.712C36.8841 35.712 36.5827 36.0134 36.5827 36.3852V37.734Z" fill="#A15F29" fill-opacity="0.1"/>
<path opacity="0.3" d="M33.8779 45.1461C33.8779 45.5179 34.1793 45.8193 34.551 45.8193C34.9228 45.8193 35.2241 45.5179 35.2241 45.1461V42.4497C35.2241 42.0779 34.9228 41.7764 34.551 41.7764C34.1793 41.7764 33.8779 42.0779 33.8779 42.4497V45.1461Z" fill="#A15F29" fill-opacity="0.1"/>
<path opacity="0.3" d="M36.5827 51.8841C36.5827 52.256 36.8841 52.5574 37.2558 52.5574C37.6276 52.5574 37.929 52.256 37.929 51.8841V49.1877C37.929 48.8159 37.6276 48.5145 37.2558 48.5145C36.8841 48.5145 36.5827 48.8159 36.5827 49.1877V51.8841Z" fill="#A15F29" fill-opacity="0.1"/>
<path opacity="0.3" d="M32.5258 41.1031C32.5258 41.475 32.8272 41.7764 33.199 41.7764C33.5707 41.7764 33.8721 41.475 33.8721 41.1031V38.4067C33.8721 38.0349 33.5707 37.7335 33.199 37.7335C32.8272 37.7335 32.5258 38.0349 32.5258 38.4067V41.1031Z" fill="#A15F29" fill-opacity="0.1"/>
<path opacity="0.3" fill-rule="evenodd" clip-rule="evenodd" d="M43.3386 59.2957H42.6624V56.937C42.6624 56.7511 42.8131 56.6004 42.999 56.6004H43.0021C43.1879 56.6004 43.3386 56.7511 43.3386 56.937V59.2957Z" fill="#A15F29" fill-opacity="0.1"/>
<path opacity="0.3" fill-rule="evenodd" clip-rule="evenodd" d="M40.634 59.2957H39.9578V58.2846C39.9578 58.0987 40.1085 57.948 40.2944 57.948H40.2975C40.4834 57.948 40.634 58.0987 40.634 58.2846V59.2957Z" fill="#A15F29" fill-opacity="0.1"/>
<path opacity="0.3" fill-rule="evenodd" clip-rule="evenodd" d="M37.929 59.2957H37.2527V58.2846C37.2527 58.0987 37.4034 57.948 37.5893 57.948H37.5924C37.7783 57.948 37.929 58.0987 37.929 58.2846V59.2957Z" fill="#A15F29" fill-opacity="0.1"/>
<path opacity="0.3" fill-rule="evenodd" clip-rule="evenodd" d="M42.6626 59.2957H43.3388V61.6543C43.3388 61.8402 43.1881 61.9909 43.0022 61.9909H42.9992C42.8133 61.9909 42.6626 61.8402 42.6626 61.6543V59.2957Z" fill="#A15F29" fill-opacity="0.1"/>
<path opacity="0.3" fill-rule="evenodd" clip-rule="evenodd" d="M39.9575 59.2957H40.6337V63.0019C40.6337 63.1878 40.483 63.3385 40.2972 63.3385H40.2941C40.1082 63.3385 39.9575 63.1878 39.9575 63.0019V59.2957Z" fill="#A15F29" fill-opacity="0.1"/>
<path opacity="0.3" fill-rule="evenodd" clip-rule="evenodd" d="M37.2529 59.2957H37.9291V60.3067C37.9291 60.4926 37.7785 60.6433 37.5926 60.6433H37.5895C37.4036 60.6433 37.2529 60.4926 37.2529 60.3067V59.2957Z" fill="#A15F29" fill-opacity="0.1"/>
</g>
<path d="M64.3567 0H14.2062C7.51465 0 2.09009 5.42546 2.09009 12.1181V122.645C2.09009 129.337 7.51465 134.763 14.2062 134.763H64.3567C71.0482 134.763 76.4728 129.337 76.4728 122.645V12.1181C76.4728 5.42546 71.0482 0 64.3567 0Z" fill="url(#paint9_linear)" fill-opacity="0.15"/>
<path fill-rule="evenodd" clip-rule="evenodd" d="M19.1288 66.6675H59.4746C67.6531 66.6675 74.2831 73.2986 74.2831 81.4785C74.2831 93.8202 74.2831 106.162 74.2831 118.504C74.2831 127.341 68.7653 129.332 66.6464 129.332C11.9964 130.101 66.5893 129.573 11.9168 130.006C9.35999 129.813 4.19523 124.622 4.28009 118.504C4.35104 113.388 4.36445 101.057 4.32032 81.512C4.30185 73.3321 10.9169 66.686 19.0954 66.6675C19.1065 66.6675 19.1177 66.6675 19.1288 66.6675Z" fill="url(#paint10_linear)" fill-opacity="0.51"/>
<path d="M64.3571 134.452H10.2049L47.4221 107.621L76.4731 12.6246V122.334C76.4731 129.027 71.0486 134.452 64.3571 134.452Z" fill="url(#paint11_linear)" fill-opacity="0.15"/>
<path opacity="0.663342" d="M63.1929 0C63.122 0.118821 9.46518 0.0905795 9.46518 0C-1.436 0 0.854259 17.3647 0.854259 82.2392C0.854259 120.143 70.3295 160.763 70.3295 87.1083C70.3295 13.4534 73.1911 0.0905795 63.1929 0Z" fill="url(#paint12_radial)" fill-opacity="0.89"/>
<g opacity="0.592285" filter="url(#filter0_f)">
<path d="M67.0059 4.41846H11.4668C10.7697 4.41846 10.2046 4.98368 10.2046 5.68092C10.2046 6.37816 10.7697 6.94338 11.4668 6.94338H67.0059C67.703 6.94338 68.2682 6.37816 68.2682 5.68092C68.2682 4.98368 67.703 4.41846 67.0059 4.41846Z" fill="white"/>
</g>
<defs>
<filter id="filter0_f" x="8.20459" y="2.41846" width="62.0636" height="6.52492" filterUnits="userSpaceOnUse" color-interpolation-filters="sRGB">
<feFlood flood-opacity="0" result="BackgroundImageFix"/>
<feBlend mode="normal" in="SourceGraphic" in2="BackgroundImageFix" result="shape"/>
<feGaussianBlur stdDeviation="1" result="effect1_foregroundBlur"/>
</filter>
<linearGradient id="paint0_linear" x1="39.2233" y1="0" x2="39.2233" y2="23.4923" gradientUnits="userSpaceOnUse">
<stop stop-color="#FFE000"/>
<stop offset="1" stop-color="#FFBE00"/>
</linearGradient>
<linearGradient id="paint1_linear" x1="39.2233" y1="123.615" x2="39.2233" y2="134.763" gradientUnits="userSpaceOnUse">
<stop stop-color="#00CCFF"/>
<stop offset="1" stop-color="#00BBFF"/>
</linearGradient>
<linearGradient id="paint2_linear" x1="39.2814" y1="0" x2="39.2814" y2="77.6786" gradientUnits="userSpaceOnUse">
<stop stop-color="white"/>
<stop offset="1" stop-color="white" stop-opacity="0"/>
</linearGradient>
<linearGradient id="paint3_linear" x1="32.4887" y1="51.2907" x2="42.0199" y2="68.0084" gradientUnits="userSpaceOnUse">
<stop stop-color="#FF2863"/>
<stop offset="1" stop-color="#FF0046"/>
</linearGradient>
<linearGradient id="paint4_linear" x1="34.9827" y1="91.1933" x2="42.856" y2="110.897" gradientUnits="userSpaceOnUse">
<stop stop-color="#0086FF"/>
<stop offset="1" stop-color="#0071FF"/>
</linearGradient>
<linearGradient id="paint5_linear" x1="34.7651" y1="71.3624" x2="41.5759" y2="88.9905" gradientUnits="userSpaceOnUse">
<stop stop-color="#0941BD"/>
<stop offset="1" stop-color="#0626B8"/>
</linearGradient>
<linearGradient id="paint6_linear" x1="39.2364" y1="12.7913" x2="39.2364" y2="56.5447" gradientUnits="userSpaceOnUse">
<stop stop-color="#FFB73E"/>
<stop offset="1" stop-color="#FF6600"/>
</linearGradient>
<linearGradient id="paint7_linear" x1="39.1913" y1="0" x2="39.1913" y2="48.5146" gradientUnits="userSpaceOnUse">
<stop stop-color="white"/>
<stop offset="0.576409" stop-color="white" stop-opacity="0"/>
</linearGradient>
<linearGradient id="paint8_linear" x1="39.2386" y1="78.3663" x2="40.1645" y2="134.748" gradientUnits="userSpaceOnUse">
<stop stop-color="white" stop-opacity="0"/>
<stop offset="1" stop-color="white" stop-opacity="0.420782"/>
</linearGradient>
<linearGradient id="paint9_linear" x1="39.2762" y1="1.23779" x2="37.4356" y2="134.745" gradientUnits="userSpaceOnUse">
<stop stop-color="white" stop-opacity="0"/>
<stop offset="0.550253" stop-color="white" stop-opacity="0.32443"/>
<stop offset="1" stop-color="#0626B8"/>
</linearGradient>
<linearGradient id="paint10_linear" x1="39.2811" y1="95.3209" x2="39.2811" y2="130.006" gradientUnits="userSpaceOnUse">
<stop stop-color="#00BBFF" stop-opacity="0"/>
<stop offset="1" stop-color="#00BBFF"/>
</linearGradient>
<linearGradient id="paint11_linear" x1="51.0717" y1="128.254" x2="38.3837" y2="111.116" gradientUnits="userSpaceOnUse">
<stop stop-color="#0626B8"/>
<stop offset="1" stop-color="#0626B8" stop-opacity="0"/>
</linearGradient>
<radialGradient id="paint12_radial" cx="0" cy="0" r="1" gradientUnits="userSpaceOnUse" gradientTransform="translate(35.6813 -6.74091) rotate(180) scale(40.6173 51.2114)">
<stop stop-color="white"/>
<stop offset="1" stop-color="white" stop-opacity="0"/>
</radialGradient>
</defs>
</svg>
