<?xml version="1.0" encoding="UTF-8"?>
<svg width="1705px" height="512px" viewBox="0 0 1705 512" version="1.1" xmlns="http://www.w3.org/2000/svg" xmlns:xlink="http://www.w3.org/1999/xlink">
    <!-- Generator: Sketch 56.3 (81716) - https://sketch.com -->
    <title>Logo</title>
    <desc>Created with Sketch.</desc>
    <defs>
        <linearGradient x1="50%" y1="0%" x2="50%" y2="17.4474766%" id="linearGradient-1">
            <stop stop-color="#FFE000" offset="0%"></stop>
            <stop stop-color="#FFBE00" offset="100%"></stop>
        </linearGradient>
        <linearGradient x1="50%" y1="68.1561649%" x2="50%" y2="100%" id="linearGradient-2">
            <stop stop-color="#00DFFF" offset="0%"></stop>
            <stop stop-color="#00BBFF" offset="100%"></stop>
        </linearGradient>
        <linearGradient x1="50%" y1="0%" x2="50%" y2="57.6409417%" id="linearGradient-3">
            <stop stop-color="#FFFFFF" offset="0%"></stop>
            <stop stop-color="#FFFFFF" stop-opacity="0" offset="100%"></stop>
        </linearGradient>
        <rect id="path-4" x="0" y="-8.46021109" width="157.626772" height="101.522533"></rect>
        <linearGradient x1="50%" y1="33.1125314%" x2="59.8819643%" y2="69.9534321%" id="linearGradient-6">
            <stop stop-color="#FF50A5" offset="0%"></stop>
            <stop stop-color="#FF0046" offset="100%"></stop>
        </linearGradient>
        <rect id="path-7" x="0" y="-8.46021109" width="157.626772" height="101.522533"></rect>
        <linearGradient x1="50%" y1="33.1125314%" x2="66.2073422%" y2="66.8874686%" id="linearGradient-9">
            <stop stop-color="#00AAFF" offset="0%"></stop>
            <stop stop-color="#0071FF" offset="100%"></stop>
        </linearGradient>
        <rect id="path-10" x="0" y="-8.46021109" width="157.626772" height="101.522533"></rect>
        <linearGradient x1="50%" y1="39.9026416%" x2="63.616798%" y2="66.8874686%" id="linearGradient-12">
            <stop stop-color="#0E4EDD" offset="0%"></stop>
            <stop stop-color="#0A3BCC" offset="47.051837%"></stop>
            <stop stop-color="#0626B8" offset="100%"></stop>
        </linearGradient>
        <rect id="path-13" x="0" y="-8.46021109" width="157.626772" height="101.522533"></rect>
        <linearGradient x1="50%" y1="33.1125314%" x2="68.017689%" y2="66.8874686%" id="linearGradient-15">
            <stop stop-color="#FFB73E" offset="0%"></stop>
            <stop stop-color="#FF6600" offset="100%"></stop>
        </linearGradient>
        <linearGradient x1="50%" y1="0%" x2="50%" y2="100%" id="linearGradient-16">
            <stop stop-color="#FFFFFF" offset="0%"></stop>
            <stop stop-color="#FFFFFF" stop-opacity="0" offset="57.6409417%"></stop>
        </linearGradient>
        <linearGradient x1="49.7361034%" y1="25.2700713%" x2="50%" y2="100%" id="linearGradient-17">
            <stop stop-color="#FFFFFF" stop-opacity="0" offset="0%"></stop>
            <stop stop-color="#FFFFFF" stop-opacity="0.420782343" offset="100%"></stop>
        </linearGradient>
        <linearGradient x1="49.9930106%" y1="0.918496622%" x2="49.2390432%" y2="100%" id="linearGradient-18">
            <stop stop-color="#FFFFFF" stop-opacity="0" offset="0%"></stop>
            <stop stop-color="#FFFFFF" stop-opacity="0.324429899" offset="55.0253378%"></stop>
            <stop stop-color="#0626B8" offset="100%"></stop>
        </linearGradient>
        <filter x="0.0%" y="0.0%" width="100.0%" height="100.0%" filterUnits="objectBoundingBox" id="filter-19">
            <feGaussianBlur stdDeviation="0" in="SourceGraphic"></feGaussianBlur>
        </filter>
        <linearGradient x1="50%" y1="45.238598%" x2="50%" y2="100%" id="linearGradient-20">
            <stop stop-color="#00BBFF" stop-opacity="0" offset="0%"></stop>
            <stop stop-color="#00BBFF" offset="100%"></stop>
        </linearGradient>
        <linearGradient x1="38.3312956%" y1="5.0873581%" x2="45.8774699%" y2="23.8267628%" id="linearGradient-21">
            <stop stop-color="#0626B8" offset="0%"></stop>
            <stop stop-color="#0626B8" stop-opacity="0" offset="100%"></stop>
        </linearGradient>
        <radialGradient cx="50%" cy="-7.59577885%" fx="50%" fy="-7.59577885%" r="57.9792162%" gradientTransform="translate(0.500000,-0.075958),scale(1.000000,0.546798),scale(1.000000,1.260616),translate(-0.500000,0.075958)" id="radialGradient-22">
            <stop stop-color="#FFFFFF" offset="0%"></stop>
            <stop stop-color="#FFFFFF" stop-opacity="0" offset="100%"></stop>
        </radialGradient>
        <filter x="-7.0%" y="-160.0%" width="113.9%" height="420.0%" filterUnits="objectBoundingBox" id="filter-23">
            <feGaussianBlur stdDeviation="2.8503937" in="SourceGraphic"></feGaussianBlur>
        </filter>
        <filter x="-43.8%" y="-43.8%" width="187.5%" height="187.5%" filterUnits="objectBoundingBox" id="filter-24">
            <feGaussianBlur stdDeviation="1.42519685" in="SourceGraphic"></feGaussianBlur>
        </filter>
        <filter x="-87.1%" y="-86.7%" width="274.2%" height="273.3%" filterUnits="objectBoundingBox" id="filter-25">
            <feGaussianBlur stdDeviation="1.42519685" in="SourceGraphic"></feGaussianBlur>
        </filter>
        <filter x="-87.1%" y="-86.7%" width="274.2%" height="273.3%" filterUnits="objectBoundingBox" id="filter-26">
            <feGaussianBlur stdDeviation="1.42519685" in="SourceGraphic"></feGaussianBlur>
        </filter>
        <filter x="-174.2%" y="-173.3%" width="448.4%" height="446.6%" filterUnits="objectBoundingBox" id="filter-27">
            <feGaussianBlur stdDeviation="1.42519685" in="SourceGraphic"></feGaussianBlur>
        </filter>
    </defs>
    <g id="Logo" stroke="none" stroke-width="1" fill="none" fill-rule="evenodd">
        <g id="Glossy" transform="translate(153.000000, 76.000000)">
            <g>
                <g id="Type" transform="translate(299.291339, 94.062992)" fill="#000000" fill-rule="nonzero">
                    <path d="M9.24453553,145.968327 C6.64235696,145.968327 4.45108157,145.081197 2.6706436,143.306912 C0.890205631,141.532628 -2.84217094e-14,139.348925 -2.84217094e-14,136.755739 L-2.84217094e-14,11.464553 C-2.84217094e-14,8.87136733 0.890205631,6.65354443 2.6706436,4.81101778 C4.45108157,2.96849112 6.64235696,2.04724161 9.24453553,2.04724161 L89.1584094,2.04724161 C91.6236312,2.04724161 93.7121905,2.90025041 95.4241501,4.60629362 C97.1361097,6.31232829 97.9920766,8.3936783 97.9920766,10.8503805 C97.9920766,13.3070827 97.1361097,15.3543039 95.4241501,16.9921053 C93.7121905,18.6299068 91.6236312,19.4487953 89.1584094,19.4487953 L18.6945052,19.4487953 L18.6945052,64.6928348 L81.968215,64.6928348 C84.4334368,64.6928348 86.5219962,65.5458436 88.2339558,67.2518868 C89.9459154,68.95793 90.8018823,71.0392715 90.8018823,73.4959737 C90.8018823,75.9526759 89.9459154,77.999897 88.2339558,79.6376985 C86.5219962,81.2755 84.4334368,82.0943884 81.968215,82.0943884 L18.6945052,82.0943884 L18.6945052,136.755739 C18.6945052,139.348925 17.7700609,141.532628 15.9211445,143.306912 C14.0722282,145.081197 11.8467141,145.968327 9.24453553,145.968327 Z M140.123182,144.944706 C136.562306,144.944706 133.515064,143.682253 130.981363,141.157309 C128.447663,138.632365 127.180832,135.595653 127.180832,132.047084 L127.180832,10.4409322 C127.180832,7.84774653 128.071038,5.62992363 129.851476,3.78739697 C131.631914,1.94487031 133.823189,1.0236208 136.425368,1.0236208 C139.027546,1.0236208 141.25306,1.94487031 143.101977,3.78739697 C144.950893,5.62992363 145.875337,7.84774653 145.875337,10.4409322 L145.875337,126.314807 L213.052295,126.314807 C215.654474,126.314807 217.879988,127.236057 219.728904,129.078583 C221.577821,130.92111 222.502265,133.138933 222.502265,135.732119 C222.502265,138.325304 221.577821,140.509007 219.728904,142.283292 C217.879988,144.057577 215.654474,144.944706 213.052295,144.944706 L140.123182,144.944706 Z M255.260453,145.968327 C252.521317,145.968327 250.295795,145.081197 248.583844,143.306912 C246.871884,141.532628 246.015917,139.348925 246.015917,136.755739 C246.015917,135.663872 246.358304,134.299058 247.043088,132.661256 L299.428789,9.41731139 C300.524443,6.96060918 302.065184,4.9475084 304.051057,3.37794865 C306.03693,1.8083889 308.467876,1.0236208 311.343968,1.0236208 L313.39831,1.0236208 C316.274402,1.0236208 318.705348,1.8083889 320.691221,3.37794865 C322.677094,4.9475084 324.217835,6.96060918 325.313489,9.41731139 L377.69919,132.661256 C378.383974,134.299058 378.726361,135.663872 378.726361,136.755739 C378.726361,139.348925 377.870394,141.532628 376.158434,143.306912 C374.446474,145.081197 372.22096,145.968327 369.481825,145.968327 C367.56443,145.968327 365.818258,145.456521 364.243255,144.432895 C362.668252,143.409269 361.469898,142.010335 360.648158,140.23605 L347.29494,108.299081 L277.447338,108.299081 L264.09412,140.23605 C263.272379,142.010335 262.074026,143.409269 260.499023,144.432895 C258.92402,145.456521 257.177847,145.968327 255.260453,145.968327 Z M284.637532,91.3069757 L340.104746,91.3069757 L312.371139,24.7716234 L284.637532,91.3069757 Z M445.560929,145.968327 C439.945701,145.968327 435.700105,142.829254 432.824013,136.551015 L382.081785,13.9212429 C381.670914,12.8293753 381.465482,11.6692833 381.465482,10.4409322 C381.465482,7.57477961 382.287211,5.28870748 383.930692,3.58267281 C385.574173,1.87662961 387.833926,1.0236208 390.710018,1.0236208 C392.627413,1.0236208 394.373585,1.60366679 395.948588,2.76377617 C397.523591,3.92388555 398.721944,5.4593014 399.543685,7.37006978 L447.820704,127.338428 L496.097723,7.37006978 C496.919463,5.4593014 498.117817,3.92388555 499.69282,2.76377617 C501.267823,1.60366679 503.013995,1.0236208 504.93139,1.0236208 C507.807482,1.0236208 510.067235,1.87662961 511.710716,3.58267281 C513.354197,5.28870748 514.175926,7.57477961 514.175926,10.4409322 C514.175926,11.6692833 513.970494,12.8293753 513.559623,13.9212429 L462.817395,136.551015 C459.941303,142.829254 455.695707,145.968327 450.080479,145.968327 L445.560929,145.968327 Z M599.268447,146.991947 C584.887986,146.991947 572.288153,143.852875 561.468568,137.574636 C550.648983,131.296397 542.294746,122.629828 536.405605,111.574668 C530.516464,100.519508 527.434983,87.8267366 527.161069,73.4959737 C527.434983,59.1652108 530.516464,46.4724397 536.405605,35.4172798 C542.294746,24.3621198 550.648983,15.6955504 561.468568,9.41731139 C572.288153,3.13907241 584.887986,5.68434189e-14 599.268447,5.68434189e-14 C613.648907,5.68434189e-14 626.214502,3.13907241 636.965608,9.41731139 C647.716714,15.6955504 656.070952,24.3962402 662.028571,35.5196419 C667.98619,46.6430436 671.10191,59.3016942 671.375824,73.4959737 C671.10191,87.6902531 667.98619,100.348904 662.028571,111.472305 C656.070952,122.595707 647.716714,131.296397 636.965608,137.574636 C626.214502,143.852875 613.648907,146.991947 599.268447,146.991947 Z M599.268447,129.590394 C610.224988,129.590394 619.74334,127.133728 627.82379,122.220324 C635.904239,117.30692 642.067201,110.61933 646.312861,102.157356 C650.558521,93.6953819 652.681319,84.1416833 652.681319,73.4959737 C652.681319,62.8502641 650.558521,53.2965655 646.312861,44.8345912 C642.067201,36.3726169 635.904239,29.6850279 627.82379,24.7716234 C619.74334,19.858219 610.224988,17.4015537 599.268447,17.4015537 C588.174948,17.4015537 578.622357,19.858219 570.610386,24.7716234 C562.598416,29.6850279 556.469692,36.3726169 552.224032,44.8345912 C547.978373,53.2965655 545.855575,62.8502641 545.855575,73.4959737 C545.855575,84.1416833 547.978373,93.6953819 552.224032,102.157356 C556.469692,110.61933 562.598416,117.30692 570.610386,122.220324 C578.622357,127.133728 588.174948,129.590394 599.268447,129.590394 Z M757.110331,146.991947 C747.386401,146.991947 738.005003,144.944726 728.965856,140.850223 C719.92671,136.755719 712.531155,130.511694 706.778971,122.117962 C701.026787,113.724229 698.150738,103.454003 698.150738,91.3069757 L698.150738,10.4409322 C698.150738,7.84774653 699.040943,5.62992363 700.821381,3.78739697 C702.601819,1.94487031 704.793095,1.0236208 707.395273,1.0236208 C709.997452,1.0236208 712.222966,1.94487031 714.071882,3.78739697 C715.920799,5.62992363 716.845243,7.84774653 716.845243,10.4409322 L716.845243,91.9211481 C716.845243,100.110156 718.72837,107.070707 722.494681,112.803013 C726.260992,118.535318 731.225601,122.834482 737.388655,125.700635 C743.55171,128.566787 750.125536,129.999842 757.110331,129.999842 C764.095126,129.999842 770.668952,128.566787 776.832007,125.700635 C782.995061,122.834482 787.95967,118.535318 791.725981,112.803013 C795.492292,107.070707 797.375419,100.110156 797.375419,91.9211481 L797.375419,10.4409322 C797.375419,7.84774653 798.265625,5.62992363 800.046063,3.78739697 C801.826501,1.94487031 804.017776,1.0236208 806.619955,1.0236208 C809.222133,1.0236208 811.447647,1.94487031 813.296564,3.78739697 C815.14548,5.62992363 816.069924,7.84774653 816.069924,10.4409322 L816.069924,91.3069757 C816.069924,103.454003 813.193875,113.724229 807.441691,122.117962 C801.689507,130.511694 794.293952,136.755719 785.254806,140.850223 C776.215659,144.944726 766.834261,146.991947 757.110331,146.991947 Z M860.717607,145.968327 C858.115428,145.968327 855.924153,145.081197 854.143715,143.306912 C852.363277,141.532628 851.473072,139.348925 851.473072,136.755739 L851.473072,11.464553 C851.473072,8.87136733 852.363277,6.65354443 854.143715,4.81101778 C855.924153,2.96849112 858.115428,2.04724161 860.717607,2.04724161 L908.583758,2.04724161 C927.209878,2.04724161 941.179259,5.86872106 950.492319,13.5117946 C959.805379,21.1548682 964.461839,31.1862517 964.461839,43.6062462 C964.461839,51.7952536 962.167848,59.2676107 957.579796,66.0235418 C952.991744,72.7794729 946.315202,77.6586833 937.549969,80.6613193 C947.410856,83.254505 954.155876,89.362048 957.78523,98.9841317 C961.414584,108.606215 963.229234,118.057553 963.229234,127.338428 L963.229234,136.755739 C963.229234,139.348925 962.339029,141.532628 960.558591,143.306912 C958.778153,145.081197 956.586877,145.968327 953.984699,145.968327 C951.108607,145.968327 948.814615,145.115318 947.102656,143.409275 C945.390696,141.703231 944.534729,139.485408 944.534729,136.755739 L944.534729,130.614015 C944.534729,123.789842 943.918433,117.477577 942.685822,111.67703 C941.453211,105.876483 938.508685,100.690189 933.852155,96.1179934 C929.195625,91.5457977 922.142457,89.2597341 912.69244,89.2597341 L870.167577,89.2597341 L870.167577,136.755739 C870.167577,139.348925 869.243132,141.532628 867.394216,143.306912 C865.5453,145.081197 863.319786,145.968327 860.717607,145.968327 Z M907.351153,71.6534562 C919.129435,71.6534562 928.476594,69.3332723 935.392911,64.6928348 C942.309227,60.0523973 945.767334,53.5012896 945.767334,45.0393153 C945.767334,36.850308 942.788569,30.5721632 936.83095,26.2046926 C930.87333,21.837222 920.704443,19.6535194 906.323982,19.6535194 L870.167577,19.6535194 L870.167577,71.6534562 L907.351153,71.6534562 Z M1045.21456,146.991947 C1027.82105,146.991947 1011.52344,143.716394 996.321238,137.165188 C994.677757,136.482774 993.30821,135.356799 992.212556,133.787239 C991.116902,132.217687 990.569083,130.545782 990.569083,128.771497 C990.569083,126.451278 991.356572,124.438178 992.931575,122.732134 C994.506578,121.026091 996.52666,120.173082 998.991882,120.173082 C1000.36145,120.173082 1001.66252,120.446045 1002.89513,120.991979 C1015.49515,126.587801 1028.98519,129.38567 1043.36565,129.38567 C1067.33309,129.38567 1079.31662,121.537989 1079.31662,105.842391 C1079.31662,101.747887 1077.77588,98.3358522 1074.69436,95.606183 C1071.61283,92.8765139 1067.81234,90.7269317 1063.29276,89.157372 C1058.77319,87.5878122 1052.33632,85.7111929 1043.98195,83.5274576 C1032.88846,80.661305 1023.91792,77.8975564 1017.07008,75.236129 C1010.22225,72.5747017 1004.33319,68.5826204 999.40275,63.2597656 C994.472306,57.9369109 992.007122,50.8398776 992.007122,41.9684529 C992.007122,34.1888959 994.061442,27.125983 998.170145,20.7795023 C1002.27885,14.4330216 1008.33909,9.38320946 1016.35107,5.62991442 C1024.36304,1.87661937 1033.9841,5.68434189e-14 1045.21456,5.68434189e-14 C1060.2798,5.68434189e-14 1073.9068,2.25194325 1086.09595,6.7558973 C1089.93074,8.12073186 1091.84811,10.85036 1091.84811,14.9448637 C1091.84811,17.128599 1091.09485,19.1075795 1089.58833,20.8818644 C1088.08181,22.6561493 1086.09596,23.5432785 1083.63074,23.5432785 C1082.809,23.5432785 1081.71336,23.2703157 1080.34379,22.7243818 C1069.66117,19.0393285 1058.63631,17.1968295 1047.2689,17.1968295 C1036.44932,17.1968295 1027.64998,19.2440506 1020.87062,23.3385543 C1014.09126,27.433058 1010.70163,33.1652772 1010.70163,40.5353838 C1010.70163,45.4487882 1012.31084,49.4408694 1015.52933,52.5117472 C1018.74781,55.582625 1022.78798,57.9710496 1027.64994,59.6770928 C1032.51191,61.383136 1039.11997,63.1915147 1047.47433,65.1022831 C1058.29392,67.6954688 1067.02478,70.2886155 1073.66719,72.8818012 C1080.30959,75.4749869 1085.99321,79.5011884 1090.71822,84.9605267 C1095.44323,90.4198649 1097.80569,97.789861 1097.80569,107.070736 C1097.80569,114.71381 1095.61442,121.572 1091.2318,127.645514 C1086.84919,133.719028 1080.68622,138.461757 1072.74273,141.873843 C1064.79924,145.28593 1055.62327,146.991947 1045.21456,146.991947 Z" id="Black"></path>
                </g>
                <g id="Icon/glossy" transform="translate(-0.000000, 0.000000)">
                    <g id="Flavours" stroke-width="1" fill-rule="evenodd" transform="translate(0.000000, 0.000000)">
                        <rect id="Rectangle" fill="#FFC99D" fill-rule="nonzero" x="64.6191873" y="273.875905" width="28.6347949" height="85.5862204" rx="14.3173975"></rect>
                        <rect id="Rectangle" fill="url(#linearGradient-1)" fill-rule="nonzero" x="-2.27373675e-13" y="0" width="157.626772" height="285.03937" rx="25.6535433"></rect>
                        <path d="M-2.27373675e-13,211.177165 L157.626772,211.177165 L157.626772,259.633858 C157.626772,273.801919 146.141289,285.287401 131.973228,285.287401 L25.6535433,285.287401 C11.4854826,285.287401 -2.29191302e-13,273.801919 -2.27373675e-13,259.633858 L-2.27373675e-13,211.177165 Z" id="Rectangle" fill="url(#linearGradient-2)" fill-rule="nonzero"></path>
                        <path d="M25.2743632,5.68434189e-14 L134.879121,5.68434189e-14 C147.472953,5.09772558e-14 157.682271,10.2093178 157.682271,22.8031496 L157.682271,79.9003149 C157.682271,92.4941467 147.472953,102.703465 134.879121,102.703465 L22.9940482,102.703465 C10.4002165,102.703465 0.190898633,92.4941467 0.190898633,79.9003149 L0.190898633,25.0834646 C0.190898633,11.2302496 11.4211482,5.58354995e-14 25.2743632,5.68434189e-14 Z M25.8444419,211.177165 L132.028728,211.177165 C146.196788,211.177165 157.682271,222.662648 157.682271,236.830709 L157.682271,259.633858 C157.682271,273.801919 146.196788,285.287401 132.028728,285.287401 L25.8444419,285.287401 C11.6763812,285.287401 0.190898633,273.801919 0.190898633,259.633858 L0.190898633,236.830709 C0.190898633,222.662648 11.6763812,211.177165 25.8444419,211.177165 Z" id="Rectangle-2" fill-opacity="0.1" fill="url(#linearGradient-3)" fill-rule="nonzero"></path>
                        <g id="Group" transform="translate(0.000000, 25.677878)">
                            <g id="swoosh" transform="translate(0.000000, 45.581965)">
                                <mask id="mask-5" fill="white">
                                    <use xlink:href="#path-4"></use>
                                </mask>
                                <g id="Rectangle"></g>
                                <path d="M0,91.6389577 C22.8031496,62.5071167 48.4566929,52.6413135 76.9606299,62.041548 C105.464567,71.4417825 132.371781,66.2853047 157.682271,46.5721144 L157.682271,-1.42108547e-14 C132.371781,18.8004691 105.464567,23.5005864 76.9606299,14.1003518 C48.4566929,4.70011727 22.8031496,15.0536174 0,45.1608523 L0,91.6389577 Z" id="Path-3" fill-opacity="0.9" fill="url(#linearGradient-6)" fill-rule="evenodd" mask="url(#mask-5)"></path>
                            </g>
                            <g id="swoosh" transform="translate(0.000000, 139.644957)">
                                <mask id="mask-8" fill="white">
                                    <use xlink:href="#path-7"></use>
                                </mask>
                                <g id="Rectangle"></g>
                                <path d="M0,91.6389577 C22.8031496,62.5071167 48.4566929,52.6413135 76.9606299,62.041548 C105.464567,71.4417825 132.371781,66.2853047 157.682271,46.5721144 L157.682271,-1.42108547e-14 C132.371781,18.8004691 105.464567,23.5005864 76.9606299,14.1003518 C48.4566929,4.70011727 22.8031496,15.0536174 0,45.1608523 L0,91.6389577 Z" id="Path-3" fill="url(#linearGradient-9)" fill-rule="evenodd" mask="url(#mask-8)"></path>
                            </g>
                            <g id="swoosh" transform="translate(0.000000, 92.613461)">
                                <mask id="mask-11" fill="white">
                                    <use xlink:href="#path-10"></use>
                                </mask>
                                <g id="Rectangle"></g>
                                <path d="M0,91.6389577 C22.8031496,62.5071167 48.4566929,52.6413135 76.9606299,62.041548 C105.464567,71.4417825 132.371781,66.2853047 157.682271,46.5721144 L157.682271,-1.42108547e-14 C132.371781,18.8004691 105.464567,23.5005864 76.9606299,14.1003518 C48.4566929,4.70011727 22.8031496,15.0536174 0,45.1608523 L0,91.6389577 Z" id="Path-3" fill-opacity="0.9" fill="url(#linearGradient-12)" fill-rule="evenodd" mask="url(#mask-11)"></path>
                            </g>
                            <g id="swoosh" transform="translate(0.000000, -0.000000)">
                                <mask id="mask-14" fill="white">
                                    <use xlink:href="#path-13"></use>
                                </mask>
                                <g id="Rectangle"></g>
                                <path d="M0,91.6389577 C22.8031496,62.5071167 48.4566929,52.6413135 76.9606299,62.041548 C105.464567,71.4417825 132.371781,66.2853047 157.682271,46.5721144 L157.682271,-1.42108547e-14 C132.371781,18.8004691 105.464567,23.5005864 76.9606299,14.1003518 C48.4566929,4.70011727 22.8031496,15.0536174 0,45.1608523 L0,91.6389577 Z" id="Path-3" fill="url(#linearGradient-15)" fill-rule="evenodd" mask="url(#mask-14)"></path>
                            </g>
                        </g>
                        <path d="M25.0834646,5.68434189e-14 L134.688223,5.68434189e-14 C147.282054,5.09772558e-14 157.491372,10.2093178 157.491372,22.8031496 L157.491372,79.9003149 C157.491372,92.4941467 147.282054,102.703465 134.688223,102.703465 L22.8031496,102.703465 C10.2093178,102.703465 -2.22278662e-13,92.4941467 -2.27373675e-13,79.9003149 L-2.27373675e-13,25.0834646 C-2.29070205e-13,11.2302496 11.2302496,5.58354995e-14 25.0834646,5.68434189e-14 Z" id="Rectangle" fill-opacity="0.1" fill="url(#linearGradient-16)" fill-rule="nonzero"></path>
                    </g>
                    <path d="M76.0207621,74.1747244 L81.8524074,74.1747244 C88.1493233,74.1747244 93.2539822,79.2793833 93.2539822,85.5762992 L93.2539822,305.26 C93.2539822,306.834229 91.9778175,308.110394 90.4035885,308.110394 L67.469581,308.110394 C65.895352,308.110394 64.6191873,306.834229 64.6191873,305.26 L64.6191873,85.5762992 C64.6191873,79.2793833 69.7238462,74.1747244 76.0207621,74.1747244 Z" id="Rectangle" fill-opacity="0.33" fill="#75675B" fill-rule="nonzero"></path>
                    <rect id="Rectangle" fill-opacity="0.5" fill="url(#linearGradient-17)" fill-rule="nonzero" transform="translate(78.936585, 205.406929) rotate(-360.000000) translate(-78.936585, -205.406929) " x="61.7557078" y="125.526457" width="34.3617539" height="159.760945"></rect>
                    <g id="Group-10" opacity="0.701032366" stroke-width="1" fill-rule="evenodd" transform="translate(66.050927, 285.287401)">
                        <rect id="Rectangle" fill-opacity="0.25" fill="#E49351" x="2.86347949" y="34.2344882" width="1.43173975" height="14.2643701" rx="0.715869874"></rect>
                        <rect id="Rectangle-Copy-42" fill-opacity="0.25" fill="#E49351" x="22.907836" y="37.0873622" width="1.43173975" height="14.2643701" rx="0.715869874"></rect>
                        <rect id="Rectangle-Copy-19" fill-opacity="0.15" fill="#A15F29" x="14.3173975" y="2.85287401" width="1.43173975" height="14.2643701" rx="0.715869874"></rect>
                        <rect id="Rectangle-Copy-12" fill-opacity="0.15" fill="#A15F29" x="8.59043848" y="2.85287401" width="1.43173975" height="8.55862204" rx="0.715869874"></rect>
                        <rect id="Rectangle-Copy-2" fill-opacity="0.25" fill="#E49351" x="5.72695899" y="45.6459842" width="1.43173975" height="14.2643701" rx="0.715869874"></rect>
                        <rect id="Rectangle-Copy-20" fill-opacity="0.25" fill="#E49351" x="17.180877" y="22.8229921" width="1.43173975" height="14.2643701" rx="0.715869874"></rect>
                        <rect id="Rectangle-Copy-6" fill-opacity="0.25" fill="#E49351" x="0" y="37.0873622" width="1.43173975" height="8.55862204" rx="0.715869874"></rect>
                        <rect id="Rectangle-Copy-21" fill-opacity="0.15" fill="#A15F29" x="11.453918" y="14.2643701" width="1.43173975" height="8.55862204" rx="0.715869874"></rect>
                        <rect id="Rectangle-Copy-10" fill-opacity="0.15" fill="#A15F29" x="0" y="8.55862204" width="1.43173975" height="8.55862204" rx="0.715869874"></rect>
                        <rect id="Rectangle-Copy-9" fill-opacity="0.15" fill="#A15F29" x="5.72695899" y="8.55862204" width="1.43173975" height="8.55862204" rx="0.715869874"></rect>
                        <rect id="Rectangle-Copy-11" fill-opacity="0.15" fill="#A15F29" x="2.86347949" y="0" width="1.43173975" height="8.55862204" rx="0.715869874"></rect>
                        <rect id="Rectangle-Copy-8" fill-opacity="0.25" fill="#E49351" x="0" y="51.3517323" width="1.43173975" height="14.2643701" rx="0.715869874"></rect>
                        <rect id="Rectangle-Copy-22" fill-opacity="0.25" fill="#E49351" x="11.453918" y="28.5287401" width="1.43173975" height="14.2643701" rx="0.715869874"></rect>
                        <rect id="Rectangle-Copy-17" fill-opacity="0.25" fill="#E49351" x="8.59043848" y="54.2046063" width="1.43173975" height="15.6908071" rx="0.715869874"></rect>
                        <rect id="Rectangle-Copy-23" fill-opacity="0.25" fill="#E49351" x="20.0443565" y="34.2344882" width="1.43173975" height="15.6908071" rx="0.715869874"></rect>
                        <rect id="Rectangle-Copy-4" fill-opacity="0.25" fill="#E49351" x="5.72695899" y="25.6758661" width="1.43173975" height="14.2643701" rx="0.715869874"></rect>
                        <rect id="Rectangle-Copy-36" fill-opacity="0.25" fill="#E49351" x="17.180877" y="57.0574803" width="1.43173975" height="14.2643701" rx="0.715869874"></rect>
                        <rect id="Rectangle-Copy-34" fill-opacity="0.25" fill="#E49351" x="14.3173975" y="48.4988582" width="1.43173975" height="14.2643701" rx="0.715869874"></rect>
                        <rect id="Rectangle-Copy-24" fill-opacity="0.15" fill="#A15F29" x="17.180877" y="2.85287401" width="1.43173975" height="14.2643701" rx="0.715869874"></rect>
                        <rect id="Rectangle-Copy-15" fill-opacity="0.25" fill="#E49351" x="8.59043848" y="28.5287401" width="1.43173975" height="14.2643701" rx="0.715869874"></rect>
                        <rect id="Rectangle-Copy-25" fill-opacity="0.15" fill="#A15F29" x="20.0443565" y="8.55862204" width="1.43173975" height="14.2643701" rx="0.715869874"></rect>
                        <rect id="Rectangle-Copy-5" fill-opacity="0.25" fill="#E49351" x="0" y="25.6758661" width="1.43173975" height="5.70574803" rx="0.715869874"></rect>
                        <rect id="Rectangle-Copy-41" fill-opacity="0.25" fill="#E49351" x="20.0443565" y="62.7632283" width="1.43173975" height="5.70574803" rx="0.715869874"></rect>
                        <rect id="Rectangle-Copy-18" fill-opacity="0.25" fill="#E49351" x="5.72695899" y="62.7632283" width="1.43173975" height="8.55862204" rx="0.715869874"></rect>
                        <rect id="Rectangle-Copy-38" fill-opacity="0.25" fill="#E49351" x="11.453918" y="64.1896653" width="1.43173975" height="8.55862204" rx="0.715869874"></rect>
                        <rect id="Rectangle-Copy-26" fill-opacity="0.25" fill="#E49351" x="17.180877" y="39.9402362" width="1.43173975" height="8.55862204" rx="0.715869874"></rect>
                        <rect id="Rectangle-Copy-7" fill-opacity="0.25" fill="#E49351" x="2.86347949" y="51.3517323" width="1.43173975" height="5.70574803" rx="0.715869874"></rect>
                        <rect id="Rectangle-Copy-27" fill-opacity="0.25" fill="#E49351" x="14.3173975" y="28.5287401" width="1.43173975" height="5.70574803" rx="0.715869874"></rect>
                        <rect id="Rectangle-Copy-35" fill-opacity="0.25" fill="#E49351" x="11.453918" y="57.0574803" width="1.43173975" height="5.70574803" rx="0.715869874"></rect>
                        <rect id="Rectangle-Copy-16" fill-opacity="0.25" fill="#E49351" x="8.59043848" y="45.6459842" width="1.43173975" height="5.70574803" rx="0.715869874"></rect>
                        <rect id="Rectangle-Copy-43" fill-opacity="0.25" fill="#E49351" x="22.907836" y="52.7781693" width="1.43173975" height="5.70574803" rx="0.715869874"></rect>
                        <rect id="Rectangle-Copy-39" fill-opacity="0.25" fill="#E49351" x="22.907836" y="22.8229921" width="1.43173975" height="11.4114961" rx="0.715869874"></rect>
                        <rect id="Rectangle-Copy-28" fill-opacity="0.25" fill="#E49351" x="20.0443565" y="25.6758661" width="1.43173975" height="5.70574803" rx="0.715869874"></rect>
                        <rect id="Rectangle-Copy-3" fill-opacity="0.25" fill="#E49351" x="2.86347949" y="59.9103543" width="1.43173975" height="8.55862204" rx="0.715869874"></rect>
                        <rect id="Rectangle-Copy-32" fill-opacity="0.25" fill="#E49351" x="11.453918" y="45.6459842" width="1.43173975" height="8.55862204" rx="0.715869874"></rect>
                        <rect id="Rectangle-Copy-37" fill-opacity="0.25" fill="#E49351" x="14.3173975" y="67.0425393" width="1.43173975" height="5.70574803" rx="0.715869874"></rect>
                        <rect id="Rectangle-Copy-33" fill-opacity="0.25" fill="#E49351" x="20.0443565" y="51.3517323" width="1.43173975" height="8.55862204" rx="0.715869874"></rect>
                        <rect id="Rectangle-Copy-29" fill-opacity="0.25" fill="#E49351" x="14.3173975" y="37.0873622" width="1.43173975" height="8.55862204" rx="0.715869874"></rect>
                        <rect id="Rectangle-Copy-40" fill-opacity="0.25" fill="#E49351" x="22.907836" y="59.9103543" width="1.43173975" height="8.55862204" rx="0.715869874"></rect>
                        <path d="M2.86347949,22.8229921 L4.29521924,22.8229921 L4.29521924,27.8161417 C4.29521924,28.209699 3.97617806,28.5287401 3.58262082,28.5287401 L3.57607792,28.5287401 C3.18252068,28.5287401 2.86347949,28.209699 2.86347949,27.8161417 L2.86347949,22.8229921 Z" id="Rectangle-Copy" fill-opacity="0.25" fill="#E49351"></path>
                        <path d="M8.59043848,22.8229921 L10.0221782,22.8229921 L10.0221782,24.9632677 C10.0221782,25.3568249 9.70313705,25.6758661 9.3095798,25.6758661 L9.30303691,25.6758661 C8.90947966,25.6758661 8.59043848,25.3568249 8.59043848,24.9632677 L8.59043848,22.8229921 Z" id="Rectangle-Copy-14" fill-opacity="0.25" fill="#E49351"></path>
                        <path d="M14.3173975,22.8229921 L15.7491372,22.8229921 L15.7491372,24.9632677 C15.7491372,25.3568249 15.430096,25.6758661 15.0365388,25.6758661 L15.0299959,25.6758661 C14.6364387,25.6758661 14.3173975,25.3568249 14.3173975,24.9632677 L14.3173975,22.8229921 Z" id="Rectangle-Copy-30" fill-opacity="0.25" fill="#E49351"></path>
                        <path d="M2.86347949,17.1172441 L4.29521924,17.1172441 L4.29521924,22.1103937 C4.29521924,22.5039509 3.97617806,22.8229921 3.58262082,22.8229921 L3.57607792,22.8229921 C3.18252068,22.8229921 2.86347949,22.5039509 2.86347949,22.1103937 L2.86347949,17.1172441 Z" id="Rectangle-Copy" fill-opacity="0.15" fill="#A15F29" transform="translate(3.579349, 19.970118) rotate(-180.000000) translate(-3.579349, -19.970118) "></path>
                        <path d="M8.59043848,14.2643701 L10.0221782,14.2643701 L10.0221782,22.1103937 C10.0221782,22.5039509 9.70313705,22.8229921 9.3095798,22.8229921 L9.30303691,22.8229921 C8.90947966,22.8229921 8.59043848,22.5039509 8.59043848,22.1103937 L8.59043848,14.2643701 Z" id="Rectangle-Copy-13" fill-opacity="0.15" fill="#A15F29" transform="translate(9.306308, 18.543681) rotate(-180.000000) translate(-9.306308, -18.543681) "></path>
                        <path d="M14.3173975,19.9701181 L15.7491372,19.9701181 L15.7491372,22.1103937 C15.7491372,22.5039509 15.430096,22.8229921 15.0365388,22.8229921 L15.0299959,22.8229921 C14.6364387,22.8229921 14.3173975,22.5039509 14.3173975,22.1103937 L14.3173975,19.9701181 Z" id="Rectangle-Copy-31" fill-opacity="0.15" fill="#A15F29" transform="translate(15.033267, 21.396555) rotate(-180.000000) translate(-15.033267, -21.396555) "></path>
                    </g>
                    <g id="Group-10" opacity="0.369791667" stroke-width="1" fill-rule="evenodd" transform="translate(66.050927, 216.818425)" fill="#A15F29" fill-opacity="0.1">
                        <rect id="Rectangle" x="2.86347949" y="34.2344882" width="1.43173975" height="14.2643701" rx="0.715869874"></rect>
                        <rect id="Rectangle-Copy-42" x="22.907836" y="37.0873622" width="1.43173975" height="14.2643701" rx="0.715869874"></rect>
                        <rect id="Rectangle-Copy-19" x="14.3173975" y="2.85287401" width="1.43173975" height="14.2643701" rx="0.715869874"></rect>
                        <rect id="Rectangle-Copy-12" x="8.59043848" y="2.85287401" width="1.43173975" height="8.55862204" rx="0.715869874"></rect>
                        <rect id="Rectangle-Copy-2" x="5.72695899" y="45.6459842" width="1.43173975" height="14.2643701" rx="0.715869874"></rect>
                        <rect id="Rectangle-Copy-20" x="17.180877" y="22.8229921" width="1.43173975" height="14.2643701" rx="0.715869874"></rect>
                        <rect id="Rectangle-Copy-6" x="0" y="37.0873622" width="1.43173975" height="8.55862204" rx="0.715869874"></rect>
                        <rect id="Rectangle-Copy-21" x="11.453918" y="14.2643701" width="1.43173975" height="8.55862204" rx="0.715869874"></rect>
                        <rect id="Rectangle-Copy-10" x="0" y="8.55862204" width="1.43173975" height="8.55862204" rx="0.715869874"></rect>
                        <rect id="Rectangle-Copy-9" x="5.72695899" y="8.55862204" width="1.43173975" height="8.55862204" rx="0.715869874"></rect>
                        <rect id="Rectangle-Copy-11" x="2.86347949" y="0" width="1.43173975" height="8.55862204" rx="0.715869874"></rect>
                        <rect id="Rectangle-Copy-8" x="0" y="51.3517323" width="1.43173975" height="14.2643701" rx="0.715869874"></rect>
                        <rect id="Rectangle-Copy-22" x="11.453918" y="28.5287401" width="1.43173975" height="14.2643701" rx="0.715869874"></rect>
                        <rect id="Rectangle-Copy-17" x="8.59043848" y="54.2046063" width="1.43173975" height="15.6908071" rx="0.715869874"></rect>
                        <rect id="Rectangle-Copy-23" x="20.0443565" y="34.2344882" width="1.43173975" height="15.6908071" rx="0.715869874"></rect>
                        <rect id="Rectangle-Copy-4" x="5.72695899" y="25.6758661" width="1.43173975" height="14.2643701" rx="0.715869874"></rect>
                        <rect id="Rectangle-Copy-36" x="17.180877" y="57.0574803" width="1.43173975" height="14.2643701" rx="0.715869874"></rect>
                        <rect id="Rectangle-Copy-34" x="14.3173975" y="48.4988582" width="1.43173975" height="14.2643701" rx="0.715869874"></rect>
                        <rect id="Rectangle-Copy-24" x="17.180877" y="2.85287401" width="1.43173975" height="14.2643701" rx="0.715869874"></rect>
                        <rect id="Rectangle-Copy-15" x="8.59043848" y="28.5287401" width="1.43173975" height="14.2643701" rx="0.715869874"></rect>
                        <rect id="Rectangle-Copy-25" x="20.0443565" y="8.55862204" width="1.43173975" height="14.2643701" rx="0.715869874"></rect>
                        <rect id="Rectangle-Copy-5" x="0" y="25.6758661" width="1.43173975" height="5.70574803" rx="0.715869874"></rect>
                        <rect id="Rectangle-Copy-41" x="20.0443565" y="62.7632283" width="1.43173975" height="5.70574803" rx="0.715869874"></rect>
                        <rect id="Rectangle-Copy-18" x="5.72695899" y="62.7632283" width="1.43173975" height="8.55862204" rx="0.715869874"></rect>
                        <rect id="Rectangle-Copy-38" x="11.453918" y="64.1896653" width="1.43173975" height="8.55862204" rx="0.715869874"></rect>
                        <rect id="Rectangle-Copy-26" x="17.180877" y="39.9402362" width="1.43173975" height="8.55862204" rx="0.715869874"></rect>
                        <rect id="Rectangle-Copy-7" x="2.86347949" y="51.3517323" width="1.43173975" height="5.70574803" rx="0.715869874"></rect>
                        <rect id="Rectangle-Copy-27" x="14.3173975" y="28.5287401" width="1.43173975" height="5.70574803" rx="0.715869874"></rect>
                        <rect id="Rectangle-Copy-35" x="11.453918" y="57.0574803" width="1.43173975" height="5.70574803" rx="0.715869874"></rect>
                        <rect id="Rectangle-Copy-16" x="8.59043848" y="45.6459842" width="1.43173975" height="5.70574803" rx="0.715869874"></rect>
                        <rect id="Rectangle-Copy-43" x="22.907836" y="52.7781693" width="1.43173975" height="5.70574803" rx="0.715869874"></rect>
                        <rect id="Rectangle-Copy-39" x="22.907836" y="22.8229921" width="1.43173975" height="11.4114961" rx="0.715869874"></rect>
                        <rect id="Rectangle-Copy-28" x="20.0443565" y="25.6758661" width="1.43173975" height="5.70574803" rx="0.715869874"></rect>
                        <rect id="Rectangle-Copy-3" x="2.86347949" y="59.9103543" width="1.43173975" height="8.55862204" rx="0.715869874"></rect>
                        <rect id="Rectangle-Copy-32" x="11.453918" y="45.6459842" width="1.43173975" height="8.55862204" rx="0.715869874"></rect>
                        <rect id="Rectangle-Copy-37" x="14.3173975" y="67.0425393" width="1.43173975" height="5.70574803" rx="0.715869874"></rect>
                        <rect id="Rectangle-Copy-33" x="20.0443565" y="51.3517323" width="1.43173975" height="8.55862204" rx="0.715869874"></rect>
                        <rect id="Rectangle-Copy-29" x="14.3173975" y="37.0873622" width="1.43173975" height="8.55862204" rx="0.715869874"></rect>
                        <rect id="Rectangle-Copy-40" x="22.907836" y="59.9103543" width="1.43173975" height="8.55862204" rx="0.715869874"></rect>
                        <path d="M2.86347949,22.8229921 L4.29521924,22.8229921 L4.29521924,27.8161417 C4.29521924,28.209699 3.97617806,28.5287401 3.58262082,28.5287401 L3.57607792,28.5287401 C3.18252068,28.5287401 2.86347949,28.209699 2.86347949,27.8161417 L2.86347949,22.8229921 Z" id="Rectangle-Copy"></path>
                        <path d="M8.59043848,22.8229921 L10.0221782,22.8229921 L10.0221782,24.9632677 C10.0221782,25.3568249 9.70313705,25.6758661 9.3095798,25.6758661 L9.30303691,25.6758661 C8.90947966,25.6758661 8.59043848,25.3568249 8.59043848,24.9632677 L8.59043848,22.8229921 Z" id="Rectangle-Copy-14"></path>
                        <path d="M14.3173975,22.8229921 L15.7491372,22.8229921 L15.7491372,24.9632677 C15.7491372,25.3568249 15.430096,25.6758661 15.0365388,25.6758661 L15.0299959,25.6758661 C14.6364387,25.6758661 14.3173975,25.3568249 14.3173975,24.9632677 L14.3173975,22.8229921 Z" id="Rectangle-Copy-30"></path>
                        <path d="M2.86347949,17.1172441 L4.29521924,17.1172441 L4.29521924,22.1103937 C4.29521924,22.5039509 3.97617806,22.8229921 3.58262082,22.8229921 L3.57607792,22.8229921 C3.18252068,22.8229921 2.86347949,22.5039509 2.86347949,22.1103937 L2.86347949,17.1172441 Z" id="Rectangle-Copy" transform="translate(3.579349, 19.970118) rotate(-180.000000) translate(-3.579349, -19.970118) "></path>
                        <path d="M8.59043848,14.2643701 L10.0221782,14.2643701 L10.0221782,22.1103937 C10.0221782,22.5039509 9.70313705,22.8229921 9.3095798,22.8229921 L9.30303691,22.8229921 C8.90947966,22.8229921 8.59043848,22.5039509 8.59043848,22.1103937 L8.59043848,14.2643701 Z" id="Rectangle-Copy-13" transform="translate(9.306308, 18.543681) rotate(-180.000000) translate(-9.306308, -18.543681) "></path>
                        <path d="M14.3173975,19.9701181 L15.7491372,19.9701181 L15.7491372,22.1103937 C15.7491372,22.5039509 15.430096,22.8229921 15.0365388,22.8229921 L15.0299959,22.8229921 C14.6364387,22.8229921 14.3173975,22.5039509 14.3173975,22.1103937 L14.3173975,19.9701181 Z" id="Rectangle-Copy-31" transform="translate(15.033267, 21.396555) rotate(-180.000000) translate(-15.033267, -21.396555) "></path>
                    </g>
                    <g id="Group-10" opacity="0.3" stroke-width="1" fill-rule="evenodd" transform="translate(77.890503, 190.555197) scale(-1, 1) translate(-77.890503, -190.555197) translate(65.390503, 154.055197)" fill="#A15F29" fill-opacity="0.1">
                        <rect id="Rectangle" x="2.86347949" y="34.2344882" width="1.43173975" height="14.2643701" rx="0.715869874"></rect>
                        <rect id="Rectangle-Copy-42" x="22.907836" y="37.0873622" width="1.43173975" height="14.2643701" rx="0.715869874"></rect>
                        <rect id="Rectangle-Copy-19" x="14.3173975" y="2.85287401" width="1.43173975" height="14.2643701" rx="0.715869874"></rect>
                        <rect id="Rectangle-Copy-12" x="8.59043848" y="2.85287401" width="1.43173975" height="8.55862204" rx="0.715869874"></rect>
                        <rect id="Rectangle-Copy-2" x="5.72695899" y="45.6459842" width="1.43173975" height="14.2643701" rx="0.715869874"></rect>
                        <rect id="Rectangle-Copy-20" x="17.180877" y="22.8229921" width="1.43173975" height="14.2643701" rx="0.715869874"></rect>
                        <rect id="Rectangle-Copy-6" x="0" y="37.0873622" width="1.43173975" height="8.55862204" rx="0.715869874"></rect>
                        <rect id="Rectangle-Copy-21" x="11.453918" y="14.2643701" width="1.43173975" height="8.55862204" rx="0.715869874"></rect>
                        <rect id="Rectangle-Copy-10" x="0" y="8.55862204" width="1.43173975" height="8.55862204" rx="0.715869874"></rect>
                        <rect id="Rectangle-Copy-9" x="5.72695899" y="8.55862204" width="1.43173975" height="8.55862204" rx="0.715869874"></rect>
                        <rect id="Rectangle-Copy-11" x="2.86347949" y="0" width="1.43173975" height="8.55862204" rx="0.715869874"></rect>
                        <rect id="Rectangle-Copy-8" x="0" y="51.3517323" width="1.43173975" height="14.2643701" rx="0.715869874"></rect>
                        <rect id="Rectangle-Copy-22" x="11.453918" y="28.5287401" width="1.43173975" height="14.2643701" rx="0.715869874"></rect>
                        <rect id="Rectangle-Copy-17" x="8.59043848" y="54.2046063" width="1.43173975" height="15.6908071" rx="0.715869874"></rect>
                        <rect id="Rectangle-Copy-23" x="20.0443565" y="34.2344882" width="1.43173975" height="15.6908071" rx="0.715869874"></rect>
                        <rect id="Rectangle-Copy-4" x="5.72695899" y="25.6758661" width="1.43173975" height="14.2643701" rx="0.715869874"></rect>
                        <rect id="Rectangle-Copy-36" x="17.180877" y="57.0574803" width="1.43173975" height="14.2643701" rx="0.715869874"></rect>
                        <rect id="Rectangle-Copy-34" x="14.3173975" y="48.4988582" width="1.43173975" height="14.2643701" rx="0.715869874"></rect>
                        <rect id="Rectangle-Copy-24" x="17.180877" y="2.85287401" width="1.43173975" height="14.2643701" rx="0.715869874"></rect>
                        <rect id="Rectangle-Copy-15" x="8.59043848" y="28.5287401" width="1.43173975" height="14.2643701" rx="0.715869874"></rect>
                        <rect id="Rectangle-Copy-25" x="20.0443565" y="8.55862204" width="1.43173975" height="14.2643701" rx="0.715869874"></rect>
                        <rect id="Rectangle-Copy-5" x="0" y="25.6758661" width="1.43173975" height="5.70574803" rx="0.715869874"></rect>
                        <rect id="Rectangle-Copy-41" x="20.0443565" y="62.7632283" width="1.43173975" height="5.70574803" rx="0.715869874"></rect>
                        <rect id="Rectangle-Copy-18" x="5.72695899" y="62.7632283" width="1.43173975" height="8.55862204" rx="0.715869874"></rect>
                        <rect id="Rectangle-Copy-38" x="11.453918" y="64.1896653" width="1.43173975" height="8.55862204" rx="0.715869874"></rect>
                        <rect id="Rectangle-Copy-26" x="17.180877" y="39.9402362" width="1.43173975" height="8.55862204" rx="0.715869874"></rect>
                        <rect id="Rectangle-Copy-7" x="2.86347949" y="51.3517323" width="1.43173975" height="5.70574803" rx="0.715869874"></rect>
                        <rect id="Rectangle-Copy-27" x="14.3173975" y="28.5287401" width="1.43173975" height="5.70574803" rx="0.715869874"></rect>
                        <rect id="Rectangle-Copy-35" x="11.453918" y="57.0574803" width="1.43173975" height="5.70574803" rx="0.715869874"></rect>
                        <rect id="Rectangle-Copy-16" x="8.59043848" y="45.6459842" width="1.43173975" height="5.70574803" rx="0.715869874"></rect>
                        <rect id="Rectangle-Copy-43" x="22.907836" y="52.7781693" width="1.43173975" height="5.70574803" rx="0.715869874"></rect>
                        <rect id="Rectangle-Copy-39" x="22.907836" y="22.8229921" width="1.43173975" height="11.4114961" rx="0.715869874"></rect>
                        <rect id="Rectangle-Copy-28" x="20.0443565" y="25.6758661" width="1.43173975" height="5.70574803" rx="0.715869874"></rect>
                        <rect id="Rectangle-Copy-3" x="2.86347949" y="59.9103543" width="1.43173975" height="8.55862204" rx="0.715869874"></rect>
                        <rect id="Rectangle-Copy-32" x="11.453918" y="45.6459842" width="1.43173975" height="8.55862204" rx="0.715869874"></rect>
                        <rect id="Rectangle-Copy-37" x="14.3173975" y="67.0425393" width="1.43173975" height="5.70574803" rx="0.715869874"></rect>
                        <rect id="Rectangle-Copy-33" x="20.0443565" y="51.3517323" width="1.43173975" height="8.55862204" rx="0.715869874"></rect>
                        <rect id="Rectangle-Copy-29" x="14.3173975" y="37.0873622" width="1.43173975" height="8.55862204" rx="0.715869874"></rect>
                        <rect id="Rectangle-Copy-40" x="22.907836" y="59.9103543" width="1.43173975" height="8.55862204" rx="0.715869874"></rect>
                        <path d="M2.86347949,22.8229921 L4.29521924,22.8229921 L4.29521924,27.8161417 C4.29521924,28.209699 3.97617806,28.5287401 3.58262082,28.5287401 L3.57607792,28.5287401 C3.18252068,28.5287401 2.86347949,28.209699 2.86347949,27.8161417 L2.86347949,22.8229921 Z" id="Rectangle-Copy"></path>
                        <path d="M8.59043848,22.8229921 L10.0221782,22.8229921 L10.0221782,24.9632677 C10.0221782,25.3568249 9.70313705,25.6758661 9.3095798,25.6758661 L9.30303691,25.6758661 C8.90947966,25.6758661 8.59043848,25.3568249 8.59043848,24.9632677 L8.59043848,22.8229921 Z" id="Rectangle-Copy-14"></path>
                        <path d="M14.3173975,22.8229921 L15.7491372,22.8229921 L15.7491372,24.9632677 C15.7491372,25.3568249 15.430096,25.6758661 15.0365388,25.6758661 L15.0299959,25.6758661 C14.6364387,25.6758661 14.3173975,25.3568249 14.3173975,24.9632677 L14.3173975,22.8229921 Z" id="Rectangle-Copy-30"></path>
                        <path d="M2.86347949,17.1172441 L4.29521924,17.1172441 L4.29521924,22.1103937 C4.29521924,22.5039509 3.97617806,22.8229921 3.58262082,22.8229921 L3.57607792,22.8229921 C3.18252068,22.8229921 2.86347949,22.5039509 2.86347949,22.1103937 L2.86347949,17.1172441 Z" id="Rectangle-Copy" transform="translate(3.579349, 19.970118) rotate(-180.000000) translate(-3.579349, -19.970118) "></path>
                        <path d="M8.59043848,14.2643701 L10.0221782,14.2643701 L10.0221782,22.1103937 C10.0221782,22.5039509 9.70313705,22.8229921 9.3095798,22.8229921 L9.30303691,22.8229921 C8.90947966,22.8229921 8.59043848,22.5039509 8.59043848,22.1103937 L8.59043848,14.2643701 Z" id="Rectangle-Copy-13" transform="translate(9.306308, 18.543681) rotate(-180.000000) translate(-9.306308, -18.543681) "></path>
                        <path d="M14.3173975,19.9701181 L15.7491372,19.9701181 L15.7491372,22.1103937 C15.7491372,22.5039509 15.430096,22.8229921 15.0365388,22.8229921 L15.0299959,22.8229921 C14.6364387,22.8229921 14.3173975,22.5039509 14.3173975,22.1103937 L14.3173975,19.9701181 Z" id="Rectangle-Copy-31" transform="translate(15.033267, 21.396555) rotate(-180.000000) translate(-15.033267, -21.396555) "></path>
                    </g>
                    <g id="Group-10" opacity="0.3" stroke-width="1" fill-rule="evenodd" transform="translate(77.890503, 111.849449) scale(-1, -1) translate(-77.890503, -111.849449) translate(65.390503, 75.349449)" fill="#A15F29" fill-opacity="0.1">
                        <rect id="Rectangle" x="2.86347949" y="34.2344882" width="1.43173975" height="14.2643701" rx="0.715869874"></rect>
                        <rect id="Rectangle-Copy-42" x="22.907836" y="37.0873622" width="1.43173975" height="14.2643701" rx="0.715869874"></rect>
                        <rect id="Rectangle-Copy-19" x="14.3173975" y="2.85287401" width="1.43173975" height="14.2643701" rx="0.715869874"></rect>
                        <rect id="Rectangle-Copy-12" x="8.59043848" y="2.85287401" width="1.43173975" height="8.55862204" rx="0.715869874"></rect>
                        <rect id="Rectangle-Copy-2" x="5.72695899" y="45.6459842" width="1.43173975" height="14.2643701" rx="0.715869874"></rect>
                        <rect id="Rectangle-Copy-20" x="17.180877" y="22.8229921" width="1.43173975" height="14.2643701" rx="0.715869874"></rect>
                        <rect id="Rectangle-Copy-6" x="0" y="37.0873622" width="1.43173975" height="8.55862204" rx="0.715869874"></rect>
                        <rect id="Rectangle-Copy-21" x="11.453918" y="14.2643701" width="1.43173975" height="8.55862204" rx="0.715869874"></rect>
                        <rect id="Rectangle-Copy-10" x="0" y="8.55862204" width="1.43173975" height="8.55862204" rx="0.715869874"></rect>
                        <rect id="Rectangle-Copy-9" x="5.72695899" y="8.55862204" width="1.43173975" height="8.55862204" rx="0.715869874"></rect>
                        <rect id="Rectangle-Copy-11" x="2.86347949" y="0" width="1.43173975" height="8.55862204" rx="0.715869874"></rect>
                        <rect id="Rectangle-Copy-8" x="0" y="51.3517323" width="1.43173975" height="14.2643701" rx="0.715869874"></rect>
                        <rect id="Rectangle-Copy-22" x="11.453918" y="28.5287401" width="1.43173975" height="14.2643701" rx="0.715869874"></rect>
                        <rect id="Rectangle-Copy-17" x="8.59043848" y="54.2046063" width="1.43173975" height="15.6908071" rx="0.715869874"></rect>
                        <rect id="Rectangle-Copy-23" x="20.0443565" y="34.2344882" width="1.43173975" height="15.6908071" rx="0.715869874"></rect>
                        <rect id="Rectangle-Copy-4" x="5.72695899" y="25.6758661" width="1.43173975" height="14.2643701" rx="0.715869874"></rect>
                        <rect id="Rectangle-Copy-36" x="17.180877" y="57.0574803" width="1.43173975" height="14.2643701" rx="0.715869874"></rect>
                        <rect id="Rectangle-Copy-34" x="14.3173975" y="48.4988582" width="1.43173975" height="14.2643701" rx="0.715869874"></rect>
                        <rect id="Rectangle-Copy-24" x="17.180877" y="2.85287401" width="1.43173975" height="14.2643701" rx="0.715869874"></rect>
                        <rect id="Rectangle-Copy-15" x="8.59043848" y="28.5287401" width="1.43173975" height="14.2643701" rx="0.715869874"></rect>
                        <rect id="Rectangle-Copy-25" x="20.0443565" y="8.55862204" width="1.43173975" height="14.2643701" rx="0.715869874"></rect>
                        <rect id="Rectangle-Copy-5" x="0" y="25.6758661" width="1.43173975" height="5.70574803" rx="0.715869874"></rect>
                        <rect id="Rectangle-Copy-41" x="20.0443565" y="62.7632283" width="1.43173975" height="5.70574803" rx="0.715869874"></rect>
                        <rect id="Rectangle-Copy-18" x="5.72695899" y="62.7632283" width="1.43173975" height="8.55862204" rx="0.715869874"></rect>
                        <rect id="Rectangle-Copy-38" x="11.453918" y="64.1896653" width="1.43173975" height="8.55862204" rx="0.715869874"></rect>
                        <rect id="Rectangle-Copy-26" x="17.180877" y="39.9402362" width="1.43173975" height="8.55862204" rx="0.715869874"></rect>
                        <rect id="Rectangle-Copy-7" x="2.86347949" y="51.3517323" width="1.43173975" height="5.70574803" rx="0.715869874"></rect>
                        <rect id="Rectangle-Copy-27" x="14.3173975" y="28.5287401" width="1.43173975" height="5.70574803" rx="0.715869874"></rect>
                        <rect id="Rectangle-Copy-35" x="11.453918" y="57.0574803" width="1.43173975" height="5.70574803" rx="0.715869874"></rect>
                        <rect id="Rectangle-Copy-16" x="8.59043848" y="45.6459842" width="1.43173975" height="5.70574803" rx="0.715869874"></rect>
                        <rect id="Rectangle-Copy-43" x="22.907836" y="52.7781693" width="1.43173975" height="5.70574803" rx="0.715869874"></rect>
                        <rect id="Rectangle-Copy-39" x="22.907836" y="22.8229921" width="1.43173975" height="11.4114961" rx="0.715869874"></rect>
                        <rect id="Rectangle-Copy-28" x="20.0443565" y="25.6758661" width="1.43173975" height="5.70574803" rx="0.715869874"></rect>
                        <rect id="Rectangle-Copy-3" x="2.86347949" y="59.9103543" width="1.43173975" height="8.55862204" rx="0.715869874"></rect>
                        <rect id="Rectangle-Copy-32" x="11.453918" y="45.6459842" width="1.43173975" height="8.55862204" rx="0.715869874"></rect>
                        <rect id="Rectangle-Copy-37" x="14.3173975" y="67.0425393" width="1.43173975" height="5.70574803" rx="0.715869874"></rect>
                        <rect id="Rectangle-Copy-33" x="20.0443565" y="51.3517323" width="1.43173975" height="8.55862204" rx="0.715869874"></rect>
                        <rect id="Rectangle-Copy-29" x="14.3173975" y="37.0873622" width="1.43173975" height="8.55862204" rx="0.715869874"></rect>
                        <rect id="Rectangle-Copy-40" x="22.907836" y="59.9103543" width="1.43173975" height="8.55862204" rx="0.715869874"></rect>
                        <path d="M2.86347949,22.8229921 L4.29521924,22.8229921 L4.29521924,27.8161417 C4.29521924,28.209699 3.97617806,28.5287401 3.58262082,28.5287401 L3.57607792,28.5287401 C3.18252068,28.5287401 2.86347949,28.209699 2.86347949,27.8161417 L2.86347949,22.8229921 Z" id="Rectangle-Copy"></path>
                        <path d="M8.59043848,22.8229921 L10.0221782,22.8229921 L10.0221782,24.9632677 C10.0221782,25.3568249 9.70313705,25.6758661 9.3095798,25.6758661 L9.30303691,25.6758661 C8.90947966,25.6758661 8.59043848,25.3568249 8.59043848,24.9632677 L8.59043848,22.8229921 Z" id="Rectangle-Copy-14"></path>
                        <path d="M14.3173975,22.8229921 L15.7491372,22.8229921 L15.7491372,24.9632677 C15.7491372,25.3568249 15.430096,25.6758661 15.0365388,25.6758661 L15.0299959,25.6758661 C14.6364387,25.6758661 14.3173975,25.3568249 14.3173975,24.9632677 L14.3173975,22.8229921 Z" id="Rectangle-Copy-30"></path>
                        <path d="M2.86347949,17.1172441 L4.29521924,17.1172441 L4.29521924,22.1103937 C4.29521924,22.5039509 3.97617806,22.8229921 3.58262082,22.8229921 L3.57607792,22.8229921 C3.18252068,22.8229921 2.86347949,22.5039509 2.86347949,22.1103937 L2.86347949,17.1172441 Z" id="Rectangle-Copy" transform="translate(3.579349, 19.970118) rotate(-180.000000) translate(-3.579349, -19.970118) "></path>
                        <path d="M8.59043848,14.2643701 L10.0221782,14.2643701 L10.0221782,22.1103937 C10.0221782,22.5039509 9.70313705,22.8229921 9.3095798,22.8229921 L9.30303691,22.8229921 C8.90947966,22.8229921 8.59043848,22.5039509 8.59043848,22.1103937 L8.59043848,14.2643701 Z" id="Rectangle-Copy-13" transform="translate(9.306308, 18.543681) rotate(-180.000000) translate(-9.306308, -18.543681) "></path>
                        <path d="M14.3173975,19.9701181 L15.7491372,19.9701181 L15.7491372,22.1103937 C15.7491372,22.5039509 15.430096,22.8229921 15.0365388,22.8229921 L15.0299959,22.8229921 C14.6364387,22.8229921 14.3173975,22.5039509 14.3173975,22.1103937 L14.3173975,19.9701181 Z" id="Rectangle-Copy-31" transform="translate(15.033267, 21.396555) rotate(-180.000000) translate(-15.033267, -21.396555) "></path>
                    </g>
                    <rect id="Rectangle" fill-opacity="0.39" fill="url(#linearGradient-18)" fill-rule="nonzero" filter="url(#filter-19)" x="0.190898633" y="0" width="157.491372" height="285.287401" rx="25.6535433"></rect>
                    <path d="M36.2668234,143.982471 L121.691328,143.982471 C139.007847,143.982471 153.045659,158.020283 153.045659,175.336802 C153.045659,201.463658 153.045659,227.590513 153.045659,253.717369 C153.045659,272.425435 141.362688,276.641113 136.876392,276.641113 C21.1651356,278.269622 136.755455,277.150698 20.996641,278.06755 C15.5831112,277.658199 4.64771497,266.669107 4.82737349,253.717369 C4.97760409,242.887116 5.0060038,216.78386 4.91257262,175.407601 C4.87347196,158.091128 18.879549,144.021654 36.1960228,143.982551 C36.2196229,143.982498 36.2432232,143.982471 36.2668234,143.982471 Z" id="Rectangle" fill-opacity="0.51" fill="url(#linearGradient-20)" fill-rule="evenodd"></path>
                    <path d="M43.0253189,26.7258086 L157.682271,26.7258086 L78.8819221,83.5269406 L17.3717756,284.629862 L17.3717756,52.3793519 C17.3717756,38.2112912 28.8572582,26.7258086 43.0253189,26.7258086 Z" id="Rectangle" fill-opacity="0.15" fill="url(#linearGradient-21)" fill-rule="nonzero" transform="translate(87.527023, 155.677835) scale(-1, -1) translate(-87.527023, -155.677835) "></path>
                    <path d="M13.0630127,7.10542736e-15 C13.2130606,0.251538497 126.821364,0.191753058 126.821364,7.10542736e-15 C149.902564,7.10542736e-15 145.053357,36.7603689 145.053357,174.09706 C145.053357,254.338753 -2.04745705,340.329323 -2.04745705,184.404785 C-2.04745705,28.4802475 -8.10631083,0.191753058 13.0630127,7.10542736e-15 Z" id="Rectangle" fill-opacity="0.89" fill="url(#radialGradient-22)" fill-rule="nonzero" opacity="0.663341704" transform="translate(71.313725, 135.633479) scale(1, -1) rotate(-180.000000) translate(-71.313725, -135.633479) "></path>
                    <rect id="Rectangle" fill="#FFFFFF" fill-rule="evenodd" opacity="0.592285156" filter="url(#filter-23)" x="17.3717756" y="9.35403301" width="122.93872" height="5.34516172" rx="2.67258086"></rect>
                    <g id="Bubbles" stroke-width="1" fill-rule="evenodd" transform="translate(128.283881, 236.523406)" fill="#FFFFFF" stroke="#FFFFFF" stroke-opacity="0.0568181818">
                        <circle id="Oval" stroke-width="1.42519685" fill-opacity="0.11362" filter="url(#filter-24)" cx="11.453918" cy="31.659804" r="5.7007874"></circle>
                        <ellipse id="Oval-Copy-4" stroke-width="1.42519685" fill-opacity="0.0636199738" filter="url(#filter-25)" cx="2.86347949" cy="17.268984" rx="2.86347949" ry="2.878164"></ellipse>
                        <ellipse id="Oval-Copy-5" stroke-width="1.42519685" fill-opacity="0.0636199738" filter="url(#filter-26)" cx="17.180877" cy="8.63449201" rx="2.86347949" ry="2.878164"></ellipse>
                        <ellipse id="Oval-Copy-6" stroke-width="1.42519685" fill-opacity="0.0636199738" filter="url(#filter-27)" cx="7.15869874" cy="1.439082" rx="1.43173975" ry="1.439082"></ellipse>
                    </g>
                </g>
                <g id="Stick-markings" transform="translate(65.000985, 74.853475)"></g>
            </g>
        </g>
    </g>
</svg>