<svg width="232" height="61" viewBox="0 0 232 61" fill="none" xmlns="http://www.w3.org/2000/svg">
<path fill-rule="evenodd" clip-rule="evenodd" d="M148.953 39.9609C146.569 39.9609 144.48 39.4406 142.687 38.3998C140.893 37.359 139.508 35.9223 138.532 34.0896C137.556 32.257 137.045 30.1528 137 27.7771C137.045 25.4014 137.556 23.2973 138.532 21.4646C139.508 19.632 140.893 18.1953 142.687 17.1545C144.48 16.1137 146.569 15.5933 148.953 15.5933C151.337 15.5933 153.42 16.1137 155.202 17.1545C156.984 18.1953 158.369 19.6376 159.356 21.4816C160.344 23.3256 160.86 25.4241 160.906 27.7771C160.86 30.1302 160.344 32.2287 159.356 34.0727C158.369 35.9167 156.984 37.359 155.202 38.3998C153.42 39.4406 151.337 39.9609 148.953 39.9609ZM72.841 39.6216C72.2508 39.6216 71.7456 39.4123 71.3256 38.9937C70.9056 38.5751 70.6956 38.0717 70.6956 37.4834V17.3242C70.6956 16.8943 70.8432 16.5266 71.1383 16.2212C71.4335 15.9157 71.7967 15.763 72.2281 15.763C72.6594 15.763 73.0283 15.9157 73.3348 16.2212C73.6413 16.5266 73.7946 16.8943 73.7946 17.3242V36.5332H84.9304C85.3617 36.5332 85.7307 36.6859 86.0372 36.9913C86.3437 37.2968 86.4969 37.6644 86.4969 38.0943C86.4969 38.5242 86.3437 38.8862 86.0372 39.1804C85.7307 39.4745 85.3617 39.6216 84.9304 39.6216H72.841ZM51.1455 39.7912C50.7141 39.7912 50.3509 39.6442 50.0557 39.35C49.7606 39.0559 49.613 38.6939 49.613 38.264V17.4938C49.613 17.064 49.7606 16.6963 50.0557 16.3909C50.3509 16.0854 50.7141 15.9327 51.1455 15.9327H64.3927C64.8013 15.9327 65.1476 16.0741 65.4313 16.3569C65.7151 16.6397 65.857 16.9848 65.857 17.392C65.857 17.7993 65.7151 18.1387 65.4313 18.4102C65.1476 18.6817 64.8013 18.8174 64.3927 18.8174H52.712V26.3178H63.2008C63.6094 26.3178 63.9556 26.4592 64.2394 26.742C64.5232 27.0248 64.6651 27.3699 64.6651 27.7771C64.6651 28.1844 64.5232 28.5238 64.2394 28.7953C63.9556 29.0668 63.6094 29.2025 63.2008 29.2025H52.712V38.264C52.712 38.6939 52.5588 39.0559 52.2523 39.35C51.9458 39.6442 51.5768 39.7912 51.1455 39.7912ZM90.8203 39.35C91.1041 39.6442 91.473 39.7912 91.9271 39.7912C92.2449 39.7912 92.5344 39.7064 92.7955 39.5367C93.0566 39.367 93.2552 39.1351 93.3914 38.841L95.605 33.5466H107.183L109.397 38.841C109.533 39.1351 109.732 39.367 109.993 39.5367C110.254 39.7064 110.544 39.7912 110.861 39.7912C111.315 39.7912 111.684 39.6442 111.968 39.35C112.252 39.0559 112.394 38.6939 112.394 38.264C112.394 38.083 112.337 37.8568 112.224 37.5853L103.54 17.1545C103.358 16.7472 103.103 16.4135 102.773 16.1533C102.444 15.8931 102.041 15.763 101.564 15.763H101.224C100.747 15.763 100.344 15.8931 100.015 16.1533C99.6858 16.4135 99.4304 16.7472 99.2488 17.1545L90.5649 37.5853C90.4514 37.8568 90.3946 38.083 90.3946 38.264C90.3946 38.6939 90.5365 39.0559 90.8203 39.35ZM96.7969 30.7298H105.992L101.394 19.6999L96.7969 30.7298ZM121.362 38.2301C121.838 39.2709 122.542 39.7912 123.473 39.7912H124.222C125.153 39.7912 125.857 39.2709 126.333 38.2301L134.745 17.9011C134.813 17.7201 134.847 17.5278 134.847 17.3242C134.847 16.849 134.711 16.4701 134.438 16.1872C134.166 15.9044 133.791 15.763 133.315 15.763C132.997 15.763 132.707 15.8592 132.446 16.0515C132.185 16.2438 131.987 16.4983 131.85 16.8151L123.848 36.7029L115.845 16.8151C115.708 16.4983 115.51 16.2438 115.249 16.0515C114.988 15.8592 114.698 15.763 114.38 15.763C113.904 15.763 113.529 15.9044 113.257 16.1872C112.984 16.4701 112.848 16.849 112.848 17.3242C112.848 17.5278 112.882 17.7201 112.95 17.9011L121.362 38.2301ZM153.686 35.8544C152.347 36.6689 150.769 37.0762 148.953 37.0762C147.114 37.0762 145.53 36.6689 144.202 35.8544C142.874 35.0399 141.858 33.9313 141.154 32.5285C140.451 31.1257 140.099 29.5419 140.099 27.7771C140.099 26.0123 140.451 24.4286 141.154 23.0258C141.858 21.623 142.874 20.5144 144.202 19.6998C145.53 18.8853 147.114 18.4781 148.953 18.4781C150.769 18.4781 152.347 18.8853 153.686 19.6998C155.026 20.5144 156.048 21.623 156.751 23.0258C157.455 24.4286 157.807 26.0123 157.807 27.7771C157.807 29.5419 157.455 31.1257 156.751 32.5285C156.048 33.9313 155.026 35.0399 153.686 35.8544ZM175.118 39.9609C173.506 39.9609 171.951 39.6216 170.452 38.9428C168.954 38.264 167.728 37.2289 166.775 35.8374C165.821 34.446 165.344 32.7434 165.344 30.7297V17.3242C165.344 16.8943 165.492 16.5266 165.787 16.2212C166.082 15.9157 166.445 15.763 166.877 15.763C167.308 15.763 167.677 15.9157 167.984 16.2212C168.29 16.5266 168.443 16.8943 168.443 17.3242V30.8316C168.443 32.1891 168.755 33.343 169.38 34.2933C170.004 35.2435 170.827 35.9562 171.849 36.4314C172.87 36.9065 173.96 37.1441 175.118 37.1441C176.276 37.1441 177.366 36.9065 178.387 36.4314C179.409 35.9562 180.232 35.2435 180.856 34.2933C181.48 33.343 181.793 32.1891 181.793 30.8316V17.3242C181.793 16.8943 181.94 16.5266 182.235 16.2212C182.53 15.9157 182.894 15.763 183.325 15.763C183.756 15.763 184.125 15.9157 184.432 16.2212C184.738 16.5266 184.892 16.8943 184.892 17.3242V30.7297C184.892 32.7434 184.415 34.446 183.461 35.8374C182.508 37.2289 181.282 38.264 179.783 38.9428C178.285 39.6216 176.73 39.9609 175.118 39.9609ZM191.203 39.35C191.498 39.6442 191.861 39.7912 192.293 39.7912C192.724 39.7912 193.093 39.6442 193.4 39.35C193.706 39.0559 193.859 38.6939 193.859 38.264V30.3904H200.909C202.475 30.3904 203.644 30.7693 204.416 31.5273C205.188 32.2852 205.676 33.145 205.881 34.1066C206.085 35.0682 206.187 36.1146 206.187 37.2459V38.264C206.187 38.7165 206.329 39.0842 206.613 39.367C206.896 39.6498 207.277 39.7912 207.754 39.7912C208.185 39.7912 208.548 39.6442 208.843 39.35C209.138 39.0559 209.286 38.6939 209.286 38.264V36.7029C209.286 35.1643 208.985 33.5975 208.384 32.0024C207.782 30.4073 206.664 29.3948 205.029 28.965C206.482 28.4672 207.589 27.6583 208.349 26.5384C209.11 25.4184 209.49 24.1797 209.49 22.8221C209.49 20.7632 208.718 19.1003 207.175 17.8332C205.631 16.5662 203.315 15.9327 200.227 15.9327H192.293C191.861 15.9327 191.498 16.0854 191.203 16.3909C190.908 16.6963 190.76 17.064 190.76 17.4938V38.264C190.76 38.6939 190.908 39.0559 191.203 39.35ZM200.023 27.4717C201.976 27.4717 203.525 27.0871 204.672 26.3178C205.818 25.5485 206.391 24.4625 206.391 23.0597C206.391 21.7022 205.898 20.6614 204.91 19.9374C203.922 19.2134 202.237 18.8514 199.853 18.8514H193.859V27.4717H200.023ZM214.772 38.3319C217.292 39.4179 219.993 39.9609 222.877 39.9609C224.602 39.9609 226.123 39.6781 227.44 39.1125C228.757 38.5469 229.778 37.7606 230.505 36.7538C231.231 35.7469 231.594 34.61 231.594 33.343C231.594 31.8045 231.203 30.5827 230.42 29.6777C229.636 28.7726 228.694 28.1052 227.593 27.6753C226.492 27.2454 225.045 26.8156 223.251 26.3857C221.866 26.0689 220.771 25.7691 219.965 25.4863C219.159 25.2035 218.489 24.8075 217.956 24.2985C217.422 23.7894 217.155 23.1276 217.155 22.3131C217.155 21.0913 217.717 20.141 218.841 19.4623C219.965 18.7835 221.424 18.4441 223.217 18.4441C225.101 18.4441 226.929 18.7496 228.7 19.3605C228.927 19.451 229.109 19.4962 229.245 19.4962C229.653 19.4962 229.983 19.3492 230.232 19.055C230.482 18.7609 230.607 18.4328 230.607 18.0708C230.607 17.392 230.289 16.9395 229.653 16.7133C227.633 15.9666 225.374 15.5933 222.877 15.5933C221.015 15.5933 219.42 15.9044 218.092 16.5266C216.764 17.1488 215.759 17.986 215.078 19.038C214.397 20.0901 214.056 21.261 214.056 22.5507C214.056 24.0213 214.465 25.1978 215.282 26.0802C216.1 26.9626 217.076 27.6244 218.211 28.0656C219.346 28.5068 220.833 28.965 222.672 29.4401C224.057 29.8021 225.124 30.1132 225.873 30.3734C226.623 30.6336 227.253 30.9899 227.763 31.4425C228.274 31.895 228.53 32.4606 228.53 33.1394C228.53 35.7413 226.543 37.0423 222.57 37.0423C220.186 37.0423 217.95 36.5784 215.861 35.6508C215.657 35.5603 215.441 35.515 215.214 35.515C214.806 35.515 214.471 35.6565 214.21 35.9393C213.949 36.2221 213.818 36.5558 213.818 36.9404C213.818 37.2346 213.909 37.5117 214.09 37.7719C214.272 38.0321 214.499 38.2188 214.772 38.3319Z" fill="black"/>
<g clip-path="url(#clip0)">
<path d="M10.7119 47.2524H15.4587V57.648C15.4587 58.6919 14.6125 59.5381 13.5686 59.5381H12.6019C11.5581 59.5381 10.7119 58.6919 10.7119 57.648V47.2524Z" fill="#FFC99D"/>
<path d="M21.877 0H4.25255C1.90393 0 0 1.90401 0 4.25272V42.9997C0 45.3485 1.90393 47.2525 4.25255 47.2525H21.877C24.2256 47.2525 26.1295 45.3485 26.1295 42.9997V4.25272C26.1295 1.90401 24.2256 0 21.877 0Z" fill="#00BBFF"/>
<path d="M4.15804 0H22.3495C24.4371 0 26.1295 1.69245 26.1295 3.7802V13.2455C26.1295 15.3332 24.4371 17.0257 22.3495 17.0257H3.78004C1.69238 17.0257 0 15.3332 0 13.2455V4.15822C0 1.8617 1.86162 0 4.15804 0Z" fill="#FFBE00"/>
<mask id="mask0" mask-type="alpha" maskUnits="userSpaceOnUse" x="0" y="2" width="27" height="18">
<path d="M26.1295 2.83917H0V19.8501H26.1295V2.83917Z" fill="white"/>
</mask>
<g mask="url(#mask0)">
<path fill-rule="evenodd" clip-rule="evenodd" d="M0 19.6116C3.78004 14.7303 8.03259 13.0772 12.7576 14.6523C17.4827 16.2274 21.9431 15.3634 26.1387 12.0603V4.25677C21.9431 7.40694 17.4827 8.19448 12.7576 6.6194C8.03259 5.04432 3.78004 6.77913 0 11.8238V19.6116Z" fill="#FF6600"/>
</g>
<mask id="mask1" mask-type="alpha" maskUnits="userSpaceOnUse" x="0" y="10" width="27" height="18">
<path d="M26.1295 10.3956H0V27.4065H26.1295V10.3956Z" fill="white"/>
</mask>
<g mask="url(#mask1)">
<path fill-rule="evenodd" clip-rule="evenodd" d="M0 27.168C3.78004 22.2867 8.03259 20.6336 12.7576 22.2087C17.4827 23.7838 21.9431 22.9198 26.1387 19.6167V11.8132C21.9431 14.9633 17.4827 15.7509 12.7576 14.1758C8.03259 12.6007 3.78004 14.3355 0 19.3802V27.168Z" fill="#FF0046"/>
</g>
<mask id="mask2" mask-type="alpha" maskUnits="userSpaceOnUse" x="0" y="17" width="27" height="18">
<path d="M26.1295 17.9559H0V34.9668H26.1295V17.9559Z" fill="white"/>
</mask>
<g mask="url(#mask2)">
<path fill-rule="evenodd" clip-rule="evenodd" d="M0 34.7284C3.78004 29.8471 8.03259 28.194 12.7576 29.7691C17.4827 31.3442 21.9431 30.4802 26.1387 27.1771V19.3735C21.9431 22.5237 17.4827 23.3112 12.7576 21.7362C8.03259 20.1611 3.78004 21.8959 0 26.9406V34.7284Z" fill="#0626B8"/>
</g>
<mask id="mask3" mask-type="alpha" maskUnits="userSpaceOnUse" x="0" y="25" width="27" height="18">
<path d="M26.1295 25.5164H0V42.5272H26.1295V25.5164Z" fill="white"/>
</mask>
<g mask="url(#mask3)">
<path fill-rule="evenodd" clip-rule="evenodd" d="M0 42.2888C3.78004 37.4075 8.03259 35.7544 12.7576 37.3295C17.4827 38.9046 21.9431 38.0406 26.1387 34.7375V26.934C21.9431 30.0841 17.4827 30.8717 12.7576 29.2966C8.03259 27.7215 3.78004 29.4563 0 34.501V42.2888Z" fill="#0071FF"/>
</g>
</g>
<defs>
<clipPath id="clip0">
<rect width="26.4603" height="60.0106" fill="white"/>
</clipPath>
</defs>
</svg>
