<svg width="233" height="128" viewBox="0 0 233 128" fill="none" xmlns="http://www.w3.org/2000/svg">
<path fill-rule="evenodd" clip-rule="evenodd" d="M149.953 40.9609C147.569 40.9609 145.48 40.4406 143.687 39.3998C141.893 38.359 140.508 36.9223 139.532 35.0896C138.556 33.257 138.045 31.1528 138 28.7771C138.045 26.4014 138.556 24.2973 139.532 22.4646C140.508 20.632 141.893 19.1953 143.687 18.1545C145.48 17.1137 147.569 16.5933 149.953 16.5933C152.337 16.5933 154.42 17.1137 156.202 18.1545C157.984 19.1953 159.369 20.6376 160.356 22.4816C161.344 24.3256 161.86 26.4241 161.906 28.7771C161.86 31.1302 161.344 33.2287 160.356 35.0727C159.369 36.9167 157.984 38.359 156.202 39.3998C154.42 40.4406 152.337 40.9609 149.953 40.9609ZM73.841 40.6216C73.2508 40.6216 72.7456 40.4123 72.3256 39.9937C71.9056 39.5751 71.6956 39.0717 71.6956 38.4834V18.3242C71.6956 17.8943 71.8432 17.5266 72.1383 17.2212C72.4335 16.9157 72.7967 16.763 73.2281 16.763C73.6594 16.763 74.0283 16.9157 74.3348 17.2212C74.6413 17.5266 74.7946 17.8943 74.7946 18.3242V37.5332H85.9304C86.3617 37.5332 86.7307 37.6859 87.0372 37.9913C87.3437 38.2968 87.4969 38.6644 87.4969 39.0943C87.4969 39.5242 87.3437 39.8862 87.0372 40.1804C86.7307 40.4745 86.3617 40.6216 85.9304 40.6216H73.841ZM52.1455 40.7912C51.7141 40.7912 51.3509 40.6442 51.0557 40.35C50.7606 40.0559 50.613 39.6939 50.613 39.264V18.4938C50.613 18.064 50.7606 17.6963 51.0557 17.3909C51.3509 17.0854 51.7141 16.9327 52.1455 16.9327H65.3927C65.8013 16.9327 66.1476 17.0741 66.4313 17.3569C66.7151 17.6397 66.857 17.9848 66.857 18.392C66.857 18.7993 66.7151 19.1387 66.4313 19.4102C66.1476 19.6817 65.8013 19.8174 65.3927 19.8174H53.712V27.3178H64.2008C64.6094 27.3178 64.9556 27.4592 65.2394 27.742C65.5232 28.0248 65.6651 28.3699 65.6651 28.7771C65.6651 29.1844 65.5232 29.5238 65.2394 29.7953C64.9556 30.0668 64.6094 30.2025 64.2008 30.2025H53.712V39.264C53.712 39.6939 53.5588 40.0559 53.2523 40.35C52.9458 40.6442 52.5768 40.7912 52.1455 40.7912ZM91.8203 40.35C92.1041 40.6442 92.473 40.7912 92.9271 40.7912C93.2449 40.7912 93.5344 40.7064 93.7955 40.5367C94.0566 40.367 94.2552 40.1351 94.3914 39.841L96.605 34.5466H108.183L110.397 39.841C110.533 40.1351 110.732 40.367 110.993 40.5367C111.254 40.7064 111.544 40.7912 111.861 40.7912C112.315 40.7912 112.684 40.6442 112.968 40.35C113.252 40.0559 113.394 39.6939 113.394 39.264C113.394 39.083 113.337 38.8568 113.224 38.5853L104.54 18.1545C104.358 17.7472 104.103 17.4135 103.773 17.1533C103.444 16.8931 103.041 16.763 102.564 16.763H102.224C101.747 16.763 101.344 16.8931 101.015 17.1533C100.686 17.4135 100.43 17.7472 100.249 18.1545L91.5649 38.5853C91.4514 38.8568 91.3946 39.083 91.3946 39.264C91.3946 39.6939 91.5365 40.0559 91.8203 40.35ZM97.7969 31.7298H106.992L102.394 20.6999L97.7969 31.7298ZM122.362 39.2301C122.838 40.2709 123.542 40.7912 124.473 40.7912H125.222C126.153 40.7912 126.857 40.2709 127.333 39.2301L135.745 18.9011C135.813 18.7201 135.847 18.5278 135.847 18.3242C135.847 17.849 135.711 17.4701 135.438 17.1872C135.166 16.9044 134.791 16.763 134.315 16.763C133.997 16.763 133.707 16.8592 133.446 17.0515C133.185 17.2438 132.987 17.4983 132.85 17.8151L124.848 37.7029L116.845 17.8151C116.708 17.4983 116.51 17.2438 116.249 17.0515C115.988 16.8592 115.698 16.763 115.38 16.763C114.904 16.763 114.529 16.9044 114.257 17.1872C113.984 17.4701 113.848 17.849 113.848 18.3242C113.848 18.5278 113.882 18.7201 113.95 18.9011L122.362 39.2301ZM154.686 36.8544C153.347 37.6689 151.769 38.0762 149.953 38.0762C148.114 38.0762 146.53 37.6689 145.202 36.8544C143.874 36.0399 142.858 34.9313 142.154 33.5285C141.451 32.1257 141.099 30.5419 141.099 28.7771C141.099 27.0123 141.451 25.4286 142.154 24.0258C142.858 22.623 143.874 21.5144 145.202 20.6998C146.53 19.8853 148.114 19.4781 149.953 19.4781C151.769 19.4781 153.347 19.8853 154.686 20.6998C156.026 21.5144 157.048 22.623 157.751 24.0258C158.455 25.4286 158.807 27.0123 158.807 28.7771C158.807 30.5419 158.455 32.1257 157.751 33.5285C157.048 34.9313 156.026 36.0399 154.686 36.8544ZM176.118 40.9609C174.506 40.9609 172.951 40.6216 171.452 39.9428C169.954 39.264 168.728 38.2289 167.775 36.8374C166.821 35.446 166.344 33.7434 166.344 31.7297V18.3242C166.344 17.8943 166.492 17.5266 166.787 17.2212C167.082 16.9157 167.445 16.763 167.877 16.763C168.308 16.763 168.677 16.9157 168.984 17.2212C169.29 17.5266 169.443 17.8943 169.443 18.3242V31.8316C169.443 33.1891 169.755 34.343 170.38 35.2933C171.004 36.2435 171.827 36.9562 172.849 37.4314C173.87 37.9065 174.96 38.1441 176.118 38.1441C177.276 38.1441 178.366 37.9065 179.387 37.4314C180.409 36.9562 181.232 36.2435 181.856 35.2933C182.48 34.343 182.793 33.1891 182.793 31.8316V18.3242C182.793 17.8943 182.94 17.5266 183.235 17.2212C183.53 16.9157 183.894 16.763 184.325 16.763C184.756 16.763 185.125 16.9157 185.432 17.2212C185.738 17.5266 185.892 17.8943 185.892 18.3242V31.7297C185.892 33.7434 185.415 35.446 184.461 36.8374C183.508 38.2289 182.282 39.264 180.783 39.9428C179.285 40.6216 177.73 40.9609 176.118 40.9609ZM192.203 40.35C192.498 40.6442 192.861 40.7912 193.293 40.7912C193.724 40.7912 194.093 40.6442 194.4 40.35C194.706 40.0559 194.859 39.6939 194.859 39.264V31.3904H201.909C203.475 31.3904 204.644 31.7693 205.416 32.5273C206.188 33.2852 206.676 34.145 206.881 35.1066C207.085 36.0682 207.187 37.1146 207.187 38.2459V39.264C207.187 39.7165 207.329 40.0842 207.613 40.367C207.896 40.6498 208.277 40.7912 208.754 40.7912C209.185 40.7912 209.548 40.6442 209.843 40.35C210.138 40.0559 210.286 39.6939 210.286 39.264V37.7029C210.286 36.1643 209.985 34.5975 209.384 33.0024C208.782 31.4073 207.664 30.3948 206.029 29.965C207.482 29.4672 208.589 28.6583 209.349 27.5384C210.11 26.4184 210.49 25.1797 210.49 23.8221C210.49 21.7632 209.718 20.1003 208.175 18.8332C206.631 17.5662 204.315 16.9327 201.227 16.9327H193.293C192.861 16.9327 192.498 17.0854 192.203 17.3909C191.908 17.6963 191.76 18.064 191.76 18.4938V39.264C191.76 39.6939 191.908 40.0559 192.203 40.35ZM201.023 28.4717C202.976 28.4717 204.525 28.0871 205.672 27.3178C206.818 26.5485 207.391 25.4625 207.391 24.0597C207.391 22.7022 206.898 21.6614 205.91 20.9374C204.922 20.2134 203.237 19.8514 200.853 19.8514H194.859V28.4717H201.023ZM215.772 39.3319C218.292 40.4179 220.993 40.9609 223.877 40.9609C225.602 40.9609 227.123 40.6781 228.44 40.1125C229.757 39.5469 230.778 38.7606 231.505 37.7538C232.231 36.7469 232.594 35.61 232.594 34.343C232.594 32.8045 232.203 31.5827 231.42 30.6777C230.636 29.7726 229.694 29.1052 228.593 28.6753C227.492 28.2454 226.045 27.8156 224.251 27.3857C222.866 27.0689 221.771 26.7691 220.965 26.4863C220.159 26.2035 219.489 25.8075 218.956 25.2985C218.422 24.7894 218.155 24.1276 218.155 23.3131C218.155 22.0913 218.717 21.141 219.841 20.4623C220.965 19.7835 222.424 19.4441 224.217 19.4441C226.101 19.4441 227.929 19.7496 229.7 20.3605C229.927 20.451 230.109 20.4962 230.245 20.4962C230.653 20.4962 230.983 20.3492 231.232 20.055C231.482 19.7609 231.607 19.4328 231.607 19.0708C231.607 18.392 231.289 17.9395 230.653 17.7133C228.633 16.9666 226.374 16.5933 223.877 16.5933C222.015 16.5933 220.42 16.9044 219.092 17.5266C217.764 18.1488 216.759 18.986 216.078 20.038C215.397 21.0901 215.056 22.261 215.056 23.5507C215.056 25.0213 215.465 26.1978 216.282 27.0802C217.1 27.9626 218.076 28.6244 219.211 29.0656C220.346 29.5068 221.833 29.965 223.672 30.4401C225.057 30.8021 226.124 31.1132 226.873 31.3734C227.623 31.6336 228.253 31.9899 228.763 32.4425C229.274 32.895 229.53 33.4606 229.53 34.1394C229.53 36.7413 227.543 38.0423 223.57 38.0423C221.186 38.0423 218.95 37.5784 216.861 36.6508C216.657 36.5603 216.441 36.515 216.214 36.515C215.806 36.515 215.471 36.6565 215.21 36.9393C214.949 37.2221 214.818 37.5558 214.818 37.9404C214.818 38.2346 214.909 38.5117 215.09 38.7719C215.272 39.0321 215.499 39.2188 215.772 39.3319Z" fill="white"/>
<path d="M16.4587 48.7753C16.4587 47.4645 15.3961 46.4018 14.0853 46.4018C12.7745 46.4018 11.7119 47.4645 11.7119 48.7753V58.2164C11.7119 59.5273 12.7745 60.5899 14.0853 60.5899C15.3961 60.5899 16.4587 59.5273 16.4587 58.2164V48.7753Z" fill="#FFC99D"/>
<path d="M22.877 1H5.25255C2.90393 1 1 2.90401 1 5.25272V43.9997C1 46.3485 2.90393 48.2525 5.25255 48.2525H22.877C25.2256 48.2525 27.1295 46.3485 27.1295 43.9997V5.25272C27.1295 2.90401 25.2256 1 22.877 1Z" fill="url(#paint0_linear)"/>
<path d="M1 36.0079H27.1295V44.0409C27.1295 46.3896 25.2256 48.2936 22.877 48.2936H5.25255C2.90393 48.2936 1 46.3896 1 44.0409V36.0079Z" fill="url(#paint1_linear)"/>
<path d="M5.18966 1H23.3587C25.4463 1 27.1387 2.69245 27.1387 4.7802V14.2455C27.1387 16.3332 25.4463 18.0257 23.3587 18.0257H4.81166C2.724 18.0257 1.03162 16.3332 1.03162 14.2455V5.15822C1.03162 2.8617 2.89324 1 5.18966 1ZM5.28416 36.0079H22.8862C25.2348 36.0079 27.1387 37.912 27.1387 40.2607V44.0409C27.1387 46.3896 25.2348 48.2936 22.8862 48.2936H5.28416C2.93555 48.2936 1.03162 46.3896 1.03162 44.0409V40.2607C1.03162 37.912 2.93555 36.0079 5.28416 36.0079Z" fill="url(#paint2_linear)" fill-opacity="0.1"/>
<mask id="mask0" mask-type="alpha" maskUnits="userSpaceOnUse" x="1" y="11" width="27" height="18">
<path d="M27.1295 11.7263H1V28.7372H27.1295V11.7263Z" fill="white"/>
</mask>
<g mask="url(#mask0)">
<path fill-rule="evenodd" clip-rule="evenodd" d="M1 28.4987C4.78004 23.6174 9.03259 21.9644 13.7576 23.5394C18.4827 25.1145 22.9431 24.2505 27.1387 20.9474V13.1439C22.9431 16.2941 18.4827 17.0816 13.7576 15.5065C9.03259 13.9314 4.78004 15.6662 1 20.7109V28.4987Z" fill="url(#paint3_linear)"/>
</g>
<mask id="mask1" mask-type="alpha" maskUnits="userSpaceOnUse" x="1" y="26" width="27" height="18">
<path d="M27.1295 26.9889H1V43.9998H27.1295V26.9889Z" fill="white"/>
</mask>
<g mask="url(#mask1)">
<path fill-rule="evenodd" clip-rule="evenodd" d="M1 43.7613C4.78004 38.88 9.03259 37.2269 13.7576 38.802C18.4827 40.3771 22.9431 39.5131 27.1387 36.21V28.4064C22.9431 31.5566 18.4827 32.3441 13.7576 30.7691C9.03259 29.194 4.78004 30.9288 1 35.9735V43.7613Z" fill="url(#paint4_linear)"/>
</g>
<mask id="mask2" mask-type="alpha" maskUnits="userSpaceOnUse" x="1" y="19" width="27" height="18">
<path d="M27.1295 19.4285H1V36.4394H27.1295V19.4285Z" fill="white"/>
</mask>
<g mask="url(#mask2)">
<path fill-rule="evenodd" clip-rule="evenodd" d="M1 36.2009C4.78004 31.3196 9.03259 29.6665 13.7576 31.2416C18.4827 32.8167 22.9431 31.9527 27.1387 28.6496V20.8461C22.9431 23.9962 18.4827 24.7838 13.7576 23.2087C9.03259 21.6336 4.78004 23.3684 1 28.4131V36.2009Z" fill="url(#paint5_linear)"/>
</g>
<mask id="mask3" mask-type="alpha" maskUnits="userSpaceOnUse" x="1" y="4" width="27" height="18">
<path d="M27.1295 4.07144H1V21.0823H27.1295V4.07144Z" fill="white"/>
</mask>
<g mask="url(#mask3)">
<path fill-rule="evenodd" clip-rule="evenodd" d="M1 20.8438C4.78004 15.9626 9.03259 14.3095 13.7576 15.8846C18.4827 17.4596 22.9431 16.5956 27.1387 13.2925V5.48901C22.9431 8.63918 18.4827 9.42672 13.7576 7.85164C9.03259 6.27655 4.78004 8.01136 1 13.0561V20.8438Z" fill="url(#paint6_linear)"/>
</g>
<path d="M5.15805 1H23.327C25.4147 1 27.1071 2.69245 27.1071 4.7802V14.2455C27.1071 16.3332 25.4147 18.0257 23.327 18.0257H4.78004C2.69238 18.0257 1 16.3332 1 14.2455V5.15822C1 2.8617 2.86162 1 5.15805 1Z" fill="url(#paint7_linear)" fill-opacity="0.1"/>
<path d="M13.6018 13.2963H14.5685C15.6123 13.2963 16.4585 14.1425 16.4585 15.1864V51.6045C16.4585 51.8655 16.247 52.077 15.986 52.077H12.1843C11.9233 52.077 11.7118 51.8655 11.7118 51.6045V15.1864C11.7118 14.1425 12.558 13.2963 13.6018 13.2963Z" fill="#75675B" fill-opacity="0.33"/>
<path d="M16.9332 21.8092H11.2371L11.2371 48.2936H16.9332L16.9332 21.8092Z" fill="url(#paint8_linear)" fill-opacity="0.5"/>
<g opacity="0.701032">
<path opacity="0.701032" d="M12.8963 54.2051C12.8963 54.0747 12.7906 53.9689 12.6601 53.9689C12.5296 53.9689 12.4238 54.0747 12.4238 54.2051V56.0973C12.4238 56.2278 12.5296 56.3336 12.6601 56.3336C12.7906 56.3336 12.8963 56.2278 12.8963 56.0973V54.2051Z" fill="#E49351" fill-opacity="0.25"/>
<path opacity="0.701032" d="M16.2191 54.678C16.2191 54.5476 16.1133 54.4418 15.9828 54.4418C15.8524 54.4418 15.7466 54.5476 15.7466 54.678V56.5702C15.7466 56.7007 15.8524 56.8064 15.9828 56.8064C16.1133 56.8064 16.2191 56.7007 16.2191 56.5702V54.678Z" fill="#E49351" fill-opacity="0.25"/>
<path opacity="0.701032" d="M14.7951 49.0028C14.7951 48.8723 14.6894 48.7665 14.5589 48.7665C14.4284 48.7665 14.3226 48.8723 14.3226 49.0028V50.8949C14.3226 51.0254 14.4284 51.1312 14.5589 51.1312C14.6894 51.1312 14.7951 51.0254 14.7951 50.8949V49.0028Z" fill="#A15F29" fill-opacity="0.15"/>
<path opacity="0.701032" d="M13.8457 49.0028C13.8457 48.8723 13.7399 48.7665 13.6094 48.7665C13.4789 48.7665 13.3732 48.8723 13.3732 49.0028V49.9491C13.3732 50.0795 13.4789 50.1853 13.6094 50.1853C13.7399 50.1853 13.8457 50.0795 13.8457 49.9491V49.0028Z" fill="#A15F29" fill-opacity="0.15"/>
<path opacity="0.701032" d="M13.3711 56.0969C13.3711 55.9664 13.2653 55.8606 13.1348 55.8606C13.0043 55.8606 12.8986 55.9664 12.8986 56.0969V57.989C12.8986 58.1195 13.0043 58.2253 13.1348 58.2253C13.2653 58.2253 13.3711 58.1195 13.3711 57.989V56.0969Z" fill="#E49351" fill-opacity="0.25"/>
<path opacity="0.701032" d="M15.2698 52.3133C15.2698 52.1829 15.164 52.0771 15.0335 52.0771C14.903 52.0771 14.7972 52.1829 14.7972 52.3133V54.2055C14.7972 54.336 14.903 54.4418 15.0335 54.4418C15.164 54.4418 15.2698 54.336 15.2698 54.2055V52.3133Z" fill="#E49351" fill-opacity="0.25"/>
<path opacity="0.701032" d="M12.4217 54.678C12.4217 54.5476 12.3159 54.4418 12.1855 54.4418C12.055 54.4418 11.9492 54.5476 11.9492 54.678V55.6243C11.9492 55.7548 12.055 55.8606 12.1855 55.8606C12.3159 55.8606 12.4217 55.7548 12.4217 55.6243V54.678Z" fill="#E49351" fill-opacity="0.25"/>
<path opacity="0.701032" d="M14.3205 50.8946C14.3205 50.7641 14.2148 50.6583 14.0843 50.6583C13.9538 50.6583 13.848 50.7641 13.848 50.8946V51.8408C13.848 51.9713 13.9538 52.0771 14.0843 52.0771C14.2148 52.0771 14.3205 51.9713 14.3205 51.8408V50.8946Z" fill="#A15F29" fill-opacity="0.15"/>
<path opacity="0.701032" d="M12.4217 49.9487C12.4217 49.8182 12.3159 49.7124 12.1855 49.7124C12.055 49.7124 11.9492 49.8182 11.9492 49.9487V50.8949C11.9492 51.0254 12.055 51.1312 12.1855 51.1312C12.3159 51.1312 12.4217 51.0254 12.4217 50.8949V49.9487Z" fill="#A15F29" fill-opacity="0.15"/>
<path opacity="0.701032" d="M13.3711 49.9487C13.3711 49.8182 13.2653 49.7124 13.1348 49.7124C13.0043 49.7124 12.8986 49.8182 12.8986 49.9487V50.8949C12.8986 51.0254 13.0043 51.1312 13.1348 51.1312C13.2653 51.1312 13.3711 51.0254 13.3711 50.8949V49.9487Z" fill="#A15F29" fill-opacity="0.15"/>
<path opacity="0.701032" d="M12.8963 48.5299C12.8963 48.3994 12.7906 48.2936 12.6601 48.2936C12.5296 48.2936 12.4238 48.3994 12.4238 48.5299V49.4762C12.4238 49.6066 12.5296 49.7124 12.6601 49.7124C12.7906 49.7124 12.8963 49.6066 12.8963 49.4762V48.5299Z" fill="#A15F29" fill-opacity="0.15"/>
<path opacity="0.701032" d="M12.4217 57.0427C12.4217 56.9122 12.3159 56.8064 12.1855 56.8064C12.055 56.8064 11.9492 56.9122 11.9492 57.0427V58.9348C11.9492 59.0653 12.055 59.1711 12.1855 59.1711C12.3159 59.1711 12.4217 59.0653 12.4217 58.9348V57.0427Z" fill="#E49351" fill-opacity="0.25"/>
<path opacity="0.701032" d="M14.3205 53.2592C14.3205 53.1288 14.2148 53.023 14.0843 53.023C13.9538 53.023 13.848 53.1288 13.848 53.2592V55.1514C13.848 55.2819 13.9538 55.3877 14.0843 55.3877C14.2148 55.3877 14.3205 55.2819 14.3205 55.1514V53.2592Z" fill="#E49351" fill-opacity="0.25"/>
<path opacity="0.701032" d="M13.8457 57.5157C13.8457 57.3852 13.7399 57.2794 13.6094 57.2794C13.4789 57.2794 13.3732 57.3852 13.3732 57.5157V59.6443C13.3732 59.7748 13.4789 59.8806 13.6094 59.8806C13.7399 59.8806 13.8457 59.7748 13.8457 59.6443V57.5157Z" fill="#E49351" fill-opacity="0.25"/>
<path opacity="0.701032" d="M15.7444 54.2051C15.7444 54.0747 15.6386 53.9689 15.5081 53.9689C15.3776 53.9689 15.2719 54.0747 15.2719 54.2051V56.3338C15.2719 56.4642 15.3776 56.57 15.5081 56.57C15.6386 56.57 15.7444 56.4642 15.7444 56.3338V54.2051Z" fill="#E49351" fill-opacity="0.25"/>
<path opacity="0.701032" d="M13.3711 52.7863C13.3711 52.6558 13.2653 52.55 13.1348 52.55C13.0043 52.55 12.8986 52.6558 12.8986 52.7863V54.6785C12.8986 54.809 13.0043 54.9147 13.1348 54.9147C13.2653 54.9147 13.3711 54.809 13.3711 54.6785V52.7863Z" fill="#E49351" fill-opacity="0.25"/>
<path opacity="0.701032" d="M15.2698 57.9886C15.2698 57.8581 15.164 57.7523 15.0335 57.7523C14.903 57.7523 14.7972 57.8581 14.7972 57.9886V59.8807C14.7972 60.0112 14.903 60.117 15.0335 60.117C15.164 60.117 15.2698 60.0112 15.2698 59.8807V57.9886Z" fill="#E49351" fill-opacity="0.25"/>
<path opacity="0.701032" d="M14.7951 56.5698C14.7951 56.4393 14.6894 56.3336 14.5589 56.3336C14.4284 56.3336 14.3226 56.4393 14.3226 56.5698V58.462C14.3226 58.5925 14.4284 58.6982 14.5589 58.6982C14.6894 58.6982 14.7951 58.5925 14.7951 58.462V56.5698Z" fill="#E49351" fill-opacity="0.25"/>
<path opacity="0.701032" d="M15.2698 49.0028C15.2698 48.8723 15.164 48.7665 15.0335 48.7665C14.903 48.7665 14.7972 48.8723 14.7972 49.0028V50.8949C14.7972 51.0254 14.903 51.1312 15.0335 51.1312C15.164 51.1312 15.2698 51.0254 15.2698 50.8949V49.0028Z" fill="#A15F29" fill-opacity="0.15"/>
<path opacity="0.701032" d="M13.8457 53.2592C13.8457 53.1288 13.7399 53.023 13.6094 53.023C13.4789 53.023 13.3732 53.1288 13.3732 53.2592V55.1514C13.3732 55.2819 13.4789 55.3877 13.6094 55.3877C13.7399 55.3877 13.8457 55.2819 13.8457 55.1514V53.2592Z" fill="#E49351" fill-opacity="0.25"/>
<path opacity="0.701032" d="M15.7444 49.9487C15.7444 49.8182 15.6386 49.7124 15.5081 49.7124C15.3776 49.7124 15.2719 49.8182 15.2719 49.9487V51.8408C15.2719 51.9713 15.3776 52.0771 15.5081 52.0771C15.6386 52.0771 15.7444 51.9713 15.7444 51.8408V49.9487Z" fill="#A15F29" fill-opacity="0.15"/>
<path opacity="0.701032" d="M12.4217 52.7863C12.4217 52.6558 12.3159 52.55 12.1855 52.55C12.055 52.55 11.9492 52.6558 11.9492 52.7863V53.2597C11.9492 53.3901 12.055 53.4959 12.1855 53.4959C12.3159 53.4959 12.4217 53.3901 12.4217 53.2597V52.7863Z" fill="#E49351" fill-opacity="0.25"/>
<path opacity="0.701032" d="M15.7444 58.9345C15.7444 58.804 15.6386 58.6982 15.5081 58.6982C15.3776 58.6982 15.2719 58.804 15.2719 58.9345V59.4079C15.2719 59.5383 15.3776 59.6441 15.5081 59.6441C15.6386 59.6441 15.7444 59.5383 15.7444 59.4079V58.9345Z" fill="#E49351" fill-opacity="0.25"/>
<path opacity="0.701032" d="M13.3711 58.9345C13.3711 58.804 13.2653 58.6982 13.1348 58.6982C13.0043 58.6982 12.8986 58.804 12.8986 58.9345V59.8808C12.8986 60.0113 13.0043 60.1171 13.1348 60.1171C13.2653 60.1171 13.3711 60.0113 13.3711 59.8808V58.9345Z" fill="#E49351" fill-opacity="0.25"/>
<path opacity="0.701032" d="M14.3205 59.1709C14.3205 59.0404 14.2148 58.9346 14.0843 58.9346C13.9538 58.9346 13.848 59.0404 13.848 59.1709V60.1172C13.848 60.2477 13.9538 60.3534 14.0843 60.3534C14.2148 60.3534 14.3205 60.2477 14.3205 60.1172V59.1709Z" fill="#E49351" fill-opacity="0.25"/>
<path opacity="0.701032" d="M15.2698 55.1509C15.2698 55.0205 15.164 54.9147 15.0335 54.9147C14.903 54.9147 14.7972 55.0205 14.7972 55.1509V56.0972C14.7972 56.2277 14.903 56.3335 15.0335 56.3335C15.164 56.3335 15.2698 56.2277 15.2698 56.0972V55.1509Z" fill="#E49351" fill-opacity="0.25"/>
<path opacity="0.701032" d="M12.8963 57.0427C12.8963 56.9122 12.7906 56.8064 12.6601 56.8064C12.5296 56.8064 12.4238 56.9122 12.4238 57.0427V57.516C12.4238 57.6465 12.5296 57.7523 12.6601 57.7523C12.7906 57.7523 12.8963 57.6465 12.8963 57.516V57.0427Z" fill="#E49351" fill-opacity="0.25"/>
<path opacity="0.701032" d="M14.7951 53.2592C14.7951 53.1288 14.6894 53.023 14.5589 53.023C14.4284 53.023 14.3226 53.1288 14.3226 53.2592V53.7326C14.3226 53.8631 14.4284 53.9689 14.5589 53.9689C14.6894 53.9689 14.7951 53.8631 14.7951 53.7326V53.2592Z" fill="#E49351" fill-opacity="0.25"/>
<path opacity="0.701032" d="M14.3205 57.9886C14.3205 57.8581 14.2148 57.7523 14.0843 57.7523C13.9538 57.7523 13.848 57.8581 13.848 57.9886V58.4619C13.848 58.5924 13.9538 58.6982 14.0843 58.6982C14.2148 58.6982 14.3205 58.5924 14.3205 58.4619V57.9886Z" fill="#E49351" fill-opacity="0.25"/>
<path opacity="0.701032" d="M13.8457 56.0969C13.8457 55.9664 13.7399 55.8606 13.6094 55.8606C13.4789 55.8606 13.3732 55.9664 13.3732 56.0969V56.5702C13.3732 56.7007 13.4789 56.8065 13.6094 56.8065C13.7399 56.8065 13.8457 56.7007 13.8457 56.5702V56.0969Z" fill="#E49351" fill-opacity="0.25"/>
<path opacity="0.701032" d="M16.2191 57.2792C16.2191 57.1487 16.1133 57.0429 15.9828 57.0429C15.8524 57.0429 15.7466 57.1487 15.7466 57.2792V57.7525C15.7466 57.883 15.8524 57.9888 15.9828 57.9888C16.1133 57.9888 16.2191 57.883 16.2191 57.7525V57.2792Z" fill="#E49351" fill-opacity="0.25"/>
<path opacity="0.701032" d="M16.2191 52.3133C16.2191 52.1829 16.1133 52.0771 15.9828 52.0771C15.8524 52.0771 15.7466 52.1829 15.7466 52.3133V53.7326C15.7466 53.8631 15.8524 53.9688 15.9828 53.9688C16.1133 53.9688 16.2191 53.8631 16.2191 53.7326V52.3133Z" fill="#E49351" fill-opacity="0.25"/>
<path opacity="0.701032" d="M15.7444 52.7863C15.7444 52.6558 15.6386 52.55 15.5081 52.55C15.3776 52.55 15.2719 52.6558 15.2719 52.7863V53.2597C15.2719 53.3901 15.3776 53.4959 15.5081 53.4959C15.6386 53.4959 15.7444 53.3901 15.7444 53.2597V52.7863Z" fill="#E49351" fill-opacity="0.25"/>
<path opacity="0.701032" d="M12.8963 58.4615C12.8963 58.3311 12.7906 58.2253 12.6601 58.2253C12.5296 58.2253 12.4238 58.3311 12.4238 58.4615V59.4078C12.4238 59.5383 12.5296 59.6441 12.6601 59.6441C12.7906 59.6441 12.8963 59.5383 12.8963 59.4078V58.4615Z" fill="#E49351" fill-opacity="0.25"/>
<path opacity="0.701032" d="M14.3205 56.0969C14.3205 55.9664 14.2148 55.8606 14.0843 55.8606C13.9538 55.8606 13.848 55.9664 13.848 56.0969V57.0431C13.848 57.1736 13.9538 57.2794 14.0843 57.2794C14.2148 57.2794 14.3205 57.1736 14.3205 57.0431V56.0969Z" fill="#E49351" fill-opacity="0.25"/>
<path opacity="0.701032" d="M14.7951 59.6439C14.7951 59.5134 14.6894 59.4076 14.5589 59.4076C14.4284 59.4076 14.3226 59.5134 14.3226 59.6439V60.1172C14.3226 60.2477 14.4284 60.3535 14.5589 60.3535C14.6894 60.3535 14.7951 60.2477 14.7951 60.1172V59.6439Z" fill="#E49351" fill-opacity="0.25"/>
<path opacity="0.701032" d="M15.7444 57.0427C15.7444 56.9122 15.6386 56.8064 15.5081 56.8064C15.3776 56.8064 15.2719 56.9122 15.2719 57.0427V57.989C15.2719 58.1195 15.3776 58.2252 15.5081 58.2252C15.6386 58.2252 15.7444 58.1195 15.7444 57.989V57.0427Z" fill="#E49351" fill-opacity="0.25"/>
<path opacity="0.701032" d="M14.7951 54.678C14.7951 54.5476 14.6894 54.4418 14.5589 54.4418C14.4284 54.4418 14.3226 54.5476 14.3226 54.678V55.6243C14.3226 55.7548 14.4284 55.8606 14.5589 55.8606C14.6894 55.8606 14.7951 55.7548 14.7951 55.6243V54.678Z" fill="#E49351" fill-opacity="0.25"/>
<path opacity="0.701032" d="M16.2191 58.4615C16.2191 58.3311 16.1133 58.2253 15.9828 58.2253C15.8524 58.2253 15.7466 58.3311 15.7466 58.4615V59.4078C15.7466 59.5383 15.8524 59.6441 15.9828 59.6441C16.1133 59.6441 16.2191 59.5383 16.2191 59.4078V58.4615Z" fill="#E49351" fill-opacity="0.25"/>
<path opacity="0.701032" fill-rule="evenodd" clip-rule="evenodd" d="M12.4238 52.0771H12.6612V52.9048C12.6612 52.9701 12.6083 53.023 12.543 53.023H12.542C12.4767 53.023 12.4238 52.9701 12.4238 52.9048V52.0771Z" fill="#E49351" fill-opacity="0.25"/>
<path opacity="0.701032" fill-rule="evenodd" clip-rule="evenodd" d="M13.3732 52.0771H13.6105V52.4319C13.6105 52.4971 13.5576 52.55 13.4924 52.55H13.4913C13.4261 52.55 13.3732 52.4971 13.3732 52.4319V52.0771Z" fill="#E49351" fill-opacity="0.25"/>
<path opacity="0.701032" fill-rule="evenodd" clip-rule="evenodd" d="M14.3226 52.0771H14.56V52.4319C14.56 52.4971 14.5071 52.55 14.4418 52.55H14.4408C14.3755 52.55 14.3226 52.4971 14.3226 52.4319V52.0771Z" fill="#E49351" fill-opacity="0.25"/>
<path opacity="0.701032" fill-rule="evenodd" clip-rule="evenodd" d="M12.6613 52.0771H12.4239V51.2493C12.4239 51.1841 12.4768 51.1312 12.542 51.1312H12.5431C12.6084 51.1312 12.6613 51.1841 12.6613 51.2493V52.0771Z" fill="#A15F29" fill-opacity="0.15"/>
<path opacity="0.701032" fill-rule="evenodd" clip-rule="evenodd" d="M13.6106 52.0771H13.3733V50.7764C13.3733 50.7112 13.4261 50.6583 13.4914 50.6583H13.4925C13.5577 50.6583 13.6106 50.7112 13.6106 50.7764V52.0771Z" fill="#A15F29" fill-opacity="0.15"/>
<path opacity="0.701032" fill-rule="evenodd" clip-rule="evenodd" d="M14.5599 52.0771H14.3226V51.7223C14.3226 51.657 14.3755 51.6041 14.4407 51.6041H14.4418C14.5071 51.6041 14.5599 51.657 14.5599 51.7223V52.0771Z" fill="#A15F29" fill-opacity="0.15"/>
</g>
<g opacity="0.369792">
<path opacity="0.369792" d="M12.8963 42.8547C12.8963 42.7242 12.7906 42.6184 12.6601 42.6184C12.5296 42.6184 12.4238 42.7242 12.4238 42.8547V44.7468C12.4238 44.8773 12.5296 44.9831 12.6601 44.9831C12.7906 44.9831 12.8963 44.8773 12.8963 44.7468V42.8547Z" fill="#A15F29" fill-opacity="0.1"/>
<path opacity="0.369792" d="M16.2191 43.3275C16.2191 43.1971 16.1133 43.0913 15.9828 43.0913C15.8524 43.0913 15.7466 43.1971 15.7466 43.3275V45.2197C15.7466 45.3502 15.8524 45.456 15.9828 45.456C16.1133 45.456 16.2191 45.3502 16.2191 45.2197V43.3275Z" fill="#A15F29" fill-opacity="0.1"/>
<path opacity="0.369792" d="M14.7951 37.6524C14.7951 37.5219 14.6894 37.4161 14.5589 37.4161C14.4284 37.4161 14.3226 37.5219 14.3226 37.6524V39.5445C14.3226 39.675 14.4284 39.7808 14.5589 39.7808C14.6894 39.7808 14.7951 39.675 14.7951 39.5445V37.6524Z" fill="#A15F29" fill-opacity="0.1"/>
<path opacity="0.369792" d="M13.8457 37.6524C13.8457 37.5219 13.7399 37.4161 13.6094 37.4161C13.4789 37.4161 13.3732 37.5219 13.3732 37.6524V38.5987C13.3732 38.7291 13.4789 38.8349 13.6094 38.8349C13.7399 38.8349 13.8457 38.7291 13.8457 38.5987V37.6524Z" fill="#A15F29" fill-opacity="0.1"/>
<path opacity="0.369792" d="M13.3711 44.7464C13.3711 44.6159 13.2653 44.5101 13.1348 44.5101C13.0043 44.5101 12.8986 44.6159 12.8986 44.7464V46.6386C12.8986 46.769 13.0043 46.8748 13.1348 46.8748C13.2653 46.8748 13.3711 46.769 13.3711 46.6386V44.7464Z" fill="#A15F29" fill-opacity="0.1"/>
<path opacity="0.369792" d="M15.2698 40.9629C15.2698 40.8324 15.164 40.7266 15.0335 40.7266C14.903 40.7266 14.7972 40.8324 14.7972 40.9629V42.855C14.7972 42.9855 14.903 43.0913 15.0335 43.0913C15.164 43.0913 15.2698 42.9855 15.2698 42.855V40.9629Z" fill="#A15F29" fill-opacity="0.1"/>
<path opacity="0.369792" d="M12.4217 43.3275C12.4217 43.1971 12.3159 43.0913 12.1855 43.0913C12.055 43.0913 11.9492 43.1971 11.9492 43.3275V44.2738C11.9492 44.4043 12.055 44.5101 12.1855 44.5101C12.3159 44.5101 12.4217 44.4043 12.4217 44.2738V43.3275Z" fill="#A15F29" fill-opacity="0.1"/>
<path opacity="0.369792" d="M14.3205 39.5441C14.3205 39.4136 14.2148 39.3078 14.0843 39.3078C13.9538 39.3078 13.848 39.4136 13.848 39.5441V40.4903C13.848 40.6208 13.9538 40.7266 14.0843 40.7266C14.2148 40.7266 14.3205 40.6208 14.3205 40.4903V39.5441Z" fill="#A15F29" fill-opacity="0.1"/>
<path opacity="0.369792" d="M12.4217 38.5982C12.4217 38.4677 12.3159 38.3619 12.1855 38.3619C12.055 38.3619 11.9492 38.4677 11.9492 38.5982V39.5445C11.9492 39.675 12.055 39.7807 12.1855 39.7807C12.3159 39.7807 12.4217 39.675 12.4217 39.5445V38.5982Z" fill="#A15F29" fill-opacity="0.1"/>
<path opacity="0.369792" d="M13.3711 38.5982C13.3711 38.4677 13.2653 38.3619 13.1348 38.3619C13.0043 38.3619 12.8986 38.4677 12.8986 38.5982V39.5445C12.8986 39.675 13.0043 39.7807 13.1348 39.7807C13.2653 39.7807 13.3711 39.675 13.3711 39.5445V38.5982Z" fill="#A15F29" fill-opacity="0.1"/>
<path opacity="0.369792" d="M12.8963 37.1794C12.8963 37.0489 12.7906 36.9431 12.6601 36.9431C12.5296 36.9431 12.4238 37.0489 12.4238 37.1794V38.1257C12.4238 38.2562 12.5296 38.362 12.6601 38.362C12.7906 38.362 12.8963 38.2562 12.8963 38.1257V37.1794Z" fill="#A15F29" fill-opacity="0.1"/>
<path opacity="0.369792" d="M12.4217 45.6923C12.4217 45.5618 12.3159 45.456 12.1855 45.456C12.055 45.456 11.9492 45.5618 11.9492 45.6923V47.5844C11.9492 47.7149 12.055 47.8207 12.1855 47.8207C12.3159 47.8207 12.4217 47.7149 12.4217 47.5844V45.6923Z" fill="#A15F29" fill-opacity="0.1"/>
<path opacity="0.369792" d="M14.3205 41.9088C14.3205 41.7783 14.2148 41.6725 14.0843 41.6725C13.9538 41.6725 13.848 41.7783 13.848 41.9088V43.8009C13.848 43.9314 13.9538 44.0372 14.0843 44.0372C14.2148 44.0372 14.3205 43.9314 14.3205 43.8009V41.9088Z" fill="#A15F29" fill-opacity="0.1"/>
<path opacity="0.369792" d="M13.8457 46.1652C13.8457 46.0347 13.7399 45.9289 13.6094 45.9289C13.4789 45.9289 13.3732 46.0347 13.3732 46.1652V48.2938C13.3732 48.4243 13.4789 48.5301 13.6094 48.5301C13.7399 48.5301 13.8457 48.4243 13.8457 48.2938V46.1652Z" fill="#A15F29" fill-opacity="0.1"/>
<path opacity="0.369792" d="M15.7444 42.8547C15.7444 42.7242 15.6386 42.6184 15.5081 42.6184C15.3776 42.6184 15.2719 42.7242 15.2719 42.8547V44.9833C15.2719 45.1138 15.3776 45.2196 15.5081 45.2196C15.6386 45.2196 15.7444 45.1138 15.7444 44.9833V42.8547Z" fill="#A15F29" fill-opacity="0.1"/>
<path opacity="0.369792" d="M13.3711 41.4358C13.3711 41.3054 13.2653 41.1996 13.1348 41.1996C13.0043 41.1996 12.8986 41.3054 12.8986 41.4358V43.328C12.8986 43.4585 13.0043 43.5643 13.1348 43.5643C13.2653 43.5643 13.3711 43.4585 13.3711 43.328V41.4358Z" fill="#A15F29" fill-opacity="0.1"/>
<path opacity="0.369792" d="M15.2698 46.6381C15.2698 46.5076 15.164 46.4019 15.0335 46.4019C14.903 46.4019 14.7972 46.5076 14.7972 46.6381V48.5303C14.7972 48.6608 14.903 48.7665 15.0335 48.7665C15.164 48.7665 15.2698 48.6608 15.2698 48.5303V46.6381Z" fill="#A15F29" fill-opacity="0.1"/>
<path opacity="0.369792" d="M14.7951 45.2193C14.7951 45.0888 14.6894 44.983 14.5589 44.983C14.4284 44.983 14.3226 45.0888 14.3226 45.2193V47.1115C14.3226 47.2419 14.4284 47.3477 14.5589 47.3477C14.6894 47.3477 14.7951 47.2419 14.7951 47.1115V45.2193Z" fill="#A15F29" fill-opacity="0.1"/>
<path opacity="0.369792" d="M15.2698 37.6524C15.2698 37.5219 15.164 37.4161 15.0335 37.4161C14.903 37.4161 14.7972 37.5219 14.7972 37.6524V39.5445C14.7972 39.675 14.903 39.7808 15.0335 39.7808C15.164 39.7808 15.2698 39.675 15.2698 39.5445V37.6524Z" fill="#A15F29" fill-opacity="0.1"/>
<path opacity="0.369792" d="M13.8457 41.9088C13.8457 41.7783 13.7399 41.6725 13.6094 41.6725C13.4789 41.6725 13.3732 41.7783 13.3732 41.9088V43.8009C13.3732 43.9314 13.4789 44.0372 13.6094 44.0372C13.7399 44.0372 13.8457 43.9314 13.8457 43.8009V41.9088Z" fill="#A15F29" fill-opacity="0.1"/>
<path opacity="0.369792" d="M15.7444 38.5982C15.7444 38.4677 15.6386 38.3619 15.5081 38.3619C15.3776 38.3619 15.2719 38.4677 15.2719 38.5982V40.4904C15.2719 40.6208 15.3776 40.7266 15.5081 40.7266C15.6386 40.7266 15.7444 40.6208 15.7444 40.4904V38.5982Z" fill="#A15F29" fill-opacity="0.1"/>
<path opacity="0.369792" d="M12.4217 41.4358C12.4217 41.3054 12.3159 41.1996 12.1855 41.1996C12.055 41.1996 11.9492 41.3054 11.9492 41.4358V41.9092C11.9492 42.0397 12.055 42.1455 12.1855 42.1455C12.3159 42.1455 12.4217 42.0397 12.4217 41.9092V41.4358Z" fill="#A15F29" fill-opacity="0.1"/>
<path opacity="0.369792" d="M15.7444 47.584C15.7444 47.4535 15.6386 47.3477 15.5081 47.3477C15.3776 47.3477 15.2719 47.4535 15.2719 47.584V48.0573C15.2719 48.1878 15.3776 48.2936 15.5081 48.2936C15.6386 48.2936 15.7444 48.1878 15.7444 48.0573V47.584Z" fill="#A15F29" fill-opacity="0.1"/>
<path opacity="0.369792" d="M13.3711 47.584C13.3711 47.4535 13.2653 47.3477 13.1348 47.3477C13.0043 47.3477 12.8986 47.4535 12.8986 47.584V48.5303C12.8986 48.6607 13.0043 48.7665 13.1348 48.7665C13.2653 48.7665 13.3711 48.6607 13.3711 48.5303V47.584Z" fill="#A15F29" fill-opacity="0.1"/>
<path opacity="0.369792" d="M14.3205 47.8205C14.3205 47.69 14.2148 47.5842 14.0843 47.5842C13.9538 47.5842 13.848 47.69 13.848 47.8205V48.7668C13.848 48.8973 13.9538 49.003 14.0843 49.003C14.2148 49.003 14.3205 48.8973 14.3205 48.7668V47.8205Z" fill="#A15F29" fill-opacity="0.1"/>
<path opacity="0.369792" d="M15.2698 43.8005C15.2698 43.67 15.164 43.5642 15.0335 43.5642C14.903 43.5642 14.7972 43.67 14.7972 43.8005V44.7468C14.7972 44.8773 14.903 44.983 15.0335 44.983C15.164 44.983 15.2698 44.8773 15.2698 44.7468V43.8005Z" fill="#A15F29" fill-opacity="0.1"/>
<path opacity="0.369792" d="M12.8963 45.6923C12.8963 45.5618 12.7906 45.456 12.6601 45.456C12.5296 45.456 12.4238 45.5618 12.4238 45.6923V46.1656C12.4238 46.2961 12.5296 46.4019 12.6601 46.4019C12.7906 46.4019 12.8963 46.2961 12.8963 46.1656V45.6923Z" fill="#A15F29" fill-opacity="0.1"/>
<path opacity="0.369792" d="M14.7951 41.9088C14.7951 41.7783 14.6894 41.6725 14.5589 41.6725C14.4284 41.6725 14.3226 41.7783 14.3226 41.9088V42.3821C14.3226 42.5126 14.4284 42.6184 14.5589 42.6184C14.6894 42.6184 14.7951 42.5126 14.7951 42.3821V41.9088Z" fill="#A15F29" fill-opacity="0.1"/>
<path opacity="0.369792" d="M14.3205 46.6381C14.3205 46.5076 14.2148 46.4019 14.0843 46.4019C13.9538 46.4019 13.848 46.5076 13.848 46.6381V47.1115C13.848 47.242 13.9538 47.3477 14.0843 47.3477C14.2148 47.3477 14.3205 47.242 14.3205 47.1115V46.6381Z" fill="#A15F29" fill-opacity="0.1"/>
<path opacity="0.369792" d="M13.8457 44.7464C13.8457 44.6159 13.7399 44.5101 13.6094 44.5101C13.4789 44.5101 13.3732 44.6159 13.3732 44.7464V45.2197C13.3732 45.3502 13.4789 45.456 13.6094 45.456C13.7399 45.456 13.8457 45.3502 13.8457 45.2197V44.7464Z" fill="#A15F29" fill-opacity="0.1"/>
<path opacity="0.369792" d="M16.2191 45.9287C16.2191 45.7983 16.1133 45.6925 15.9828 45.6925C15.8524 45.6925 15.7466 45.7983 15.7466 45.9287V46.4021C15.7466 46.5326 15.8524 46.6384 15.9828 46.6384C16.1133 46.6384 16.2191 46.5326 16.2191 46.4021V45.9287Z" fill="#A15F29" fill-opacity="0.1"/>
<path opacity="0.369792" d="M16.2191 40.9629C16.2191 40.8324 16.1133 40.7266 15.9828 40.7266C15.8524 40.7266 15.7466 40.8324 15.7466 40.9629V42.3821C15.7466 42.5126 15.8524 42.6184 15.9828 42.6184C16.1133 42.6184 16.2191 42.5126 16.2191 42.3821V40.9629Z" fill="#A15F29" fill-opacity="0.1"/>
<path opacity="0.369792" d="M15.7444 41.4358C15.7444 41.3054 15.6386 41.1996 15.5081 41.1996C15.3776 41.1996 15.2719 41.3054 15.2719 41.4358V41.9092C15.2719 42.0397 15.3776 42.1455 15.5081 42.1455C15.6386 42.1455 15.7444 42.0397 15.7444 41.9092V41.4358Z" fill="#A15F29" fill-opacity="0.1"/>
<path opacity="0.369792" d="M12.8963 47.1111C12.8963 46.9806 12.7906 46.8748 12.6601 46.8748C12.5296 46.8748 12.4238 46.9806 12.4238 47.1111V48.0574C12.4238 48.1878 12.5296 48.2936 12.6601 48.2936C12.7906 48.2936 12.8963 48.1878 12.8963 48.0574V47.1111Z" fill="#A15F29" fill-opacity="0.1"/>
<path opacity="0.369792" d="M14.3205 44.7464C14.3205 44.6159 14.2148 44.5101 14.0843 44.5101C13.9538 44.5101 13.848 44.6159 13.848 44.7464V45.6927C13.848 45.8232 13.9538 45.9289 14.0843 45.9289C14.2148 45.9289 14.3205 45.8232 14.3205 45.6927V44.7464Z" fill="#A15F29" fill-opacity="0.1"/>
<path opacity="0.369792" d="M14.7951 48.2934C14.7951 48.1629 14.6894 48.0572 14.5589 48.0572C14.4284 48.0572 14.3226 48.1629 14.3226 48.2934V48.7668C14.3226 48.8973 14.4284 49.003 14.5589 49.003C14.6894 49.003 14.7951 48.8973 14.7951 48.7668V48.2934Z" fill="#A15F29" fill-opacity="0.1"/>
<path opacity="0.369792" d="M15.7444 45.6923C15.7444 45.5618 15.6386 45.456 15.5081 45.456C15.3776 45.456 15.2719 45.5618 15.2719 45.6923V46.6385C15.2719 46.769 15.3776 46.8748 15.5081 46.8748C15.6386 46.8748 15.7444 46.769 15.7444 46.6385V45.6923Z" fill="#A15F29" fill-opacity="0.1"/>
<path opacity="0.369792" d="M14.7951 43.3275C14.7951 43.1971 14.6894 43.0913 14.5589 43.0913C14.4284 43.0913 14.3226 43.1971 14.3226 43.3275V44.2738C14.3226 44.4043 14.4284 44.5101 14.5589 44.5101C14.6894 44.5101 14.7951 44.4043 14.7951 44.2738V43.3275Z" fill="#A15F29" fill-opacity="0.1"/>
<path opacity="0.369792" d="M16.2191 47.1111C16.2191 46.9806 16.1133 46.8748 15.9828 46.8748C15.8524 46.8748 15.7466 46.9806 15.7466 47.1111V48.0574C15.7466 48.1878 15.8524 48.2936 15.9828 48.2936C16.1133 48.2936 16.2191 48.1878 16.2191 48.0574V47.1111Z" fill="#A15F29" fill-opacity="0.1"/>
<path opacity="0.369792" fill-rule="evenodd" clip-rule="evenodd" d="M12.4238 40.7266H12.6612V41.5544C12.6612 41.6196 12.6083 41.6725 12.543 41.6725H12.542C12.4767 41.6725 12.4238 41.6196 12.4238 41.5544V40.7266Z" fill="#A15F29" fill-opacity="0.1"/>
<path opacity="0.369792" fill-rule="evenodd" clip-rule="evenodd" d="M13.3732 40.7266H13.6105V41.0814C13.6105 41.1467 13.5576 41.1996 13.4924 41.1996H13.4913C13.4261 41.1996 13.3732 41.1467 13.3732 41.0814V40.7266Z" fill="#A15F29" fill-opacity="0.1"/>
<path opacity="0.369792" fill-rule="evenodd" clip-rule="evenodd" d="M14.3226 40.7266H14.56V41.0814C14.56 41.1467 14.5071 41.1996 14.4418 41.1996H14.4408C14.3755 41.1996 14.3226 41.1467 14.3226 41.0814V40.7266Z" fill="#A15F29" fill-opacity="0.1"/>
<path opacity="0.369792" fill-rule="evenodd" clip-rule="evenodd" d="M12.6613 40.7266H12.4239V39.8989C12.4239 39.8336 12.4768 39.7807 12.542 39.7807H12.5431C12.6084 39.7807 12.6613 39.8336 12.6613 39.8989V40.7266Z" fill="#A15F29" fill-opacity="0.1"/>
<path opacity="0.369792" fill-rule="evenodd" clip-rule="evenodd" d="M13.6106 40.7266H13.3733V39.4259C13.3733 39.3607 13.4261 39.3078 13.4914 39.3078H13.4925C13.5577 39.3078 13.6106 39.3607 13.6106 39.4259V40.7266Z" fill="#A15F29" fill-opacity="0.1"/>
<path opacity="0.369792" fill-rule="evenodd" clip-rule="evenodd" d="M14.5599 40.7266H14.3226V40.3718C14.3226 40.3066 14.3755 40.2537 14.4407 40.2537H14.4418C14.5071 40.2537 14.5599 40.3066 14.5599 40.3718V40.7266Z" fill="#A15F29" fill-opacity="0.1"/>
</g>
<g opacity="0.3">
<path opacity="0.3" d="M15.0368 32.4501C15.0368 32.3196 15.1425 32.2138 15.273 32.2138C15.4035 32.2138 15.5093 32.3196 15.5093 32.4501V34.3422C15.5093 34.4727 15.4035 34.5785 15.273 34.5785C15.1425 34.5785 15.0368 34.4727 15.0368 34.3422V32.4501Z" fill="#A15F29" fill-opacity="0.1"/>
<path opacity="0.3" d="M11.714 32.923C11.714 32.7925 11.8198 32.6867 11.9503 32.6867C12.0807 32.6867 12.1865 32.7925 12.1865 32.923V34.8152C12.1865 34.9456 12.0807 35.0514 11.9503 35.0514C11.8198 35.0514 11.714 34.9456 11.714 34.8152V32.923Z" fill="#A15F29" fill-opacity="0.1"/>
<path opacity="0.3" d="M13.138 27.2478C13.138 27.1173 13.2437 27.0115 13.3742 27.0115C13.5047 27.0115 13.6105 27.1173 13.6105 27.2478V29.1399C13.6105 29.2704 13.5047 29.3762 13.3742 29.3762C13.2437 29.3762 13.138 29.2704 13.138 29.1399V27.2478Z" fill="#A15F29" fill-opacity="0.1"/>
<path opacity="0.3" d="M14.0874 27.2478C14.0874 27.1173 14.1932 27.0115 14.3237 27.0115C14.4542 27.0115 14.5599 27.1173 14.5599 27.2478V28.194C14.5599 28.3245 14.4542 28.4303 14.3237 28.4303C14.1932 28.4303 14.0874 28.3245 14.0874 28.194V27.2478Z" fill="#A15F29" fill-opacity="0.1"/>
<path opacity="0.3" d="M14.5619 34.3418C14.5619 34.2113 14.6677 34.1055 14.7982 34.1055C14.9287 34.1055 15.0344 34.2113 15.0344 34.3418V36.234C15.0344 36.3644 14.9287 36.4702 14.7982 36.4702C14.6677 36.4702 14.5619 36.3644 14.5619 36.234V34.3418Z" fill="#A15F29" fill-opacity="0.1"/>
<path opacity="0.3" d="M12.6634 30.5583C12.6634 30.4278 12.7691 30.322 12.8996 30.322C13.0301 30.322 13.1359 30.4278 13.1359 30.5583V32.4504C13.1359 32.5809 13.0301 32.6867 12.8996 32.6867C12.7691 32.6867 12.6634 32.5809 12.6634 32.4504V30.5583Z" fill="#A15F29" fill-opacity="0.1"/>
<path opacity="0.3" d="M15.5114 32.923C15.5114 32.7925 15.6172 32.6867 15.7476 32.6867C15.8781 32.6867 15.9839 32.7925 15.9839 32.923V33.8693C15.9839 33.9998 15.8781 34.1055 15.7476 34.1055C15.6172 34.1055 15.5114 33.9998 15.5114 33.8693V32.923Z" fill="#A15F29" fill-opacity="0.1"/>
<path opacity="0.3" d="M13.6126 29.1395C13.6126 29.009 13.7184 28.9032 13.8488 28.9032C13.9793 28.9032 14.0851 29.009 14.0851 29.1395V30.0858C14.0851 30.2163 13.9793 30.322 13.8488 30.322C13.7184 30.322 13.6126 30.2163 13.6126 30.0858V29.1395Z" fill="#A15F29" fill-opacity="0.1"/>
<path opacity="0.3" d="M15.5114 28.1936C15.5114 28.0631 15.6172 27.9573 15.7476 27.9573C15.8781 27.9573 15.9839 28.0631 15.9839 28.1936V29.1399C15.9839 29.2704 15.8781 29.3761 15.7476 29.3761C15.6172 29.3761 15.5114 29.2704 15.5114 29.1399V28.1936Z" fill="#A15F29" fill-opacity="0.1"/>
<path opacity="0.3" d="M14.5619 28.1936C14.5619 28.0631 14.6677 27.9573 14.7982 27.9573C14.9287 27.9573 15.0344 28.0631 15.0344 28.1936V29.1399C15.0344 29.2704 14.9287 29.3761 14.7982 29.3761C14.6677 29.3761 14.5619 29.2704 14.5619 29.1399V28.1936Z" fill="#A15F29" fill-opacity="0.1"/>
<path opacity="0.3" d="M15.0368 26.7748C15.0368 26.6443 15.1425 26.5385 15.273 26.5385C15.4035 26.5385 15.5093 26.6443 15.5093 26.7748V27.7211C15.5093 27.8516 15.4035 27.9574 15.273 27.9574C15.1425 27.9574 15.0368 27.8516 15.0368 27.7211V26.7748Z" fill="#A15F29" fill-opacity="0.1"/>
<path opacity="0.3" d="M15.5114 35.2877C15.5114 35.1572 15.6172 35.0514 15.7476 35.0514C15.8781 35.0514 15.9839 35.1572 15.9839 35.2877V37.1798C15.9839 37.3103 15.8781 37.4161 15.7476 37.4161C15.6172 37.4161 15.5114 37.3103 15.5114 37.1798V35.2877Z" fill="#A15F29" fill-opacity="0.1"/>
<path opacity="0.3" d="M13.6126 31.5042C13.6126 31.3737 13.7184 31.2679 13.8488 31.2679C13.9793 31.2679 14.0851 31.3737 14.0851 31.5042V33.3963C14.0851 33.5268 13.9793 33.6326 13.8488 33.6326C13.7184 33.6326 13.6126 33.5268 13.6126 33.3963V31.5042Z" fill="#A15F29" fill-opacity="0.1"/>
<path opacity="0.3" d="M14.0874 35.7606C14.0874 35.6301 14.1932 35.5243 14.3237 35.5243C14.4542 35.5243 14.5599 35.6301 14.5599 35.7606V37.8892C14.5599 38.0197 14.4542 38.1255 14.3237 38.1255C14.1932 38.1255 14.0874 38.0197 14.0874 37.8892V35.7606Z" fill="#A15F29" fill-opacity="0.1"/>
<path opacity="0.3" d="M12.1888 32.4501C12.1888 32.3196 12.2945 32.2138 12.425 32.2138C12.5555 32.2138 12.6613 32.3196 12.6613 32.4501V34.5787C12.6613 34.7092 12.5555 34.8149 12.425 34.8149C12.2945 34.8149 12.1888 34.7092 12.1888 34.5787V32.4501Z" fill="#A15F29" fill-opacity="0.1"/>
<path opacity="0.3" d="M14.5619 31.0312C14.5619 30.9008 14.6677 30.795 14.7982 30.795C14.9287 30.795 15.0344 30.9008 15.0344 31.0312V32.9234C15.0344 33.0539 14.9287 33.1597 14.7982 33.1597C14.6677 33.1597 14.5619 33.0539 14.5619 32.9234V31.0312Z" fill="#A15F29" fill-opacity="0.1"/>
<path opacity="0.3" d="M12.6634 36.2335C12.6634 36.103 12.7691 35.9973 12.8996 35.9973C13.0301 35.9973 13.1359 36.103 13.1359 36.2335V38.1257C13.1359 38.2562 13.0301 38.3619 12.8996 38.3619C12.7691 38.3619 12.6634 38.2562 12.6634 38.1257V36.2335Z" fill="#A15F29" fill-opacity="0.1"/>
<path opacity="0.3" d="M13.138 34.8147C13.138 34.6842 13.2437 34.5784 13.3742 34.5784C13.5047 34.5784 13.6105 34.6842 13.6105 34.8147V36.7068C13.6105 36.8373 13.5047 36.9431 13.3742 36.9431C13.2437 36.9431 13.138 36.8373 13.138 36.7068V34.8147Z" fill="#A15F29" fill-opacity="0.1"/>
<path opacity="0.3" d="M12.6634 27.2478C12.6634 27.1173 12.7691 27.0115 12.8996 27.0115C13.0301 27.0115 13.1359 27.1173 13.1359 27.2478V29.1399C13.1359 29.2704 13.0301 29.3762 12.8996 29.3762C12.7691 29.3762 12.6634 29.2704 12.6634 29.1399V27.2478Z" fill="#A15F29" fill-opacity="0.1"/>
<path opacity="0.3" d="M14.0874 31.5042C14.0874 31.3737 14.1932 31.2679 14.3237 31.2679C14.4542 31.2679 14.5599 31.3737 14.5599 31.5042V33.3963C14.5599 33.5268 14.4542 33.6326 14.3237 33.6326C14.1932 33.6326 14.0874 33.5268 14.0874 33.3963V31.5042Z" fill="#A15F29" fill-opacity="0.1"/>
<path opacity="0.3" d="M12.1888 28.1936C12.1888 28.0631 12.2945 27.9573 12.425 27.9573C12.5555 27.9573 12.6613 28.0631 12.6613 28.1936V30.0858C12.6613 30.2162 12.5555 30.322 12.425 30.322C12.2945 30.322 12.1888 30.2162 12.1888 30.0858V28.1936Z" fill="#A15F29" fill-opacity="0.1"/>
<path opacity="0.3" d="M15.5114 31.0312C15.5114 30.9008 15.6172 30.795 15.7476 30.795C15.8781 30.795 15.9839 30.9008 15.9839 31.0312V31.5046C15.9839 31.6351 15.8781 31.7409 15.7476 31.7409C15.6172 31.7409 15.5114 31.6351 15.5114 31.5046V31.0312Z" fill="#A15F29" fill-opacity="0.1"/>
<path opacity="0.3" d="M12.1888 37.1794C12.1888 37.049 12.2945 36.9432 12.425 36.9432C12.5555 36.9432 12.6613 37.049 12.6613 37.1794V37.6528C12.6613 37.7833 12.5555 37.889 12.425 37.889C12.2945 37.889 12.1888 37.7833 12.1888 37.6528V37.1794Z" fill="#A15F29" fill-opacity="0.1"/>
<path opacity="0.3" d="M14.5619 37.1794C14.5619 37.049 14.6677 36.9432 14.7982 36.9432C14.9287 36.9432 15.0344 37.049 15.0344 37.1794V38.1257C15.0344 38.2562 14.9287 38.362 14.7982 38.362C14.6677 38.362 14.5619 38.2562 14.5619 38.1257V37.1794Z" fill="#A15F29" fill-opacity="0.1"/>
<path opacity="0.3" d="M13.6126 37.4159C13.6126 37.2854 13.7184 37.1796 13.8488 37.1796C13.9793 37.1796 14.0851 37.2854 14.0851 37.4159V38.3622C14.0851 38.4927 13.9793 38.5984 13.8488 38.5984C13.7184 38.5984 13.6126 38.4927 13.6126 38.3622V37.4159Z" fill="#A15F29" fill-opacity="0.1"/>
<path opacity="0.3" d="M12.6634 33.3959C12.6634 33.2654 12.7691 33.1596 12.8996 33.1596C13.0301 33.1596 13.1359 33.2654 13.1359 33.3959V34.3422C13.1359 34.4727 13.0301 34.5784 12.8996 34.5784C12.7691 34.5784 12.6634 34.4727 12.6634 34.3422V33.3959Z" fill="#A15F29" fill-opacity="0.1"/>
<path opacity="0.3" d="M15.0368 35.2877C15.0368 35.1572 15.1425 35.0514 15.273 35.0514C15.4035 35.0514 15.5093 35.1572 15.5093 35.2877V35.761C15.5093 35.8915 15.4035 35.9973 15.273 35.9973C15.1425 35.9973 15.0368 35.8915 15.0368 35.761V35.2877Z" fill="#A15F29" fill-opacity="0.1"/>
<path opacity="0.3" d="M13.138 31.5042C13.138 31.3737 13.2437 31.2679 13.3742 31.2679C13.5047 31.2679 13.6105 31.3737 13.6105 31.5042V31.9775C13.6105 32.108 13.5047 32.2138 13.3742 32.2138C13.2437 32.2138 13.138 32.108 13.138 31.9775V31.5042Z" fill="#A15F29" fill-opacity="0.1"/>
<path opacity="0.3" d="M13.6126 36.2335C13.6126 36.103 13.7184 35.9973 13.8488 35.9973C13.9793 35.9973 14.0851 36.103 14.0851 36.2335V36.7069C14.0851 36.8374 13.9793 36.9431 13.8488 36.9431C13.7184 36.9431 13.6126 36.8374 13.6126 36.7069V36.2335Z" fill="#A15F29" fill-opacity="0.1"/>
<path opacity="0.3" d="M14.0874 34.3418C14.0874 34.2113 14.1932 34.1055 14.3237 34.1055C14.4542 34.1055 14.5599 34.2113 14.5599 34.3418V34.8151C14.5599 34.9456 14.4542 35.0514 14.3237 35.0514C14.1932 35.0514 14.0874 34.9456 14.0874 34.8151V34.3418Z" fill="#A15F29" fill-opacity="0.1"/>
<path opacity="0.3" d="M11.714 35.5241C11.714 35.3937 11.8198 35.2879 11.9503 35.2879C12.0807 35.2879 12.1865 35.3937 12.1865 35.5241V35.9975C12.1865 36.128 12.0807 36.2338 11.9503 36.2338C11.8198 36.2338 11.714 36.128 11.714 35.9975V35.5241Z" fill="#A15F29" fill-opacity="0.1"/>
<path opacity="0.3" d="M11.714 30.5583C11.714 30.4278 11.8198 30.322 11.9503 30.322C12.0807 30.322 12.1865 30.4278 12.1865 30.5583V31.9775C12.1865 32.108 12.0807 32.2138 11.9503 32.2138C11.8198 32.2138 11.714 32.108 11.714 31.9775V30.5583Z" fill="#A15F29" fill-opacity="0.1"/>
<path opacity="0.3" d="M12.1888 31.0312C12.1888 30.9008 12.2945 30.795 12.425 30.795C12.5555 30.795 12.6613 30.9008 12.6613 31.0312V31.5046C12.6613 31.6351 12.5555 31.7409 12.425 31.7409C12.2945 31.7409 12.1888 31.6351 12.1888 31.5046V31.0312Z" fill="#A15F29" fill-opacity="0.1"/>
<path opacity="0.3" d="M15.0368 36.7065C15.0368 36.576 15.1425 36.4702 15.273 36.4702C15.4035 36.4702 15.5093 36.576 15.5093 36.7065V37.6528C15.5093 37.7832 15.4035 37.889 15.273 37.889C15.1425 37.889 15.0368 37.7832 15.0368 37.6528V36.7065Z" fill="#A15F29" fill-opacity="0.1"/>
<path opacity="0.3" d="M13.6126 34.3418C13.6126 34.2113 13.7184 34.1055 13.8488 34.1055C13.9793 34.1055 14.0851 34.2113 14.0851 34.3418V35.2881C14.0851 35.4186 13.9793 35.5243 13.8488 35.5243C13.7184 35.5243 13.6126 35.4186 13.6126 35.2881V34.3418Z" fill="#A15F29" fill-opacity="0.1"/>
<path opacity="0.3" d="M13.138 37.8888C13.138 37.7583 13.2437 37.6526 13.3742 37.6526C13.5047 37.6526 13.6105 37.7583 13.6105 37.8888V38.3622C13.6105 38.4926 13.5047 38.5984 13.3742 38.5984C13.2437 38.5984 13.138 38.4926 13.138 38.3622V37.8888Z" fill="#A15F29" fill-opacity="0.1"/>
<path opacity="0.3" d="M12.1888 35.2877C12.1888 35.1572 12.2945 35.0514 12.425 35.0514C12.5555 35.0514 12.6613 35.1572 12.6613 35.2877V36.2339C12.6613 36.3644 12.5555 36.4702 12.425 36.4702C12.2945 36.4702 12.1888 36.3644 12.1888 36.2339V35.2877Z" fill="#A15F29" fill-opacity="0.1"/>
<path opacity="0.3" d="M13.138 32.923C13.138 32.7925 13.2437 32.6867 13.3742 32.6867C13.5047 32.6867 13.6105 32.7925 13.6105 32.923V33.8693C13.6105 33.9998 13.5047 34.1055 13.3742 34.1055C13.2437 34.1055 13.138 33.9998 13.138 33.8693V32.923Z" fill="#A15F29" fill-opacity="0.1"/>
<path opacity="0.3" d="M11.714 36.7065C11.714 36.576 11.8198 36.4702 11.9503 36.4702C12.0807 36.4702 12.1865 36.576 12.1865 36.7065V37.6528C12.1865 37.7832 12.0807 37.889 11.9503 37.889C11.8198 37.889 11.714 37.7832 11.714 37.6528V36.7065Z" fill="#A15F29" fill-opacity="0.1"/>
<path opacity="0.3" fill-rule="evenodd" clip-rule="evenodd" d="M15.5093 30.322H15.2719V31.1498C15.2719 31.215 15.3248 31.2679 15.3901 31.2679H15.3912C15.4564 31.2679 15.5093 31.215 15.5093 31.1498V30.322Z" fill="#A15F29" fill-opacity="0.1"/>
<path opacity="0.3" fill-rule="evenodd" clip-rule="evenodd" d="M14.5599 30.322H14.3226V30.6768C14.3226 30.7421 14.3755 30.795 14.4407 30.795H14.4418C14.507 30.795 14.5599 30.7421 14.5599 30.6768V30.322Z" fill="#A15F29" fill-opacity="0.1"/>
<path opacity="0.3" fill-rule="evenodd" clip-rule="evenodd" d="M13.6105 30.322H13.3731V30.6768C13.3731 30.7421 13.426 30.795 13.4913 30.795H13.4923C13.5576 30.795 13.6105 30.7421 13.6105 30.6768V30.322Z" fill="#A15F29" fill-opacity="0.1"/>
<path opacity="0.3" fill-rule="evenodd" clip-rule="evenodd" d="M15.2719 30.322H15.5092V29.4943C15.5092 29.429 15.4563 29.3761 15.3911 29.3761H15.39C15.3247 29.3761 15.2719 29.429 15.2719 29.4943V30.322Z" fill="#A15F29" fill-opacity="0.1"/>
<path opacity="0.3" fill-rule="evenodd" clip-rule="evenodd" d="M14.3225 30.322H14.5598V29.0213C14.5598 28.9561 14.507 28.9032 14.4417 28.9032H14.4406C14.3754 28.9032 14.3225 28.9561 14.3225 29.0213V30.322Z" fill="#A15F29" fill-opacity="0.1"/>
<path opacity="0.3" fill-rule="evenodd" clip-rule="evenodd" d="M13.3732 30.322H13.6105V29.9672C13.6105 29.902 13.5576 29.8491 13.4924 29.8491H13.4913C13.4261 29.8491 13.3732 29.902 13.3732 29.9672V30.322Z" fill="#A15F29" fill-opacity="0.1"/>
</g>
<g opacity="0.3">
<path opacity="0.3" d="M15.0368 19.6812C15.0368 19.8117 15.1425 19.9174 15.273 19.9174C15.4035 19.9174 15.5093 19.8117 15.5093 19.6812V17.789C15.5093 17.6585 15.4035 17.5528 15.273 17.5528C15.1425 17.5528 15.0368 17.6585 15.0368 17.789V19.6812Z" fill="#A15F29" fill-opacity="0.1"/>
<path opacity="0.3" d="M11.714 19.2083C11.714 19.3388 11.8198 19.4446 11.9503 19.4446C12.0807 19.4446 12.1865 19.3388 12.1865 19.2083V17.3162C12.1865 17.1857 12.0807 17.0799 11.9503 17.0799C11.8198 17.0799 11.714 17.1857 11.714 17.3162V19.2083Z" fill="#A15F29" fill-opacity="0.1"/>
<path opacity="0.3" d="M13.138 24.8835C13.138 25.014 13.2437 25.1198 13.3742 25.1198C13.5047 25.1198 13.6105 25.014 13.6105 24.8835V22.9913C13.6105 22.8609 13.5047 22.7551 13.3742 22.7551C13.2437 22.7551 13.138 22.8609 13.138 22.9913V24.8835Z" fill="#A15F29" fill-opacity="0.1"/>
<path opacity="0.3" d="M14.0874 24.8835C14.0874 25.014 14.1932 25.1198 14.3237 25.1198C14.4542 25.1198 14.5599 25.014 14.5599 24.8835V23.9372C14.5599 23.8067 14.4542 23.7009 14.3237 23.7009C14.1932 23.7009 14.0874 23.8067 14.0874 23.9372V24.8835Z" fill="#A15F29" fill-opacity="0.1"/>
<path opacity="0.3" d="M14.5619 17.7895C14.5619 17.9199 14.6677 18.0257 14.7982 18.0257C14.9287 18.0257 15.0344 17.9199 15.0344 17.7895V15.8973C15.0344 15.7668 14.9287 15.661 14.7982 15.661C14.6677 15.661 14.5619 15.7668 14.5619 15.8973V17.7895Z" fill="#A15F29" fill-opacity="0.1"/>
<path opacity="0.3" d="M12.6634 21.573C12.6634 21.7035 12.7691 21.8092 12.8996 21.8092C13.0301 21.8092 13.1359 21.7035 13.1359 21.573V19.6808C13.1359 19.5503 13.0301 19.4446 12.8996 19.4446C12.7691 19.4446 12.6634 19.5503 12.6634 19.6808V21.573Z" fill="#A15F29" fill-opacity="0.1"/>
<path opacity="0.3" d="M15.5114 19.2083C15.5114 19.3388 15.6172 19.4446 15.7476 19.4446C15.8781 19.4446 15.9839 19.3388 15.9839 19.2083V18.262C15.9839 18.1315 15.8781 18.0258 15.7476 18.0258C15.6172 18.0258 15.5114 18.1315 15.5114 18.262V19.2083Z" fill="#A15F29" fill-opacity="0.1"/>
<path opacity="0.3" d="M13.6126 22.9918C13.6126 23.1222 13.7184 23.228 13.8488 23.228C13.9793 23.228 14.0851 23.1222 14.0851 22.9918V22.0455C14.0851 21.915 13.9793 21.8092 13.8488 21.8092C13.7184 21.8092 13.6126 21.915 13.6126 22.0455V22.9918Z" fill="#A15F29" fill-opacity="0.1"/>
<path opacity="0.3" d="M15.5114 23.9377C15.5114 24.0681 15.6172 24.1739 15.7476 24.1739C15.8781 24.1739 15.9839 24.0681 15.9839 23.9377V22.9914C15.9839 22.8609 15.8781 22.7551 15.7476 22.7551C15.6172 22.7551 15.5114 22.8609 15.5114 22.9914V23.9377Z" fill="#A15F29" fill-opacity="0.1"/>
<path opacity="0.3" d="M14.5619 23.9377C14.5619 24.0681 14.6677 24.1739 14.7982 24.1739C14.9287 24.1739 15.0344 24.0681 15.0344 23.9377V22.9914C15.0344 22.8609 14.9287 22.7551 14.7982 22.7551C14.6677 22.7551 14.5619 22.8609 14.5619 22.9914V23.9377Z" fill="#A15F29" fill-opacity="0.1"/>
<path opacity="0.3" d="M15.0368 25.3564C15.0368 25.4869 15.1425 25.5927 15.273 25.5927C15.4035 25.5927 15.5093 25.4869 15.5093 25.3564V24.4102C15.5093 24.2797 15.4035 24.1739 15.273 24.1739C15.1425 24.1739 15.0368 24.2797 15.0368 24.4102V25.3564Z" fill="#A15F29" fill-opacity="0.1"/>
<path opacity="0.3" d="M15.5114 16.8436C15.5114 16.9741 15.6172 17.0799 15.7476 17.0799C15.8781 17.0799 15.9839 16.9741 15.9839 16.8436V14.9515C15.9839 14.821 15.8781 14.7152 15.7476 14.7152C15.6172 14.7152 15.5114 14.821 15.5114 14.9515V16.8436Z" fill="#A15F29" fill-opacity="0.1"/>
<path opacity="0.3" d="M13.6126 20.6271C13.6126 20.7576 13.7184 20.8633 13.8488 20.8633C13.9793 20.8633 14.0851 20.7576 14.0851 20.6271V18.7349C14.0851 18.6044 13.9793 18.4987 13.8488 18.4987C13.7184 18.4987 13.6126 18.6044 13.6126 18.7349V20.6271Z" fill="#A15F29" fill-opacity="0.1"/>
<path opacity="0.3" d="M14.0874 16.3707C14.0874 16.5012 14.1932 16.6069 14.3237 16.6069C14.4542 16.6069 14.5599 16.5012 14.5599 16.3707V14.242C14.5599 14.1116 14.4542 14.0058 14.3237 14.0058C14.1932 14.0058 14.0874 14.1116 14.0874 14.242V16.3707Z" fill="#A15F29" fill-opacity="0.1"/>
<path opacity="0.3" d="M12.1888 19.6812C12.1888 19.8117 12.2945 19.9174 12.425 19.9174C12.5555 19.9174 12.6613 19.8117 12.6613 19.6812V17.5526C12.6613 17.4221 12.5555 17.3163 12.425 17.3163C12.2945 17.3163 12.1888 17.4221 12.1888 17.5526V19.6812Z" fill="#A15F29" fill-opacity="0.1"/>
<path opacity="0.3" d="M14.5619 21.1C14.5619 21.2305 14.6677 21.3363 14.7982 21.3363C14.9287 21.3363 15.0344 21.2305 15.0344 21.1V19.2079C15.0344 19.0774 14.9287 18.9716 14.7982 18.9716C14.6677 18.9716 14.5619 19.0774 14.5619 19.2079V21.1Z" fill="#A15F29" fill-opacity="0.1"/>
<path opacity="0.3" d="M12.6634 15.8977C12.6634 16.0282 12.7691 16.134 12.8996 16.134C13.0301 16.134 13.1359 16.0282 13.1359 15.8977V14.0056C13.1359 13.8751 13.0301 13.7693 12.8996 13.7693C12.7691 13.7693 12.6634 13.8751 12.6634 14.0056V15.8977Z" fill="#A15F29" fill-opacity="0.1"/>
<path opacity="0.3" d="M13.138 17.3166C13.138 17.447 13.2437 17.5528 13.3742 17.5528C13.5047 17.5528 13.6105 17.447 13.6105 17.3166V15.4244C13.6105 15.2939 13.5047 15.1881 13.3742 15.1881C13.2437 15.1881 13.138 15.2939 13.138 15.4244V17.3166Z" fill="#A15F29" fill-opacity="0.1"/>
<path opacity="0.3" d="M12.6634 24.8835C12.6634 25.014 12.7691 25.1198 12.8996 25.1198C13.0301 25.1198 13.1359 25.014 13.1359 24.8835V22.9913C13.1359 22.8609 13.0301 22.7551 12.8996 22.7551C12.7691 22.7551 12.6634 22.8609 12.6634 22.9913V24.8835Z" fill="#A15F29" fill-opacity="0.1"/>
<path opacity="0.3" d="M14.0874 20.6271C14.0874 20.7576 14.1932 20.8633 14.3237 20.8633C14.4542 20.8633 14.5599 20.7576 14.5599 20.6271V18.7349C14.5599 18.6044 14.4542 18.4987 14.3237 18.4987C14.1932 18.4987 14.0874 18.6044 14.0874 18.7349V20.6271Z" fill="#A15F29" fill-opacity="0.1"/>
<path opacity="0.3" d="M12.1888 23.9377C12.1888 24.0681 12.2945 24.1739 12.425 24.1739C12.5555 24.1739 12.6613 24.0681 12.6613 23.9377V22.0455C12.6613 21.915 12.5555 21.8092 12.425 21.8092C12.2945 21.8092 12.1888 21.915 12.1888 22.0455V23.9377Z" fill="#A15F29" fill-opacity="0.1"/>
<path opacity="0.3" d="M15.5114 21.1C15.5114 21.2305 15.6172 21.3363 15.7476 21.3363C15.8781 21.3363 15.9839 21.2305 15.9839 21.1V20.6267C15.9839 20.4962 15.8781 20.3904 15.7476 20.3904C15.6172 20.3904 15.5114 20.4962 15.5114 20.6267V21.1Z" fill="#A15F29" fill-opacity="0.1"/>
<path opacity="0.3" d="M12.1888 14.9518C12.1888 15.0823 12.2945 15.1881 12.425 15.1881C12.5555 15.1881 12.6613 15.0823 12.6613 14.9518V14.4785C12.6613 14.348 12.5555 14.2422 12.425 14.2422C12.2945 14.2422 12.1888 14.348 12.1888 14.4785V14.9518Z" fill="#A15F29" fill-opacity="0.1"/>
<path opacity="0.3" d="M14.5619 14.9518C14.5619 15.0823 14.6677 15.1881 14.7982 15.1881C14.9287 15.1881 15.0344 15.0823 15.0344 14.9518V14.0055C15.0344 13.8751 14.9287 13.7693 14.7982 13.7693C14.6677 13.7693 14.5619 13.8751 14.5619 14.0055V14.9518Z" fill="#A15F29" fill-opacity="0.1"/>
<path opacity="0.3" d="M13.6126 14.7154C13.6126 14.8459 13.7184 14.9516 13.8488 14.9516C13.9793 14.9516 14.0851 14.8459 14.0851 14.7154V13.7691C14.0851 13.6386 13.9793 13.5328 13.8488 13.5328C13.7184 13.5328 13.6126 13.6386 13.6126 13.7691V14.7154Z" fill="#A15F29" fill-opacity="0.1"/>
<path opacity="0.3" d="M12.6634 18.7354C12.6634 18.8658 12.7691 18.9716 12.8996 18.9716C13.0301 18.9716 13.1359 18.8658 13.1359 18.7354V17.7891C13.1359 17.6586 13.0301 17.5528 12.8996 17.5528C12.7691 17.5528 12.6634 17.6586 12.6634 17.7891V18.7354Z" fill="#A15F29" fill-opacity="0.1"/>
<path opacity="0.3" d="M15.0368 16.8436C15.0368 16.9741 15.1425 17.0799 15.273 17.0799C15.4035 17.0799 15.5093 16.9741 15.5093 16.8436V16.3703C15.5093 16.2398 15.4035 16.134 15.273 16.134C15.1425 16.134 15.0368 16.2398 15.0368 16.3703V16.8436Z" fill="#A15F29" fill-opacity="0.1"/>
<path opacity="0.3" d="M13.138 20.6271C13.138 20.7576 13.2437 20.8633 13.3742 20.8633C13.5047 20.8633 13.6105 20.7576 13.6105 20.6271V20.1537C13.6105 20.0232 13.5047 19.9175 13.3742 19.9175C13.2437 19.9175 13.138 20.0232 13.138 20.1537V20.6271Z" fill="#A15F29" fill-opacity="0.1"/>
<path opacity="0.3" d="M13.6126 15.8977C13.6126 16.0282 13.7184 16.134 13.8488 16.134C13.9793 16.134 14.0851 16.0282 14.0851 15.8977V15.4244C14.0851 15.2939 13.9793 15.1881 13.8488 15.1881C13.7184 15.1881 13.6126 15.2939 13.6126 15.4244V15.8977Z" fill="#A15F29" fill-opacity="0.1"/>
<path opacity="0.3" d="M14.0874 17.7895C14.0874 17.9199 14.1932 18.0257 14.3237 18.0257C14.4542 18.0257 14.5599 17.9199 14.5599 17.7895V17.3161C14.5599 17.1856 14.4542 17.0799 14.3237 17.0799C14.1932 17.0799 14.0874 17.1856 14.0874 17.3161V17.7895Z" fill="#A15F29" fill-opacity="0.1"/>
<path opacity="0.3" d="M11.714 16.6071C11.714 16.7376 11.8198 16.8434 11.9503 16.8434C12.0807 16.8434 12.1865 16.7376 12.1865 16.6071V16.1338C12.1865 16.0033 12.0807 15.8975 11.9503 15.8975C11.8198 15.8975 11.714 16.0033 11.714 16.1338V16.6071Z" fill="#A15F29" fill-opacity="0.1"/>
<path opacity="0.3" d="M11.714 21.573C11.714 21.7035 11.8198 21.8092 11.9503 21.8092C12.0807 21.8092 12.1865 21.7035 12.1865 21.573V20.1538C12.1865 20.0233 12.0807 19.9175 11.9503 19.9175C11.8198 19.9175 11.714 20.0233 11.714 20.1538V21.573Z" fill="#A15F29" fill-opacity="0.1"/>
<path opacity="0.3" d="M12.1888 21.1C12.1888 21.2305 12.2945 21.3363 12.425 21.3363C12.5555 21.3363 12.6613 21.2305 12.6613 21.1V20.6267C12.6613 20.4962 12.5555 20.3904 12.425 20.3904C12.2945 20.3904 12.1888 20.4962 12.1888 20.6267V21.1Z" fill="#A15F29" fill-opacity="0.1"/>
<path opacity="0.3" d="M15.0368 15.4248C15.0368 15.5553 15.1425 15.661 15.273 15.661C15.4035 15.661 15.5093 15.5553 15.5093 15.4248V14.4785C15.5093 14.348 15.4035 14.2422 15.273 14.2422C15.1425 14.2422 15.0368 14.348 15.0368 14.4785V15.4248Z" fill="#A15F29" fill-opacity="0.1"/>
<path opacity="0.3" d="M13.6126 17.7895C13.6126 17.9199 13.7184 18.0257 13.8488 18.0257C13.9793 18.0257 14.0851 17.9199 14.0851 17.7895V16.8432C14.0851 16.7127 13.9793 16.6069 13.8488 16.6069C13.7184 16.6069 13.6126 16.7127 13.6126 16.8432V17.7895Z" fill="#A15F29" fill-opacity="0.1"/>
<path opacity="0.3" d="M13.138 14.2424C13.138 14.3729 13.2437 14.4787 13.3742 14.4787C13.5047 14.4787 13.6105 14.3729 13.6105 14.2424V13.7691C13.6105 13.6386 13.5047 13.5328 13.3742 13.5328C13.2437 13.5328 13.138 13.6386 13.138 13.7691V14.2424Z" fill="#A15F29" fill-opacity="0.1"/>
<path opacity="0.3" d="M12.1888 16.8436C12.1888 16.9741 12.2945 17.0799 12.425 17.0799C12.5555 17.0799 12.6613 16.9741 12.6613 16.8436V15.8973C12.6613 15.7669 12.5555 15.6611 12.425 15.6611C12.2945 15.6611 12.1888 15.7669 12.1888 15.8973V16.8436Z" fill="#A15F29" fill-opacity="0.1"/>
<path opacity="0.3" d="M13.138 19.2083C13.138 19.3388 13.2437 19.4446 13.3742 19.4446C13.5047 19.4446 13.6105 19.3388 13.6105 19.2083V18.262C13.6105 18.1315 13.5047 18.0258 13.3742 18.0258C13.2437 18.0258 13.138 18.1315 13.138 18.262V19.2083Z" fill="#A15F29" fill-opacity="0.1"/>
<path opacity="0.3" d="M11.714 15.4248C11.714 15.5553 11.8198 15.661 11.9503 15.661C12.0807 15.661 12.1865 15.5553 12.1865 15.4248V14.4785C12.1865 14.348 12.0807 14.2422 11.9503 14.2422C11.8198 14.2422 11.714 14.348 11.714 14.4785V15.4248Z" fill="#A15F29" fill-opacity="0.1"/>
<path opacity="0.3" fill-rule="evenodd" clip-rule="evenodd" d="M15.5093 21.8092H15.2719V20.9815C15.2719 20.9163 15.3248 20.8634 15.3901 20.8634H15.3912C15.4564 20.8634 15.5093 20.9163 15.5093 20.9815V21.8092Z" fill="#A15F29" fill-opacity="0.1"/>
<path opacity="0.3" fill-rule="evenodd" clip-rule="evenodd" d="M14.5599 21.8092H14.3226V21.4544C14.3226 21.3892 14.3755 21.3363 14.4407 21.3363H14.4418C14.507 21.3363 14.5599 21.3892 14.5599 21.4544V21.8092Z" fill="#A15F29" fill-opacity="0.1"/>
<path opacity="0.3" fill-rule="evenodd" clip-rule="evenodd" d="M13.6105 21.8092H13.3731V21.4544C13.3731 21.3892 13.426 21.3363 13.4913 21.3363H13.4923C13.5576 21.3363 13.6105 21.3892 13.6105 21.4544V21.8092Z" fill="#A15F29" fill-opacity="0.1"/>
<path opacity="0.3" fill-rule="evenodd" clip-rule="evenodd" d="M15.2719 21.8092H15.5092V22.637C15.5092 22.7022 15.4563 22.7551 15.3911 22.7551H15.39C15.3247 22.7551 15.2719 22.7022 15.2719 22.637V21.8092Z" fill="#A15F29" fill-opacity="0.1"/>
<path opacity="0.3" fill-rule="evenodd" clip-rule="evenodd" d="M14.3225 21.8092H14.5598V23.1099C14.5598 23.1752 14.507 23.228 14.4417 23.228H14.4406C14.3754 23.228 14.3225 23.1752 14.3225 23.1099V21.8092Z" fill="#A15F29" fill-opacity="0.1"/>
<path opacity="0.3" fill-rule="evenodd" clip-rule="evenodd" d="M13.3732 21.8092H13.6105V22.164C13.6105 22.2293 13.5576 22.2822 13.4924 22.2822H13.4913C13.4261 22.2822 13.3732 22.2293 13.3732 22.164V21.8092Z" fill="#A15F29" fill-opacity="0.1"/>
</g>
<path d="M22.8862 1H5.28416C2.93555 1 1.03162 2.90401 1.03162 5.25272V44.0409C1.03162 46.3896 2.93555 48.2936 5.28416 48.2936H22.8862C25.2348 48.2936 27.1387 46.3896 27.1387 44.0409V5.25272C27.1387 2.90401 25.2348 1 22.8862 1Z" fill="url(#paint9_linear)" fill-opacity="0.15"/>
<path fill-rule="evenodd" clip-rule="evenodd" d="M7.01183 24.3962H21.1725C24.043 24.3962 26.3701 26.7233 26.3701 29.594C26.3701 33.9252 26.3701 38.2564 26.3701 42.5875C26.3701 45.6889 24.4334 46.3877 23.6897 46.3877C4.50845 46.6577 23.6697 46.4722 4.48052 46.6242C3.58313 46.5563 1.77039 44.7346 1.80017 42.5875C1.82507 40.7922 1.82978 36.4649 1.81429 29.6057C1.80781 26.7351 4.12957 24.4027 7.0001 24.3962C7.00401 24.3962 7.00792 24.3962 7.01183 24.3962Z" fill="url(#paint10_linear)" fill-opacity="0.51"/>
<path d="M22.8862 48.1846H3.87975L16.9424 38.7683L27.1388 5.43046V43.9318C27.1388 46.2806 25.2349 48.1846 22.8862 48.1846Z" fill="url(#paint11_linear)" fill-opacity="0.15"/>
<path opacity="0.663342" d="M22.4777 1C22.4528 1.0417 3.62013 1.03179 3.62013 1C-0.206003 1 0.597841 7.09396 0.597841 29.861C0.597841 43.1631 24.9825 57.4182 24.9825 31.5697C24.9825 5.72132 25.9869 1.03179 22.4777 1Z" fill="url(#paint12_radial)" fill-opacity="0.89"/>
<g opacity="0.592285" filter="url(#filter0_f)">
<path d="M23.8161 2.55066H4.32279C4.07811 2.55066 3.87976 2.74902 3.87976 2.99371C3.87976 3.2384 4.07811 3.43675 4.32279 3.43675H23.8161C24.0608 3.43675 24.2591 3.2384 24.2591 2.99371C24.2591 2.74902 24.0608 2.55066 23.8161 2.55066Z" fill="white"/>
</g>
<defs>
<filter id="filter0_f" x="1.87976" y="0.550659" width="24.3794" height="4.8861" filterUnits="userSpaceOnUse" color-interpolation-filters="sRGB">
<feFlood flood-opacity="0" result="BackgroundImageFix"/>
<feBlend mode="normal" in="SourceGraphic" in2="BackgroundImageFix" result="shape"/>
<feGaussianBlur stdDeviation="1" result="effect1_foregroundBlur"/>
</filter>
<linearGradient id="paint0_linear" x1="14.0648" y1="1" x2="14.0648" y2="9.24436" gradientUnits="userSpaceOnUse">
<stop stop-color="#FFE000"/>
<stop offset="1" stop-color="#FFBE00"/>
</linearGradient>
<linearGradient id="paint1_linear" x1="14.0648" y1="44.3814" x2="14.0648" y2="48.2936" gradientUnits="userSpaceOnUse">
<stop stop-color="#00CCFF"/>
<stop offset="1" stop-color="#00BBFF"/>
</linearGradient>
<linearGradient id="paint2_linear" x1="14.0852" y1="1" x2="14.0852" y2="28.2605" gradientUnits="userSpaceOnUse">
<stop stop-color="white"/>
<stop offset="1" stop-color="white" stop-opacity="0"/>
</linearGradient>
<linearGradient id="paint3_linear" x1="11.701" y1="19" x2="15.0457" y2="24.8673" gradientUnits="userSpaceOnUse">
<stop stop-color="#FF2863"/>
<stop offset="1" stop-color="#FF0046"/>
</linearGradient>
<linearGradient id="paint4_linear" x1="12.5764" y1="33.0033" x2="15.3392" y2="39.9182" gradientUnits="userSpaceOnUse">
<stop stop-color="#0086FF"/>
<stop offset="1" stop-color="#0071FF"/>
</linearGradient>
<linearGradient id="paint5_linear" x1="12.5" y1="26.044" x2="14.89" y2="32.2306" gradientUnits="userSpaceOnUse">
<stop stop-color="#0941BD"/>
<stop offset="1" stop-color="#0626B8"/>
</linearGradient>
<linearGradient id="paint6_linear" x1="14.0694" y1="5.48901" x2="14.0694" y2="20.8438" gradientUnits="userSpaceOnUse">
<stop stop-color="#FFB73E"/>
<stop offset="1" stop-color="#FF6600"/>
</linearGradient>
<linearGradient id="paint7_linear" x1="14.0535" y1="1" x2="14.0535" y2="18.0257" gradientUnits="userSpaceOnUse">
<stop stop-color="white"/>
<stop offset="0.576409" stop-color="white" stop-opacity="0"/>
</linearGradient>
<linearGradient id="paint8_linear" x1="14.0701" y1="28.5018" x2="14.395" y2="48.2885" gradientUnits="userSpaceOnUse">
<stop stop-color="white" stop-opacity="0"/>
<stop offset="1" stop-color="white" stop-opacity="0.420782"/>
</linearGradient>
<linearGradient id="paint9_linear" x1="14.0833" y1="1.43439" x2="13.4375" y2="48.2874" gradientUnits="userSpaceOnUse">
<stop stop-color="white" stop-opacity="0"/>
<stop offset="0.550253" stop-color="white" stop-opacity="0.32443"/>
<stop offset="1" stop-color="#0626B8"/>
</linearGradient>
<linearGradient id="paint10_linear" x1="14.0849" y1="34.4518" x2="14.0849" y2="46.6242" gradientUnits="userSpaceOnUse">
<stop stop-color="#00BBFF" stop-opacity="0"/>
<stop offset="1" stop-color="#00BBFF"/>
</linearGradient>
<linearGradient id="paint11_linear" x1="18.2233" y1="46.0095" x2="13.7708" y2="39.9943" gradientUnits="userSpaceOnUse">
<stop stop-color="#0626B8"/>
<stop offset="1" stop-color="#0626B8" stop-opacity="0"/>
</linearGradient>
<radialGradient id="paint12_radial" cx="0" cy="0" r="1" gradientUnits="userSpaceOnUse" gradientTransform="translate(12.8215 -1.36565) rotate(180) scale(14.256 17.9721)">
<stop stop-color="white"/>
<stop offset="1" stop-color="white" stop-opacity="0"/>
</radialGradient>
</defs>
</svg>
