<svg width="70" height="155" viewBox="0 0 70 155" fill="none" xmlns="http://www.w3.org/2000/svg">
<path d="M41.7269 123.398C41.7269 120.012 38.9962 117.267 35.6276 117.267C32.2591 117.267 29.5283 120.012 29.5283 123.398V147.783C29.5283 151.169 32.2591 153.913 35.6276 153.913C38.9962 153.913 41.7269 151.169 41.7269 147.783V123.398Z" fill="#FFC99D"/>
<path d="M58.2215 0H12.9287C6.89301 0 2.00012 4.91782 2.00012 10.9843V111.063C2.00012 117.129 6.89301 122.047 12.9287 122.047H58.2215C64.2572 122.047 69.1501 117.129 69.1501 111.063V10.9843C69.1501 4.91782 64.2572 0 58.2215 0Z" fill="url(#paint0_linear)"/>
<path d="M2.00012 90.4211H69.1501V111.169C69.1501 117.236 64.2572 122.153 58.2216 122.153H12.9287C6.89301 122.153 2.00012 117.236 2.00012 111.169V90.4211Z" fill="url(#paint1_linear)"/>
<path d="M12.767 0H59.4593C64.8244 0 69.1736 4.37139 69.1736 9.76378V34.2115C69.1736 39.6038 64.8244 43.9752 59.4593 43.9752H11.7956C6.43053 43.9752 2.0813 39.6038 2.0813 34.2115V10.7402C2.0813 4.80853 6.86546 0 12.767 0ZM13.0099 90.4212H58.245C64.2807 90.4212 69.1736 95.339 69.1736 101.405V111.169C69.1736 117.236 64.2807 122.153 58.245 122.153H13.0099C6.97419 122.153 2.0813 117.236 2.0813 111.169V101.405C2.0813 95.339 6.97419 90.4212 13.0099 90.4212Z" fill="url(#paint2_linear)" fill-opacity="0.1"/>
<mask id="mask0" mask-type="alpha" maskUnits="userSpaceOnUse" x="2" y="27" width="68" height="45">
<path d="M69.1501 27.7047H2.00012V71.6417H69.1501V27.7047Z" fill="white"/>
</mask>
<g mask="url(#mask0)">
<path fill-rule="evenodd" clip-rule="evenodd" d="M2.00012 71.0257C11.7144 58.418 22.643 54.1482 34.7858 58.2165C46.9287 62.2847 58.3913 60.0531 69.1738 51.5216V31.3661C58.3913 39.5026 46.9287 41.5367 34.7858 37.4685C22.643 33.4002 11.7144 37.881 2.00012 50.9108V71.0257Z" fill="url(#paint3_linear)"/>
</g>
<mask id="mask1" mask-type="alpha" maskUnits="userSpaceOnUse" x="2" y="67" width="68" height="45">
<path d="M69.1501 67.126H2.00012V111.063H69.1501V67.126Z" fill="white"/>
</mask>
<g mask="url(#mask1)">
<path fill-rule="evenodd" clip-rule="evenodd" d="M2.00012 110.447C11.7144 97.8392 22.643 93.5695 34.7858 97.6377C46.9287 101.706 58.3913 99.4744 69.1738 90.9429V70.7874C58.3913 78.9238 46.9287 80.958 34.7858 76.8897C22.643 72.8215 11.7144 77.3023 2.00012 90.3321V110.447Z" fill="url(#paint4_linear)"/>
</g>
<mask id="mask2" mask-type="alpha" maskUnits="userSpaceOnUse" x="2" y="47" width="68" height="45">
<path d="M69.1501 47.5985H2.00012V91.5355H69.1501V47.5985Z" fill="white"/>
</mask>
<g mask="url(#mask2)">
<path fill-rule="evenodd" clip-rule="evenodd" d="M2.00012 90.9195C11.7144 78.3118 22.643 74.042 34.7858 78.1103C46.9287 82.1785 58.3913 79.9469 69.1738 71.4154V51.2599C58.3913 59.3964 46.9287 61.4305 34.7858 57.3622C22.643 53.294 11.7144 57.7748 2.00012 70.8046V90.9195Z" fill="url(#paint5_linear)"/>
</g>
<mask id="mask3" mask-type="alpha" maskUnits="userSpaceOnUse" x="2" y="7" width="68" height="45">
<path d="M69.1501 7.93311H2.00012V51.8701H69.1501V7.93311Z" fill="white"/>
</mask>
<g mask="url(#mask3)">
<path fill-rule="evenodd" clip-rule="evenodd" d="M2.00012 51.2541C11.7144 38.6464 22.643 34.3766 34.7858 38.4449C46.9287 42.5131 58.3913 40.2815 69.1738 31.75V11.5945C58.3913 19.731 46.9287 21.7651 34.7858 17.6968C22.643 13.6286 11.7144 18.1094 2.00012 31.1392V51.2541Z" fill="url(#paint6_linear)"/>
</g>
<path d="M12.6858 0H59.3782C64.7432 0 69.0924 4.37139 69.0924 9.76378V34.2115C69.0924 39.6038 64.7432 43.9752 59.3782 43.9752H11.7144C6.34936 43.9752 2.00012 39.6038 2.00012 34.2115V10.7402C2.00012 4.80853 6.78428 0 12.6858 0Z" fill="url(#paint7_linear)" fill-opacity="0.1"/>
<path d="M34.3852 31.7598H36.8695C39.5521 31.7598 41.7267 33.9455 41.7267 36.6417V130.705C41.7267 131.379 41.183 131.926 40.5124 131.926H30.7424C30.0717 131.926 29.5281 131.379 29.5281 130.705V36.6417C29.5281 33.9455 31.7027 31.7598 34.3852 31.7598Z" fill="#75675B" fill-opacity="0.33"/>
<path d="M42.9467 53.7476L28.3083 53.7476L28.3083 122.153H42.9467L42.9467 53.7476Z" fill="url(#paint8_linear)" fill-opacity="0.5"/>
<g opacity="0.701032">
<path opacity="0.701032" d="M32.5724 137.422C32.5724 137.085 32.3006 136.812 31.9653 136.812C31.63 136.812 31.3582 137.085 31.3582 137.422V142.309C31.3582 142.646 31.63 142.92 31.9653 142.92C32.3006 142.92 32.5724 142.646 32.5724 142.309V137.422Z" fill="#E49351" fill-opacity="0.25"/>
<path opacity="0.701032" d="M41.1114 138.644C41.1114 138.307 40.8396 138.033 40.5042 138.033C40.1689 138.033 39.8971 138.307 39.8971 138.644V143.531C39.8971 143.868 40.1689 144.141 40.5042 144.141C40.8396 144.141 41.1114 143.868 41.1114 143.531V138.644Z" fill="#E49351" fill-opacity="0.25"/>
<path opacity="0.701032" d="M37.452 123.985C37.452 123.648 37.1801 123.375 36.8448 123.375C36.5095 123.375 36.2377 123.648 36.2377 123.985V128.872C36.2377 129.209 36.5095 129.483 36.8448 129.483C37.1801 129.483 37.452 129.209 37.452 128.872V123.985Z" fill="#A15F29" fill-opacity="0.15"/>
<path opacity="0.701032" d="M35.012 123.985C35.012 123.648 34.7402 123.375 34.4049 123.375C34.0696 123.375 33.7977 123.648 33.7977 123.985V126.429C33.7977 126.766 34.0696 127.04 34.4049 127.04C34.7402 127.04 35.012 126.766 35.012 126.429V123.985Z" fill="#A15F29" fill-opacity="0.15"/>
<path opacity="0.701032" d="M33.7923 142.308C33.7923 141.971 33.5205 141.698 33.1851 141.698C32.8498 141.698 32.578 141.971 32.578 142.308V147.195C32.578 147.532 32.8498 147.806 33.1851 147.806C33.5205 147.806 33.7923 147.532 33.7923 147.195V142.308Z" fill="#E49351" fill-opacity="0.25"/>
<path opacity="0.701032" d="M38.6718 132.536C38.6718 132.199 38.4 131.926 38.0647 131.926C37.7293 131.926 37.4575 132.199 37.4575 132.536V137.423C37.4575 137.76 37.7293 138.033 38.0647 138.033C38.4 138.033 38.6718 137.76 38.6718 137.423V132.536Z" fill="#E49351" fill-opacity="0.25"/>
<path opacity="0.701032" d="M31.3526 138.644C31.3526 138.307 31.0808 138.033 30.7454 138.033C30.4101 138.033 30.1383 138.307 30.1383 138.644V141.088C30.1383 141.425 30.4101 141.698 30.7454 141.698C31.0808 141.698 31.3526 141.425 31.3526 141.088V138.644Z" fill="#E49351" fill-opacity="0.25"/>
<path opacity="0.701032" d="M36.2321 128.871C36.2321 128.534 35.9603 128.261 35.625 128.261C35.2897 128.261 35.0178 128.534 35.0178 128.871V131.316C35.0178 131.653 35.2897 131.926 35.625 131.926C35.9603 131.926 36.2321 131.653 36.2321 131.316V128.871Z" fill="#A15F29" fill-opacity="0.15"/>
<path opacity="0.701032" d="M31.3526 126.428C31.3526 126.091 31.0808 125.818 30.7454 125.818C30.4101 125.818 30.1383 126.091 30.1383 126.428V128.872C30.1383 129.209 30.4101 129.483 30.7454 129.483C31.0808 129.483 31.3526 129.209 31.3526 128.872V126.428Z" fill="#A15F29" fill-opacity="0.15"/>
<path opacity="0.701032" d="M33.7923 126.428C33.7923 126.091 33.5205 125.818 33.1851 125.818C32.8498 125.818 32.578 126.091 32.578 126.428V128.872C32.578 129.209 32.8498 129.483 33.1851 129.483C33.5205 129.483 33.7923 129.209 33.7923 128.872V126.428Z" fill="#A15F29" fill-opacity="0.15"/>
<path opacity="0.701032" d="M32.5724 122.764C32.5724 122.427 32.3006 122.153 31.9653 122.153C31.63 122.153 31.3582 122.427 31.3582 122.764V125.208C31.3582 125.545 31.63 125.818 31.9653 125.818C32.3006 125.818 32.5724 125.545 32.5724 125.208V122.764Z" fill="#A15F29" fill-opacity="0.15"/>
<path opacity="0.701032" d="M31.3526 144.751C31.3526 144.414 31.0808 144.141 30.7454 144.141C30.4101 144.141 30.1383 144.414 30.1383 144.751V149.638C30.1383 149.975 30.4101 150.249 30.7454 150.249C31.0808 150.249 31.3526 149.975 31.3526 149.638V144.751Z" fill="#E49351" fill-opacity="0.25"/>
<path opacity="0.701032" d="M36.2321 134.979C36.2321 134.642 35.9603 134.369 35.625 134.369C35.2897 134.369 35.0178 134.642 35.0178 134.979V139.866C35.0178 140.203 35.2897 140.476 35.625 140.476C35.9603 140.476 36.2321 140.203 36.2321 139.866V134.979Z" fill="#E49351" fill-opacity="0.25"/>
<path opacity="0.701032" d="M35.012 145.973C35.012 145.636 34.7402 145.363 34.4049 145.363C34.0696 145.363 33.7977 145.636 33.7977 145.973V151.471C33.7977 151.808 34.0696 152.081 34.4049 152.081C34.7402 152.081 35.012 151.808 35.012 151.471V145.973Z" fill="#E49351" fill-opacity="0.25"/>
<path opacity="0.701032" d="M39.8917 137.422C39.8917 137.085 39.6198 136.812 39.2845 136.812C38.9492 136.812 38.6774 137.085 38.6774 137.422V142.92C38.6774 143.257 38.9492 143.53 39.2845 143.53C39.6198 143.53 39.8917 143.257 39.8917 142.92V137.422Z" fill="#E49351" fill-opacity="0.25"/>
<path opacity="0.701032" d="M33.7923 133.757C33.7923 133.42 33.5205 133.147 33.1851 133.147C32.8498 133.147 32.578 133.42 32.578 133.757V138.645C32.578 138.982 32.8498 139.255 33.1851 139.255C33.5205 139.255 33.7923 138.982 33.7923 138.645V133.757Z" fill="#E49351" fill-opacity="0.25"/>
<path opacity="0.701032" d="M38.6718 147.194C38.6718 146.857 38.4 146.584 38.0647 146.584C37.7293 146.584 37.4575 146.857 37.4575 147.194V152.082C37.4575 152.419 37.7293 152.692 38.0647 152.692C38.4 152.692 38.6718 152.419 38.6718 152.082V147.194Z" fill="#E49351" fill-opacity="0.25"/>
<path opacity="0.701032" d="M37.452 143.53C37.452 143.193 37.1801 142.92 36.8448 142.92C36.5095 142.92 36.2377 143.193 36.2377 143.53V148.417C36.2377 148.754 36.5095 149.027 36.8448 149.027C37.1801 149.027 37.452 148.754 37.452 148.417V143.53Z" fill="#E49351" fill-opacity="0.25"/>
<path opacity="0.701032" d="M38.6718 123.985C38.6718 123.648 38.4 123.375 38.0647 123.375C37.7293 123.375 37.4575 123.648 37.4575 123.985V128.872C37.4575 129.209 37.7293 129.483 38.0647 129.483C38.4 129.483 38.6718 129.209 38.6718 128.872V123.985Z" fill="#A15F29" fill-opacity="0.15"/>
<path opacity="0.701032" d="M35.012 134.979C35.012 134.642 34.7402 134.369 34.4049 134.369C34.0696 134.369 33.7977 134.642 33.7977 134.979V139.866C33.7977 140.203 34.0696 140.476 34.4049 140.476C34.7402 140.476 35.012 140.203 35.012 139.866V134.979Z" fill="#E49351" fill-opacity="0.25"/>
<path opacity="0.701032" d="M39.8917 126.428C39.8917 126.091 39.6198 125.818 39.2845 125.818C38.9492 125.818 38.6774 126.091 38.6774 126.428V131.315C38.6774 131.652 38.9492 131.926 39.2845 131.926C39.6198 131.926 39.8917 131.652 39.8917 131.315V126.428Z" fill="#A15F29" fill-opacity="0.15"/>
<path opacity="0.701032" d="M31.3526 133.757C31.3526 133.42 31.0808 133.147 30.7454 133.147C30.4101 133.147 30.1383 133.42 30.1383 133.757V134.98C30.1383 135.317 30.4101 135.59 30.7454 135.59C31.0808 135.59 31.3526 135.317 31.3526 134.98V133.757Z" fill="#E49351" fill-opacity="0.25"/>
<path opacity="0.701032" d="M39.8917 149.637C39.8917 149.3 39.6198 149.027 39.2845 149.027C38.9492 149.027 38.6774 149.3 38.6774 149.637V150.86C38.6774 151.197 38.9492 151.47 39.2845 151.47C39.6198 151.47 39.8917 151.197 39.8917 150.86V149.637Z" fill="#E49351" fill-opacity="0.25"/>
<path opacity="0.701032" d="M33.7923 149.637C33.7923 149.3 33.5205 149.027 33.1851 149.027C32.8498 149.027 32.578 149.3 32.578 149.637V152.082C32.578 152.419 32.8498 152.692 33.1851 152.692C33.5205 152.692 33.7923 152.419 33.7923 152.082V149.637Z" fill="#E49351" fill-opacity="0.25"/>
<path opacity="0.701032" d="M36.2321 150.248C36.2321 149.911 35.9603 149.638 35.625 149.638C35.2897 149.638 35.0178 149.911 35.0178 150.248V152.692C35.0178 153.029 35.2897 153.303 35.625 153.303C35.9603 153.303 36.2321 153.029 36.2321 152.692V150.248Z" fill="#E49351" fill-opacity="0.25"/>
<path opacity="0.701032" d="M38.6718 139.865C38.6718 139.528 38.4 139.255 38.0647 139.255C37.7293 139.255 37.4575 139.528 37.4575 139.865V142.309C37.4575 142.646 37.7293 142.919 38.0647 142.919C38.4 142.919 38.6718 142.646 38.6718 142.309V139.865Z" fill="#E49351" fill-opacity="0.25"/>
<path opacity="0.701032" d="M32.5724 144.751C32.5724 144.414 32.3006 144.141 31.9653 144.141C31.63 144.141 31.3582 144.414 31.3582 144.751V145.974C31.3582 146.311 31.63 146.584 31.9653 146.584C32.3006 146.584 32.5724 146.311 32.5724 145.974V144.751Z" fill="#E49351" fill-opacity="0.25"/>
<path opacity="0.701032" d="M37.452 134.979C37.452 134.642 37.1801 134.369 36.8448 134.369C36.5095 134.369 36.2377 134.642 36.2377 134.979V136.202C36.2377 136.539 36.5095 136.812 36.8448 136.812C37.1801 136.812 37.452 136.539 37.452 136.202V134.979Z" fill="#E49351" fill-opacity="0.25"/>
<path opacity="0.701032" d="M36.2321 147.194C36.2321 146.857 35.9603 146.584 35.625 146.584C35.2897 146.584 35.0178 146.857 35.0178 147.194V148.417C35.0178 148.754 35.2897 149.027 35.625 149.027C35.9603 149.027 36.2321 148.754 36.2321 148.417V147.194Z" fill="#E49351" fill-opacity="0.25"/>
<path opacity="0.701032" d="M35.012 142.308C35.012 141.971 34.7402 141.698 34.4049 141.698C34.0696 141.698 33.7977 141.971 33.7977 142.308V143.531C33.7977 143.868 34.0696 144.141 34.4049 144.141C34.7402 144.141 35.012 143.868 35.012 143.531V142.308Z" fill="#E49351" fill-opacity="0.25"/>
<path opacity="0.701032" d="M41.1114 145.362C41.1114 145.025 40.8396 144.752 40.5042 144.752C40.1689 144.752 39.8971 145.025 39.8971 145.362V146.585C39.8971 146.922 40.1689 147.195 40.5042 147.195C40.8396 147.195 41.1114 146.922 41.1114 146.585V145.362Z" fill="#E49351" fill-opacity="0.25"/>
<path opacity="0.701032" d="M41.1114 132.536C41.1114 132.199 40.8396 131.926 40.5042 131.926C40.1689 131.926 39.8971 132.199 39.8971 132.536V136.202C39.8971 136.539 40.1689 136.812 40.5042 136.812C40.8396 136.812 41.1114 136.539 41.1114 136.202V132.536Z" fill="#E49351" fill-opacity="0.25"/>
<path opacity="0.701032" d="M39.8917 133.757C39.8917 133.42 39.6198 133.147 39.2845 133.147C38.9492 133.147 38.6774 133.42 38.6774 133.757V134.98C38.6774 135.317 38.9492 135.59 39.2845 135.59C39.6198 135.59 39.8917 135.317 39.8917 134.98V133.757Z" fill="#E49351" fill-opacity="0.25"/>
<path opacity="0.701032" d="M32.5724 148.416C32.5724 148.079 32.3006 147.806 31.9653 147.806C31.63 147.806 31.3582 148.079 31.3582 148.416V150.86C31.3582 151.197 31.63 151.47 31.9653 151.47C32.3006 151.47 32.5724 151.197 32.5724 150.86V148.416Z" fill="#E49351" fill-opacity="0.25"/>
<path opacity="0.701032" d="M36.2321 142.308C36.2321 141.971 35.9603 141.698 35.625 141.698C35.2897 141.698 35.0178 141.971 35.0178 142.308V144.752C35.0178 145.089 35.2897 145.363 35.625 145.363C35.9603 145.363 36.2321 145.089 36.2321 144.752V142.308Z" fill="#E49351" fill-opacity="0.25"/>
<path opacity="0.701032" d="M37.452 151.47C37.452 151.133 37.1801 150.86 36.8448 150.86C36.5095 150.86 36.2377 151.133 36.2377 151.47V152.692C36.2377 153.029 36.5095 153.303 36.8448 153.303C37.1801 153.303 37.452 153.029 37.452 152.692V151.47Z" fill="#E49351" fill-opacity="0.25"/>
<path opacity="0.701032" d="M39.8917 144.751C39.8917 144.414 39.6198 144.141 39.2845 144.141C38.9492 144.141 38.6774 144.414 38.6774 144.751V147.195C38.6774 147.532 38.9492 147.806 39.2845 147.806C39.6198 147.806 39.8917 147.532 39.8917 147.195V144.751Z" fill="#E49351" fill-opacity="0.25"/>
<path opacity="0.701032" d="M37.452 138.644C37.452 138.307 37.1801 138.033 36.8448 138.033C36.5095 138.033 36.2377 138.307 36.2377 138.644V141.088C36.2377 141.425 36.5095 141.698 36.8448 141.698C37.1801 141.698 37.452 141.425 37.452 141.088V138.644Z" fill="#E49351" fill-opacity="0.25"/>
<path opacity="0.701032" d="M41.1114 148.416C41.1114 148.079 40.8396 147.806 40.5042 147.806C40.1689 147.806 39.8971 148.079 39.8971 148.416V150.86C39.8971 151.197 40.1689 151.47 40.5042 151.47C40.8396 151.47 41.1114 151.197 41.1114 150.86V148.416Z" fill="#E49351" fill-opacity="0.25"/>
<path opacity="0.701032" fill-rule="evenodd" clip-rule="evenodd" d="M31.3582 131.926H31.9681V134.064C31.9681 134.232 31.8322 134.369 31.6645 134.369H31.6617C31.4941 134.369 31.3582 134.232 31.3582 134.064V131.926Z" fill="#E49351" fill-opacity="0.25"/>
<path opacity="0.701032" fill-rule="evenodd" clip-rule="evenodd" d="M33.7977 131.926H34.4077V132.842C34.4077 133.011 34.2718 133.147 34.1041 133.147H34.1013C33.9336 133.147 33.7977 133.011 33.7977 132.842V131.926Z" fill="#E49351" fill-opacity="0.25"/>
<path opacity="0.701032" fill-rule="evenodd" clip-rule="evenodd" d="M36.2377 131.926H36.8476V132.842C36.8476 133.011 36.7117 133.147 36.544 133.147H36.5412C36.3736 133.147 36.2377 133.011 36.2377 132.842V131.926Z" fill="#E49351" fill-opacity="0.25"/>
<path opacity="0.701032" fill-rule="evenodd" clip-rule="evenodd" d="M31.968 131.926H31.3581V129.788C31.3581 129.619 31.494 129.483 31.6617 129.483H31.6644C31.8321 129.483 31.968 129.619 31.968 129.788V131.926Z" fill="#A15F29" fill-opacity="0.15"/>
<path opacity="0.701032" fill-rule="evenodd" clip-rule="evenodd" d="M34.4078 131.926H33.7979V128.566C33.7979 128.398 33.9338 128.261 34.1015 128.261H34.1043C34.2719 128.261 34.4078 128.398 34.4078 128.566V131.926Z" fill="#A15F29" fill-opacity="0.15"/>
<path opacity="0.701032" fill-rule="evenodd" clip-rule="evenodd" d="M36.8475 131.926H36.2376V131.009C36.2376 130.841 36.3735 130.704 36.5412 130.704H36.544C36.7116 130.704 36.8475 130.841 36.8475 131.009V131.926Z" fill="#A15F29" fill-opacity="0.15"/>
</g>
<g opacity="0.369792">
<path opacity="0.369792" d="M32.5724 108.105C32.5724 107.768 32.3006 107.495 31.9653 107.495C31.63 107.495 31.3582 107.768 31.3582 108.105V112.993C31.3582 113.33 31.63 113.603 31.9653 113.603C32.3006 113.603 32.5724 113.33 32.5724 112.993V108.105Z" fill="#A15F29" fill-opacity="0.1"/>
<path opacity="0.369792" d="M41.1114 109.327C41.1114 108.99 40.8396 108.717 40.5042 108.717C40.1689 108.717 39.8971 108.99 39.8971 109.327V114.214C39.8971 114.551 40.1689 114.824 40.5042 114.824C40.8396 114.824 41.1114 114.551 41.1114 114.214V109.327Z" fill="#A15F29" fill-opacity="0.1"/>
<path opacity="0.369792" d="M37.452 94.6685C37.452 94.3314 37.1801 94.0582 36.8448 94.0582C36.5095 94.0582 36.2377 94.3314 36.2377 94.6685V99.5557C36.2377 99.8927 36.5095 100.166 36.8448 100.166C37.1801 100.166 37.452 99.8927 37.452 99.5557V94.6685Z" fill="#A15F29" fill-opacity="0.1"/>
<path opacity="0.369792" d="M35.012 94.6685C35.012 94.3314 34.7402 94.0582 34.4049 94.0582C34.0696 94.0582 33.7977 94.3314 33.7977 94.6685V97.1126C33.7977 97.4496 34.0696 97.7228 34.4049 97.7228C34.7402 97.7228 35.012 97.4496 35.012 97.1126V94.6685Z" fill="#A15F29" fill-opacity="0.1"/>
<path opacity="0.369792" d="M33.7923 112.991C33.7923 112.654 33.5205 112.381 33.1851 112.381C32.8498 112.381 32.578 112.654 32.578 112.991V117.879C32.578 118.216 32.8498 118.489 33.1851 118.489C33.5205 118.489 33.7923 118.216 33.7923 117.879V112.991Z" fill="#A15F29" fill-opacity="0.1"/>
<path opacity="0.369792" d="M38.6718 103.219C38.6718 102.882 38.4 102.609 38.0647 102.609C37.7293 102.609 37.4575 102.882 37.4575 103.219V108.106C37.4575 108.443 37.7293 108.717 38.0647 108.717C38.4 108.717 38.6718 108.443 38.6718 108.106V103.219Z" fill="#A15F29" fill-opacity="0.1"/>
<path opacity="0.369792" d="M31.3526 109.327C31.3526 108.99 31.0808 108.717 30.7454 108.717C30.4101 108.717 30.1383 108.99 30.1383 109.327V111.771C30.1383 112.108 30.4101 112.381 30.7454 112.381C31.0808 112.381 31.3526 112.108 31.3526 111.771V109.327Z" fill="#A15F29" fill-opacity="0.1"/>
<path opacity="0.369792" d="M36.2321 99.5546C36.2321 99.2175 35.9603 98.9443 35.625 98.9443C35.2897 98.9443 35.0178 99.2175 35.0178 99.5546V101.999C35.0178 102.336 35.2897 102.609 35.625 102.609C35.9603 102.609 36.2321 102.336 36.2321 101.999V99.5546Z" fill="#A15F29" fill-opacity="0.1"/>
<path opacity="0.369792" d="M31.3526 97.1115C31.3526 96.7744 31.0808 96.5012 30.7454 96.5012C30.4101 96.5012 30.1383 96.7744 30.1383 97.1115V99.5556C30.1383 99.8926 30.4101 100.166 30.7454 100.166C31.0808 100.166 31.3526 99.8926 31.3526 99.5556V97.1115Z" fill="#A15F29" fill-opacity="0.1"/>
<path opacity="0.369792" d="M33.7923 97.1115C33.7923 96.7744 33.5205 96.5012 33.1851 96.5012C32.8498 96.5012 32.578 96.7744 32.578 97.1115V99.5556C32.578 99.8926 32.8498 100.166 33.1851 100.166C33.5205 100.166 33.7923 99.8926 33.7923 99.5556V97.1115Z" fill="#A15F29" fill-opacity="0.1"/>
<path opacity="0.369792" d="M32.5724 93.4469C32.5724 93.1099 32.3006 92.8367 31.9653 92.8367C31.63 92.8367 31.3582 93.1099 31.3582 93.4469V95.891C31.3582 96.2281 31.63 96.5013 31.9653 96.5013C32.3006 96.5013 32.5724 96.2281 32.5724 95.891V93.4469Z" fill="#A15F29" fill-opacity="0.1"/>
<path opacity="0.369792" d="M31.3526 115.434C31.3526 115.097 31.0808 114.824 30.7454 114.824C30.4101 114.824 30.1383 115.097 30.1383 115.434V120.322C30.1383 120.659 30.4101 120.932 30.7454 120.932C31.0808 120.932 31.3526 120.659 31.3526 120.322V115.434Z" fill="#A15F29" fill-opacity="0.1"/>
<path opacity="0.369792" d="M36.2321 105.662C36.2321 105.325 35.9603 105.052 35.625 105.052C35.2897 105.052 35.0178 105.325 35.0178 105.662V110.549C35.0178 110.886 35.2897 111.16 35.625 111.16C35.9603 111.16 36.2321 110.886 36.2321 110.549V105.662Z" fill="#A15F29" fill-opacity="0.1"/>
<path opacity="0.369792" d="M35.012 116.656C35.012 116.319 34.7402 116.046 34.4049 116.046C34.0696 116.046 33.7977 116.319 33.7977 116.656V122.154C33.7977 122.491 34.0696 122.764 34.4049 122.764C34.7402 122.764 35.012 122.491 35.012 122.154V116.656Z" fill="#A15F29" fill-opacity="0.1"/>
<path opacity="0.369792" d="M39.8917 108.105C39.8917 107.768 39.6198 107.495 39.2845 107.495C38.9492 107.495 38.6774 107.768 38.6774 108.105V113.603C38.6774 113.94 38.9492 114.214 39.2845 114.214C39.6198 114.214 39.8917 113.94 39.8917 113.603V108.105Z" fill="#A15F29" fill-opacity="0.1"/>
<path opacity="0.369792" d="M33.7923 104.441C33.7923 104.104 33.5205 103.83 33.1851 103.83C32.8498 103.83 32.578 104.104 32.578 104.441V109.328C32.578 109.665 32.8498 109.938 33.1851 109.938C33.5205 109.938 33.7923 109.665 33.7923 109.328V104.441Z" fill="#A15F29" fill-opacity="0.1"/>
<path opacity="0.369792" d="M38.6718 117.878C38.6718 117.541 38.4 117.267 38.0647 117.267C37.7293 117.267 37.4575 117.541 37.4575 117.878V122.765C37.4575 123.102 37.7293 123.375 38.0647 123.375C38.4 123.375 38.6718 123.102 38.6718 122.765V117.878Z" fill="#A15F29" fill-opacity="0.1"/>
<path opacity="0.369792" d="M37.452 114.213C37.452 113.876 37.1801 113.603 36.8448 113.603C36.5095 113.603 36.2377 113.876 36.2377 114.213V119.1C36.2377 119.437 36.5095 119.71 36.8448 119.71C37.1801 119.71 37.452 119.437 37.452 119.1V114.213Z" fill="#A15F29" fill-opacity="0.1"/>
<path opacity="0.369792" d="M38.6718 94.6685C38.6718 94.3314 38.4 94.0582 38.0647 94.0582C37.7293 94.0582 37.4575 94.3314 37.4575 94.6685V99.5557C37.4575 99.8927 37.7293 100.166 38.0647 100.166C38.4 100.166 38.6718 99.8927 38.6718 99.5557V94.6685Z" fill="#A15F29" fill-opacity="0.1"/>
<path opacity="0.369792" d="M35.012 105.662C35.012 105.325 34.7402 105.052 34.4049 105.052C34.0696 105.052 33.7977 105.325 33.7977 105.662V110.549C33.7977 110.886 34.0696 111.16 34.4049 111.16C34.7402 111.16 35.012 110.886 35.012 110.549V105.662Z" fill="#A15F29" fill-opacity="0.1"/>
<path opacity="0.369792" d="M39.8917 97.1115C39.8917 96.7744 39.6198 96.5012 39.2845 96.5012C38.9492 96.5012 38.6774 96.7744 38.6774 97.1115V101.999C38.6774 102.336 38.9492 102.609 39.2845 102.609C39.6198 102.609 39.8917 102.336 39.8917 101.999V97.1115Z" fill="#A15F29" fill-opacity="0.1"/>
<path opacity="0.369792" d="M31.3526 104.441C31.3526 104.104 31.0808 103.83 30.7454 103.83C30.4101 103.83 30.1383 104.104 30.1383 104.441V105.663C30.1383 106 30.4101 106.274 30.7454 106.274C31.0808 106.274 31.3526 106 31.3526 105.663V104.441Z" fill="#A15F29" fill-opacity="0.1"/>
<path opacity="0.369792" d="M39.8917 120.321C39.8917 119.984 39.6198 119.71 39.2845 119.71C38.9492 119.71 38.6774 119.984 38.6774 120.321V121.543C38.6774 121.88 38.9492 122.154 39.2845 122.154C39.6198 122.154 39.8917 121.88 39.8917 121.543V120.321Z" fill="#A15F29" fill-opacity="0.1"/>
<path opacity="0.369792" d="M33.7923 120.321C33.7923 119.984 33.5205 119.71 33.1851 119.71C32.8498 119.71 32.578 119.984 32.578 120.321V122.765C32.578 123.102 32.8498 123.375 33.1851 123.375C33.5205 123.375 33.7923 123.102 33.7923 122.765V120.321Z" fill="#A15F29" fill-opacity="0.1"/>
<path opacity="0.369792" d="M36.2321 120.931C36.2321 120.594 35.9603 120.321 35.625 120.321C35.2897 120.321 35.0178 120.594 35.0178 120.931V123.376C35.0178 123.713 35.2897 123.986 35.625 123.986C35.9603 123.986 36.2321 123.713 36.2321 123.376V120.931Z" fill="#A15F29" fill-opacity="0.1"/>
<path opacity="0.369792" d="M38.6718 110.548C38.6718 110.211 38.4 109.938 38.0647 109.938C37.7293 109.938 37.4575 110.211 37.4575 110.548V112.992C37.4575 113.33 37.7293 113.603 38.0647 113.603C38.4 113.603 38.6718 113.33 38.6718 112.992V110.548Z" fill="#A15F29" fill-opacity="0.1"/>
<path opacity="0.369792" d="M32.5724 115.434C32.5724 115.097 32.3006 114.824 31.9653 114.824C31.63 114.824 31.3582 115.097 31.3582 115.434V116.657C31.3582 116.994 31.63 117.267 31.9653 117.267C32.3006 117.267 32.5724 116.994 32.5724 116.657V115.434Z" fill="#A15F29" fill-opacity="0.1"/>
<path opacity="0.369792" d="M37.452 105.662C37.452 105.325 37.1801 105.052 36.8448 105.052C36.5095 105.052 36.2377 105.325 36.2377 105.662V106.885C36.2377 107.222 36.5095 107.495 36.8448 107.495C37.1801 107.495 37.452 107.222 37.452 106.885V105.662Z" fill="#A15F29" fill-opacity="0.1"/>
<path opacity="0.369792" d="M36.2321 117.878C36.2321 117.541 35.9603 117.267 35.625 117.267C35.2897 117.267 35.0178 117.541 35.0178 117.878V119.1C35.0178 119.437 35.2897 119.71 35.625 119.71C35.9603 119.71 36.2321 119.437 36.2321 119.1V117.878Z" fill="#A15F29" fill-opacity="0.1"/>
<path opacity="0.369792" d="M35.012 112.991C35.012 112.654 34.7402 112.381 34.4049 112.381C34.0696 112.381 33.7977 112.654 33.7977 112.991V114.214C33.7977 114.551 34.0696 114.824 34.4049 114.824C34.7402 114.824 35.012 114.551 35.012 114.214V112.991Z" fill="#A15F29" fill-opacity="0.1"/>
<path opacity="0.369792" d="M41.1114 116.045C41.1114 115.708 40.8396 115.435 40.5042 115.435C40.1689 115.435 39.8971 115.708 39.8971 116.045V117.268C39.8971 117.605 40.1689 117.878 40.5042 117.878C40.8396 117.878 41.1114 117.605 41.1114 117.268V116.045Z" fill="#A15F29" fill-opacity="0.1"/>
<path opacity="0.369792" d="M41.1114 103.219C41.1114 102.882 40.8396 102.609 40.5042 102.609C40.1689 102.609 39.8971 102.882 39.8971 103.219V106.885C39.8971 107.222 40.1689 107.495 40.5042 107.495C40.8396 107.495 41.1114 107.222 41.1114 106.885V103.219Z" fill="#A15F29" fill-opacity="0.1"/>
<path opacity="0.369792" d="M39.8917 104.441C39.8917 104.104 39.6198 103.83 39.2845 103.83C38.9492 103.83 38.6774 104.104 38.6774 104.441V105.663C38.6774 106 38.9492 106.274 39.2845 106.274C39.6198 106.274 39.8917 106 39.8917 105.663V104.441Z" fill="#A15F29" fill-opacity="0.1"/>
<path opacity="0.369792" d="M32.5724 119.099C32.5724 118.762 32.3006 118.489 31.9653 118.489C31.63 118.489 31.3582 118.762 31.3582 119.099V121.543C31.3582 121.88 31.63 122.153 31.9653 122.153C32.3006 122.153 32.5724 121.88 32.5724 121.543V119.099Z" fill="#A15F29" fill-opacity="0.1"/>
<path opacity="0.369792" d="M36.2321 112.991C36.2321 112.654 35.9603 112.381 35.625 112.381C35.2897 112.381 35.0178 112.654 35.0178 112.991V115.436C35.0178 115.773 35.2897 116.046 35.625 116.046C35.9603 116.046 36.2321 115.773 36.2321 115.436V112.991Z" fill="#A15F29" fill-opacity="0.1"/>
<path opacity="0.369792" d="M37.452 122.153C37.452 121.816 37.1801 121.543 36.8448 121.543C36.5095 121.543 36.2377 121.816 36.2377 122.153V123.376C36.2377 123.713 36.5095 123.986 36.8448 123.986C37.1801 123.986 37.452 123.713 37.452 123.376V122.153Z" fill="#A15F29" fill-opacity="0.1"/>
<path opacity="0.369792" d="M39.8917 115.434C39.8917 115.097 39.6198 114.824 39.2845 114.824C38.9492 114.824 38.6774 115.097 38.6774 115.434V117.879C38.6774 118.216 38.9492 118.489 39.2845 118.489C39.6198 118.489 39.8917 118.216 39.8917 117.879V115.434Z" fill="#A15F29" fill-opacity="0.1"/>
<path opacity="0.369792" d="M37.452 109.327C37.452 108.99 37.1801 108.717 36.8448 108.717C36.5095 108.717 36.2377 108.99 36.2377 109.327V111.771C36.2377 112.108 36.5095 112.381 36.8448 112.381C37.1801 112.381 37.452 112.108 37.452 111.771V109.327Z" fill="#A15F29" fill-opacity="0.1"/>
<path opacity="0.369792" d="M41.1114 119.099C41.1114 118.762 40.8396 118.489 40.5042 118.489C40.1689 118.489 39.8971 118.762 39.8971 119.099V121.543C39.8971 121.88 40.1689 122.153 40.5042 122.153C40.8396 122.153 41.1114 121.88 41.1114 121.543V119.099Z" fill="#A15F29" fill-opacity="0.1"/>
<path opacity="0.369792" fill-rule="evenodd" clip-rule="evenodd" d="M31.3582 102.609H31.9681V104.747C31.9681 104.915 31.8322 105.052 31.6645 105.052H31.6617C31.4941 105.052 31.3582 104.915 31.3582 104.747V102.609Z" fill="#A15F29" fill-opacity="0.1"/>
<path opacity="0.369792" fill-rule="evenodd" clip-rule="evenodd" d="M33.7977 102.609H34.4077V103.525C34.4077 103.694 34.2718 103.83 34.1041 103.83H34.1013C33.9336 103.83 33.7977 103.694 33.7977 103.525V102.609Z" fill="#A15F29" fill-opacity="0.1"/>
<path opacity="0.369792" fill-rule="evenodd" clip-rule="evenodd" d="M36.2377 102.609H36.8476V103.525C36.8476 103.694 36.7117 103.83 36.544 103.83H36.5412C36.3736 103.83 36.2377 103.694 36.2377 103.525V102.609Z" fill="#A15F29" fill-opacity="0.1"/>
<path opacity="0.369792" fill-rule="evenodd" clip-rule="evenodd" d="M31.968 102.609H31.3581V100.471C31.3581 100.302 31.494 100.166 31.6617 100.166H31.6644C31.8321 100.166 31.968 100.302 31.968 100.471V102.609Z" fill="#A15F29" fill-opacity="0.1"/>
<path opacity="0.369792" fill-rule="evenodd" clip-rule="evenodd" d="M34.4078 102.609H33.7979V99.2494C33.7979 99.0809 33.9338 98.9443 34.1015 98.9443H34.1043C34.2719 98.9443 34.4078 99.0809 34.4078 99.2494V102.609Z" fill="#A15F29" fill-opacity="0.1"/>
<path opacity="0.369792" fill-rule="evenodd" clip-rule="evenodd" d="M36.8475 102.609H36.2376V101.692C36.2376 101.524 36.3735 101.387 36.5412 101.387H36.544C36.7116 101.387 36.8475 101.524 36.8475 101.692V102.609Z" fill="#A15F29" fill-opacity="0.1"/>
</g>
<g opacity="0.3">
<path opacity="0.3" d="M38.0729 81.2316C38.0729 80.8945 38.3448 80.6213 38.6801 80.6213C39.0154 80.6213 39.2872 80.8945 39.2872 81.2316V86.1188C39.2872 86.4558 39.0154 86.729 38.6801 86.729C38.3448 86.729 38.0729 86.4558 38.0729 86.1188V81.2316Z" fill="#A15F29" fill-opacity="0.1"/>
<path opacity="0.3" d="M29.534 82.4531C29.534 82.1161 29.8058 81.8429 30.1411 81.8429C30.4765 81.8429 30.7483 82.1161 30.7483 82.4531V87.3403C30.7483 87.6774 30.4765 87.9506 30.1411 87.9506C29.8058 87.9506 29.534 87.6774 29.534 87.3403V82.4531Z" fill="#A15F29" fill-opacity="0.1"/>
<path opacity="0.3" d="M33.1934 67.7947C33.1934 67.4577 33.4653 67.1844 33.8006 67.1844C34.1359 67.1844 34.4077 67.4577 34.4077 67.7947V72.6819C34.4077 73.0189 34.1359 73.2921 33.8006 73.2921C33.4653 73.2921 33.1934 73.0189 33.1934 72.6819V67.7947Z" fill="#A15F29" fill-opacity="0.1"/>
<path opacity="0.3" d="M35.6334 67.7947C35.6334 67.4577 35.9052 67.1844 36.2405 67.1844C36.5758 67.1844 36.8477 67.4577 36.8477 67.7947V70.2388C36.8477 70.5758 36.5758 70.849 36.2405 70.849C35.9052 70.849 35.6334 70.5758 35.6334 70.2388V67.7947Z" fill="#A15F29" fill-opacity="0.1"/>
<path opacity="0.3" d="M36.853 86.1177C36.853 85.7807 37.1248 85.5074 37.4601 85.5074C37.7954 85.5074 38.0673 85.7807 38.0673 86.1177V91.0049C38.0673 91.3419 37.7954 91.6151 37.4601 91.6151C37.1248 91.6151 36.853 91.3419 36.853 91.0049V86.1177Z" fill="#A15F29" fill-opacity="0.1"/>
<path opacity="0.3" d="M31.9736 76.3453C31.9736 76.0083 32.2454 75.7351 32.5807 75.7351C32.916 75.7351 33.1879 76.0083 33.1879 76.3453V81.2326C33.1879 81.5696 32.916 81.8428 32.5807 81.8428C32.2454 81.8428 31.9736 81.5696 31.9736 81.2326V76.3453Z" fill="#A15F29" fill-opacity="0.1"/>
<path opacity="0.3" d="M39.2928 82.4531C39.2928 82.1161 39.5646 81.8429 39.8999 81.8429C40.2353 81.8429 40.5071 82.1161 40.5071 82.4531V84.8973C40.5071 85.2343 40.2353 85.5075 39.8999 85.5075C39.5646 85.5075 39.2928 85.2343 39.2928 84.8973V82.4531Z" fill="#A15F29" fill-opacity="0.1"/>
<path opacity="0.3" d="M34.4133 72.6808C34.4133 72.3438 34.6851 72.0706 35.0204 72.0706C35.3557 72.0706 35.6276 72.3438 35.6276 72.6808V75.1249C35.6276 75.4619 35.3557 75.7351 35.0204 75.7351C34.6851 75.7351 34.4133 75.4619 34.4133 75.1249V72.6808Z" fill="#A15F29" fill-opacity="0.1"/>
<path opacity="0.3" d="M39.2928 70.2377C39.2928 69.9007 39.5646 69.6274 39.8999 69.6274C40.2353 69.6274 40.5071 69.9007 40.5071 70.2377V72.6818C40.5071 73.0188 40.2353 73.292 39.8999 73.292C39.5646 73.292 39.2928 73.0188 39.2928 72.6818V70.2377Z" fill="#A15F29" fill-opacity="0.1"/>
<path opacity="0.3" d="M36.853 70.2377C36.853 69.9007 37.1248 69.6274 37.4601 69.6274C37.7954 69.6274 38.0673 69.9007 38.0673 70.2377V72.6818C38.0673 73.0188 37.7954 73.292 37.4601 73.292C37.1248 73.292 36.853 73.0188 36.853 72.6818V70.2377Z" fill="#A15F29" fill-opacity="0.1"/>
<path opacity="0.3" d="M38.0729 66.5731C38.0729 66.2361 38.3448 65.9629 38.6801 65.9629C39.0154 65.9629 39.2872 66.2361 39.2872 66.5731V69.0173C39.2872 69.3543 39.0154 69.6275 38.6801 69.6275C38.3448 69.6275 38.0729 69.3543 38.0729 69.0173V66.5731Z" fill="#A15F29" fill-opacity="0.1"/>
<path opacity="0.3" d="M39.2928 88.5607C39.2928 88.2237 39.5646 87.9504 39.8999 87.9504C40.2353 87.9504 40.5071 88.2237 40.5071 88.5607V93.4479C40.5071 93.7849 40.2353 94.0581 39.8999 94.0581C39.5646 94.0581 39.2928 93.7849 39.2928 93.4479V88.5607Z" fill="#A15F29" fill-opacity="0.1"/>
<path opacity="0.3" d="M34.4133 78.7885C34.4133 78.4514 34.6851 78.1782 35.0204 78.1782C35.3557 78.1782 35.6276 78.4514 35.6276 78.7885V83.6757C35.6276 84.0127 35.3557 84.2859 35.0204 84.2859C34.6851 84.2859 34.4133 84.0127 34.4133 83.6757V78.7885Z" fill="#A15F29" fill-opacity="0.1"/>
<path opacity="0.3" d="M35.6334 89.7822C35.6334 89.4452 35.9052 89.172 36.2405 89.172C36.5758 89.172 36.8477 89.4452 36.8477 89.7822V95.2802C36.8477 95.6172 36.5758 95.8904 36.2405 95.8904C35.9052 95.8904 35.6334 95.6172 35.6334 95.2802V89.7822Z" fill="#A15F29" fill-opacity="0.1"/>
<path opacity="0.3" d="M30.7537 81.2316C30.7537 80.8945 31.0256 80.6213 31.3609 80.6213C31.6962 80.6213 31.968 80.8945 31.968 81.2316V86.7295C31.968 87.0665 31.6962 87.3398 31.3609 87.3398C31.0256 87.3398 30.7537 87.0665 30.7537 86.7295V81.2316Z" fill="#A15F29" fill-opacity="0.1"/>
<path opacity="0.3" d="M36.853 77.5669C36.853 77.2299 37.1248 76.9567 37.4601 76.9567C37.7954 76.9567 38.0673 77.2299 38.0673 77.5669V82.4541C38.0673 82.7911 37.7954 83.0643 37.4601 83.0643C37.1248 83.0643 36.853 82.7911 36.853 82.4541V77.5669Z" fill="#A15F29" fill-opacity="0.1"/>
<path opacity="0.3" d="M31.9736 91.0038C31.9736 90.6668 32.2454 90.3936 32.5807 90.3936C32.916 90.3936 33.1879 90.6668 33.1879 91.0038V95.891C33.1879 96.228 32.916 96.5012 32.5807 96.5012C32.2454 96.5012 31.9736 96.228 31.9736 95.891V91.0038Z" fill="#A15F29" fill-opacity="0.1"/>
<path opacity="0.3" d="M33.1934 87.3391C33.1934 87.0021 33.4653 86.7289 33.8006 86.7289C34.1359 86.7289 34.4077 87.0021 34.4077 87.3391V92.2263C34.4077 92.5634 34.1359 92.8366 33.8006 92.8366C33.4653 92.8366 33.1934 92.5634 33.1934 92.2263V87.3391Z" fill="#A15F29" fill-opacity="0.1"/>
<path opacity="0.3" d="M31.9736 67.7947C31.9736 67.4577 32.2454 67.1844 32.5807 67.1844C32.916 67.1844 33.1879 67.4577 33.1879 67.7947V72.6819C33.1879 73.0189 32.916 73.2921 32.5807 73.2921C32.2454 73.2921 31.9736 73.0189 31.9736 72.6819V67.7947Z" fill="#A15F29" fill-opacity="0.1"/>
<path opacity="0.3" d="M35.6334 78.7885C35.6334 78.4514 35.9052 78.1782 36.2405 78.1782C36.5758 78.1782 36.8477 78.4514 36.8477 78.7885V83.6757C36.8477 84.0127 36.5758 84.2859 36.2405 84.2859C35.9052 84.2859 35.6334 84.0127 35.6334 83.6757V78.7885Z" fill="#A15F29" fill-opacity="0.1"/>
<path opacity="0.3" d="M30.7537 70.2377C30.7537 69.9007 31.0256 69.6274 31.3609 69.6274C31.6962 69.6274 31.968 69.9007 31.968 70.2377V75.1249C31.968 75.4619 31.6962 75.7351 31.3609 75.7351C31.0256 75.7351 30.7537 75.4619 30.7537 75.1249V70.2377Z" fill="#A15F29" fill-opacity="0.1"/>
<path opacity="0.3" d="M39.2928 77.5669C39.2928 77.2299 39.5646 76.9567 39.8999 76.9567C40.2353 76.9567 40.5071 77.2299 40.5071 77.5669V78.7895C40.5071 79.1265 40.2353 79.3997 39.8999 79.3997C39.5646 79.3997 39.2928 79.1265 39.2928 78.7895V77.5669Z" fill="#A15F29" fill-opacity="0.1"/>
<path opacity="0.3" d="M30.7537 93.4469C30.7537 93.1099 31.0256 92.8367 31.3609 92.8367C31.6962 92.8367 31.968 93.1099 31.968 93.4469V94.6695C31.968 95.0065 31.6962 95.2797 31.3609 95.2797C31.0256 95.2797 30.7537 95.0065 30.7537 94.6695V93.4469Z" fill="#A15F29" fill-opacity="0.1"/>
<path opacity="0.3" d="M36.853 93.4469C36.853 93.1099 37.1248 92.8367 37.4601 92.8367C37.7954 92.8367 38.0673 93.1099 38.0673 93.4469V95.891C38.0673 96.2281 37.7954 96.5013 37.4601 96.5013C37.1248 96.5013 36.853 96.2281 36.853 95.891V93.4469Z" fill="#A15F29" fill-opacity="0.1"/>
<path opacity="0.3" d="M34.4133 94.0576C34.4133 93.7206 34.6851 93.4474 35.0204 93.4474C35.3557 93.4474 35.6276 93.7206 35.6276 94.0576V96.5018C35.6276 96.8388 35.3557 97.112 35.0204 97.112C34.6851 97.112 34.4133 96.8388 34.4133 96.5018V94.0576Z" fill="#A15F29" fill-opacity="0.1"/>
<path opacity="0.3" d="M31.9736 83.6746C31.9736 83.3375 32.2454 83.0643 32.5807 83.0643C32.916 83.0643 33.1879 83.3375 33.1879 83.6746V86.1187C33.1879 86.4557 32.916 86.7289 32.5807 86.7289C32.2454 86.7289 31.9736 86.4557 31.9736 86.1187V83.6746Z" fill="#A15F29" fill-opacity="0.1"/>
<path opacity="0.3" d="M38.0729 88.5607C38.0729 88.2237 38.3448 87.9504 38.6801 87.9504C39.0154 87.9504 39.2872 88.2237 39.2872 88.5607V89.7833C39.2872 90.1203 39.0154 90.3935 38.6801 90.3935C38.3448 90.3935 38.0729 90.1203 38.0729 89.7833V88.5607Z" fill="#A15F29" fill-opacity="0.1"/>
<path opacity="0.3" d="M33.1934 78.7885C33.1934 78.4514 33.4653 78.1782 33.8006 78.1782C34.1359 78.1782 34.4077 78.4514 34.4077 78.7885V80.0111C34.4077 80.3481 34.1359 80.6213 33.8006 80.6213C33.4653 80.6213 33.1934 80.3481 33.1934 80.0111V78.7885Z" fill="#A15F29" fill-opacity="0.1"/>
<path opacity="0.3" d="M34.4133 91.0038C34.4133 90.6668 34.6851 90.3936 35.0204 90.3936C35.3557 90.3936 35.6276 90.6668 35.6276 91.0038V92.2264C35.6276 92.5634 35.3557 92.8366 35.0204 92.8366C34.6851 92.8366 34.4133 92.5634 34.4133 92.2264V91.0038Z" fill="#A15F29" fill-opacity="0.1"/>
<path opacity="0.3" d="M35.6334 86.1177C35.6334 85.7807 35.9052 85.5074 36.2405 85.5074C36.5758 85.5074 36.8477 85.7807 36.8477 86.1177V87.3403C36.8477 87.6773 36.5758 87.9505 36.2405 87.9505C35.9052 87.9505 35.6334 87.6773 35.6334 87.3403V86.1177Z" fill="#A15F29" fill-opacity="0.1"/>
<path opacity="0.3" d="M29.534 89.1715C29.534 88.8345 29.8058 88.5613 30.1411 88.5613C30.4765 88.5613 30.7483 88.8345 30.7483 89.1715V90.3941C30.7483 90.7311 30.4765 91.0044 30.1411 91.0044C29.8058 91.0044 29.534 90.7311 29.534 90.3941V89.1715Z" fill="#A15F29" fill-opacity="0.1"/>
<path opacity="0.3" d="M29.534 76.3453C29.534 76.0083 29.8058 75.7351 30.1411 75.7351C30.4765 75.7351 30.7483 76.0083 30.7483 76.3453V80.011C30.7483 80.348 30.4765 80.6212 30.1411 80.6212C29.8058 80.6212 29.534 80.348 29.534 80.011V76.3453Z" fill="#A15F29" fill-opacity="0.1"/>
<path opacity="0.3" d="M30.7537 77.5669C30.7537 77.2299 31.0256 76.9567 31.3609 76.9567C31.6962 76.9567 31.968 77.2299 31.968 77.5669V78.7895C31.968 79.1265 31.6962 79.3997 31.3609 79.3997C31.0256 79.3997 30.7537 79.1265 30.7537 78.7895V77.5669Z" fill="#A15F29" fill-opacity="0.1"/>
<path opacity="0.3" d="M38.0729 92.2254C38.0729 91.8883 38.3448 91.6151 38.6801 91.6151C39.0154 91.6151 39.2872 91.8883 39.2872 92.2254V94.6695C39.2872 95.0065 39.0154 95.2797 38.6801 95.2797C38.3448 95.2797 38.0729 95.0065 38.0729 94.6695V92.2254Z" fill="#A15F29" fill-opacity="0.1"/>
<path opacity="0.3" d="M34.4133 86.1177C34.4133 85.7807 34.6851 85.5074 35.0204 85.5074C35.3557 85.5074 35.6276 85.7807 35.6276 86.1177V88.5618C35.6276 88.8988 35.3557 89.172 35.0204 89.172C34.6851 89.172 34.4133 88.8988 34.4133 88.5618V86.1177Z" fill="#A15F29" fill-opacity="0.1"/>
<path opacity="0.3" d="M33.1934 95.2793C33.1934 94.9423 33.4653 94.6691 33.8006 94.6691C34.1359 94.6691 34.4077 94.9423 34.4077 95.2793V96.5019C34.4077 96.8389 34.1359 97.1121 33.8006 97.1121C33.4653 97.1121 33.1934 96.8389 33.1934 96.5019V95.2793Z" fill="#A15F29" fill-opacity="0.1"/>
<path opacity="0.3" d="M30.7537 88.5607C30.7537 88.2237 31.0256 87.9504 31.3609 87.9504C31.6962 87.9504 31.968 88.2237 31.968 88.5607V91.0048C31.968 91.3418 31.6962 91.615 31.3609 91.615C31.0256 91.615 30.7537 91.3418 30.7537 91.0048V88.5607Z" fill="#A15F29" fill-opacity="0.1"/>
<path opacity="0.3" d="M33.1934 82.4531C33.1934 82.1161 33.4653 81.8429 33.8006 81.8429C34.1359 81.8429 34.4077 82.1161 34.4077 82.4531V84.8973C34.4077 85.2343 34.1359 85.5075 33.8006 85.5075C33.4653 85.5075 33.1934 85.2343 33.1934 84.8973V82.4531Z" fill="#A15F29" fill-opacity="0.1"/>
<path opacity="0.3" d="M29.534 92.2254C29.534 91.8883 29.8058 91.6151 30.1411 91.6151C30.4765 91.6151 30.7483 91.8883 30.7483 92.2254V94.6695C30.7483 95.0065 30.4765 95.2797 30.1411 95.2797C29.8058 95.2797 29.534 95.0065 29.534 94.6695V92.2254Z" fill="#A15F29" fill-opacity="0.1"/>
<path opacity="0.3" fill-rule="evenodd" clip-rule="evenodd" d="M39.2872 75.7351H38.6773V77.8731C38.6773 78.0416 38.8132 78.1782 38.9809 78.1782H38.9837C39.1513 78.1782 39.2872 78.0416 39.2872 77.8731V75.7351Z" fill="#A15F29" fill-opacity="0.1"/>
<path opacity="0.3" fill-rule="evenodd" clip-rule="evenodd" d="M36.8477 75.7351H36.2377V76.6515C36.2377 76.82 36.3736 76.9566 36.5413 76.9566H36.5441C36.7117 76.9566 36.8477 76.82 36.8477 76.6515V75.7351Z" fill="#A15F29" fill-opacity="0.1"/>
<path opacity="0.3" fill-rule="evenodd" clip-rule="evenodd" d="M34.4077 75.7351H33.7978V76.6515C33.7978 76.82 33.9337 76.9566 34.1014 76.9566H34.1041C34.2718 76.9566 34.4077 76.82 34.4077 76.6515V75.7351Z" fill="#A15F29" fill-opacity="0.1"/>
<path opacity="0.3" fill-rule="evenodd" clip-rule="evenodd" d="M38.6774 75.7351H39.2873V73.5972C39.2873 73.4286 39.1514 73.292 38.9837 73.292H38.9809C38.8133 73.292 38.6774 73.4286 38.6774 73.5972V75.7351Z" fill="#A15F29" fill-opacity="0.1"/>
<path opacity="0.3" fill-rule="evenodd" clip-rule="evenodd" d="M36.2374 75.7351H36.8474V72.3756C36.8474 72.2071 36.7114 72.0705 36.5438 72.0705H36.541C36.3733 72.0705 36.2374 72.2071 36.2374 72.3756V75.7351Z" fill="#A15F29" fill-opacity="0.1"/>
<path opacity="0.3" fill-rule="evenodd" clip-rule="evenodd" d="M33.7979 75.7351H34.4078V74.8187C34.4078 74.6502 34.2719 74.5136 34.1042 74.5136H34.1014C33.9338 74.5136 33.7979 74.6502 33.7979 74.8187V75.7351Z" fill="#A15F29" fill-opacity="0.1"/>
</g>
<g opacity="0.3">
<path opacity="0.3" d="M38.0729 48.2512C38.0729 48.5882 38.3448 48.8615 38.6801 48.8615C39.0154 48.8615 39.2872 48.5882 39.2872 48.2512V43.364C39.2872 43.027 39.0154 42.7538 38.6801 42.7538C38.3448 42.7538 38.0729 43.027 38.0729 43.364V48.2512Z" fill="#A15F29" fill-opacity="0.1"/>
<path opacity="0.3" d="M29.534 47.0297C29.534 47.3667 29.8058 47.6399 30.1411 47.6399C30.4765 47.6399 30.7483 47.3667 30.7483 47.0297V42.1425C30.7483 41.8054 30.4765 41.5322 30.1411 41.5322C29.8058 41.5322 29.534 41.8054 29.534 42.1425V47.0297Z" fill="#A15F29" fill-opacity="0.1"/>
<path opacity="0.3" d="M33.1934 61.6881C33.1934 62.0251 33.4653 62.2983 33.8006 62.2983C34.1359 62.2983 34.4077 62.0251 34.4077 61.6881V56.8009C34.4077 56.4639 34.1359 56.1907 33.8006 56.1907C33.4653 56.1907 33.1934 56.4639 33.1934 56.8009V61.6881Z" fill="#A15F29" fill-opacity="0.1"/>
<path opacity="0.3" d="M35.6334 61.6881C35.6334 62.0251 35.9052 62.2983 36.2405 62.2983C36.5758 62.2983 36.8477 62.0251 36.8477 61.6881V59.244C36.8477 58.907 36.5758 58.6337 36.2405 58.6337C35.9052 58.6337 35.6334 58.907 35.6334 59.244V61.6881Z" fill="#A15F29" fill-opacity="0.1"/>
<path opacity="0.3" d="M36.853 43.3651C36.853 43.7021 37.1248 43.9753 37.4601 43.9753C37.7954 43.9753 38.0673 43.7021 38.0673 43.3651V38.4779C38.0673 38.1409 37.7954 37.8677 37.4601 37.8677C37.1248 37.8677 36.853 38.1409 36.853 38.4779V43.3651Z" fill="#A15F29" fill-opacity="0.1"/>
<path opacity="0.3" d="M31.9736 53.1374C31.9736 53.4745 32.2454 53.7477 32.5807 53.7477C32.916 53.7477 33.1879 53.4745 33.1879 53.1374V48.2502C33.1879 47.9132 32.916 47.64 32.5807 47.64C32.2454 47.64 31.9736 47.9132 31.9736 48.2502V53.1374Z" fill="#A15F29" fill-opacity="0.1"/>
<path opacity="0.3" d="M39.2928 47.0297C39.2928 47.3667 39.5646 47.6399 39.8999 47.6399C40.2353 47.6399 40.5071 47.3667 40.5071 47.0297V44.5855C40.5071 44.2485 40.2353 43.9753 39.8999 43.9753C39.5646 43.9753 39.2928 44.2485 39.2928 44.5855V47.0297Z" fill="#A15F29" fill-opacity="0.1"/>
<path opacity="0.3" d="M34.4133 56.802C34.4133 57.139 34.6851 57.4122 35.0204 57.4122C35.3557 57.4122 35.6276 57.139 35.6276 56.802V54.3579C35.6276 54.0208 35.3557 53.7476 35.0204 53.7476C34.6851 53.7476 34.4133 54.0208 34.4133 54.3579V56.802Z" fill="#A15F29" fill-opacity="0.1"/>
<path opacity="0.3" d="M39.2928 59.2451C39.2928 59.5821 39.5646 59.8553 39.8999 59.8553C40.2353 59.8553 40.5071 59.5821 40.5071 59.2451V56.801C40.5071 56.464 40.2353 56.1907 39.8999 56.1907C39.5646 56.1907 39.2928 56.464 39.2928 56.801V59.2451Z" fill="#A15F29" fill-opacity="0.1"/>
<path opacity="0.3" d="M36.853 59.2451C36.853 59.5821 37.1248 59.8553 37.4601 59.8553C37.7954 59.8553 38.0673 59.5821 38.0673 59.2451V56.801C38.0673 56.464 37.7954 56.1907 37.4601 56.1907C37.1248 56.1907 36.853 56.464 36.853 56.801V59.2451Z" fill="#A15F29" fill-opacity="0.1"/>
<path opacity="0.3" d="M38.0729 62.9097C38.0729 63.2467 38.3448 63.5199 38.6801 63.5199C39.0154 63.5199 39.2872 63.2467 39.2872 62.9097V60.4655C39.2872 60.1285 39.0154 59.8553 38.6801 59.8553C38.3448 59.8553 38.0729 60.1285 38.0729 60.4655V62.9097Z" fill="#A15F29" fill-opacity="0.1"/>
<path opacity="0.3" d="M39.2928 40.9221C39.2928 41.2591 39.5646 41.5323 39.8999 41.5323C40.2353 41.5323 40.5071 41.2591 40.5071 40.9221V36.0349C40.5071 35.6979 40.2353 35.4247 39.8999 35.4247C39.5646 35.4247 39.2928 35.6979 39.2928 36.0349V40.9221Z" fill="#A15F29" fill-opacity="0.1"/>
<path opacity="0.3" d="M34.4133 50.6943C34.4133 51.0314 34.6851 51.3046 35.0204 51.3046C35.3557 51.3046 35.6276 51.0314 35.6276 50.6943V45.8071C35.6276 45.4701 35.3557 45.1969 35.0204 45.1969C34.6851 45.1969 34.4133 45.4701 34.4133 45.8071V50.6943Z" fill="#A15F29" fill-opacity="0.1"/>
<path opacity="0.3" d="M35.6334 39.7006C35.6334 40.0376 35.9052 40.3108 36.2405 40.3108C36.5758 40.3108 36.8477 40.0376 36.8477 39.7006V34.2026C36.8477 33.8656 36.5758 33.5924 36.2405 33.5924C35.9052 33.5924 35.6334 33.8656 35.6334 34.2026V39.7006Z" fill="#A15F29" fill-opacity="0.1"/>
<path opacity="0.3" d="M30.7537 48.2512C30.7537 48.5882 31.0256 48.8615 31.3609 48.8615C31.6962 48.8615 31.968 48.5882 31.968 48.2512V42.7532C31.968 42.4162 31.6962 42.143 31.3609 42.143C31.0256 42.143 30.7537 42.4162 30.7537 42.7532V48.2512Z" fill="#A15F29" fill-opacity="0.1"/>
<path opacity="0.3" d="M36.853 51.9159C36.853 52.2529 37.1248 52.5261 37.4601 52.5261C37.7954 52.5261 38.0673 52.2529 38.0673 51.9159V47.0287C38.0673 46.6917 37.7954 46.4185 37.4601 46.4185C37.1248 46.4185 36.853 46.6917 36.853 47.0287V51.9159Z" fill="#A15F29" fill-opacity="0.1"/>
<path opacity="0.3" d="M31.9736 38.4789C31.9736 38.8159 32.2454 39.0891 32.5807 39.0891C32.916 39.0891 33.1879 38.8159 33.1879 38.4789V33.5917C33.1879 33.2547 32.916 32.9814 32.5807 32.9814C32.2454 32.9814 31.9736 33.2547 31.9736 33.5917V38.4789Z" fill="#A15F29" fill-opacity="0.1"/>
<path opacity="0.3" d="M33.1934 42.1437C33.1934 42.4807 33.4653 42.7539 33.8006 42.7539C34.1359 42.7539 34.4077 42.4807 34.4077 42.1437V37.2565C34.4077 36.9195 34.1359 36.6462 33.8006 36.6462C33.4653 36.6462 33.1934 36.9195 33.1934 37.2565V42.1437Z" fill="#A15F29" fill-opacity="0.1"/>
<path opacity="0.3" d="M31.9736 61.6881C31.9736 62.0251 32.2454 62.2983 32.5807 62.2983C32.916 62.2983 33.1879 62.0251 33.1879 61.6881V56.8009C33.1879 56.4639 32.916 56.1907 32.5807 56.1907C32.2454 56.1907 31.9736 56.4639 31.9736 56.8009V61.6881Z" fill="#A15F29" fill-opacity="0.1"/>
<path opacity="0.3" d="M35.6334 50.6943C35.6334 51.0314 35.9052 51.3046 36.2405 51.3046C36.5758 51.3046 36.8477 51.0314 36.8477 50.6943V45.8071C36.8477 45.4701 36.5758 45.1969 36.2405 45.1969C35.9052 45.1969 35.6334 45.4701 35.6334 45.8071V50.6943Z" fill="#A15F29" fill-opacity="0.1"/>
<path opacity="0.3" d="M30.7537 59.2451C30.7537 59.5821 31.0256 59.8553 31.3609 59.8553C31.6962 59.8553 31.968 59.5821 31.968 59.2451V54.3579C31.968 54.0209 31.6962 53.7477 31.3609 53.7477C31.0256 53.7477 30.7537 54.0209 30.7537 54.3579V59.2451Z" fill="#A15F29" fill-opacity="0.1"/>
<path opacity="0.3" d="M39.2928 51.9159C39.2928 52.2529 39.5646 52.5261 39.8999 52.5261C40.2353 52.5261 40.5071 52.2529 40.5071 51.9159V50.6933C40.5071 50.3563 40.2353 50.0831 39.8999 50.0831C39.5646 50.0831 39.2928 50.3563 39.2928 50.6933V51.9159Z" fill="#A15F29" fill-opacity="0.1"/>
<path opacity="0.3" d="M30.7537 36.0359C30.7537 36.3729 31.0256 36.6461 31.3609 36.6461C31.6962 36.6461 31.968 36.3729 31.968 36.0359V34.8133C31.968 34.4763 31.6962 34.2031 31.3609 34.2031C31.0256 34.2031 30.7537 34.4763 30.7537 34.8133V36.0359Z" fill="#A15F29" fill-opacity="0.1"/>
<path opacity="0.3" d="M36.853 36.0359C36.853 36.3729 37.1248 36.6461 37.4601 36.6461C37.7954 36.6461 38.0673 36.3729 38.0673 36.0359V33.5918C38.0673 33.2547 37.7954 32.9815 37.4601 32.9815C37.1248 32.9815 36.853 33.2547 36.853 33.5918V36.0359Z" fill="#A15F29" fill-opacity="0.1"/>
<path opacity="0.3" d="M34.4133 35.4252C34.4133 35.7622 34.6851 36.0354 35.0204 36.0354C35.3557 36.0354 35.6276 35.7622 35.6276 35.4252V32.981C35.6276 32.644 35.3557 32.3708 35.0204 32.3708C34.6851 32.3708 34.4133 32.644 34.4133 32.981V35.4252Z" fill="#A15F29" fill-opacity="0.1"/>
<path opacity="0.3" d="M31.9736 45.8082C31.9736 46.1452 32.2454 46.4185 32.5807 46.4185C32.916 46.4185 33.1879 46.1452 33.1879 45.8082V43.3641C33.1879 43.0271 32.916 42.7538 32.5807 42.7538C32.2454 42.7538 31.9736 43.0271 31.9736 43.3641V45.8082Z" fill="#A15F29" fill-opacity="0.1"/>
<path opacity="0.3" d="M38.0729 40.9221C38.0729 41.2591 38.3448 41.5323 38.6801 41.5323C39.0154 41.5323 39.2872 41.2591 39.2872 40.9221V39.6995C39.2872 39.3625 39.0154 39.0893 38.6801 39.0893C38.3448 39.0893 38.0729 39.3625 38.0729 39.6995V40.9221Z" fill="#A15F29" fill-opacity="0.1"/>
<path opacity="0.3" d="M33.1934 50.6943C33.1934 51.0314 33.4653 51.3046 33.8006 51.3046C34.1359 51.3046 34.4077 51.0314 34.4077 50.6943V49.4717C34.4077 49.1347 34.1359 48.8615 33.8006 48.8615C33.4653 48.8615 33.1934 49.1347 33.1934 49.4717V50.6943Z" fill="#A15F29" fill-opacity="0.1"/>
<path opacity="0.3" d="M34.4133 38.4789C34.4133 38.8159 34.6851 39.0891 35.0204 39.0891C35.3557 39.0891 35.6276 38.8159 35.6276 38.4789V37.2563C35.6276 36.9193 35.3557 36.646 35.0204 36.646C34.6851 36.646 34.4133 36.9193 34.4133 37.2563V38.4789Z" fill="#A15F29" fill-opacity="0.1"/>
<path opacity="0.3" d="M35.6334 43.3651C35.6334 43.7021 35.9052 43.9753 36.2405 43.9753C36.5758 43.9753 36.8477 43.7021 36.8477 43.3651V42.1425C36.8477 41.8055 36.5758 41.5323 36.2405 41.5323C35.9052 41.5323 35.6334 41.8055 35.6334 42.1425V43.3651Z" fill="#A15F29" fill-opacity="0.1"/>
<path opacity="0.3" d="M29.534 40.3113C29.534 40.6483 29.8058 40.9215 30.1411 40.9215C30.4765 40.9215 30.7483 40.6483 30.7483 40.3113V39.0887C30.7483 38.7517 30.4765 38.4784 30.1411 38.4784C29.8058 38.4784 29.534 38.7517 29.534 39.0887V40.3113Z" fill="#A15F29" fill-opacity="0.1"/>
<path opacity="0.3" d="M29.534 53.1374C29.534 53.4745 29.8058 53.7477 30.1411 53.7477C30.4765 53.7477 30.7483 53.4745 30.7483 53.1374V49.4718C30.7483 49.1348 30.4765 48.8615 30.1411 48.8615C29.8058 48.8615 29.534 49.1348 29.534 49.4718V53.1374Z" fill="#A15F29" fill-opacity="0.1"/>
<path opacity="0.3" d="M30.7537 51.9159C30.7537 52.2529 31.0256 52.5261 31.3609 52.5261C31.6962 52.5261 31.968 52.2529 31.968 51.9159V50.6933C31.968 50.3563 31.6962 50.0831 31.3609 50.0831C31.0256 50.0831 30.7537 50.3563 30.7537 50.6933V51.9159Z" fill="#A15F29" fill-opacity="0.1"/>
<path opacity="0.3" d="M38.0729 37.2574C38.0729 37.5945 38.3448 37.8677 38.6801 37.8677C39.0154 37.8677 39.2872 37.5945 39.2872 37.2574V34.8133C39.2872 34.4763 39.0154 34.2031 38.6801 34.2031C38.3448 34.2031 38.0729 34.4763 38.0729 34.8133V37.2574Z" fill="#A15F29" fill-opacity="0.1"/>
<path opacity="0.3" d="M34.4133 43.3651C34.4133 43.7021 34.6851 43.9753 35.0204 43.9753C35.3557 43.9753 35.6276 43.7021 35.6276 43.3651V40.921C35.6276 40.584 35.3557 40.3107 35.0204 40.3107C34.6851 40.3107 34.4133 40.584 34.4133 40.921V43.3651Z" fill="#A15F29" fill-opacity="0.1"/>
<path opacity="0.3" d="M33.1934 34.2035C33.1934 34.5405 33.4653 34.8137 33.8006 34.8137C34.1359 34.8137 34.4077 34.5405 34.4077 34.2035V32.9809C34.4077 32.6439 34.1359 32.3707 33.8006 32.3707C33.4653 32.3707 33.1934 32.6439 33.1934 32.9809V34.2035Z" fill="#A15F29" fill-opacity="0.1"/>
<path opacity="0.3" d="M30.7537 40.9221C30.7537 41.2591 31.0256 41.5323 31.3609 41.5323C31.6962 41.5323 31.968 41.2591 31.968 40.9221V38.478C31.968 38.1409 31.6962 37.8677 31.3609 37.8677C31.0256 37.8677 30.7537 38.1409 30.7537 38.478V40.9221Z" fill="#A15F29" fill-opacity="0.1"/>
<path opacity="0.3" d="M33.1934 47.0297C33.1934 47.3667 33.4653 47.6399 33.8006 47.6399C34.1359 47.6399 34.4077 47.3667 34.4077 47.0297V44.5855C34.4077 44.2485 34.1359 43.9753 33.8006 43.9753C33.4653 43.9753 33.1934 44.2485 33.1934 44.5855V47.0297Z" fill="#A15F29" fill-opacity="0.1"/>
<path opacity="0.3" d="M29.534 37.2574C29.534 37.5945 29.8058 37.8677 30.1411 37.8677C30.4765 37.8677 30.7483 37.5945 30.7483 37.2574V34.8133C30.7483 34.4763 30.4765 34.2031 30.1411 34.2031C29.8058 34.2031 29.534 34.4763 29.534 34.8133V37.2574Z" fill="#A15F29" fill-opacity="0.1"/>
<path opacity="0.3" fill-rule="evenodd" clip-rule="evenodd" d="M39.2872 53.7477H38.6773V51.6097C38.6773 51.4412 38.8132 51.3046 38.9809 51.3046H38.9837C39.1513 51.3046 39.2872 51.4412 39.2872 51.6097V53.7477Z" fill="#A15F29" fill-opacity="0.1"/>
<path opacity="0.3" fill-rule="evenodd" clip-rule="evenodd" d="M36.8477 53.7477H36.2377V52.8313C36.2377 52.6628 36.3736 52.5261 36.5413 52.5261H36.5441C36.7117 52.5261 36.8477 52.6628 36.8477 52.8313V53.7477Z" fill="#A15F29" fill-opacity="0.1"/>
<path opacity="0.3" fill-rule="evenodd" clip-rule="evenodd" d="M34.4077 53.7477H33.7978V52.8313C33.7978 52.6628 33.9337 52.5261 34.1014 52.5261H34.1041C34.2718 52.5261 34.4077 52.6628 34.4077 52.8313V53.7477Z" fill="#A15F29" fill-opacity="0.1"/>
<path opacity="0.3" fill-rule="evenodd" clip-rule="evenodd" d="M38.6774 53.7477H39.2873V55.8856C39.2873 56.0542 39.1514 56.1908 38.9837 56.1908H38.9809C38.8133 56.1908 38.6774 56.0542 38.6774 55.8856V53.7477Z" fill="#A15F29" fill-opacity="0.1"/>
<path opacity="0.3" fill-rule="evenodd" clip-rule="evenodd" d="M36.2374 53.7477H36.8474V57.1072C36.8474 57.2757 36.7114 57.4123 36.5438 57.4123H36.541C36.3733 57.4123 36.2374 57.2757 36.2374 57.1072V53.7477Z" fill="#A15F29" fill-opacity="0.1"/>
<path opacity="0.3" fill-rule="evenodd" clip-rule="evenodd" d="M33.7979 53.7477H34.4078V54.6641C34.4078 54.8326 34.2719 54.9692 34.1042 54.9692H34.1014C33.9338 54.9692 33.7979 54.8326 33.7979 54.6641V53.7477Z" fill="#A15F29" fill-opacity="0.1"/>
</g>
<path d="M58.2452 0H13.01C6.97431 0 2.08142 4.91782 2.08142 10.9843V111.169C2.08142 117.236 6.97431 122.153 13.01 122.153H58.2452C64.2808 122.153 69.1737 117.236 69.1737 111.169V10.9843C69.1737 4.91782 64.2808 0 58.2452 0Z" fill="url(#paint9_linear)" fill-opacity="0.15"/>
<path fill-rule="evenodd" clip-rule="evenodd" d="M17.45 60.4294H53.8414C61.2183 60.4294 67.1985 66.4401 67.1985 73.8546C67.1985 85.0416 67.1985 96.2285 67.1985 107.415C67.1985 115.426 62.2215 117.231 60.3103 117.231C11.0166 117.928 60.2588 117.449 10.9448 117.842C8.63861 117.666 3.98006 112.961 4.0566 107.415C4.12059 102.778 4.13269 91.6013 4.09289 73.885C4.07623 66.4704 10.0429 60.4462 17.4198 60.4295C17.4299 60.4295 17.4399 60.4294 17.45 60.4294Z" fill="url(#paint10_linear)" fill-opacity="0.51"/>
<path d="M58.2453 121.872H9.40067L42.9701 97.551L69.1738 11.4434V110.888C69.1738 116.954 64.2809 121.872 58.2453 121.872Z" fill="url(#paint11_linear)" fill-opacity="0.15"/>
<path opacity="0.663342" d="M57.1953 0C57.1314 0.107703 8.73351 0.0821042 8.73351 0C-1.09923 0 0.96656 15.7399 0.96656 74.5443C0.96656 108.902 63.6324 145.721 63.6324 78.9579C63.6324 12.1946 66.2135 0.0821042 57.1953 0Z" fill="url(#paint12_radial)" fill-opacity="0.89"/>
<g opacity="0.592285" filter="url(#filter0_f)">
<path d="M60.6347 4.00513H10.539C9.91025 4.00513 9.40051 4.51746 9.40051 5.14946C9.40051 5.78146 9.91025 6.2938 10.539 6.2938H60.6347C61.2635 6.2938 61.7732 5.78146 61.7732 5.14946C61.7732 4.51746 61.2635 4.00513 60.6347 4.00513Z" fill="white"/>
</g>
<defs>
<filter id="filter0_f" x="7.40051" y="2.00513" width="56.3727" height="6.28867" filterUnits="userSpaceOnUse" color-interpolation-filters="sRGB">
<feFlood flood-opacity="0" result="BackgroundImageFix"/>
<feBlend mode="normal" in="SourceGraphic" in2="BackgroundImageFix" result="shape"/>
<feGaussianBlur stdDeviation="1" result="effect1_foregroundBlur"/>
</filter>
<linearGradient id="paint0_linear" x1="35.5751" y1="0" x2="35.5751" y2="21.2942" gradientUnits="userSpaceOnUse">
<stop stop-color="#FFE000"/>
<stop offset="1" stop-color="#FFBE00"/>
</linearGradient>
<linearGradient id="paint1_linear" x1="35.5751" y1="112.049" x2="35.5751" y2="122.153" gradientUnits="userSpaceOnUse">
<stop stop-color="#00CCFF"/>
<stop offset="1" stop-color="#00BBFF"/>
</linearGradient>
<linearGradient id="paint2_linear" x1="35.6275" y1="0" x2="35.6275" y2="70.4104" gradientUnits="userSpaceOnUse">
<stop stop-color="white"/>
<stop offset="1" stop-color="white" stop-opacity="0"/>
</linearGradient>
<linearGradient id="paint3_linear" x1="29.5006" y1="46.4917" x2="38.1615" y2="61.6085" gradientUnits="userSpaceOnUse">
<stop stop-color="#FF2863"/>
<stop offset="1" stop-color="#FF0046"/>
</linearGradient>
<linearGradient id="paint4_linear" x1="31.7501" y1="82.6605" x2="38.9122" y2="100.496" gradientUnits="userSpaceOnUse">
<stop stop-color="#0086FF"/>
<stop offset="1" stop-color="#0071FF"/>
</linearGradient>
<linearGradient id="paint5_linear" x1="31.5538" y1="64.6854" x2="37.7499" y2="80.6436" gradientUnits="userSpaceOnUse">
<stop stop-color="#0941BD"/>
<stop offset="1" stop-color="#0626B8"/>
</linearGradient>
<linearGradient id="paint6_linear" x1="35.5869" y1="11.5945" x2="35.5869" y2="51.2541" gradientUnits="userSpaceOnUse">
<stop stop-color="#FFB73E"/>
<stop offset="1" stop-color="#FF6600"/>
</linearGradient>
<linearGradient id="paint7_linear" x1="35.5463" y1="0" x2="35.5463" y2="43.9752" gradientUnits="userSpaceOnUse">
<stop stop-color="white"/>
<stop offset="0.576409" stop-color="white" stop-opacity="0"/>
</linearGradient>
<linearGradient id="paint8_linear" x1="35.5889" y1="71.0338" x2="36.4322" y2="122.14" gradientUnits="userSpaceOnUse">
<stop stop-color="white" stop-opacity="0"/>
<stop offset="1" stop-color="white" stop-opacity="0.420782"/>
</linearGradient>
<linearGradient id="paint9_linear" x1="35.6229" y1="1.12198" x2="33.9463" y2="122.137" gradientUnits="userSpaceOnUse">
<stop stop-color="white" stop-opacity="0"/>
<stop offset="0.550253" stop-color="white" stop-opacity="0.32443"/>
<stop offset="1" stop-color="#0626B8"/>
</linearGradient>
<linearGradient id="paint10_linear" x1="35.6271" y1="86.4019" x2="35.6271" y2="117.842" gradientUnits="userSpaceOnUse">
<stop stop-color="#00BBFF" stop-opacity="0"/>
<stop offset="1" stop-color="#00BBFF"/>
</linearGradient>
<linearGradient id="paint11_linear" x1="46.262" y1="116.254" x2="34.7448" y2="100.773" gradientUnits="userSpaceOnUse">
<stop stop-color="#0626B8"/>
<stop offset="1" stop-color="#0626B8" stop-opacity="0"/>
</linearGradient>
<radialGradient id="paint12_radial" cx="0" cy="0" r="1" gradientUnits="userSpaceOnUse" gradientTransform="translate(32.3801 -6.11018) rotate(180) scale(36.6363 46.4197)">
<stop stop-color="white"/>
<stop offset="1" stop-color="white" stop-opacity="0"/>
</radialGradient>
</defs>
</svg>
