<svg width="68" height="155" viewBox="0 0 68 155" fill="none" xmlns="http://www.w3.org/2000/svg">
<g clip-path="url(#clip0)">
<path d="M40.4671 124.162C40.4671 120.769 37.7518 118.018 34.4024 118.018C31.053 118.018 28.3378 120.769 28.3378 124.162V148.694C28.3378 152.087 31.053 154.838 34.4024 154.838C37.7518 154.838 40.4671 152.087 40.4671 148.694V124.162Z" fill="#FFC99D"/>
<path d="M56.8679 0.195801H11.8324C5.83103 0.195801 0.965942 5.12448 0.965942 11.2043V111.812C0.965942 117.892 5.83103 122.821 11.8324 122.821H56.8679C62.8693 122.821 67.7344 117.892 67.7344 111.812V11.2043C67.7344 5.12448 62.8693 0.195801 56.8679 0.195801Z" fill="url(#paint0_linear)" fill-opacity="0.8"/>
<path fill-rule="evenodd" clip-rule="evenodd" d="M0.965942 91.0452H67.7344V111.919C67.7344 117.999 62.8693 122.928 56.8679 122.928H11.8324C5.83103 122.928 0.965942 117.999 0.965942 111.919V91.0452Z" fill="url(#paint1_linear)"/>
<path d="M11.6719 0.195801H58.0989C63.4335 0.195801 67.758 4.57685 67.758 9.98115V34.5939C67.758 39.9982 63.4335 44.3792 58.0989 44.3792H10.706C5.3714 44.3792 1.04688 39.9982 1.04688 34.5939V10.9597C1.04688 5.01496 5.80385 0.195801 11.6719 0.195801ZM11.9134 91.045H56.8915C62.8929 91.045 67.758 95.9737 67.758 102.054V111.919C67.758 117.999 62.8929 122.928 56.8915 122.928H11.9134C5.91196 122.928 1.04688 117.999 1.04688 111.919V102.054C1.04688 95.9737 5.91196 91.045 11.9134 91.045Z" fill="url(#paint2_linear)" fill-opacity="0.1"/>
<mask id="mask0" mask-type="alpha" maskUnits="userSpaceOnUse" x="0" y="67" width="68" height="45">
<path d="M67.7344 67.6843H0.965942V111.291H67.7344V67.6843Z" fill="white"/>
</mask>
<g mask="url(#mask0)">
<path fill-rule="evenodd" clip-rule="evenodd" d="M0.965942 110.68C10.625 98.1668 21.4915 93.9292 33.5654 97.9668C45.6392 102.004 57.0368 99.7896 67.7579 91.3223V71.3184C57.0368 79.3937 45.6392 81.4125 33.5654 77.3748C21.4915 73.3372 10.625 77.7843 0.965942 90.7161V110.68Z" fill="url(#paint3_linear)"/>
</g>
<path d="M11.5909 0.195801H58.018C63.3525 0.195801 67.6771 4.57685 67.6771 9.98115V34.5939C67.6771 39.9982 63.3525 44.3792 58.018 44.3792H10.625C5.29047 44.3792 0.965942 39.9982 0.965942 34.5939V10.9597C0.965942 5.01496 5.72292 0.195801 11.5909 0.195801Z" fill="url(#paint4_linear)" fill-opacity="0.1"/>
<path d="M33.1673 32.106H35.6375C38.3048 32.106 40.4671 34.2965 40.4671 36.9986V131.523C40.4671 132.198 39.9265 132.746 39.2597 132.746H29.5452C28.8783 132.746 28.3378 132.198 28.3378 131.523V36.9986C28.3378 34.2965 30.5 32.106 33.1673 32.106Z" fill="#75675B" fill-opacity="0.33"/>
<path d="M41.6799 54.1978L27.1248 54.1978L27.1248 122.928H41.6799L41.6799 54.1978Z" fill="url(#paint5_linear)" fill-opacity="0.5"/>
<g opacity="0.701032">
<path opacity="0.701032" d="M30.7634 137.962C30.7634 137.793 30.6277 137.655 30.4602 137.655C30.2927 137.655 30.157 137.793 30.157 137.962V143.485C30.157 143.654 30.2927 143.792 30.4602 143.792C30.6277 143.792 30.7634 143.654 30.7634 143.485V137.962Z" fill="#E49351" fill-opacity="0.25"/>
<path opacity="0.701032" d="M39.2539 139.19C39.2539 139.02 39.1182 138.883 38.9507 138.883C38.7832 138.883 38.6475 139.02 38.6475 139.19V144.712C38.6475 144.882 38.7832 145.019 38.9507 145.019C39.1182 145.019 39.2539 144.882 39.2539 144.712V139.19Z" fill="#E49351" fill-opacity="0.25"/>
<path opacity="0.701032" d="M35.6151 124.462C35.6151 124.292 35.4794 124.155 35.3119 124.155C35.1444 124.155 35.0087 124.292 35.0087 124.462V129.984C35.0087 130.154 35.1444 130.291 35.3119 130.291C35.4794 130.291 35.6151 130.154 35.6151 129.984V124.462Z" fill="#A15F29" fill-opacity="0.15"/>
<path opacity="0.701032" d="M33.1894 124.462C33.1894 124.292 33.0536 124.155 32.8861 124.155C32.7186 124.155 32.5829 124.292 32.5829 124.462V127.53C32.5829 127.699 32.7186 127.837 32.8861 127.837C33.0536 127.837 33.1894 127.699 33.1894 127.53V124.462Z" fill="#A15F29" fill-opacity="0.15"/>
<path opacity="0.701032" d="M31.9763 142.872C31.9763 142.702 31.8406 142.564 31.6731 142.564C31.5056 142.564 31.3699 142.702 31.3699 142.872V148.394C31.3699 148.564 31.5056 148.701 31.6731 148.701C31.8406 148.701 31.9763 148.564 31.9763 148.394V142.872Z" fill="#E49351" fill-opacity="0.25"/>
<path opacity="0.701032" d="M36.828 133.053C36.828 132.884 36.6923 132.746 36.5248 132.746C36.3573 132.746 36.2216 132.884 36.2216 133.053V138.575C36.2216 138.745 36.3573 138.883 36.5248 138.883C36.6923 138.883 36.828 138.745 36.828 138.575V133.053Z" fill="#E49351" fill-opacity="0.25"/>
<path opacity="0.701032" d="M29.5506 139.19C29.5506 139.02 29.4148 138.883 29.2473 138.883C29.0799 138.883 28.9441 139.02 28.9441 139.19V142.257C28.9441 142.427 29.0799 142.565 29.2473 142.565C29.4148 142.565 29.5506 142.427 29.5506 142.257V139.19Z" fill="#E49351" fill-opacity="0.25"/>
<path opacity="0.701032" d="M34.4022 129.371C34.4022 129.202 34.2665 129.064 34.099 129.064C33.9315 129.064 33.7958 129.202 33.7958 129.371V132.439C33.7958 132.608 33.9315 132.746 34.099 132.746C34.2665 132.746 34.4022 132.608 34.4022 132.439V129.371Z" fill="#A15F29" fill-opacity="0.15"/>
<path opacity="0.701032" d="M29.5506 126.917C29.5506 126.747 29.4148 126.61 29.2473 126.61C29.0799 126.61 28.9441 126.747 28.9441 126.917V129.984C28.9441 130.154 29.0799 130.292 29.2473 130.292C29.4148 130.292 29.5506 130.154 29.5506 129.984V126.917Z" fill="#A15F29" fill-opacity="0.15"/>
<path opacity="0.701032" d="M31.9763 126.917C31.9763 126.747 31.8406 126.61 31.6731 126.61C31.5056 126.61 31.3699 126.747 31.3699 126.917V129.984C31.3699 130.154 31.5056 130.292 31.6731 130.292C31.8406 130.292 31.9763 130.154 31.9763 129.984V126.917Z" fill="#A15F29" fill-opacity="0.15"/>
<path opacity="0.701032" d="M30.7634 123.235C30.7634 123.065 30.6277 122.927 30.4602 122.927C30.2927 122.927 30.157 123.065 30.157 123.235V126.302C30.157 126.472 30.2927 126.609 30.4602 126.609C30.6277 126.609 30.7634 126.472 30.7634 126.302V123.235Z" fill="#A15F29" fill-opacity="0.15"/>
<path opacity="0.701032" d="M29.5506 145.326C29.5506 145.157 29.4148 145.019 29.2473 145.019C29.0799 145.019 28.9441 145.157 28.9441 145.326V150.849C28.9441 151.018 29.0799 151.156 29.2473 151.156C29.4148 151.156 29.5506 151.018 29.5506 150.849V145.326Z" fill="#E49351" fill-opacity="0.25"/>
<path opacity="0.701032" d="M34.4022 135.508C34.4022 135.338 34.2665 135.201 34.099 135.201C33.9315 135.201 33.7958 135.338 33.7958 135.508V141.03C33.7958 141.2 33.9315 141.337 34.099 141.337C34.2665 141.337 34.4022 141.2 34.4022 141.03V135.508Z" fill="#E49351" fill-opacity="0.25"/>
<path opacity="0.701032" d="M33.1894 146.554C33.1894 146.384 33.0536 146.247 32.8861 146.247C32.7186 146.247 32.5829 146.384 32.5829 146.554V152.69C32.5829 152.859 32.7186 152.997 32.8861 152.997C33.0536 152.997 33.1894 152.859 33.1894 152.69V146.554Z" fill="#E49351" fill-opacity="0.25"/>
<path opacity="0.701032" d="M38.0412 137.962C38.0412 137.793 37.9054 137.655 37.7379 137.655C37.5705 137.655 37.4347 137.793 37.4347 137.962V144.098C37.4347 144.268 37.5705 144.406 37.7379 144.406C37.9054 144.406 38.0412 144.268 38.0412 144.098V137.962Z" fill="#E49351" fill-opacity="0.25"/>
<path opacity="0.701032" d="M31.9763 134.281C31.9763 134.111 31.8406 133.973 31.6731 133.973C31.5056 133.973 31.3699 134.111 31.3699 134.281V139.803C31.3699 139.972 31.5056 140.11 31.6731 140.11C31.8406 140.11 31.9763 139.972 31.9763 139.803V134.281Z" fill="#E49351" fill-opacity="0.25"/>
<path opacity="0.701032" d="M36.828 147.781C36.828 147.611 36.6923 147.474 36.5248 147.474C36.3573 147.474 36.2216 147.611 36.2216 147.781V153.303C36.2216 153.473 36.3573 153.61 36.5248 153.61C36.6923 153.61 36.828 153.473 36.828 153.303V147.781Z" fill="#E49351" fill-opacity="0.25"/>
<path opacity="0.701032" d="M35.6151 144.099C35.6151 143.929 35.4794 143.792 35.3119 143.792C35.1444 143.792 35.0087 143.929 35.0087 144.099V149.621C35.0087 149.791 35.1444 149.928 35.3119 149.928C35.4794 149.928 35.6151 149.791 35.6151 149.621V144.099Z" fill="#E49351" fill-opacity="0.25"/>
<path opacity="0.701032" d="M36.828 124.462C36.828 124.292 36.6923 124.155 36.5248 124.155C36.3573 124.155 36.2216 124.292 36.2216 124.462V129.984C36.2216 130.154 36.3573 130.291 36.5248 130.291C36.6923 130.291 36.828 130.154 36.828 129.984V124.462Z" fill="#A15F29" fill-opacity="0.15"/>
<path opacity="0.701032" d="M33.1894 135.508C33.1894 135.338 33.0536 135.201 32.8861 135.201C32.7186 135.201 32.5829 135.338 32.5829 135.508V141.03C32.5829 141.2 32.7186 141.337 32.8861 141.337C33.0536 141.337 33.1894 141.2 33.1894 141.03V135.508Z" fill="#E49351" fill-opacity="0.25"/>
<path opacity="0.701032" d="M38.0412 126.917C38.0412 126.747 37.9054 126.61 37.7379 126.61C37.5705 126.61 37.4347 126.747 37.4347 126.917V132.439C37.4347 132.609 37.5705 132.746 37.7379 132.746C37.9054 132.746 38.0412 132.609 38.0412 132.439V126.917Z" fill="#A15F29" fill-opacity="0.15"/>
<path opacity="0.701032" d="M29.5506 134.281C29.5506 134.111 29.4148 133.973 29.2473 133.973C29.0799 133.973 28.9441 134.111 28.9441 134.281V136.121C28.9441 136.29 29.0799 136.428 29.2473 136.428C29.4148 136.428 29.5506 136.29 29.5506 136.121V134.281Z" fill="#E49351" fill-opacity="0.25"/>
<path opacity="0.701032" d="M38.0412 150.236C38.0412 150.066 37.9054 149.928 37.7379 149.928C37.5705 149.928 37.4347 150.066 37.4347 150.236V152.076C37.4347 152.246 37.5705 152.383 37.7379 152.383C37.9054 152.383 38.0412 152.246 38.0412 152.076V150.236Z" fill="#E49351" fill-opacity="0.25"/>
<path opacity="0.701032" d="M31.9763 150.236C31.9763 150.066 31.8406 149.928 31.6731 149.928C31.5056 149.928 31.3699 150.066 31.3699 150.236V153.303C31.3699 153.473 31.5056 153.61 31.6731 153.61C31.8406 153.61 31.9763 153.473 31.9763 153.303V150.236Z" fill="#E49351" fill-opacity="0.25"/>
<path opacity="0.701032" d="M34.4022 150.849C34.4022 150.68 34.2665 150.542 34.099 150.542C33.9315 150.542 33.7958 150.68 33.7958 150.849V153.917C33.7958 154.086 33.9315 154.224 34.099 154.224C34.2665 154.224 34.4022 154.086 34.4022 153.917V150.849Z" fill="#E49351" fill-opacity="0.25"/>
<path opacity="0.701032" d="M36.828 140.417C36.828 140.247 36.6923 140.11 36.5248 140.11C36.3573 140.11 36.2216 140.247 36.2216 140.417V143.485C36.2216 143.654 36.3573 143.792 36.5248 143.792C36.6923 143.792 36.828 143.654 36.828 143.485V140.417Z" fill="#E49351" fill-opacity="0.25"/>
<path opacity="0.701032" d="M30.7634 145.326C30.7634 145.157 30.6277 145.019 30.4602 145.019C30.2927 145.019 30.157 145.157 30.157 145.326V147.167C30.157 147.336 30.2927 147.474 30.4602 147.474C30.6277 147.474 30.7634 147.336 30.7634 147.167V145.326Z" fill="#E49351" fill-opacity="0.25"/>
<path opacity="0.701032" d="M35.6151 135.508C35.6151 135.338 35.4794 135.201 35.3119 135.201C35.1444 135.201 35.0087 135.338 35.0087 135.508V137.348C35.0087 137.518 35.1444 137.655 35.3119 137.655C35.4794 137.655 35.6151 137.518 35.6151 137.348V135.508Z" fill="#E49351" fill-opacity="0.25"/>
<path opacity="0.701032" d="M34.4022 147.781C34.4022 147.611 34.2665 147.474 34.099 147.474C33.9315 147.474 33.7958 147.611 33.7958 147.781V149.621C33.7958 149.791 33.9315 149.929 34.099 149.929C34.2665 149.929 34.4022 149.791 34.4022 149.621V147.781Z" fill="#E49351" fill-opacity="0.25"/>
<path opacity="0.701032" d="M33.1894 142.872C33.1894 142.702 33.0536 142.564 32.8861 142.564C32.7186 142.564 32.5829 142.702 32.5829 142.872V144.712C32.5829 144.882 32.7186 145.019 32.8861 145.019C33.0536 145.019 33.1894 144.882 33.1894 144.712V142.872Z" fill="#E49351" fill-opacity="0.25"/>
<path opacity="0.701032" d="M39.2539 145.94C39.2539 145.77 39.1182 145.633 38.9507 145.633C38.7832 145.633 38.6475 145.77 38.6475 145.94V147.78C38.6475 147.95 38.7832 148.087 38.9507 148.087C39.1182 148.087 39.2539 147.95 39.2539 147.78V145.94Z" fill="#E49351" fill-opacity="0.25"/>
<path opacity="0.701032" d="M39.2539 133.053C39.2539 132.884 39.1182 132.746 38.9507 132.746C38.7832 132.746 38.6475 132.884 38.6475 133.053V137.348C38.6475 137.518 38.7832 137.655 38.9507 137.655C39.1182 137.655 39.2539 137.518 39.2539 137.348V133.053Z" fill="#E49351" fill-opacity="0.25"/>
<path opacity="0.701032" d="M38.0412 134.281C38.0412 134.111 37.9054 133.973 37.7379 133.973C37.5705 133.973 37.4347 134.111 37.4347 134.281V136.121C37.4347 136.29 37.5705 136.428 37.7379 136.428C37.9054 136.428 38.0412 136.29 38.0412 136.121V134.281Z" fill="#E49351" fill-opacity="0.25"/>
<path opacity="0.701032" d="M30.7634 149.008C30.7634 148.839 30.6277 148.701 30.4602 148.701C30.2927 148.701 30.157 148.839 30.157 149.008V152.076C30.157 152.246 30.2927 152.383 30.4602 152.383C30.6277 152.383 30.7634 152.246 30.7634 152.076V149.008Z" fill="#E49351" fill-opacity="0.25"/>
<path opacity="0.701032" d="M34.4022 142.872C34.4022 142.702 34.2665 142.564 34.099 142.564C33.9315 142.564 33.7958 142.702 33.7958 142.872V145.939C33.7958 146.109 33.9315 146.246 34.099 146.246C34.2665 146.246 34.4022 146.109 34.4022 145.939V142.872Z" fill="#E49351" fill-opacity="0.25"/>
<path opacity="0.701032" d="M35.6151 152.077C35.6151 151.907 35.4794 151.77 35.3119 151.77C35.1444 151.77 35.0087 151.907 35.0087 152.077V153.917C35.0087 154.087 35.1444 154.224 35.3119 154.224C35.4794 154.224 35.6151 154.087 35.6151 153.917V152.077Z" fill="#E49351" fill-opacity="0.25"/>
<path opacity="0.701032" d="M38.0412 145.326C38.0412 145.157 37.9054 145.019 37.7379 145.019C37.5705 145.019 37.4347 145.157 37.4347 145.326V148.394C37.4347 148.564 37.5705 148.701 37.7379 148.701C37.9054 148.701 38.0412 148.564 38.0412 148.394V145.326Z" fill="#E49351" fill-opacity="0.25"/>
<path opacity="0.701032" d="M35.6151 139.19C35.6151 139.02 35.4794 138.883 35.3119 138.883C35.1444 138.883 35.0087 139.02 35.0087 139.19V142.257C35.0087 142.427 35.1444 142.565 35.3119 142.565C35.4794 142.565 35.6151 142.427 35.6151 142.257V139.19Z" fill="#E49351" fill-opacity="0.25"/>
<path opacity="0.701032" d="M39.2539 149.008C39.2539 148.839 39.1182 148.701 38.9507 148.701C38.7832 148.701 38.6475 148.839 38.6475 149.008V152.076C38.6475 152.246 38.7832 152.383 38.9507 152.383C39.1182 152.383 39.2539 152.246 39.2539 152.076V149.008Z" fill="#E49351" fill-opacity="0.25"/>
<path opacity="0.701032" fill-rule="evenodd" clip-rule="evenodd" d="M30.157 132.746H30.7634V134.895C30.7634 135.064 30.6283 135.201 30.4616 135.201H30.4588C30.2921 135.201 30.157 135.064 30.157 134.895V132.746Z" fill="#E49351" fill-opacity="0.25"/>
<path opacity="0.701032" fill-rule="evenodd" clip-rule="evenodd" d="M32.5829 132.746H33.1894V133.668C33.1894 133.837 33.0542 133.973 32.8875 133.973H32.8847C32.718 133.973 32.5829 133.837 32.5829 133.668V132.746Z" fill="#E49351" fill-opacity="0.25"/>
<path opacity="0.701032" fill-rule="evenodd" clip-rule="evenodd" d="M35.0087 132.746H35.6151V133.668C35.6151 133.837 35.48 133.973 35.3133 133.973H35.3105C35.1438 133.973 35.0087 133.837 35.0087 133.668V132.746Z" fill="#E49351" fill-opacity="0.25"/>
<path opacity="0.701032" fill-rule="evenodd" clip-rule="evenodd" d="M30.7635 132.746H30.1571V130.597C30.1571 130.428 30.2922 130.291 30.4589 130.291H30.4617C30.6284 130.291 30.7635 130.428 30.7635 130.597V132.746Z" fill="#A15F29" fill-opacity="0.15"/>
<path opacity="0.701032" fill-rule="evenodd" clip-rule="evenodd" d="M33.1893 132.746H32.5829V129.37C32.5829 129.201 32.718 129.064 32.8847 129.064H32.8875C33.0542 129.064 33.1893 129.201 33.1893 129.37V132.746Z" fill="#A15F29" fill-opacity="0.15"/>
<path opacity="0.701032" fill-rule="evenodd" clip-rule="evenodd" d="M35.6152 132.746H35.0088V131.825C35.0088 131.656 35.1439 131.519 35.3106 131.519H35.3134C35.4801 131.519 35.6152 131.656 35.6152 131.825V132.746Z" fill="#A15F29" fill-opacity="0.15"/>
</g>
<g opacity="0.369792">
<path opacity="0.369792" d="M30.7634 108.507C30.7634 108.337 30.6277 108.2 30.4602 108.2C30.2927 108.2 30.157 108.337 30.157 108.507V114.029C30.157 114.199 30.2927 114.336 30.4602 114.336C30.6277 114.336 30.7634 114.199 30.7634 114.029V108.507Z" fill="#A15F29" fill-opacity="0.1"/>
<path opacity="0.369792" d="M39.2539 109.734C39.2539 109.565 39.1182 109.427 38.9507 109.427C38.7832 109.427 38.6475 109.565 38.6475 109.734V115.256C38.6475 115.426 38.7832 115.564 38.9507 115.564C39.1182 115.564 39.2539 115.426 39.2539 115.256V109.734Z" fill="#A15F29" fill-opacity="0.1"/>
<path opacity="0.369792" d="M35.6151 95.0064C35.6151 94.8368 35.4794 94.6992 35.3119 94.6992C35.1444 94.6992 35.0087 94.8368 35.0087 95.0064V100.529C35.0087 100.698 35.1444 100.836 35.3119 100.836C35.4794 100.836 35.6151 100.698 35.6151 100.529V95.0064Z" fill="#A15F29" fill-opacity="0.1"/>
<path opacity="0.369792" d="M33.1894 95.0064C33.1894 94.8368 33.0536 94.6992 32.8861 94.6992C32.7186 94.6992 32.5829 94.8368 32.5829 95.0064V98.074C32.5829 98.2436 32.7186 98.3812 32.8861 98.3812C33.0536 98.3812 33.1894 98.2436 33.1894 98.074V95.0064Z" fill="#A15F29" fill-opacity="0.1"/>
<path opacity="0.369792" d="M31.9763 113.416C31.9763 113.246 31.8406 113.109 31.6731 113.109C31.5056 113.109 31.3699 113.246 31.3699 113.416V118.938C31.3699 119.108 31.5056 119.245 31.6731 119.245C31.8406 119.245 31.9763 119.108 31.9763 118.938V113.416Z" fill="#A15F29" fill-opacity="0.1"/>
<path opacity="0.369792" d="M36.828 103.598C36.828 103.428 36.6923 103.291 36.5248 103.291C36.3573 103.291 36.2216 103.428 36.2216 103.598V109.12C36.2216 109.29 36.3573 109.427 36.5248 109.427C36.6923 109.427 36.828 109.29 36.828 109.12V103.598Z" fill="#A15F29" fill-opacity="0.1"/>
<path opacity="0.369792" d="M29.5506 109.734C29.5506 109.565 29.4148 109.427 29.2473 109.427C29.0799 109.427 28.9441 109.565 28.9441 109.734V112.802C28.9441 112.971 29.0799 113.109 29.2473 113.109C29.4148 113.109 29.5506 112.971 29.5506 112.802V109.734Z" fill="#A15F29" fill-opacity="0.1"/>
<path opacity="0.369792" d="M34.4022 99.9156C34.4022 99.7459 34.2665 99.6084 34.099 99.6084C33.9315 99.6084 33.7958 99.7459 33.7958 99.9156V102.983C33.7958 103.153 33.9315 103.29 34.099 103.29C34.2665 103.29 34.4022 103.153 34.4022 102.983V99.9156Z" fill="#A15F29" fill-opacity="0.1"/>
<path opacity="0.369792" d="M29.5506 97.461C29.5506 97.2913 29.4148 97.1538 29.2473 97.1538C29.0799 97.1538 28.9441 97.2913 28.9441 97.461V100.529C28.9441 100.698 29.0799 100.836 29.2473 100.836C29.4148 100.836 29.5506 100.698 29.5506 100.529V97.461Z" fill="#A15F29" fill-opacity="0.1"/>
<path opacity="0.369792" d="M31.9763 97.461C31.9763 97.2913 31.8406 97.1538 31.6731 97.1538C31.5056 97.1538 31.3699 97.2913 31.3699 97.461V100.529C31.3699 100.698 31.5056 100.836 31.6731 100.836C31.8406 100.836 31.9763 100.698 31.9763 100.529V97.461Z" fill="#A15F29" fill-opacity="0.1"/>
<path opacity="0.369792" d="M30.7634 93.7791C30.7634 93.6095 30.6277 93.4719 30.4602 93.4719C30.2927 93.4719 30.157 93.6095 30.157 93.7791V96.8467C30.157 97.0163 30.2927 97.1539 30.4602 97.1539C30.6277 97.1539 30.7634 97.0163 30.7634 96.8467V93.7791Z" fill="#A15F29" fill-opacity="0.1"/>
<path opacity="0.369792" d="M29.5506 115.871C29.5506 115.701 29.4148 115.564 29.2473 115.564C29.0799 115.564 28.9441 115.701 28.9441 115.871V121.393C28.9441 121.563 29.0799 121.7 29.2473 121.7C29.4148 121.7 29.5506 121.563 29.5506 121.393V115.871Z" fill="#A15F29" fill-opacity="0.1"/>
<path opacity="0.369792" d="M34.4022 106.052C34.4022 105.883 34.2665 105.745 34.099 105.745C33.9315 105.745 33.7958 105.883 33.7958 106.052V111.574C33.7958 111.744 33.9315 111.882 34.099 111.882C34.2665 111.882 34.4022 111.744 34.4022 111.574V106.052Z" fill="#A15F29" fill-opacity="0.1"/>
<path opacity="0.369792" d="M33.1894 117.098C33.1894 116.928 33.0536 116.791 32.8861 116.791C32.7186 116.791 32.5829 116.928 32.5829 117.098V123.234C32.5829 123.403 32.7186 123.541 32.8861 123.541C33.0536 123.541 33.1894 123.403 33.1894 123.234V117.098Z" fill="#A15F29" fill-opacity="0.1"/>
<path opacity="0.369792" d="M38.0412 108.507C38.0412 108.337 37.9054 108.2 37.7379 108.2C37.5705 108.2 37.4347 108.337 37.4347 108.507V114.643C37.4347 114.812 37.5705 114.95 37.7379 114.95C37.9054 114.95 38.0412 114.812 38.0412 114.643V108.507Z" fill="#A15F29" fill-opacity="0.1"/>
<path opacity="0.369792" d="M31.9763 104.825C31.9763 104.655 31.8406 104.518 31.6731 104.518C31.5056 104.518 31.3699 104.655 31.3699 104.825V110.347C31.3699 110.517 31.5056 110.654 31.6731 110.654C31.8406 110.654 31.9763 110.517 31.9763 110.347V104.825Z" fill="#A15F29" fill-opacity="0.1"/>
<path opacity="0.369792" d="M36.828 118.326C36.828 118.156 36.6923 118.018 36.5248 118.018C36.3573 118.018 36.2216 118.156 36.2216 118.326V123.848C36.2216 124.017 36.3573 124.155 36.5248 124.155C36.6923 124.155 36.828 124.017 36.828 123.848V118.326Z" fill="#A15F29" fill-opacity="0.1"/>
<path opacity="0.369792" d="M35.6151 114.643C35.6151 114.474 35.4794 114.336 35.3119 114.336C35.1444 114.336 35.0087 114.474 35.0087 114.643V120.166C35.0087 120.335 35.1444 120.473 35.3119 120.473C35.4794 120.473 35.6151 120.335 35.6151 120.166V114.643Z" fill="#A15F29" fill-opacity="0.1"/>
<path opacity="0.369792" d="M36.828 95.0064C36.828 94.8368 36.6923 94.6992 36.5248 94.6992C36.3573 94.6992 36.2216 94.8368 36.2216 95.0064V100.529C36.2216 100.698 36.3573 100.836 36.5248 100.836C36.6923 100.836 36.828 100.698 36.828 100.529V95.0064Z" fill="#A15F29" fill-opacity="0.1"/>
<path opacity="0.369792" d="M33.1894 106.052C33.1894 105.883 33.0536 105.745 32.8861 105.745C32.7186 105.745 32.5829 105.883 32.5829 106.052V111.574C32.5829 111.744 32.7186 111.882 32.8861 111.882C33.0536 111.882 33.1894 111.744 33.1894 111.574V106.052Z" fill="#A15F29" fill-opacity="0.1"/>
<path opacity="0.369792" d="M38.0412 97.461C38.0412 97.2913 37.9054 97.1538 37.7379 97.1538C37.5705 97.1538 37.4347 97.2913 37.4347 97.461V102.983C37.4347 103.153 37.5705 103.29 37.7379 103.29C37.9054 103.29 38.0412 103.153 38.0412 102.983V97.461Z" fill="#A15F29" fill-opacity="0.1"/>
<path opacity="0.369792" d="M29.5506 104.825C29.5506 104.655 29.4148 104.518 29.2473 104.518C29.0799 104.518 28.9441 104.655 28.9441 104.825V106.665C28.9441 106.835 29.0799 106.972 29.2473 106.972C29.4148 106.972 29.5506 106.835 29.5506 106.665V104.825Z" fill="#A15F29" fill-opacity="0.1"/>
<path opacity="0.369792" d="M38.0412 120.78C38.0412 120.61 37.9054 120.473 37.7379 120.473C37.5705 120.473 37.4347 120.61 37.4347 120.78V122.62C37.4347 122.79 37.5705 122.928 37.7379 122.928C37.9054 122.928 38.0412 122.79 38.0412 122.62V120.78Z" fill="#A15F29" fill-opacity="0.1"/>
<path opacity="0.369792" d="M31.9763 120.78C31.9763 120.61 31.8406 120.473 31.6731 120.473C31.5056 120.473 31.3699 120.61 31.3699 120.78V123.848C31.3699 124.017 31.5056 124.155 31.6731 124.155C31.8406 124.155 31.9763 124.017 31.9763 123.848V120.78Z" fill="#A15F29" fill-opacity="0.1"/>
<path opacity="0.369792" d="M34.4022 121.394C34.4022 121.224 34.2665 121.086 34.099 121.086C33.9315 121.086 33.7958 121.224 33.7958 121.394V124.461C33.7958 124.631 33.9315 124.768 34.099 124.768C34.2665 124.768 34.4022 124.631 34.4022 124.461V121.394Z" fill="#A15F29" fill-opacity="0.1"/>
<path opacity="0.369792" d="M36.828 110.961C36.828 110.792 36.6923 110.654 36.5248 110.654C36.3573 110.654 36.2216 110.792 36.2216 110.961V114.029C36.2216 114.199 36.3573 114.336 36.5248 114.336C36.6923 114.336 36.828 114.199 36.828 114.029V110.961Z" fill="#A15F29" fill-opacity="0.1"/>
<path opacity="0.369792" d="M30.7634 115.871C30.7634 115.701 30.6277 115.564 30.4602 115.564C30.2927 115.564 30.157 115.701 30.157 115.871V117.711C30.157 117.881 30.2927 118.018 30.4602 118.018C30.6277 118.018 30.7634 117.881 30.7634 117.711V115.871Z" fill="#A15F29" fill-opacity="0.1"/>
<path opacity="0.369792" d="M35.6151 106.052C35.6151 105.883 35.4794 105.745 35.3119 105.745C35.1444 105.745 35.0087 105.883 35.0087 106.052V107.893C35.0087 108.062 35.1444 108.2 35.3119 108.2C35.4794 108.2 35.6151 108.062 35.6151 107.893V106.052Z" fill="#A15F29" fill-opacity="0.1"/>
<path opacity="0.369792" d="M34.4022 118.326C34.4022 118.156 34.2665 118.018 34.099 118.018C33.9315 118.018 33.7958 118.156 33.7958 118.326V120.166C33.7958 120.335 33.9315 120.473 34.099 120.473C34.2665 120.473 34.4022 120.335 34.4022 120.166V118.326Z" fill="#A15F29" fill-opacity="0.1"/>
<path opacity="0.369792" d="M33.1894 113.416C33.1894 113.246 33.0536 113.109 32.8861 113.109C32.7186 113.109 32.5829 113.246 32.5829 113.416V115.256C32.5829 115.426 32.7186 115.564 32.8861 115.564C33.0536 115.564 33.1894 115.426 33.1894 115.256V113.416Z" fill="#A15F29" fill-opacity="0.1"/>
<path opacity="0.369792" d="M39.2539 116.484C39.2539 116.315 39.1182 116.177 38.9507 116.177C38.7832 116.177 38.6475 116.315 38.6475 116.484V118.325C38.6475 118.494 38.7832 118.632 38.9507 118.632C39.1182 118.632 39.2539 118.494 39.2539 118.325V116.484Z" fill="#A15F29" fill-opacity="0.1"/>
<path opacity="0.369792" d="M39.2539 103.598C39.2539 103.428 39.1182 103.291 38.9507 103.291C38.7832 103.291 38.6475 103.428 38.6475 103.598V107.893C38.6475 108.062 38.7832 108.2 38.9507 108.2C39.1182 108.2 39.2539 108.062 39.2539 107.893V103.598Z" fill="#A15F29" fill-opacity="0.1"/>
<path opacity="0.369792" d="M38.0412 104.825C38.0412 104.655 37.9054 104.518 37.7379 104.518C37.5705 104.518 37.4347 104.655 37.4347 104.825V106.665C37.4347 106.835 37.5705 106.972 37.7379 106.972C37.9054 106.972 38.0412 106.835 38.0412 106.665V104.825Z" fill="#A15F29" fill-opacity="0.1"/>
<path opacity="0.369792" d="M30.7634 119.553C30.7634 119.383 30.6277 119.246 30.4602 119.246C30.2927 119.246 30.157 119.383 30.157 119.553V122.62C30.157 122.79 30.2927 122.928 30.4602 122.928C30.6277 122.928 30.7634 122.79 30.7634 122.62V119.553Z" fill="#A15F29" fill-opacity="0.1"/>
<path opacity="0.369792" d="M34.4022 113.416C34.4022 113.246 34.2665 113.109 34.099 113.109C33.9315 113.109 33.7958 113.246 33.7958 113.416V116.484C33.7958 116.653 33.9315 116.791 34.099 116.791C34.2665 116.791 34.4022 116.653 34.4022 116.484V113.416Z" fill="#A15F29" fill-opacity="0.1"/>
<path opacity="0.369792" d="M35.6151 122.621C35.6151 122.452 35.4794 122.314 35.3119 122.314C35.1444 122.314 35.0087 122.452 35.0087 122.621V124.461C35.0087 124.631 35.1444 124.769 35.3119 124.769C35.4794 124.769 35.6151 124.631 35.6151 124.461V122.621Z" fill="#A15F29" fill-opacity="0.1"/>
<path opacity="0.369792" d="M38.0412 115.871C38.0412 115.701 37.9054 115.564 37.7379 115.564C37.5705 115.564 37.4347 115.701 37.4347 115.871V118.938C37.4347 119.108 37.5705 119.246 37.7379 119.246C37.9054 119.246 38.0412 119.108 38.0412 118.938V115.871Z" fill="#A15F29" fill-opacity="0.1"/>
<path opacity="0.369792" d="M35.6151 109.734C35.6151 109.565 35.4794 109.427 35.3119 109.427C35.1444 109.427 35.0087 109.565 35.0087 109.734V112.802C35.0087 112.971 35.1444 113.109 35.3119 113.109C35.4794 113.109 35.6151 112.971 35.6151 112.802V109.734Z" fill="#A15F29" fill-opacity="0.1"/>
<path opacity="0.369792" d="M39.2539 119.553C39.2539 119.383 39.1182 119.246 38.9507 119.246C38.7832 119.246 38.6475 119.383 38.6475 119.553V122.62C38.6475 122.79 38.7832 122.928 38.9507 122.928C39.1182 122.928 39.2539 122.79 39.2539 122.62V119.553Z" fill="#A15F29" fill-opacity="0.1"/>
<path opacity="0.369792" fill-rule="evenodd" clip-rule="evenodd" d="M30.157 103.291H30.7634V105.439C30.7634 105.608 30.6283 105.745 30.4616 105.745H30.4588C30.2921 105.745 30.157 105.608 30.157 105.439V103.291Z" fill="#A15F29" fill-opacity="0.1"/>
<path opacity="0.369792" fill-rule="evenodd" clip-rule="evenodd" d="M32.5829 103.291H33.1894V104.212C33.1894 104.381 33.0542 104.518 32.8875 104.518H32.8847C32.718 104.518 32.5829 104.381 32.5829 104.212V103.291Z" fill="#A15F29" fill-opacity="0.1"/>
<path opacity="0.369792" fill-rule="evenodd" clip-rule="evenodd" d="M35.0087 103.291H35.6151V104.212C35.6151 104.381 35.48 104.518 35.3133 104.518H35.3105C35.1438 104.518 35.0087 104.381 35.0087 104.212V103.291Z" fill="#A15F29" fill-opacity="0.1"/>
<path opacity="0.369792" fill-rule="evenodd" clip-rule="evenodd" d="M30.7635 103.291H30.1571V101.142C30.1571 100.973 30.2922 100.836 30.4589 100.836H30.4617C30.6284 100.836 30.7635 100.973 30.7635 101.142V103.291Z" fill="#A15F29" fill-opacity="0.1"/>
<path opacity="0.369792" fill-rule="evenodd" clip-rule="evenodd" d="M33.1893 103.291H32.5829V99.9144C32.5829 99.7455 32.718 99.6086 32.8847 99.6086H32.8875C33.0542 99.6086 33.1893 99.7455 33.1893 99.9144V103.291Z" fill="#A15F29" fill-opacity="0.1"/>
<path opacity="0.369792" fill-rule="evenodd" clip-rule="evenodd" d="M35.6152 103.291H35.0088V102.369C35.0088 102.2 35.1439 102.063 35.3106 102.063H35.3134C35.4801 102.063 35.6152 102.2 35.6152 102.369V103.291Z" fill="#A15F29" fill-opacity="0.1"/>
</g>
<g opacity="0.3">
<path opacity="0.3" d="M37.4348 81.5059C37.4348 81.3363 37.5706 81.1987 37.738 81.1987C37.9055 81.1987 38.0413 81.3363 38.0413 81.5059V87.0281C38.0413 87.1978 37.9055 87.3353 37.738 87.3353C37.5706 87.3353 37.4348 87.1978 37.4348 87.0281V81.5059Z" fill="#A15F29" fill-opacity="0.1"/>
<path opacity="0.3" d="M28.9443 82.7332C28.9443 82.5636 29.0801 82.426 29.2475 82.426C29.415 82.426 29.5508 82.5636 29.5508 82.7332V88.2554C29.5508 88.4251 29.415 88.5626 29.2475 88.5626C29.0801 88.5626 28.9443 88.4251 28.9443 88.2554V82.7332Z" fill="#A15F29" fill-opacity="0.1"/>
<path opacity="0.3" d="M32.5831 68.0054C32.5831 67.8358 32.7189 67.6982 32.8863 67.6982C33.0538 67.6982 33.1896 67.8358 33.1896 68.0054V73.5276C33.1896 73.6973 33.0538 73.8348 32.8863 73.8348C32.7189 73.8348 32.5831 73.6973 32.5831 73.5276V68.0054Z" fill="#A15F29" fill-opacity="0.1"/>
<path opacity="0.3" d="M35.0089 68.0054C35.0089 67.8358 35.1447 67.6982 35.3121 67.6982C35.4796 67.6982 35.6154 67.8358 35.6154 68.0054V71.073C35.6154 71.2427 35.4796 71.3802 35.3121 71.3802C35.1447 71.3802 35.0089 71.2427 35.0089 71.073V68.0054Z" fill="#A15F29" fill-opacity="0.1"/>
<path opacity="0.3" d="M36.2219 86.4153C36.2219 86.2457 36.3577 86.1082 36.5251 86.1082C36.6926 86.1082 36.8284 86.2457 36.8284 86.4153V91.9375C36.8284 92.1072 36.6926 92.2447 36.5251 92.2447C36.3577 92.2447 36.2219 92.1072 36.2219 91.9375V86.4153Z" fill="#A15F29" fill-opacity="0.1"/>
<path opacity="0.3" d="M31.3702 76.5965C31.3702 76.4268 31.506 76.2893 31.6735 76.2893C31.8409 76.2893 31.9767 76.4268 31.9767 76.5965V82.1187C31.9767 82.2884 31.8409 82.4259 31.6735 82.4259C31.506 82.4259 31.3702 82.2884 31.3702 82.1187V76.5965Z" fill="#A15F29" fill-opacity="0.1"/>
<path opacity="0.3" d="M38.6477 82.7332C38.6477 82.5636 38.7834 82.426 38.9509 82.426C39.1184 82.426 39.2542 82.5636 39.2542 82.7332V85.8008C39.2542 85.9705 39.1184 86.108 38.9509 86.108C38.7834 86.108 38.6477 85.9705 38.6477 85.8008V82.7332Z" fill="#A15F29" fill-opacity="0.1"/>
<path opacity="0.3" d="M33.796 72.9149C33.796 72.7452 33.9318 72.6077 34.0992 72.6077C34.2667 72.6077 34.4025 72.7452 34.4025 72.9149V75.9824C34.4025 76.1521 34.2667 76.2896 34.0992 76.2896C33.9318 76.2896 33.796 76.1521 33.796 75.9824V72.9149Z" fill="#A15F29" fill-opacity="0.1"/>
<path opacity="0.3" d="M38.6477 70.46C38.6477 70.2904 38.7834 70.1528 38.9509 70.1528C39.1184 70.1528 39.2542 70.2904 39.2542 70.46V73.5276C39.2542 73.6972 39.1184 73.8348 38.9509 73.8348C38.7834 73.8348 38.6477 73.6972 38.6477 73.5276V70.46Z" fill="#A15F29" fill-opacity="0.1"/>
<path opacity="0.3" d="M36.2219 70.46C36.2219 70.2904 36.3577 70.1528 36.5251 70.1528C36.6926 70.1528 36.8284 70.2904 36.8284 70.46V73.5276C36.8284 73.6972 36.6926 73.8348 36.5251 73.8348C36.3577 73.8348 36.2219 73.6972 36.2219 73.5276V70.46Z" fill="#A15F29" fill-opacity="0.1"/>
<path opacity="0.3" d="M37.4348 66.7781C37.4348 66.6085 37.5706 66.4709 37.738 66.4709C37.9055 66.4709 38.0413 66.6085 38.0413 66.7781V69.8457C38.0413 70.0154 37.9055 70.1529 37.738 70.1529C37.5706 70.1529 37.4348 70.0154 37.4348 69.8457V66.7781Z" fill="#A15F29" fill-opacity="0.1"/>
<path opacity="0.3" d="M38.6477 88.8699C38.6477 88.7003 38.7834 88.5627 38.9509 88.5627C39.1184 88.5627 39.2542 88.7003 39.2542 88.8699V94.3921C39.2542 94.5618 39.1184 94.6993 38.9509 94.6993C38.7834 94.6993 38.6477 94.5618 38.6477 94.3921V88.8699Z" fill="#A15F29" fill-opacity="0.1"/>
<path opacity="0.3" d="M33.796 79.0513C33.796 78.8817 33.9318 78.7441 34.0992 78.7441C34.2667 78.7441 34.4025 78.8817 34.4025 79.0513V84.5735C34.4025 84.7432 34.2667 84.8807 34.0992 84.8807C33.9318 84.8807 33.796 84.7432 33.796 84.5735V79.0513Z" fill="#A15F29" fill-opacity="0.1"/>
<path opacity="0.3" d="M35.0089 90.0972C35.0089 89.9276 35.1447 89.79 35.3121 89.79C35.4796 89.79 35.6154 89.9276 35.6154 90.0972V96.2331C35.6154 96.4027 35.4796 96.5403 35.3121 96.5403C35.1447 96.5403 35.0089 96.4027 35.0089 96.2331V90.0972Z" fill="#A15F29" fill-opacity="0.1"/>
<path opacity="0.3" d="M30.1571 81.5059C30.1571 81.3363 30.2928 81.1987 30.4603 81.1987C30.6278 81.1987 30.7635 81.3363 30.7635 81.5059V87.6418C30.7635 87.8115 30.6278 87.949 30.4603 87.949C30.2928 87.949 30.1571 87.8115 30.1571 87.6418V81.5059Z" fill="#A15F29" fill-opacity="0.1"/>
<path opacity="0.3" d="M36.2219 77.824C36.2219 77.6544 36.3577 77.5168 36.5251 77.5168C36.6926 77.5168 36.8284 77.6544 36.8284 77.824V83.3462C36.8284 83.5159 36.6926 83.6534 36.5251 83.6534C36.3577 83.6534 36.2219 83.5159 36.2219 83.3462V77.824Z" fill="#A15F29" fill-opacity="0.1"/>
<path opacity="0.3" d="M31.3702 91.3245C31.3702 91.1549 31.506 91.0173 31.6735 91.0173C31.8409 91.0173 31.9767 91.1549 31.9767 91.3245V96.8467C31.9767 97.0164 31.8409 97.1539 31.6735 97.1539C31.506 97.1539 31.3702 97.0164 31.3702 96.8467V91.3245Z" fill="#A15F29" fill-opacity="0.1"/>
<path opacity="0.3" d="M32.5831 87.6424C32.5831 87.4727 32.7189 87.3352 32.8863 87.3352C33.0538 87.3352 33.1896 87.4727 33.1896 87.6424V93.1646C33.1896 93.3342 33.0538 93.4718 32.8863 93.4718C32.7189 93.4718 32.5831 93.3342 32.5831 93.1646V87.6424Z" fill="#A15F29" fill-opacity="0.1"/>
<path opacity="0.3" d="M31.3702 68.0054C31.3702 67.8358 31.506 67.6982 31.6735 67.6982C31.8409 67.6982 31.9767 67.8358 31.9767 68.0054V73.5276C31.9767 73.6973 31.8409 73.8348 31.6735 73.8348C31.506 73.8348 31.3702 73.6973 31.3702 73.5276V68.0054Z" fill="#A15F29" fill-opacity="0.1"/>
<path opacity="0.3" d="M35.0089 79.0513C35.0089 78.8817 35.1447 78.7441 35.3121 78.7441C35.4796 78.7441 35.6154 78.8817 35.6154 79.0513V84.5735C35.6154 84.7432 35.4796 84.8807 35.3121 84.8807C35.1447 84.8807 35.0089 84.7432 35.0089 84.5735V79.0513Z" fill="#A15F29" fill-opacity="0.1"/>
<path opacity="0.3" d="M30.1571 70.46C30.1571 70.2904 30.2928 70.1528 30.4603 70.1528C30.6278 70.1528 30.7635 70.2904 30.7635 70.46V75.9822C30.7635 76.1519 30.6278 76.2894 30.4603 76.2894C30.2928 76.2894 30.1571 76.1519 30.1571 75.9822V70.46Z" fill="#A15F29" fill-opacity="0.1"/>
<path opacity="0.3" d="M38.6477 77.824C38.6477 77.6544 38.7834 77.5168 38.9509 77.5168C39.1184 77.5168 39.2542 77.6544 39.2542 77.824V79.6643C39.2542 79.8339 39.1184 79.9715 38.9509 79.9715C38.7834 79.9715 38.6477 79.8339 38.6477 79.6643V77.824Z" fill="#A15F29" fill-opacity="0.1"/>
<path opacity="0.3" d="M30.1571 93.7791C30.1571 93.6095 30.2928 93.4719 30.4603 93.4719C30.6278 93.4719 30.7635 93.6095 30.7635 93.7791V95.6194C30.7635 95.789 30.6278 95.9266 30.4603 95.9266C30.2928 95.9266 30.1571 95.789 30.1571 95.6194V93.7791Z" fill="#A15F29" fill-opacity="0.1"/>
<path opacity="0.3" d="M36.2219 93.7791C36.2219 93.6095 36.3577 93.4719 36.5251 93.4719C36.6926 93.4719 36.8284 93.6095 36.8284 93.7791V96.8467C36.8284 97.0163 36.6926 97.1539 36.5251 97.1539C36.3577 97.1539 36.2219 97.0163 36.2219 96.8467V93.7791Z" fill="#A15F29" fill-opacity="0.1"/>
<path opacity="0.3" d="M33.796 94.3926C33.796 94.223 33.9318 94.0854 34.0992 94.0854C34.2667 94.0854 34.4025 94.223 34.4025 94.3926V97.4602C34.4025 97.6299 34.2667 97.7674 34.0992 97.7674C33.9318 97.7674 33.796 97.6299 33.796 97.4602V94.3926Z" fill="#A15F29" fill-opacity="0.1"/>
<path opacity="0.3" d="M31.3702 83.9608C31.3702 83.7911 31.506 83.6536 31.6735 83.6536C31.8409 83.6536 31.9767 83.7911 31.9767 83.9608V87.0283C31.9767 87.198 31.8409 87.3355 31.6735 87.3355C31.506 87.3355 31.3702 87.198 31.3702 87.0283V83.9608Z" fill="#A15F29" fill-opacity="0.1"/>
<path opacity="0.3" d="M37.4348 88.8699C37.4348 88.7003 37.5706 88.5627 37.738 88.5627C37.9055 88.5627 38.0413 88.7003 38.0413 88.8699V90.7102C38.0413 90.8798 37.9055 91.0174 37.738 91.0174C37.5706 91.0174 37.4348 90.8798 37.4348 90.7102V88.8699Z" fill="#A15F29" fill-opacity="0.1"/>
<path opacity="0.3" d="M32.5831 79.0513C32.5831 78.8817 32.7189 78.7441 32.8863 78.7441C33.0538 78.7441 33.1896 78.8817 33.1896 79.0513V80.8916C33.1896 81.0612 33.0538 81.1988 32.8863 81.1988C32.7189 81.1988 32.5831 81.0612 32.5831 80.8916V79.0513Z" fill="#A15F29" fill-opacity="0.1"/>
<path opacity="0.3" d="M33.796 91.3245C33.796 91.1549 33.9318 91.0173 34.0992 91.0173C34.2667 91.0173 34.4025 91.1549 34.4025 91.3245V93.1648C34.4025 93.3344 34.2667 93.472 34.0992 93.472C33.9318 93.472 33.796 93.3344 33.796 93.1648V91.3245Z" fill="#A15F29" fill-opacity="0.1"/>
<path opacity="0.3" d="M35.0089 86.4154C35.0089 86.2457 35.1447 86.1082 35.3121 86.1082C35.4796 86.1082 35.6154 86.2457 35.6154 86.4154V88.2556C35.6154 88.4253 35.4796 88.5628 35.3121 88.5628C35.1447 88.5628 35.0089 88.4253 35.0089 88.2556V86.4154Z" fill="#A15F29" fill-opacity="0.1"/>
<path opacity="0.3" d="M28.9443 89.4835C28.9443 89.3138 29.0801 89.1763 29.2475 89.1763C29.415 89.1763 29.5508 89.3138 29.5508 89.4835V91.3237C29.5508 91.4934 29.415 91.6309 29.2475 91.6309C29.0801 91.6309 28.9443 91.4934 28.9443 91.3237V89.4835Z" fill="#A15F29" fill-opacity="0.1"/>
<path opacity="0.3" d="M28.9443 76.5965C28.9443 76.4268 29.0801 76.2893 29.2475 76.2893C29.415 76.2893 29.5508 76.4268 29.5508 76.5965V80.8914C29.5508 81.061 29.415 81.1986 29.2475 81.1986C29.0801 81.1986 28.9443 81.061 28.9443 80.8914V76.5965Z" fill="#A15F29" fill-opacity="0.1"/>
<path opacity="0.3" d="M30.1571 77.824C30.1571 77.6544 30.2928 77.5168 30.4603 77.5168C30.6278 77.5168 30.7635 77.6544 30.7635 77.824V79.6643C30.7635 79.8339 30.6278 79.9715 30.4603 79.9715C30.2928 79.9715 30.1571 79.8339 30.1571 79.6643V77.824Z" fill="#A15F29" fill-opacity="0.1"/>
<path opacity="0.3" d="M37.4348 92.5518C37.4348 92.3822 37.5706 92.2446 37.738 92.2446C37.9055 92.2446 38.0413 92.3822 38.0413 92.5518V95.6194C38.0413 95.7891 37.9055 95.9266 37.738 95.9266C37.5706 95.9266 37.4348 95.7891 37.4348 95.6194V92.5518Z" fill="#A15F29" fill-opacity="0.1"/>
<path opacity="0.3" d="M33.796 86.4154C33.796 86.2457 33.9318 86.1082 34.0992 86.1082C34.2667 86.1082 34.4025 86.2457 34.4025 86.4154V89.4829C34.4025 89.6526 34.2667 89.7901 34.0992 89.7901C33.9318 89.7901 33.796 89.6526 33.796 89.4829V86.4154Z" fill="#A15F29" fill-opacity="0.1"/>
<path opacity="0.3" d="M32.5831 95.6202C32.5831 95.4505 32.7189 95.313 32.8863 95.313C33.0538 95.313 33.1896 95.4505 33.1896 95.6202V97.4605C33.1896 97.6301 33.0538 97.7677 32.8863 97.7677C32.7189 97.7677 32.5831 97.6301 32.5831 97.4605V95.6202Z" fill="#A15F29" fill-opacity="0.1"/>
<path opacity="0.3" d="M30.1571 88.8699C30.1571 88.7003 30.2928 88.5627 30.4603 88.5627C30.6278 88.5627 30.7635 88.7003 30.7635 88.8699V91.9375C30.7635 92.1072 30.6278 92.2447 30.4603 92.2447C30.2928 92.2447 30.1571 92.1072 30.1571 91.9375V88.8699Z" fill="#A15F29" fill-opacity="0.1"/>
<path opacity="0.3" d="M32.5831 82.7332C32.5831 82.5636 32.7189 82.426 32.8863 82.426C33.0538 82.426 33.1896 82.5636 33.1896 82.7332V85.8008C33.1896 85.9705 33.0538 86.108 32.8863 86.108C32.7189 86.108 32.5831 85.9705 32.5831 85.8008V82.7332Z" fill="#A15F29" fill-opacity="0.1"/>
<path opacity="0.3" d="M28.9443 92.5518C28.9443 92.3822 29.0801 92.2446 29.2475 92.2446C29.415 92.2446 29.5508 92.3822 29.5508 92.5518V95.6194C29.5508 95.7891 29.415 95.9266 29.2475 95.9266C29.0801 95.9266 28.9443 95.7891 28.9443 95.6194V92.5518Z" fill="#A15F29" fill-opacity="0.1"/>
<path opacity="0.3" fill-rule="evenodd" clip-rule="evenodd" d="M38.0413 76.2893H37.4348V78.4381C37.4348 78.607 37.5699 78.7439 37.7366 78.7439H37.7394C37.9061 78.7439 38.0413 78.607 38.0413 78.4381V76.2893Z" fill="#A15F29" fill-opacity="0.1"/>
<path opacity="0.3" fill-rule="evenodd" clip-rule="evenodd" d="M35.6154 76.2893H35.0089V77.2108C35.0089 77.3797 35.144 77.5166 35.3107 77.5166H35.3135C35.4802 77.5166 35.6154 77.3797 35.6154 77.2108V76.2893Z" fill="#A15F29" fill-opacity="0.1"/>
<path opacity="0.3" fill-rule="evenodd" clip-rule="evenodd" d="M33.1896 76.2893H32.5831V77.2108C32.5831 77.3797 32.7182 77.5166 32.885 77.5166H32.8877C33.0544 77.5166 33.1896 77.3797 33.1896 77.2108V76.2893Z" fill="#A15F29" fill-opacity="0.1"/>
<path opacity="0.3" fill-rule="evenodd" clip-rule="evenodd" d="M37.4347 76.2893H38.0412V74.1405C38.0412 73.9716 37.906 73.8347 37.7393 73.8347H37.7365C37.5698 73.8347 37.4347 73.9716 37.4347 74.1405V76.2893Z" fill="#A15F29" fill-opacity="0.1"/>
<path opacity="0.3" fill-rule="evenodd" clip-rule="evenodd" d="M35.0089 76.2893H35.6154V72.9131C35.6154 72.7443 35.4802 72.6073 35.3135 72.6073H35.3108C35.1441 72.6073 35.0089 72.7443 35.0089 72.9131V76.2893Z" fill="#A15F29" fill-opacity="0.1"/>
<path opacity="0.3" fill-rule="evenodd" clip-rule="evenodd" d="M32.583 76.2893H33.1895V75.3678C33.1895 75.1989 33.0543 75.062 32.8876 75.062H32.8849C32.7181 75.062 32.583 75.1989 32.583 75.3678V76.2893Z" fill="#A15F29" fill-opacity="0.1"/>
</g>
<g opacity="0.3">
<path opacity="0.3" d="M37.4348 48.9814C37.4348 49.151 37.5706 49.2886 37.738 49.2886C37.9055 49.2886 38.0413 49.151 38.0413 48.9814V43.4592C38.0413 43.2895 37.9055 43.152 37.738 43.152C37.5706 43.152 37.4348 43.2895 37.4348 43.4592V48.9814Z" fill="#A15F29" fill-opacity="0.1"/>
<path opacity="0.3" d="M28.9443 47.7541C28.9443 47.9237 29.0801 48.0613 29.2475 48.0613C29.415 48.0613 29.5508 47.9237 29.5508 47.7541V42.2319C29.5508 42.0622 29.415 41.9247 29.2475 41.9247C29.0801 41.9247 28.9443 42.0622 28.9443 42.2319V47.7541Z" fill="#A15F29" fill-opacity="0.1"/>
<path opacity="0.3" d="M32.5831 62.4819C32.5831 62.6515 32.7189 62.7891 32.8863 62.7891C33.0538 62.7891 33.1896 62.6515 33.1896 62.4819V56.9597C33.1896 56.79 33.0538 56.6525 32.8863 56.6525C32.7189 56.6525 32.5831 56.79 32.5831 56.9597V62.4819Z" fill="#A15F29" fill-opacity="0.1"/>
<path opacity="0.3" d="M35.0089 62.4819C35.0089 62.6515 35.1447 62.7891 35.3121 62.7891C35.4796 62.7891 35.6154 62.6515 35.6154 62.4819V59.4143C35.6154 59.2446 35.4796 59.1071 35.3121 59.1071C35.1447 59.1071 35.0089 59.2446 35.0089 59.4143V62.4819Z" fill="#A15F29" fill-opacity="0.1"/>
<path opacity="0.3" d="M36.2219 44.072C36.2219 44.2416 36.3577 44.3792 36.5251 44.3792C36.6926 44.3792 36.8284 44.2416 36.8284 44.072V38.5498C36.8284 38.3801 36.6926 38.2426 36.5251 38.2426C36.3577 38.2426 36.2219 38.3801 36.2219 38.5498V44.072Z" fill="#A15F29" fill-opacity="0.1"/>
<path opacity="0.3" d="M31.3702 53.8908C31.3702 54.0605 31.506 54.198 31.6735 54.198C31.8409 54.198 31.9767 54.0605 31.9767 53.8908V48.3686C31.9767 48.199 31.8409 48.0614 31.6735 48.0614C31.506 48.0614 31.3702 48.199 31.3702 48.3686V53.8908Z" fill="#A15F29" fill-opacity="0.1"/>
<path opacity="0.3" d="M38.6477 47.7541C38.6477 47.9237 38.7834 48.0613 38.9509 48.0613C39.1184 48.0613 39.2542 47.9237 39.2542 47.7541V44.6865C39.2542 44.5169 39.1184 44.3793 38.9509 44.3793C38.7834 44.3793 38.6477 44.5169 38.6477 44.6865V47.7541Z" fill="#A15F29" fill-opacity="0.1"/>
<path opacity="0.3" d="M33.796 57.5724C33.796 57.7421 33.9318 57.8796 34.0992 57.8796C34.2667 57.8796 34.4025 57.7421 34.4025 57.5724V54.5049C34.4025 54.3352 34.2667 54.1977 34.0992 54.1977C33.9318 54.1977 33.796 54.3352 33.796 54.5049V57.5724Z" fill="#A15F29" fill-opacity="0.1"/>
<path opacity="0.3" d="M38.6477 60.0273C38.6477 60.1969 38.7834 60.3345 38.9509 60.3345C39.1184 60.3345 39.2542 60.1969 39.2542 60.0273V56.9597C39.2542 56.7901 39.1184 56.6525 38.9509 56.6525C38.7834 56.6525 38.6477 56.7901 38.6477 56.9597V60.0273Z" fill="#A15F29" fill-opacity="0.1"/>
<path opacity="0.3" d="M36.2219 60.0273C36.2219 60.1969 36.3577 60.3345 36.5251 60.3345C36.6926 60.3345 36.8284 60.1969 36.8284 60.0273V56.9597C36.8284 56.7901 36.6926 56.6525 36.5251 56.6525C36.3577 56.6525 36.2219 56.7901 36.2219 56.9597V60.0273Z" fill="#A15F29" fill-opacity="0.1"/>
<path opacity="0.3" d="M37.4348 63.7092C37.4348 63.8788 37.5706 64.0164 37.738 64.0164C37.9055 64.0164 38.0413 63.8788 38.0413 63.7092V60.6416C38.0413 60.472 37.9055 60.3344 37.738 60.3344C37.5706 60.3344 37.4348 60.472 37.4348 60.6416V63.7092Z" fill="#A15F29" fill-opacity="0.1"/>
<path opacity="0.3" d="M38.6477 41.6174C38.6477 41.787 38.7834 41.9246 38.9509 41.9246C39.1184 41.9246 39.2542 41.787 39.2542 41.6174V36.0952C39.2542 35.9255 39.1184 35.788 38.9509 35.788C38.7834 35.788 38.6477 35.9255 38.6477 36.0952V41.6174Z" fill="#A15F29" fill-opacity="0.1"/>
<path opacity="0.3" d="M33.796 51.436C33.796 51.6056 33.9318 51.7432 34.0992 51.7432C34.2667 51.7432 34.4025 51.6056 34.4025 51.436V45.9138C34.4025 45.7441 34.2667 45.6066 34.0992 45.6066C33.9318 45.6066 33.796 45.7441 33.796 45.9138V51.436Z" fill="#A15F29" fill-opacity="0.1"/>
<path opacity="0.3" d="M35.0089 40.3901C35.0089 40.5597 35.1447 40.6973 35.3121 40.6973C35.4796 40.6973 35.6154 40.5597 35.6154 40.3901V34.2542C35.6154 34.0846 35.4796 33.947 35.3121 33.947C35.1447 33.947 35.0089 34.0846 35.0089 34.2542V40.3901Z" fill="#A15F29" fill-opacity="0.1"/>
<path opacity="0.3" d="M30.1571 48.9814C30.1571 49.151 30.2928 49.2886 30.4603 49.2886C30.6278 49.2886 30.7635 49.151 30.7635 48.9814V42.8455C30.7635 42.6759 30.6278 42.5383 30.4603 42.5383C30.2928 42.5383 30.1571 42.6759 30.1571 42.8455V48.9814Z" fill="#A15F29" fill-opacity="0.1"/>
<path opacity="0.3" d="M36.2219 52.6633C36.2219 52.8329 36.3577 52.9705 36.5251 52.9705C36.6926 52.9705 36.8284 52.8329 36.8284 52.6633V47.1411C36.8284 46.9714 36.6926 46.8339 36.5251 46.8339C36.3577 46.8339 36.2219 46.9714 36.2219 47.1411V52.6633Z" fill="#A15F29" fill-opacity="0.1"/>
<path opacity="0.3" d="M31.3702 39.1628C31.3702 39.3324 31.506 39.47 31.6735 39.47C31.8409 39.47 31.9767 39.3324 31.9767 39.1628V33.6406C31.9767 33.4709 31.8409 33.3334 31.6735 33.3334C31.506 33.3334 31.3702 33.4709 31.3702 33.6406V39.1628Z" fill="#A15F29" fill-opacity="0.1"/>
<path opacity="0.3" d="M32.5831 42.8449C32.5831 43.0146 32.7189 43.1521 32.8863 43.1521C33.0538 43.1521 33.1896 43.0146 33.1896 42.8449V37.3227C33.1896 37.1531 33.0538 37.0155 32.8863 37.0155C32.7189 37.0155 32.5831 37.1531 32.5831 37.3227V42.8449Z" fill="#A15F29" fill-opacity="0.1"/>
<path opacity="0.3" d="M31.3702 62.4819C31.3702 62.6515 31.506 62.7891 31.6735 62.7891C31.8409 62.7891 31.9767 62.6515 31.9767 62.4819V56.9597C31.9767 56.79 31.8409 56.6525 31.6735 56.6525C31.506 56.6525 31.3702 56.79 31.3702 56.9597V62.4819Z" fill="#A15F29" fill-opacity="0.1"/>
<path opacity="0.3" d="M35.0089 51.436C35.0089 51.6056 35.1447 51.7432 35.3121 51.7432C35.4796 51.7432 35.6154 51.6056 35.6154 51.436V45.9138C35.6154 45.7441 35.4796 45.6066 35.3121 45.6066C35.1447 45.6066 35.0089 45.7441 35.0089 45.9138V51.436Z" fill="#A15F29" fill-opacity="0.1"/>
<path opacity="0.3" d="M30.1571 60.0273C30.1571 60.1969 30.2928 60.3345 30.4603 60.3345C30.6278 60.3345 30.7635 60.1969 30.7635 60.0273V54.5051C30.7635 54.3354 30.6278 54.1979 30.4603 54.1979C30.2928 54.1979 30.1571 54.3354 30.1571 54.5051V60.0273Z" fill="#A15F29" fill-opacity="0.1"/>
<path opacity="0.3" d="M38.6477 52.6633C38.6477 52.8329 38.7834 52.9705 38.9509 52.9705C39.1184 52.9705 39.2542 52.8329 39.2542 52.6633V50.823C39.2542 50.6534 39.1184 50.5158 38.9509 50.5158C38.7834 50.5158 38.6477 50.6534 38.6477 50.823V52.6633Z" fill="#A15F29" fill-opacity="0.1"/>
<path opacity="0.3" d="M30.1571 36.7082C30.1571 36.8778 30.2928 37.0154 30.4603 37.0154C30.6278 37.0154 30.7635 36.8778 30.7635 36.7082V34.8679C30.7635 34.6983 30.6278 34.5607 30.4603 34.5607C30.2928 34.5607 30.1571 34.6983 30.1571 34.8679V36.7082Z" fill="#A15F29" fill-opacity="0.1"/>
<path opacity="0.3" d="M36.2219 36.7082C36.2219 36.8778 36.3577 37.0154 36.5251 37.0154C36.6926 37.0154 36.8284 36.8778 36.8284 36.7082V33.6406C36.8284 33.471 36.6926 33.3334 36.5251 33.3334C36.3577 33.3334 36.2219 33.471 36.2219 33.6406V36.7082Z" fill="#A15F29" fill-opacity="0.1"/>
<path opacity="0.3" d="M33.796 36.0944C33.796 36.2641 33.9318 36.4016 34.0992 36.4016C34.2667 36.4016 34.4025 36.2641 34.4025 36.0944V33.0269C34.4025 32.8572 34.2667 32.7197 34.0992 32.7197C33.9318 32.7197 33.796 32.8572 33.796 33.0269V36.0944Z" fill="#A15F29" fill-opacity="0.1"/>
<path opacity="0.3" d="M31.3702 46.5265C31.3702 46.6962 31.506 46.8337 31.6735 46.8337C31.8409 46.8337 31.9767 46.6962 31.9767 46.5265V43.459C31.9767 43.2893 31.8409 43.1518 31.6735 43.1518C31.506 43.1518 31.3702 43.2893 31.3702 43.459V46.5265Z" fill="#A15F29" fill-opacity="0.1"/>
<path opacity="0.3" d="M37.4348 41.6174C37.4348 41.787 37.5706 41.9246 37.738 41.9246C37.9055 41.9246 38.0413 41.787 38.0413 41.6174V39.7771C38.0413 39.6075 37.9055 39.4699 37.738 39.4699C37.5706 39.4699 37.4348 39.6075 37.4348 39.7771V41.6174Z" fill="#A15F29" fill-opacity="0.1"/>
<path opacity="0.3" d="M32.5831 51.436C32.5831 51.6056 32.7189 51.7432 32.8863 51.7432C33.0538 51.7432 33.1896 51.6056 33.1896 51.436V49.5957C33.1896 49.4261 33.0538 49.2885 32.8863 49.2885C32.7189 49.2885 32.5831 49.4261 32.5831 49.5957V51.436Z" fill="#A15F29" fill-opacity="0.1"/>
<path opacity="0.3" d="M33.796 39.1628C33.796 39.3324 33.9318 39.47 34.0992 39.47C34.2667 39.47 34.4025 39.3324 34.4025 39.1628V37.3225C34.4025 37.1529 34.2667 37.0153 34.0992 37.0153C33.9318 37.0153 33.796 37.1529 33.796 37.3225V39.1628Z" fill="#A15F29" fill-opacity="0.1"/>
<path opacity="0.3" d="M35.0089 44.072C35.0089 44.2416 35.1447 44.3792 35.3121 44.3792C35.4796 44.3792 35.6154 44.2416 35.6154 44.072V42.2317C35.6154 42.062 35.4796 41.9245 35.3121 41.9245C35.1447 41.9245 35.0089 42.062 35.0089 42.2317V44.072Z" fill="#A15F29" fill-opacity="0.1"/>
<path opacity="0.3" d="M28.9443 41.0038C28.9443 41.1735 29.0801 41.311 29.2475 41.311C29.415 41.311 29.5508 41.1735 29.5508 41.0038V39.1636C29.5508 38.9939 29.415 38.8564 29.2475 38.8564C29.0801 38.8564 28.9443 38.9939 28.9443 39.1636V41.0038Z" fill="#A15F29" fill-opacity="0.1"/>
<path opacity="0.3" d="M28.9443 53.8908C28.9443 54.0605 29.0801 54.198 29.2475 54.198C29.415 54.198 29.5508 54.0605 29.5508 53.8908V49.5959C29.5508 49.4263 29.415 49.2887 29.2475 49.2887C29.0801 49.2887 28.9443 49.4263 28.9443 49.5959V53.8908Z" fill="#A15F29" fill-opacity="0.1"/>
<path opacity="0.3" d="M30.1571 52.6633C30.1571 52.8329 30.2928 52.9705 30.4603 52.9705C30.6278 52.9705 30.7635 52.8329 30.7635 52.6633V50.823C30.7635 50.6534 30.6278 50.5158 30.4603 50.5158C30.2928 50.5158 30.1571 50.6534 30.1571 50.823V52.6633Z" fill="#A15F29" fill-opacity="0.1"/>
<path opacity="0.3" d="M37.4348 37.9355C37.4348 38.1051 37.5706 38.2427 37.738 38.2427C37.9055 38.2427 38.0413 38.1051 38.0413 37.9355V34.8679C38.0413 34.6983 37.9055 34.5607 37.738 34.5607C37.5706 34.5607 37.4348 34.6983 37.4348 34.8679V37.9355Z" fill="#A15F29" fill-opacity="0.1"/>
<path opacity="0.3" d="M33.796 44.072C33.796 44.2416 33.9318 44.3792 34.0992 44.3792C34.2667 44.3792 34.4025 44.2416 34.4025 44.072V41.0044C34.4025 40.8347 34.2667 40.6972 34.0992 40.6972C33.9318 40.6972 33.796 40.8347 33.796 41.0044V44.072Z" fill="#A15F29" fill-opacity="0.1"/>
<path opacity="0.3" d="M32.5831 34.8671C32.5831 35.0368 32.7189 35.1743 32.8863 35.1743C33.0538 35.1743 33.1896 35.0368 33.1896 34.8671V33.0269C33.1896 32.8572 33.0538 32.7197 32.8863 32.7197C32.7189 32.7197 32.5831 32.8572 32.5831 33.0269V34.8671Z" fill="#A15F29" fill-opacity="0.1"/>
<path opacity="0.3" d="M30.1571 41.6174C30.1571 41.787 30.2928 41.9246 30.4603 41.9246C30.6278 41.9246 30.7635 41.787 30.7635 41.6174V38.5498C30.7635 38.3801 30.6278 38.2426 30.4603 38.2426C30.2928 38.2426 30.1571 38.3801 30.1571 38.5498V41.6174Z" fill="#A15F29" fill-opacity="0.1"/>
<path opacity="0.3" d="M32.5831 47.7541C32.5831 47.9237 32.7189 48.0613 32.8863 48.0613C33.0538 48.0613 33.1896 47.9237 33.1896 47.7541V44.6865C33.1896 44.5169 33.0538 44.3793 32.8863 44.3793C32.7189 44.3793 32.5831 44.5169 32.5831 44.6865V47.7541Z" fill="#A15F29" fill-opacity="0.1"/>
<path opacity="0.3" d="M28.9443 37.9355C28.9443 38.1051 29.0801 38.2427 29.2475 38.2427C29.415 38.2427 29.5508 38.1051 29.5508 37.9355V34.8679C29.5508 34.6983 29.415 34.5607 29.2475 34.5607C29.0801 34.5607 28.9443 34.6983 28.9443 34.8679V37.9355Z" fill="#A15F29" fill-opacity="0.1"/>
<path opacity="0.3" fill-rule="evenodd" clip-rule="evenodd" d="M38.0413 54.198H37.4348V52.0492C37.4348 51.8803 37.5699 51.7434 37.7366 51.7434H37.7394C37.9061 51.7434 38.0413 51.8803 38.0413 52.0492V54.198Z" fill="#A15F29" fill-opacity="0.1"/>
<path opacity="0.3" fill-rule="evenodd" clip-rule="evenodd" d="M35.6154 54.198H35.0089V53.2765C35.0089 53.1076 35.144 52.9707 35.3107 52.9707H35.3135C35.4802 52.9707 35.6154 53.1076 35.6154 53.2765V54.198Z" fill="#A15F29" fill-opacity="0.1"/>
<path opacity="0.3" fill-rule="evenodd" clip-rule="evenodd" d="M33.1896 54.198H32.5831V53.2765C32.5831 53.1076 32.7182 52.9707 32.885 52.9707H32.8877C33.0544 52.9707 33.1896 53.1076 33.1896 53.2765V54.198Z" fill="#A15F29" fill-opacity="0.1"/>
<path opacity="0.3" fill-rule="evenodd" clip-rule="evenodd" d="M37.4347 54.198H38.0412V56.3468C38.0412 56.5157 37.906 56.6526 37.7393 56.6526H37.7365C37.5698 56.6526 37.4347 56.5157 37.4347 56.3468V54.198Z" fill="#A15F29" fill-opacity="0.1"/>
<path opacity="0.3" fill-rule="evenodd" clip-rule="evenodd" d="M35.0089 54.198H35.6154V57.5742C35.6154 57.7431 35.4802 57.88 35.3135 57.88H35.3108C35.1441 57.88 35.0089 57.7431 35.0089 57.5742V54.198Z" fill="#A15F29" fill-opacity="0.1"/>
<path opacity="0.3" fill-rule="evenodd" clip-rule="evenodd" d="M32.583 54.198H33.1895V55.1195C33.1895 55.2884 33.0543 55.4253 32.8876 55.4253H32.8849C32.7181 55.4253 32.583 55.2884 32.583 55.1195V54.198Z" fill="#A15F29" fill-opacity="0.1"/>
</g>
<path d="M56.8915 0.195801H11.9134C5.91196 0.195801 1.04688 5.12448 1.04688 11.2043V111.919C1.04688 117.999 5.91196 122.928 11.9134 122.928H56.8915C62.8929 122.928 67.758 117.999 67.758 111.919V11.2043C67.758 5.12448 62.8929 0.195801 56.8915 0.195801Z" fill="url(#paint6_linear)"/>
<path d="M56.8915 122.645H8.32439L41.7031 98.2085L67.7579 11.6932V111.636C67.7579 117.716 62.8928 122.645 56.8915 122.645Z" fill="url(#paint7_linear)" fill-opacity="0.15"/>
<path opacity="0.663342" d="M55.8476 0.195801C55.784 0.304014 7.66114 0.278294 7.66114 0.195801C-2.11573 0.195801 -0.0616757 16.0103 -0.0616757 75.093C-0.0616757 109.613 62.2481 146.607 62.2481 79.5274C62.2481 12.4481 64.8146 0.278294 55.8476 0.195801Z" fill="url(#paint8_radial)" fill-opacity="0.89"/>
<g opacity="0.592285" filter="url(#filter0_f)">
<path d="M59.2645 4.21997H9.45926C8.83246 4.21997 8.32434 4.73473 8.32434 5.36973C8.32434 6.00472 8.83246 6.51948 9.45926 6.51948H59.2645C59.8913 6.51948 60.3994 6.00472 60.3994 5.36973C60.3994 4.73473 59.8913 4.21997 59.2645 4.21997Z" fill="white"/>
</g>
<path d="M10.9124 32.8582C10.8182 32.8582 10.7947 32.817 10.8418 32.7552L11.336 32.199C11.3831 32.1371 11.5007 32.0959 11.5949 32.0959H19.9968C20.091 32.0959 20.1145 32.1577 20.0674 32.2196L19.6673 32.7552C19.6203 32.817 19.5026 32.8788 19.432 32.8788L10.9124 32.8582Z" fill="#00ACD7"/>
<path d="M7.43475 34.8358C7.34094 34.8358 7.31749 34.7935 7.36439 34.73L7.85687 34.1588C7.90377 34.0953 8.02103 34.053 8.11483 34.053H18.8086C18.9024 34.053 18.9493 34.1165 18.9259 34.1799L18.7383 34.6877C18.7148 34.7723 18.621 34.8147 18.5272 34.8147L7.43475 34.8358Z" fill="#00ACD7"/>
<path d="M12.8437 37.1636C12.75 37.1636 12.7266 37.1018 12.7734 37.04L13.1012 36.525C13.1481 36.4632 13.2417 36.4014 13.3354 36.4014H18.0186C18.1123 36.4014 18.1591 36.4632 18.1591 36.5456L18.1123 37.04C18.1123 37.1224 18.0186 37.1842 17.9483 37.1842L12.8437 37.1636Z" fill="#00ACD7"/>
<path d="M37.6077 32.379C36.1184 32.7643 35.1019 33.0534 33.6363 33.4388C33.2817 33.5351 33.258 33.5592 32.9507 33.1979C32.5961 32.7884 32.3361 32.5235 31.8397 32.2826C30.3504 31.5359 28.9084 31.7527 27.561 32.6439C25.9535 33.7037 25.1261 35.2694 25.1497 37.2204C25.1734 39.1474 26.4735 40.7372 28.341 41.0021C29.9485 41.2189 31.296 40.6408 32.3597 39.4124C32.5725 39.1474 32.7616 38.8584 32.998 38.5211C32.147 38.5211 31.0832 38.5211 28.4356 38.5211C27.9392 38.5211 27.821 38.208 27.9865 37.7985C28.2938 37.0518 28.8611 35.7993 29.1921 35.173C29.263 35.0285 29.4285 34.7877 29.783 34.7877C30.9887 34.7877 35.4329 34.7877 38.3878 34.7877C38.3405 35.438 38.3405 36.0884 38.2459 36.7387C37.9859 38.473 37.3476 40.0627 36.3075 41.4598C34.6055 43.748 32.3834 45.1692 29.5703 45.5546C27.2536 45.8677 25.1025 45.41 23.2113 43.9648C21.462 42.6159 20.4691 40.8335 20.2091 38.6175C19.9018 35.992 20.6583 33.6315 22.2185 31.56C23.8969 29.3199 26.119 27.8988 28.8375 27.3929C31.0596 26.9835 33.1871 27.2484 35.1019 28.5732C36.3548 29.4163 37.2531 30.5724 37.8441 31.9695C37.9859 32.1863 37.8913 32.3067 37.6077 32.379Z" fill="#00ACD7"/>
<path d="M45.4323 45.6992C43.2811 45.651 41.319 45.0248 39.6643 43.5795C38.2696 42.3511 37.3949 40.7854 37.1112 38.9307C36.6857 36.2089 37.4186 33.8002 39.026 31.6564C40.7517 29.3441 42.832 28.1397 45.645 27.6339C48.0563 27.2003 50.3256 27.4412 52.3822 28.8624C54.2498 30.1631 55.4081 31.9214 55.7154 34.2338C56.1173 37.4855 55.1953 40.1351 52.9969 42.3993C51.4367 44.0131 49.5219 45.0248 47.3234 45.4824C46.6852 45.6028 46.0469 45.6269 45.4323 45.6992ZM51.0584 35.968C51.0348 35.6549 51.0348 35.414 50.9875 35.1732C50.562 32.7885 48.4108 31.4397 46.1651 31.9696C43.9666 32.4754 42.5483 33.8965 42.0282 36.1607C41.6027 38.0395 42.501 39.9424 44.203 40.7132C45.5032 41.2913 46.8034 41.219 48.0563 40.5687C49.9238 39.5811 50.9402 38.0395 51.0584 35.968Z" fill="#00ACD7"/>
</g>
<defs>
<filter id="filter0_f" x="2.07434" y="-2.03003" width="64.5751" height="14.7995" filterUnits="userSpaceOnUse" color-interpolation-filters="sRGB">
<feFlood flood-opacity="0" result="BackgroundImageFix"/>
<feBlend mode="normal" in="SourceGraphic" in2="BackgroundImageFix" result="shape"/>
<feGaussianBlur stdDeviation="3.125" result="effect1_foregroundBlur"/>
</filter>
<linearGradient id="paint0_linear" x1="34.3502" y1="0.26052" x2="34.3502" y2="122.821" gradientUnits="userSpaceOnUse">
<stop offset="0.000158361" stop-color="#DFEBEA"/>
<stop offset="0.335594" stop-color="white"/>
<stop offset="1" stop-color="#F6F6F6"/>
</linearGradient>
<linearGradient id="paint1_linear" x1="34.3502" y1="91.0452" x2="34.3502" y2="122.821" gradientUnits="userSpaceOnUse">
<stop stop-color="#00ACD7"/>
<stop offset="1" stop-color="#0085A7"/>
</linearGradient>
<linearGradient id="paint2_linear" x1="34.4024" y1="0.195801" x2="34.4024" y2="70.9395" gradientUnits="userSpaceOnUse">
<stop stop-color="white"/>
<stop offset="1" stop-color="white" stop-opacity="0"/>
</linearGradient>
<linearGradient id="paint3_linear" x1="34.3619" y1="71.3184" x2="34.3619" y2="110.68" gradientUnits="userSpaceOnUse">
<stop stop-color="#00D6ED"/>
<stop offset="1" stop-color="#00ACD7"/>
</linearGradient>
<linearGradient id="paint4_linear" x1="34.3215" y1="0.195801" x2="34.3215" y2="44.3792" gradientUnits="userSpaceOnUse">
<stop stop-color="white"/>
<stop offset="0.576409" stop-color="white" stop-opacity="0"/>
</linearGradient>
<linearGradient id="paint5_linear" x1="34.3641" y1="71.5658" x2="35.216" y2="122.914" gradientUnits="userSpaceOnUse">
<stop stop-color="white" stop-opacity="0"/>
<stop offset="1" stop-color="white" stop-opacity="0.420782"/>
</linearGradient>
<linearGradient id="paint6_linear" x1="34.4024" y1="97.9368" x2="34.4024" y2="122.928" gradientUnits="userSpaceOnUse">
<stop stop-opacity="0"/>
<stop offset="1" stop-opacity="0.158517"/>
</linearGradient>
<linearGradient id="paint7_linear" x1="44.9415" y1="117" x2="33.3682" y2="101.527" gradientUnits="userSpaceOnUse">
<stop stop-color="#0626B8"/>
<stop offset="1" stop-color="#0626B8" stop-opacity="0"/>
</linearGradient>
<radialGradient id="paint8_radial" cx="0" cy="0" r="1" gradientUnits="userSpaceOnUse" gradientTransform="translate(31.1734 -5.9083) rotate(180) scale(36.4282 46.5222)">
<stop stop-color="white"/>
<stop offset="1" stop-color="white" stop-opacity="0"/>
</radialGradient>
<clipPath id="clip0">
<rect width="68" height="155" fill="white"/>
</clipPath>
</defs>
</svg>
