<svg width="68" height="155" viewBox="0 0 68 155" fill="none" xmlns="http://www.w3.org/2000/svg">
<g clip-path="url(#clip0)">
<path d="M40.6602 123.966C40.6602 120.573 37.9449 117.823 34.5955 117.823C31.2461 117.823 28.5309 120.573 28.5309 123.966V148.498C28.5309 151.891 31.2461 154.642 34.5955 154.642C37.9449 154.642 40.6602 151.891 40.6602 148.498V123.966Z" fill="#FFC99D"/>
<path d="M57.061 0H12.0255C6.02415 0 1.15906 4.92868 1.15906 11.0085V111.616C1.15906 117.696 6.02415 122.625 12.0255 122.625H57.061C63.0624 122.625 67.9275 117.696 67.9275 111.616V11.0085C67.9275 4.92868 63.0624 0 57.061 0Z" fill="url(#paint0_linear)" fill-opacity="0.8"/>
<path fill-rule="evenodd" clip-rule="evenodd" d="M1.15906 90.8494H67.9275V111.723C67.9275 117.803 63.0624 122.732 57.061 122.732H12.0255C6.02415 122.732 1.15906 117.803 1.15906 111.723V90.8494Z" fill="url(#paint1_linear)"/>
<path d="M11.865 0H58.292C63.6266 0 67.9511 4.38105 67.9511 9.78535V34.3981C67.9511 39.8024 63.6266 44.1834 58.292 44.1834H10.8991C5.56451 44.1834 1.23999 39.8024 1.23999 34.3981V10.7639C1.23999 4.81916 5.99696 0 11.865 0ZM12.1065 90.8492H57.0846C63.086 90.8492 67.9511 95.7779 67.9511 101.858V111.723C67.9511 117.803 63.086 122.732 57.0846 122.732H12.1065C6.10508 122.732 1.23999 117.803 1.23999 111.723V101.858C1.23999 95.7779 6.10508 90.8492 12.1065 90.8492Z" fill="url(#paint2_linear)" fill-opacity="0.1"/>
<mask id="mask0" mask-type="alpha" maskUnits="userSpaceOnUse" x="1" y="67" width="67" height="45">
<path d="M67.9275 67.4885H1.15906V111.095H67.9275V67.4885Z" fill="white"/>
</mask>
<g mask="url(#mask0)">
<path fill-rule="evenodd" clip-rule="evenodd" d="M1.15906 110.484C10.8181 97.971 21.6846 93.7334 33.7585 97.771C45.8324 101.809 57.2299 99.5938 67.951 91.1265V71.1226C57.2299 79.1978 45.8324 81.2167 33.7585 77.179C21.6846 73.1414 10.8181 77.5885 1.15906 90.5203V110.484Z" fill="url(#paint3_linear)"/>
</g>
<path d="M11.7841 0H58.2111C63.5456 0 67.8702 4.38105 67.8702 9.78535V34.3981C67.8702 39.8024 63.5456 44.1834 58.2111 44.1834H10.8181C5.48358 44.1834 1.15906 39.8024 1.15906 34.3981V10.7639C1.15906 4.81916 5.91603 0 11.7841 0Z" fill="url(#paint4_linear)" fill-opacity="0.1"/>
<path d="M33.3604 31.9102H35.8306C38.4979 31.9102 40.6602 34.1007 40.6602 36.8028V131.327C40.6602 132.003 40.1196 132.55 39.4528 132.55H29.7383C29.0714 132.55 28.5309 132.003 28.5309 131.327V36.8028C28.5309 34.1007 30.6931 31.9102 33.3604 31.9102Z" fill="#75675B" fill-opacity="0.33"/>
<path d="M41.873 54.002L27.3179 54.002L27.3179 122.732H41.873L41.873 54.002Z" fill="url(#paint5_linear)" fill-opacity="0.5"/>
<g opacity="0.701032">
<path opacity="0.701032" d="M30.9566 137.767C30.9566 137.597 30.8208 137.459 30.6533 137.459C30.4859 137.459 30.3501 137.597 30.3501 137.767V143.289C30.3501 143.459 30.4859 143.596 30.6533 143.596C30.8208 143.596 30.9566 143.459 30.9566 143.289V137.767Z" fill="#E49351" fill-opacity="0.25"/>
<path opacity="0.701032" d="M39.447 138.994C39.447 138.824 39.3113 138.687 39.1438 138.687C38.9763 138.687 38.8406 138.824 38.8406 138.994V144.516C38.8406 144.686 38.9763 144.823 39.1438 144.823C39.3113 144.823 39.447 144.686 39.447 144.516V138.994Z" fill="#E49351" fill-opacity="0.25"/>
<path opacity="0.701032" d="M35.8082 124.266C35.8082 124.097 35.6725 123.959 35.505 123.959C35.3375 123.959 35.2018 124.097 35.2018 124.266V129.788C35.2018 129.958 35.3375 130.096 35.505 130.096C35.6725 130.096 35.8082 129.958 35.8082 129.788V124.266Z" fill="#A15F29" fill-opacity="0.15"/>
<path opacity="0.701032" d="M33.3825 124.266C33.3825 124.097 33.2467 123.959 33.0792 123.959C32.9118 123.959 32.776 124.097 32.776 124.266V127.334C32.776 127.503 32.9118 127.641 33.0792 127.641C33.2467 127.641 33.3825 127.503 33.3825 127.334V124.266Z" fill="#A15F29" fill-opacity="0.15"/>
<path opacity="0.701032" d="M32.1695 142.676C32.1695 142.506 32.0337 142.369 31.8662 142.369C31.6988 142.369 31.563 142.506 31.563 142.676V148.198C31.563 148.368 31.6988 148.505 31.8662 148.505C32.0337 148.505 32.1695 148.368 32.1695 148.198V142.676Z" fill="#E49351" fill-opacity="0.25"/>
<path opacity="0.701032" d="M37.0211 132.857C37.0211 132.688 36.8854 132.55 36.7179 132.55C36.5504 132.55 36.4147 132.688 36.4147 132.857V138.38C36.4147 138.549 36.5504 138.687 36.7179 138.687C36.8854 138.687 37.0211 138.549 37.0211 138.38V132.857Z" fill="#E49351" fill-opacity="0.25"/>
<path opacity="0.701032" d="M29.7437 138.994C29.7437 138.824 29.6079 138.687 29.4404 138.687C29.273 138.687 29.1372 138.824 29.1372 138.994V142.062C29.1372 142.231 29.273 142.369 29.4404 142.369C29.6079 142.369 29.7437 142.231 29.7437 142.062V138.994Z" fill="#E49351" fill-opacity="0.25"/>
<path opacity="0.701032" d="M34.5954 129.175C34.5954 129.006 34.4596 128.868 34.2921 128.868C34.1247 128.868 33.9889 129.006 33.9889 129.175V132.243C33.9889 132.413 34.1247 132.55 34.2921 132.55C34.4596 132.55 34.5954 132.413 34.5954 132.243V129.175Z" fill="#A15F29" fill-opacity="0.15"/>
<path opacity="0.701032" d="M29.7437 126.721C29.7437 126.551 29.6079 126.414 29.4404 126.414C29.273 126.414 29.1372 126.551 29.1372 126.721V129.789C29.1372 129.958 29.273 130.096 29.4404 130.096C29.6079 130.096 29.7437 129.958 29.7437 129.789V126.721Z" fill="#A15F29" fill-opacity="0.15"/>
<path opacity="0.701032" d="M32.1695 126.721C32.1695 126.551 32.0337 126.414 31.8662 126.414C31.6988 126.414 31.563 126.551 31.563 126.721V129.789C31.563 129.958 31.6988 130.096 31.8662 130.096C32.0337 130.096 32.1695 129.958 32.1695 129.789V126.721Z" fill="#A15F29" fill-opacity="0.15"/>
<path opacity="0.701032" d="M30.9566 123.039C30.9566 122.869 30.8208 122.732 30.6533 122.732C30.4859 122.732 30.3501 122.869 30.3501 123.039V126.106C30.3501 126.276 30.4859 126.414 30.6533 126.414C30.8208 126.414 30.9566 126.276 30.9566 126.106V123.039Z" fill="#A15F29" fill-opacity="0.15"/>
<path opacity="0.701032" d="M29.7437 145.131C29.7437 144.961 29.6079 144.823 29.4404 144.823C29.273 144.823 29.1372 144.961 29.1372 145.131V150.653C29.1372 150.823 29.273 150.96 29.4404 150.96C29.6079 150.96 29.7437 150.823 29.7437 150.653V145.131Z" fill="#E49351" fill-opacity="0.25"/>
<path opacity="0.701032" d="M34.5954 135.312C34.5954 135.142 34.4596 135.005 34.2921 135.005C34.1247 135.005 33.9889 135.142 33.9889 135.312V140.834C33.9889 141.004 34.1247 141.141 34.2921 141.141C34.4596 141.141 34.5954 141.004 34.5954 140.834V135.312Z" fill="#E49351" fill-opacity="0.25"/>
<path opacity="0.701032" d="M33.3825 146.358C33.3825 146.188 33.2467 146.051 33.0792 146.051C32.9118 146.051 32.776 146.188 32.776 146.358V152.494C32.776 152.664 32.9118 152.801 33.0792 152.801C33.2467 152.801 33.3825 152.664 33.3825 152.494V146.358Z" fill="#E49351" fill-opacity="0.25"/>
<path opacity="0.701032" d="M38.2343 137.767C38.2343 137.597 38.0985 137.459 37.931 137.459C37.7636 137.459 37.6278 137.597 37.6278 137.767V143.903C37.6278 144.072 37.7636 144.21 37.931 144.21C38.0985 144.21 38.2343 144.072 38.2343 143.903V137.767Z" fill="#E49351" fill-opacity="0.25"/>
<path opacity="0.701032" d="M32.1695 134.085C32.1695 133.915 32.0337 133.778 31.8662 133.778C31.6988 133.778 31.563 133.915 31.563 134.085V139.607C31.563 139.777 31.6988 139.914 31.8662 139.914C32.0337 139.914 32.1695 139.777 32.1695 139.607V134.085Z" fill="#E49351" fill-opacity="0.25"/>
<path opacity="0.701032" d="M37.0211 147.585C37.0211 147.416 36.8854 147.278 36.7179 147.278C36.5504 147.278 36.4147 147.416 36.4147 147.585V153.107C36.4147 153.277 36.5504 153.415 36.7179 153.415C36.8854 153.415 37.0211 153.277 37.0211 153.107V147.585Z" fill="#E49351" fill-opacity="0.25"/>
<path opacity="0.701032" d="M35.8082 143.903C35.8082 143.734 35.6725 143.596 35.505 143.596C35.3375 143.596 35.2018 143.734 35.2018 143.903V149.426C35.2018 149.595 35.3375 149.733 35.505 149.733C35.6725 149.733 35.8082 149.595 35.8082 149.426V143.903Z" fill="#E49351" fill-opacity="0.25"/>
<path opacity="0.701032" d="M37.0211 124.266C37.0211 124.097 36.8854 123.959 36.7179 123.959C36.5504 123.959 36.4147 124.097 36.4147 124.266V129.788C36.4147 129.958 36.5504 130.096 36.7179 130.096C36.8854 130.096 37.0211 129.958 37.0211 129.788V124.266Z" fill="#A15F29" fill-opacity="0.15"/>
<path opacity="0.701032" d="M33.3825 135.312C33.3825 135.142 33.2467 135.005 33.0792 135.005C32.9118 135.005 32.776 135.142 32.776 135.312V140.834C32.776 141.004 32.9118 141.141 33.0792 141.141C33.2467 141.141 33.3825 141.004 33.3825 140.834V135.312Z" fill="#E49351" fill-opacity="0.25"/>
<path opacity="0.701032" d="M38.2343 126.721C38.2343 126.551 38.0985 126.414 37.931 126.414C37.7636 126.414 37.6278 126.551 37.6278 126.721V132.243C37.6278 132.413 37.7636 132.55 37.931 132.55C38.0985 132.55 38.2343 132.413 38.2343 132.243V126.721Z" fill="#A15F29" fill-opacity="0.15"/>
<path opacity="0.701032" d="M29.7437 134.085C29.7437 133.915 29.6079 133.778 29.4404 133.778C29.273 133.778 29.1372 133.915 29.1372 134.085V135.925C29.1372 136.095 29.273 136.232 29.4404 136.232C29.6079 136.232 29.7437 136.095 29.7437 135.925V134.085Z" fill="#E49351" fill-opacity="0.25"/>
<path opacity="0.701032" d="M38.2343 150.04C38.2343 149.87 38.0985 149.733 37.931 149.733C37.7636 149.733 37.6278 149.87 37.6278 150.04V151.88C37.6278 152.05 37.7636 152.187 37.931 152.187C38.0985 152.187 38.2343 152.05 38.2343 151.88V150.04Z" fill="#E49351" fill-opacity="0.25"/>
<path opacity="0.701032" d="M32.1695 150.04C32.1695 149.87 32.0337 149.733 31.8662 149.733C31.6988 149.733 31.563 149.87 31.563 150.04V153.107C31.563 153.277 31.6988 153.415 31.8662 153.415C32.0337 153.415 32.1695 153.277 32.1695 153.107V150.04Z" fill="#E49351" fill-opacity="0.25"/>
<path opacity="0.701032" d="M34.5954 150.653C34.5954 150.484 34.4596 150.346 34.2921 150.346C34.1247 150.346 33.9889 150.484 33.9889 150.653V153.721C33.9889 153.891 34.1247 154.028 34.2921 154.028C34.4596 154.028 34.5954 153.891 34.5954 153.721V150.653Z" fill="#E49351" fill-opacity="0.25"/>
<path opacity="0.701032" d="M37.0211 140.221C37.0211 140.052 36.8854 139.914 36.7179 139.914C36.5504 139.914 36.4147 140.052 36.4147 140.221V143.289C36.4147 143.458 36.5504 143.596 36.7179 143.596C36.8854 143.596 37.0211 143.458 37.0211 143.289V140.221Z" fill="#E49351" fill-opacity="0.25"/>
<path opacity="0.701032" d="M30.9566 145.131C30.9566 144.961 30.8208 144.823 30.6533 144.823C30.4859 144.823 30.3501 144.961 30.3501 145.131V146.971C30.3501 147.141 30.4859 147.278 30.6533 147.278C30.8208 147.278 30.9566 147.141 30.9566 146.971V145.131Z" fill="#E49351" fill-opacity="0.25"/>
<path opacity="0.701032" d="M35.8082 135.312C35.8082 135.142 35.6725 135.005 35.505 135.005C35.3375 135.005 35.2018 135.142 35.2018 135.312V137.152C35.2018 137.322 35.3375 137.46 35.505 137.46C35.6725 137.46 35.8082 137.322 35.8082 137.152V135.312Z" fill="#E49351" fill-opacity="0.25"/>
<path opacity="0.701032" d="M34.5954 147.585C34.5954 147.416 34.4596 147.278 34.2921 147.278C34.1247 147.278 33.9889 147.416 33.9889 147.585V149.426C33.9889 149.595 34.1247 149.733 34.2921 149.733C34.4596 149.733 34.5954 149.595 34.5954 149.426V147.585Z" fill="#E49351" fill-opacity="0.25"/>
<path opacity="0.701032" d="M33.3825 142.676C33.3825 142.506 33.2467 142.369 33.0792 142.369C32.9118 142.369 32.776 142.506 32.776 142.676V144.516C32.776 144.686 32.9118 144.823 33.0792 144.823C33.2467 144.823 33.3825 144.686 33.3825 144.516V142.676Z" fill="#E49351" fill-opacity="0.25"/>
<path opacity="0.701032" d="M39.447 145.744C39.447 145.575 39.3113 145.437 39.1438 145.437C38.9763 145.437 38.8406 145.575 38.8406 145.744V147.584C38.8406 147.754 38.9763 147.892 39.1438 147.892C39.3113 147.892 39.447 147.754 39.447 147.584V145.744Z" fill="#E49351" fill-opacity="0.25"/>
<path opacity="0.701032" d="M39.447 132.857C39.447 132.688 39.3113 132.55 39.1438 132.55C38.9763 132.55 38.8406 132.688 38.8406 132.857V137.152C38.8406 137.322 38.9763 137.46 39.1438 137.46C39.3113 137.46 39.447 137.322 39.447 137.152V132.857Z" fill="#E49351" fill-opacity="0.25"/>
<path opacity="0.701032" d="M38.2343 134.085C38.2343 133.915 38.0985 133.778 37.931 133.778C37.7636 133.778 37.6278 133.915 37.6278 134.085V135.925C37.6278 136.095 37.7636 136.232 37.931 136.232C38.0985 136.232 38.2343 136.095 38.2343 135.925V134.085Z" fill="#E49351" fill-opacity="0.25"/>
<path opacity="0.701032" d="M30.9566 148.813C30.9566 148.643 30.8208 148.505 30.6533 148.505C30.4859 148.505 30.3501 148.643 30.3501 148.813V151.88C30.3501 152.05 30.4859 152.187 30.6533 152.187C30.8208 152.187 30.9566 152.05 30.9566 151.88V148.813Z" fill="#E49351" fill-opacity="0.25"/>
<path opacity="0.701032" d="M34.5954 142.676C34.5954 142.506 34.4596 142.369 34.2921 142.369C34.1247 142.369 33.9889 142.506 33.9889 142.676V145.743C33.9889 145.913 34.1247 146.051 34.2921 146.051C34.4596 146.051 34.5954 145.913 34.5954 145.743V142.676Z" fill="#E49351" fill-opacity="0.25"/>
<path opacity="0.701032" d="M35.8082 151.881C35.8082 151.711 35.6725 151.574 35.505 151.574C35.3375 151.574 35.2018 151.711 35.2018 151.881V153.721C35.2018 153.891 35.3375 154.028 35.505 154.028C35.6725 154.028 35.8082 153.891 35.8082 153.721V151.881Z" fill="#E49351" fill-opacity="0.25"/>
<path opacity="0.701032" d="M38.2343 145.131C38.2343 144.961 38.0985 144.823 37.931 144.823C37.7636 144.823 37.6278 144.961 37.6278 145.131V148.198C37.6278 148.368 37.7636 148.505 37.931 148.505C38.0985 148.505 38.2343 148.368 38.2343 148.198V145.131Z" fill="#E49351" fill-opacity="0.25"/>
<path opacity="0.701032" d="M35.8082 138.994C35.8082 138.824 35.6725 138.687 35.505 138.687C35.3375 138.687 35.2018 138.824 35.2018 138.994V142.062C35.2018 142.231 35.3375 142.369 35.505 142.369C35.6725 142.369 35.8082 142.231 35.8082 142.062V138.994Z" fill="#E49351" fill-opacity="0.25"/>
<path opacity="0.701032" d="M39.447 148.813C39.447 148.643 39.3113 148.505 39.1438 148.505C38.9763 148.505 38.8406 148.643 38.8406 148.813V151.88C38.8406 152.05 38.9763 152.187 39.1438 152.187C39.3113 152.187 39.447 152.05 39.447 151.88V148.813Z" fill="#E49351" fill-opacity="0.25"/>
<path opacity="0.701032" fill-rule="evenodd" clip-rule="evenodd" d="M30.3501 132.55H30.9566V134.699C30.9566 134.868 30.8214 135.005 30.6547 135.005H30.6519C30.4852 135.005 30.3501 134.868 30.3501 134.699V132.55Z" fill="#E49351" fill-opacity="0.25"/>
<path opacity="0.701032" fill-rule="evenodd" clip-rule="evenodd" d="M32.776 132.55H33.3825V133.472C33.3825 133.641 33.2473 133.778 33.0806 133.778H33.0778C32.9111 133.778 32.776 133.641 32.776 133.472V132.55Z" fill="#E49351" fill-opacity="0.25"/>
<path opacity="0.701032" fill-rule="evenodd" clip-rule="evenodd" d="M35.2018 132.55H35.8082V133.472C35.8082 133.641 35.6731 133.778 35.5064 133.778H35.5036C35.3369 133.778 35.2018 133.641 35.2018 133.472V132.55Z" fill="#E49351" fill-opacity="0.25"/>
<path opacity="0.701032" fill-rule="evenodd" clip-rule="evenodd" d="M30.9567 132.55H30.3502V130.401C30.3502 130.233 30.4853 130.096 30.652 130.096H30.6548C30.8215 130.096 30.9567 130.233 30.9567 130.401V132.55Z" fill="#A15F29" fill-opacity="0.15"/>
<path opacity="0.701032" fill-rule="evenodd" clip-rule="evenodd" d="M33.3824 132.55H32.776V129.174C32.776 129.005 32.9111 128.868 33.0778 128.868H33.0806C33.2473 128.868 33.3824 129.005 33.3824 129.174V132.55Z" fill="#A15F29" fill-opacity="0.15"/>
<path opacity="0.701032" fill-rule="evenodd" clip-rule="evenodd" d="M35.8083 132.55H35.2019V131.629C35.2019 131.46 35.337 131.323 35.5037 131.323H35.5065C35.6732 131.323 35.8083 131.46 35.8083 131.629V132.55Z" fill="#A15F29" fill-opacity="0.15"/>
</g>
<g opacity="0.369792">
<path opacity="0.369792" d="M30.9566 108.311C30.9566 108.141 30.8208 108.004 30.6533 108.004C30.4859 108.004 30.3501 108.141 30.3501 108.311V113.833C30.3501 114.003 30.4859 114.141 30.6533 114.141C30.8208 114.141 30.9566 114.003 30.9566 113.833V108.311Z" fill="#A15F29" fill-opacity="0.1"/>
<path opacity="0.369792" d="M39.447 109.538C39.447 109.369 39.3113 109.231 39.1438 109.231C38.9763 109.231 38.8406 109.369 38.8406 109.538V115.061C38.8406 115.23 38.9763 115.368 39.1438 115.368C39.3113 115.368 39.447 115.23 39.447 115.061V109.538Z" fill="#A15F29" fill-opacity="0.1"/>
<path opacity="0.369792" d="M35.8082 94.8106C35.8082 94.641 35.6725 94.5034 35.505 94.5034C35.3375 94.5034 35.2018 94.641 35.2018 94.8106V100.333C35.2018 100.502 35.3375 100.64 35.505 100.64C35.6725 100.64 35.8082 100.502 35.8082 100.333V94.8106Z" fill="#A15F29" fill-opacity="0.1"/>
<path opacity="0.369792" d="M33.3825 94.8106C33.3825 94.641 33.2467 94.5034 33.0792 94.5034C32.9118 94.5034 32.776 94.641 32.776 94.8106V97.8782C32.776 98.0478 32.9118 98.1854 33.0792 98.1854C33.2467 98.1854 33.3825 98.0478 33.3825 97.8782V94.8106Z" fill="#A15F29" fill-opacity="0.1"/>
<path opacity="0.369792" d="M32.1695 113.22C32.1695 113.051 32.0337 112.913 31.8662 112.913C31.6988 112.913 31.563 113.051 31.563 113.22V118.742C31.563 118.912 31.6988 119.05 31.8662 119.05C32.0337 119.05 32.1695 118.912 32.1695 118.742V113.22Z" fill="#A15F29" fill-opacity="0.1"/>
<path opacity="0.369792" d="M37.0211 103.402C37.0211 103.232 36.8854 103.095 36.7179 103.095C36.5504 103.095 36.4147 103.232 36.4147 103.402V108.924C36.4147 109.094 36.5504 109.231 36.7179 109.231C36.8854 109.231 37.0211 109.094 37.0211 108.924V103.402Z" fill="#A15F29" fill-opacity="0.1"/>
<path opacity="0.369792" d="M29.7437 109.538C29.7437 109.369 29.6079 109.231 29.4404 109.231C29.273 109.231 29.1372 109.369 29.1372 109.538V112.606C29.1372 112.776 29.273 112.913 29.4404 112.913C29.6079 112.913 29.7437 112.776 29.7437 112.606V109.538Z" fill="#A15F29" fill-opacity="0.1"/>
<path opacity="0.369792" d="M34.5954 99.72C34.5954 99.5504 34.4596 99.4128 34.2921 99.4128C34.1247 99.4128 33.9889 99.5504 33.9889 99.72V102.788C33.9889 102.957 34.1247 103.095 34.2921 103.095C34.4596 103.095 34.5954 102.957 34.5954 102.788V99.72Z" fill="#A15F29" fill-opacity="0.1"/>
<path opacity="0.369792" d="M29.7437 97.2654C29.7437 97.0958 29.6079 96.9583 29.4404 96.9583C29.273 96.9583 29.1372 97.0958 29.1372 97.2654V100.333C29.1372 100.503 29.273 100.64 29.4404 100.64C29.6079 100.64 29.7437 100.503 29.7437 100.333V97.2654Z" fill="#A15F29" fill-opacity="0.1"/>
<path opacity="0.369792" d="M32.1695 97.2654C32.1695 97.0958 32.0337 96.9583 31.8662 96.9583C31.6988 96.9583 31.563 97.0958 31.563 97.2654V100.333C31.563 100.503 31.6988 100.64 31.8662 100.64C32.0337 100.64 32.1695 100.503 32.1695 100.333V97.2654Z" fill="#A15F29" fill-opacity="0.1"/>
<path opacity="0.369792" d="M30.9566 93.5833C30.9566 93.4137 30.8208 93.2761 30.6533 93.2761C30.4859 93.2761 30.3501 93.4137 30.3501 93.5833V96.6509C30.3501 96.8205 30.4859 96.9581 30.6533 96.9581C30.8208 96.9581 30.9566 96.8205 30.9566 96.6509V93.5833Z" fill="#A15F29" fill-opacity="0.1"/>
<path opacity="0.369792" d="M29.7437 115.675C29.7437 115.505 29.6079 115.368 29.4404 115.368C29.273 115.368 29.1372 115.505 29.1372 115.675V121.197C29.1372 121.367 29.273 121.505 29.4404 121.505C29.6079 121.505 29.7437 121.367 29.7437 121.197V115.675Z" fill="#A15F29" fill-opacity="0.1"/>
<path opacity="0.369792" d="M34.5954 105.857C34.5954 105.687 34.4596 105.549 34.2921 105.549C34.1247 105.549 33.9889 105.687 33.9889 105.857V111.379C33.9889 111.548 34.1247 111.686 34.2921 111.686C34.4596 111.686 34.5954 111.548 34.5954 111.379V105.857Z" fill="#A15F29" fill-opacity="0.1"/>
<path opacity="0.369792" d="M33.3825 116.902C33.3825 116.733 33.2467 116.595 33.0792 116.595C32.9118 116.595 32.776 116.733 32.776 116.902V123.038C32.776 123.208 32.9118 123.345 33.0792 123.345C33.2467 123.345 33.3825 123.208 33.3825 123.038V116.902Z" fill="#A15F29" fill-opacity="0.1"/>
<path opacity="0.369792" d="M38.2343 108.311C38.2343 108.141 38.0985 108.004 37.931 108.004C37.7636 108.004 37.6278 108.141 37.6278 108.311V114.447C37.6278 114.617 37.7636 114.754 37.931 114.754C38.0985 114.754 38.2343 114.617 38.2343 114.447V108.311Z" fill="#A15F29" fill-opacity="0.1"/>
<path opacity="0.369792" d="M32.1695 104.629C32.1695 104.46 32.0337 104.322 31.8662 104.322C31.6988 104.322 31.563 104.46 31.563 104.629V110.151C31.563 110.321 31.6988 110.459 31.8662 110.459C32.0337 110.459 32.1695 110.321 32.1695 110.151V104.629Z" fill="#A15F29" fill-opacity="0.1"/>
<path opacity="0.369792" d="M37.0211 118.13C37.0211 117.96 36.8854 117.823 36.7179 117.823C36.5504 117.823 36.4147 117.96 36.4147 118.13V123.652C36.4147 123.822 36.5504 123.959 36.7179 123.959C36.8854 123.959 37.0211 123.822 37.0211 123.652V118.13Z" fill="#A15F29" fill-opacity="0.1"/>
<path opacity="0.369792" d="M35.8082 114.448C35.8082 114.278 35.6725 114.14 35.505 114.14C35.3375 114.14 35.2018 114.278 35.2018 114.448V119.97C35.2018 120.139 35.3375 120.277 35.505 120.277C35.6725 120.277 35.8082 120.139 35.8082 119.97V114.448Z" fill="#A15F29" fill-opacity="0.1"/>
<path opacity="0.369792" d="M37.0211 94.8106C37.0211 94.641 36.8854 94.5034 36.7179 94.5034C36.5504 94.5034 36.4147 94.641 36.4147 94.8106V100.333C36.4147 100.502 36.5504 100.64 36.7179 100.64C36.8854 100.64 37.0211 100.502 37.0211 100.333V94.8106Z" fill="#A15F29" fill-opacity="0.1"/>
<path opacity="0.369792" d="M33.3825 105.857C33.3825 105.687 33.2467 105.549 33.0792 105.549C32.9118 105.549 32.776 105.687 32.776 105.857V111.379C32.776 111.548 32.9118 111.686 33.0792 111.686C33.2467 111.686 33.3825 111.548 33.3825 111.379V105.857Z" fill="#A15F29" fill-opacity="0.1"/>
<path opacity="0.369792" d="M38.2343 97.2654C38.2343 97.0958 38.0985 96.9583 37.931 96.9583C37.7636 96.9583 37.6278 97.0958 37.6278 97.2654V102.788C37.6278 102.957 37.7636 103.095 37.931 103.095C38.0985 103.095 38.2343 102.957 38.2343 102.788V97.2654Z" fill="#A15F29" fill-opacity="0.1"/>
<path opacity="0.369792" d="M29.7437 104.629C29.7437 104.46 29.6079 104.322 29.4404 104.322C29.273 104.322 29.1372 104.46 29.1372 104.629V106.469C29.1372 106.639 29.273 106.777 29.4404 106.777C29.6079 106.777 29.7437 106.639 29.7437 106.469V104.629Z" fill="#A15F29" fill-opacity="0.1"/>
<path opacity="0.369792" d="M38.2343 120.584C38.2343 120.415 38.0985 120.277 37.931 120.277C37.7636 120.277 37.6278 120.415 37.6278 120.584V122.425C37.6278 122.594 37.7636 122.732 37.931 122.732C38.0985 122.732 38.2343 122.594 38.2343 122.425V120.584Z" fill="#A15F29" fill-opacity="0.1"/>
<path opacity="0.369792" d="M32.1695 120.584C32.1695 120.415 32.0337 120.277 31.8662 120.277C31.6988 120.277 31.563 120.415 31.563 120.584V123.652C31.563 123.822 31.6988 123.959 31.8662 123.959C32.0337 123.959 32.1695 123.822 32.1695 123.652V120.584Z" fill="#A15F29" fill-opacity="0.1"/>
<path opacity="0.369792" d="M34.5954 121.198C34.5954 121.028 34.4596 120.891 34.2921 120.891C34.1247 120.891 33.9889 121.028 33.9889 121.198V124.265C33.9889 124.435 34.1247 124.573 34.2921 124.573C34.4596 124.573 34.5954 124.435 34.5954 124.265V121.198Z" fill="#A15F29" fill-opacity="0.1"/>
<path opacity="0.369792" d="M37.0211 110.766C37.0211 110.596 36.8854 110.458 36.7179 110.458C36.5504 110.458 36.4147 110.596 36.4147 110.766V113.833C36.4147 114.003 36.5504 114.14 36.7179 114.14C36.8854 114.14 37.0211 114.003 37.0211 113.833V110.766Z" fill="#A15F29" fill-opacity="0.1"/>
<path opacity="0.369792" d="M30.9566 115.675C30.9566 115.505 30.8208 115.368 30.6533 115.368C30.4859 115.368 30.3501 115.505 30.3501 115.675V117.515C30.3501 117.685 30.4859 117.823 30.6533 117.823C30.8208 117.823 30.9566 117.685 30.9566 117.515V115.675Z" fill="#A15F29" fill-opacity="0.1"/>
<path opacity="0.369792" d="M35.8082 105.857C35.8082 105.687 35.6725 105.549 35.505 105.549C35.3375 105.549 35.2018 105.687 35.2018 105.857V107.697C35.2018 107.866 35.3375 108.004 35.505 108.004C35.6725 108.004 35.8082 107.866 35.8082 107.697V105.857Z" fill="#A15F29" fill-opacity="0.1"/>
<path opacity="0.369792" d="M34.5954 118.13C34.5954 117.96 34.4596 117.823 34.2921 117.823C34.1247 117.823 33.9889 117.96 33.9889 118.13V119.97C33.9889 120.14 34.1247 120.277 34.2921 120.277C34.4596 120.277 34.5954 120.14 34.5954 119.97V118.13Z" fill="#A15F29" fill-opacity="0.1"/>
<path opacity="0.369792" d="M33.3825 113.22C33.3825 113.051 33.2467 112.913 33.0792 112.913C32.9118 112.913 32.776 113.051 32.776 113.22V115.061C32.776 115.23 32.9118 115.368 33.0792 115.368C33.2467 115.368 33.3825 115.23 33.3825 115.061V113.22Z" fill="#A15F29" fill-opacity="0.1"/>
<path opacity="0.369792" d="M39.447 116.289C39.447 116.119 39.3113 115.981 39.1438 115.981C38.9763 115.981 38.8406 116.119 38.8406 116.289V118.129C38.8406 118.299 38.9763 118.436 39.1438 118.436C39.3113 118.436 39.447 118.299 39.447 118.129V116.289Z" fill="#A15F29" fill-opacity="0.1"/>
<path opacity="0.369792" d="M39.447 103.402C39.447 103.232 39.3113 103.095 39.1438 103.095C38.9763 103.095 38.8406 103.232 38.8406 103.402V107.697C38.8406 107.866 38.9763 108.004 39.1438 108.004C39.3113 108.004 39.447 107.866 39.447 107.697V103.402Z" fill="#A15F29" fill-opacity="0.1"/>
<path opacity="0.369792" d="M38.2343 104.629C38.2343 104.46 38.0985 104.322 37.931 104.322C37.7636 104.322 37.6278 104.46 37.6278 104.629V106.469C37.6278 106.639 37.7636 106.777 37.931 106.777C38.0985 106.777 38.2343 106.639 38.2343 106.469V104.629Z" fill="#A15F29" fill-opacity="0.1"/>
<path opacity="0.369792" d="M30.9566 119.357C30.9566 119.187 30.8208 119.05 30.6533 119.05C30.4859 119.05 30.3501 119.187 30.3501 119.357V122.425C30.3501 122.594 30.4859 122.732 30.6533 122.732C30.8208 122.732 30.9566 122.594 30.9566 122.425V119.357Z" fill="#A15F29" fill-opacity="0.1"/>
<path opacity="0.369792" d="M34.5954 113.22C34.5954 113.051 34.4596 112.913 34.2921 112.913C34.1247 112.913 33.9889 113.051 33.9889 113.22V116.288C33.9889 116.457 34.1247 116.595 34.2921 116.595C34.4596 116.595 34.5954 116.457 34.5954 116.288V113.22Z" fill="#A15F29" fill-opacity="0.1"/>
<path opacity="0.369792" d="M35.8082 122.425C35.8082 122.256 35.6725 122.118 35.505 122.118C35.3375 122.118 35.2018 122.256 35.2018 122.425V124.266C35.2018 124.435 35.3375 124.573 35.505 124.573C35.6725 124.573 35.8082 124.435 35.8082 124.266V122.425Z" fill="#A15F29" fill-opacity="0.1"/>
<path opacity="0.369792" d="M38.2343 115.675C38.2343 115.505 38.0985 115.368 37.931 115.368C37.7636 115.368 37.6278 115.505 37.6278 115.675V118.743C37.6278 118.912 37.7636 119.05 37.931 119.05C38.0985 119.05 38.2343 118.912 38.2343 118.743V115.675Z" fill="#A15F29" fill-opacity="0.1"/>
<path opacity="0.369792" d="M35.8082 109.538C35.8082 109.369 35.6725 109.231 35.505 109.231C35.3375 109.231 35.2018 109.369 35.2018 109.538V112.606C35.2018 112.776 35.3375 112.913 35.505 112.913C35.6725 112.913 35.8082 112.776 35.8082 112.606V109.538Z" fill="#A15F29" fill-opacity="0.1"/>
<path opacity="0.369792" d="M39.447 119.357C39.447 119.187 39.3113 119.05 39.1438 119.05C38.9763 119.05 38.8406 119.187 38.8406 119.357V122.425C38.8406 122.594 38.9763 122.732 39.1438 122.732C39.3113 122.732 39.447 122.594 39.447 122.425V119.357Z" fill="#A15F29" fill-opacity="0.1"/>
<path opacity="0.369792" fill-rule="evenodd" clip-rule="evenodd" d="M30.3501 103.095H30.9566V105.244C30.9566 105.412 30.8214 105.549 30.6547 105.549H30.6519C30.4852 105.549 30.3501 105.412 30.3501 105.244V103.095Z" fill="#A15F29" fill-opacity="0.1"/>
<path opacity="0.369792" fill-rule="evenodd" clip-rule="evenodd" d="M32.776 103.095H33.3825V104.016C33.3825 104.185 33.2473 104.322 33.0806 104.322H33.0778C32.9111 104.322 32.776 104.185 32.776 104.016V103.095Z" fill="#A15F29" fill-opacity="0.1"/>
<path opacity="0.369792" fill-rule="evenodd" clip-rule="evenodd" d="M35.2018 103.095H35.8082V104.016C35.8082 104.185 35.6731 104.322 35.5064 104.322H35.5036C35.3369 104.322 35.2018 104.185 35.2018 104.016V103.095Z" fill="#A15F29" fill-opacity="0.1"/>
<path opacity="0.369792" fill-rule="evenodd" clip-rule="evenodd" d="M30.9567 103.095H30.3502V100.946C30.3502 100.777 30.4853 100.64 30.652 100.64H30.6548C30.8215 100.64 30.9567 100.777 30.9567 100.946V103.095Z" fill="#A15F29" fill-opacity="0.1"/>
<path opacity="0.369792" fill-rule="evenodd" clip-rule="evenodd" d="M33.3824 103.095H32.776V99.7186C32.776 99.5497 32.9111 99.4128 33.0778 99.4128H33.0806C33.2473 99.4128 33.3824 99.5497 33.3824 99.7186V103.095Z" fill="#A15F29" fill-opacity="0.1"/>
<path opacity="0.369792" fill-rule="evenodd" clip-rule="evenodd" d="M35.8083 103.095H35.2019V102.173C35.2019 102.004 35.337 101.867 35.5037 101.867H35.5065C35.6732 101.867 35.8083 102.004 35.8083 102.173V103.095Z" fill="#A15F29" fill-opacity="0.1"/>
</g>
<g opacity="0.3">
<path opacity="0.3" d="M37.6279 81.3101C37.6279 81.1405 37.7637 81.0029 37.9311 81.0029C38.0986 81.0029 38.2344 81.1405 38.2344 81.3101V86.8323C38.2344 87.002 38.0986 87.1395 37.9311 87.1395C37.7637 87.1395 37.6279 87.002 37.6279 86.8323V81.3101Z" fill="#A15F29" fill-opacity="0.1"/>
<path opacity="0.3" d="M29.1373 82.5374C29.1373 82.3678 29.2731 82.2302 29.4405 82.2302C29.608 82.2302 29.7438 82.3678 29.7438 82.5374V88.0596C29.7438 88.2293 29.608 88.3668 29.4405 88.3668C29.2731 88.3668 29.1373 88.2293 29.1373 88.0596V82.5374Z" fill="#A15F29" fill-opacity="0.1"/>
<path opacity="0.3" d="M32.7762 67.8096C32.7762 67.64 32.912 67.5024 33.0795 67.5024C33.2469 67.5024 33.3827 67.64 33.3827 67.8096V73.3318C33.3827 73.5015 33.2469 73.639 33.0795 73.639C32.912 73.639 32.7762 73.5015 32.7762 73.3318V67.8096Z" fill="#A15F29" fill-opacity="0.1"/>
<path opacity="0.3" d="M35.202 67.8096C35.202 67.64 35.3378 67.5024 35.5052 67.5024C35.6727 67.5024 35.8085 67.64 35.8085 67.8096V70.8772C35.8085 71.0469 35.6727 71.1844 35.5052 71.1844C35.3378 71.1844 35.202 71.0469 35.202 70.8772V67.8096Z" fill="#A15F29" fill-opacity="0.1"/>
<path opacity="0.3" d="M36.415 86.2193C36.415 86.0496 36.5508 85.9121 36.7182 85.9121C36.8857 85.9121 37.0215 86.0496 37.0215 86.2193V91.7415C37.0215 91.9111 36.8857 92.0487 36.7182 92.0487C36.5508 92.0487 36.415 91.9111 36.415 91.7415V86.2193Z" fill="#A15F29" fill-opacity="0.1"/>
<path opacity="0.3" d="M31.5633 76.4009C31.5633 76.2313 31.6991 76.0938 31.8666 76.0938C32.034 76.0938 32.1698 76.2313 32.1698 76.4009V81.9232C32.1698 82.0928 32.034 82.2303 31.8666 82.2303C31.6991 82.2303 31.5633 82.0928 31.5633 81.9232V76.4009Z" fill="#A15F29" fill-opacity="0.1"/>
<path opacity="0.3" d="M38.8408 82.5374C38.8408 82.3678 38.9766 82.2302 39.144 82.2302C39.3115 82.2302 39.4473 82.3678 39.4473 82.5374V85.605C39.4473 85.7746 39.3115 85.9122 39.144 85.9122C38.9766 85.9122 38.8408 85.7746 38.8408 85.605V82.5374Z" fill="#A15F29" fill-opacity="0.1"/>
<path opacity="0.3" d="M33.989 72.7191C33.989 72.5494 34.1248 72.4119 34.2922 72.4119C34.4597 72.4119 34.5955 72.5494 34.5955 72.7191V75.7866C34.5955 75.9563 34.4597 76.0938 34.2922 76.0938C34.1248 76.0938 33.989 75.9563 33.989 75.7866V72.7191Z" fill="#A15F29" fill-opacity="0.1"/>
<path opacity="0.3" d="M38.8408 70.2645C38.8408 70.0948 38.9766 69.9573 39.144 69.9573C39.3115 69.9573 39.4473 70.0948 39.4473 70.2645V73.332C39.4473 73.5017 39.3115 73.6392 39.144 73.6392C38.9766 73.6392 38.8408 73.5017 38.8408 73.332V70.2645Z" fill="#A15F29" fill-opacity="0.1"/>
<path opacity="0.3" d="M36.415 70.2645C36.415 70.0948 36.5508 69.9573 36.7182 69.9573C36.8857 69.9573 37.0215 70.0948 37.0215 70.2645V73.332C37.0215 73.5017 36.8857 73.6392 36.7182 73.6392C36.5508 73.6392 36.415 73.5017 36.415 73.332V70.2645Z" fill="#A15F29" fill-opacity="0.1"/>
<path opacity="0.3" d="M37.6279 66.5823C37.6279 66.4127 37.7637 66.2751 37.9311 66.2751C38.0986 66.2751 38.2344 66.4127 38.2344 66.5823V69.6499C38.2344 69.8196 38.0986 69.9571 37.9311 69.9571C37.7637 69.9571 37.6279 69.8196 37.6279 69.6499V66.5823Z" fill="#A15F29" fill-opacity="0.1"/>
<path opacity="0.3" d="M38.8408 88.6741C38.8408 88.5045 38.9766 88.3669 39.144 88.3669C39.3115 88.3669 39.4473 88.5045 39.4473 88.6741V94.1963C39.4473 94.366 39.3115 94.5035 39.144 94.5035C38.9766 94.5035 38.8408 94.366 38.8408 94.1963V88.6741Z" fill="#A15F29" fill-opacity="0.1"/>
<path opacity="0.3" d="M33.989 78.8555C33.989 78.6859 34.1248 78.5483 34.2922 78.5483C34.4597 78.5483 34.5955 78.6859 34.5955 78.8555V84.3777C34.5955 84.5474 34.4597 84.6849 34.2922 84.6849C34.1248 84.6849 33.989 84.5474 33.989 84.3777V78.8555Z" fill="#A15F29" fill-opacity="0.1"/>
<path opacity="0.3" d="M35.202 89.9014C35.202 89.7318 35.3378 89.5942 35.5052 89.5942C35.6727 89.5942 35.8085 89.7318 35.8085 89.9014V96.0373C35.8085 96.2069 35.6727 96.3444 35.5052 96.3444C35.3378 96.3444 35.202 96.2069 35.202 96.0373V89.9014Z" fill="#A15F29" fill-opacity="0.1"/>
<path opacity="0.3" d="M30.3502 81.3101C30.3502 81.1405 30.486 81.0029 30.6534 81.0029C30.8209 81.0029 30.9567 81.1405 30.9567 81.3101V87.4459C30.9567 87.6156 30.8209 87.7531 30.6534 87.7531C30.486 87.7531 30.3502 87.6156 30.3502 87.4459V81.3101Z" fill="#A15F29" fill-opacity="0.1"/>
<path opacity="0.3" d="M36.415 77.6282C36.415 77.4586 36.5508 77.321 36.7182 77.321C36.8857 77.321 37.0215 77.4586 37.0215 77.6282V83.1504C37.0215 83.3201 36.8857 83.4576 36.7182 83.4576C36.5508 83.4576 36.415 83.3201 36.415 83.1504V77.6282Z" fill="#A15F29" fill-opacity="0.1"/>
<path opacity="0.3" d="M31.5633 91.1287C31.5633 90.9591 31.6991 90.8215 31.8666 90.8215C32.034 90.8215 32.1698 90.9591 32.1698 91.1287V96.6509C32.1698 96.8206 32.034 96.9581 31.8666 96.9581C31.6991 96.9581 31.5633 96.8206 31.5633 96.6509V91.1287Z" fill="#A15F29" fill-opacity="0.1"/>
<path opacity="0.3" d="M32.7762 87.4466C32.7762 87.2769 32.912 87.1394 33.0795 87.1394C33.2469 87.1394 33.3827 87.2769 33.3827 87.4466V92.9688C33.3827 93.1385 33.2469 93.276 33.0795 93.276C32.912 93.276 32.7762 93.1385 32.7762 92.9688V87.4466Z" fill="#A15F29" fill-opacity="0.1"/>
<path opacity="0.3" d="M31.5633 67.8096C31.5633 67.64 31.6991 67.5024 31.8666 67.5024C32.034 67.5024 32.1698 67.64 32.1698 67.8096V73.3318C32.1698 73.5015 32.034 73.639 31.8666 73.639C31.6991 73.639 31.5633 73.5015 31.5633 73.3318V67.8096Z" fill="#A15F29" fill-opacity="0.1"/>
<path opacity="0.3" d="M35.202 78.8555C35.202 78.6859 35.3378 78.5483 35.5052 78.5483C35.6727 78.5483 35.8085 78.6859 35.8085 78.8555V84.3777C35.8085 84.5474 35.6727 84.6849 35.5052 84.6849C35.3378 84.6849 35.202 84.5474 35.202 84.3777V78.8555Z" fill="#A15F29" fill-opacity="0.1"/>
<path opacity="0.3" d="M30.3502 70.2645C30.3502 70.0948 30.486 69.9573 30.6534 69.9573C30.8209 69.9573 30.9567 70.0948 30.9567 70.2645V75.7867C30.9567 75.9563 30.8209 76.0939 30.6534 76.0939C30.486 76.0939 30.3502 75.9563 30.3502 75.7867V70.2645Z" fill="#A15F29" fill-opacity="0.1"/>
<path opacity="0.3" d="M38.8408 77.6282C38.8408 77.4586 38.9766 77.321 39.144 77.321C39.3115 77.321 39.4473 77.4586 39.4473 77.6282V79.4685C39.4473 79.6381 39.3115 79.7757 39.144 79.7757C38.9766 79.7757 38.8408 79.6381 38.8408 79.4685V77.6282Z" fill="#A15F29" fill-opacity="0.1"/>
<path opacity="0.3" d="M30.3502 93.5833C30.3502 93.4137 30.486 93.2761 30.6534 93.2761C30.8209 93.2761 30.9567 93.4137 30.9567 93.5833V95.4236C30.9567 95.5932 30.8209 95.7308 30.6534 95.7308C30.486 95.7308 30.3502 95.5932 30.3502 95.4236V93.5833Z" fill="#A15F29" fill-opacity="0.1"/>
<path opacity="0.3" d="M36.415 93.5833C36.415 93.4137 36.5508 93.2761 36.7182 93.2761C36.8857 93.2761 37.0215 93.4137 37.0215 93.5833V96.6509C37.0215 96.8205 36.8857 96.9581 36.7182 96.9581C36.5508 96.9581 36.415 96.8205 36.415 96.6509V93.5833Z" fill="#A15F29" fill-opacity="0.1"/>
<path opacity="0.3" d="M33.989 94.1968C33.989 94.0272 34.1248 93.8896 34.2922 93.8896C34.4597 93.8896 34.5955 94.0272 34.5955 94.1968V97.2644C34.5955 97.4341 34.4597 97.5716 34.2922 97.5716C34.1248 97.5716 33.989 97.4341 33.989 97.2644V94.1968Z" fill="#A15F29" fill-opacity="0.1"/>
<path opacity="0.3" d="M31.5633 83.7647C31.5633 83.5951 31.6991 83.4575 31.8666 83.4575C32.034 83.4575 32.1698 83.5951 32.1698 83.7647V86.8323C32.1698 87.0019 32.034 87.1395 31.8666 87.1395C31.6991 87.1395 31.5633 87.0019 31.5633 86.8323V83.7647Z" fill="#A15F29" fill-opacity="0.1"/>
<path opacity="0.3" d="M37.6279 88.6741C37.6279 88.5045 37.7637 88.3669 37.9311 88.3669C38.0986 88.3669 38.2344 88.5045 38.2344 88.6741V90.5144C38.2344 90.684 38.0986 90.8216 37.9311 90.8216C37.7637 90.8216 37.6279 90.684 37.6279 90.5144V88.6741Z" fill="#A15F29" fill-opacity="0.1"/>
<path opacity="0.3" d="M32.7762 78.8555C32.7762 78.6859 32.912 78.5483 33.0795 78.5483C33.2469 78.5483 33.3827 78.6859 33.3827 78.8555V80.6958C33.3827 80.8655 33.2469 81.003 33.0795 81.003C32.912 81.003 32.7762 80.8655 32.7762 80.6958V78.8555Z" fill="#A15F29" fill-opacity="0.1"/>
<path opacity="0.3" d="M33.989 91.1287C33.989 90.9591 34.1248 90.8215 34.2922 90.8215C34.4597 90.8215 34.5955 90.9591 34.5955 91.1287V92.969C34.5955 93.1386 34.4597 93.2762 34.2922 93.2762C34.1248 93.2762 33.989 93.1386 33.989 92.969V91.1287Z" fill="#A15F29" fill-opacity="0.1"/>
<path opacity="0.3" d="M35.202 86.2193C35.202 86.0496 35.3378 85.9121 35.5052 85.9121C35.6727 85.9121 35.8085 86.0496 35.8085 86.2193V88.0595C35.8085 88.2292 35.6727 88.3667 35.5052 88.3667C35.3378 88.3667 35.202 88.2292 35.202 88.0595V86.2193Z" fill="#A15F29" fill-opacity="0.1"/>
<path opacity="0.3" d="M29.1373 89.2877C29.1373 89.118 29.2731 88.9805 29.4405 88.9805C29.608 88.9805 29.7438 89.118 29.7438 89.2877V91.1279C29.7438 91.2976 29.608 91.4351 29.4405 91.4351C29.2731 91.4351 29.1373 91.2976 29.1373 91.1279V89.2877Z" fill="#A15F29" fill-opacity="0.1"/>
<path opacity="0.3" d="M29.1373 76.4009C29.1373 76.2313 29.2731 76.0938 29.4405 76.0938C29.608 76.0938 29.7438 76.2313 29.7438 76.4009V80.6958C29.7438 80.8655 29.608 81.003 29.4405 81.003C29.2731 81.003 29.1373 80.8655 29.1373 80.6958V76.4009Z" fill="#A15F29" fill-opacity="0.1"/>
<path opacity="0.3" d="M30.3502 77.6282C30.3502 77.4586 30.486 77.321 30.6534 77.321C30.8209 77.321 30.9567 77.4586 30.9567 77.6282V79.4685C30.9567 79.6381 30.8209 79.7757 30.6534 79.7757C30.486 79.7757 30.3502 79.6381 30.3502 79.4685V77.6282Z" fill="#A15F29" fill-opacity="0.1"/>
<path opacity="0.3" d="M37.6279 92.356C37.6279 92.1864 37.7637 92.0488 37.9311 92.0488C38.0986 92.0488 38.2344 92.1864 38.2344 92.356V95.4236C38.2344 95.5932 38.0986 95.7308 37.9311 95.7308C37.7637 95.7308 37.6279 95.5932 37.6279 95.4236V92.356Z" fill="#A15F29" fill-opacity="0.1"/>
<path opacity="0.3" d="M33.989 86.2193C33.989 86.0496 34.1248 85.9121 34.2922 85.9121C34.4597 85.9121 34.5955 86.0496 34.5955 86.2193V89.2869C34.5955 89.4565 34.4597 89.5941 34.2922 89.5941C34.1248 89.5941 33.989 89.4565 33.989 89.2869V86.2193Z" fill="#A15F29" fill-opacity="0.1"/>
<path opacity="0.3" d="M32.7762 95.4244C32.7762 95.2547 32.912 95.1172 33.0795 95.1172C33.2469 95.1172 33.3827 95.2547 33.3827 95.4244V97.2646C33.3827 97.4343 33.2469 97.5718 33.0795 97.5718C32.912 97.5718 32.7762 97.4343 32.7762 97.2646V95.4244Z" fill="#A15F29" fill-opacity="0.1"/>
<path opacity="0.3" d="M30.3502 88.6741C30.3502 88.5045 30.486 88.3669 30.6534 88.3669C30.8209 88.3669 30.9567 88.5045 30.9567 88.6741V91.7417C30.9567 91.9114 30.8209 92.0489 30.6534 92.0489C30.486 92.0489 30.3502 91.9114 30.3502 91.7417V88.6741Z" fill="#A15F29" fill-opacity="0.1"/>
<path opacity="0.3" d="M32.7762 82.5374C32.7762 82.3678 32.912 82.2302 33.0795 82.2302C33.2469 82.2302 33.3827 82.3678 33.3827 82.5374V85.605C33.3827 85.7746 33.2469 85.9122 33.0795 85.9122C32.912 85.9122 32.7762 85.7746 32.7762 85.605V82.5374Z" fill="#A15F29" fill-opacity="0.1"/>
<path opacity="0.3" d="M29.1373 92.356C29.1373 92.1864 29.2731 92.0488 29.4405 92.0488C29.608 92.0488 29.7438 92.1864 29.7438 92.356V95.4236C29.7438 95.5932 29.608 95.7308 29.4405 95.7308C29.2731 95.7308 29.1373 95.5932 29.1373 95.4236V92.356Z" fill="#A15F29" fill-opacity="0.1"/>
<path opacity="0.3" fill-rule="evenodd" clip-rule="evenodd" d="M38.2344 76.0938H37.6279V78.2426C37.6279 78.4115 37.763 78.5484 37.9298 78.5484H37.9325C38.0992 78.5484 38.2344 78.4115 38.2344 78.2426V76.0938Z" fill="#A15F29" fill-opacity="0.1"/>
<path opacity="0.3" fill-rule="evenodd" clip-rule="evenodd" d="M35.8085 76.0938H35.202V77.0153C35.202 77.1842 35.3372 77.3211 35.5039 77.3211H35.5066C35.6733 77.3211 35.8085 77.1842 35.8085 77.0153V76.0938Z" fill="#A15F29" fill-opacity="0.1"/>
<path opacity="0.3" fill-rule="evenodd" clip-rule="evenodd" d="M33.3827 76.0938H32.7762V77.0153C32.7762 77.1842 32.9114 77.3211 33.0781 77.3211H33.0808C33.2475 77.3211 33.3827 77.1842 33.3827 77.0153V76.0938Z" fill="#A15F29" fill-opacity="0.1"/>
<path opacity="0.3" fill-rule="evenodd" clip-rule="evenodd" d="M37.6278 76.0938H38.2343V73.9449C38.2343 73.776 38.0991 73.6391 37.9324 73.6391H37.9297C37.7629 73.6391 37.6278 73.776 37.6278 73.9449V76.0938Z" fill="#A15F29" fill-opacity="0.1"/>
<path opacity="0.3" fill-rule="evenodd" clip-rule="evenodd" d="M35.202 76.0938H35.8085V72.7176C35.8085 72.5487 35.6734 72.4118 35.5066 72.4118H35.5039C35.3372 72.4118 35.202 72.5487 35.202 72.7176V76.0938Z" fill="#A15F29" fill-opacity="0.1"/>
<path opacity="0.3" fill-rule="evenodd" clip-rule="evenodd" d="M32.7761 76.0938H33.3826V75.1722C33.3826 75.0033 33.2474 74.8664 33.0807 74.8664H33.078C32.9113 74.8664 32.7761 75.0033 32.7761 75.1722V76.0938Z" fill="#A15F29" fill-opacity="0.1"/>
</g>
<g opacity="0.3">
<path opacity="0.3" d="M37.6279 48.7856C37.6279 48.9552 37.7637 49.0928 37.9311 49.0928C38.0986 49.0928 38.2344 48.9552 38.2344 48.7856V43.2634C38.2344 43.0937 38.0986 42.9562 37.9311 42.9562C37.7637 42.9562 37.6279 43.0937 37.6279 43.2634V48.7856Z" fill="#A15F29" fill-opacity="0.1"/>
<path opacity="0.3" d="M29.1373 47.5583C29.1373 47.7279 29.2731 47.8655 29.4405 47.8655C29.608 47.8655 29.7438 47.7279 29.7438 47.5583V42.0361C29.7438 41.8664 29.608 41.7289 29.4405 41.7289C29.2731 41.7289 29.1373 41.8664 29.1373 42.0361V47.5583Z" fill="#A15F29" fill-opacity="0.1"/>
<path opacity="0.3" d="M32.7762 62.2861C32.7762 62.4557 32.912 62.5933 33.0795 62.5933C33.2469 62.5933 33.3827 62.4557 33.3827 62.2861V56.7639C33.3827 56.5942 33.2469 56.4567 33.0795 56.4567C32.912 56.4567 32.7762 56.5942 32.7762 56.7639V62.2861Z" fill="#A15F29" fill-opacity="0.1"/>
<path opacity="0.3" d="M35.202 62.2861C35.202 62.4557 35.3378 62.5933 35.5052 62.5933C35.6727 62.5933 35.8085 62.4557 35.8085 62.2861V59.2185C35.8085 59.0489 35.6727 58.9113 35.5052 58.9113C35.3378 58.9113 35.202 59.0489 35.202 59.2185V62.2861Z" fill="#A15F29" fill-opacity="0.1"/>
<path opacity="0.3" d="M36.415 43.8762C36.415 44.0458 36.5508 44.1833 36.7182 44.1833C36.8857 44.1833 37.0215 44.0458 37.0215 43.8762V38.354C37.0215 38.1843 36.8857 38.0468 36.7182 38.0468C36.5508 38.0468 36.415 38.1843 36.415 38.354V43.8762Z" fill="#A15F29" fill-opacity="0.1"/>
<path opacity="0.3" d="M31.5633 53.6948C31.5633 53.8644 31.6991 54.002 31.8666 54.002C32.034 54.002 32.1698 53.8644 32.1698 53.6948V48.1726C32.1698 48.0029 32.034 47.8654 31.8666 47.8654C31.6991 47.8654 31.5633 48.0029 31.5633 48.1726V53.6948Z" fill="#A15F29" fill-opacity="0.1"/>
<path opacity="0.3" d="M38.8408 47.5583C38.8408 47.7279 38.9766 47.8655 39.144 47.8655C39.3115 47.8655 39.4473 47.7279 39.4473 47.5583V44.4907C39.4473 44.3211 39.3115 44.1835 39.144 44.1835C38.9766 44.1835 38.8408 44.3211 38.8408 44.4907V47.5583Z" fill="#A15F29" fill-opacity="0.1"/>
<path opacity="0.3" d="M33.989 57.3766C33.989 57.5463 34.1248 57.6838 34.2922 57.6838C34.4597 57.6838 34.5955 57.5463 34.5955 57.3766V54.3091C34.5955 54.1394 34.4597 54.0019 34.2922 54.0019C34.1248 54.0019 33.989 54.1394 33.989 54.3091V57.3766Z" fill="#A15F29" fill-opacity="0.1"/>
<path opacity="0.3" d="M38.8408 59.8312C38.8408 60.0009 38.9766 60.1384 39.144 60.1384C39.3115 60.1384 39.4473 60.0009 39.4473 59.8312V56.7637C39.4473 56.594 39.3115 56.4565 39.144 56.4565C38.9766 56.4565 38.8408 56.594 38.8408 56.7637V59.8312Z" fill="#A15F29" fill-opacity="0.1"/>
<path opacity="0.3" d="M36.415 59.8312C36.415 60.0009 36.5508 60.1384 36.7182 60.1384C36.8857 60.1384 37.0215 60.0009 37.0215 59.8312V56.7637C37.0215 56.594 36.8857 56.4565 36.7182 56.4565C36.5508 56.4565 36.415 56.594 36.415 56.7637V59.8312Z" fill="#A15F29" fill-opacity="0.1"/>
<path opacity="0.3" d="M37.6279 63.5134C37.6279 63.683 37.7637 63.8206 37.9311 63.8206C38.0986 63.8206 38.2344 63.683 38.2344 63.5134V60.4458C38.2344 60.2761 38.0986 60.1386 37.9311 60.1386C37.7637 60.1386 37.6279 60.2761 37.6279 60.4458V63.5134Z" fill="#A15F29" fill-opacity="0.1"/>
<path opacity="0.3" d="M38.8408 41.4216C38.8408 41.5912 38.9766 41.7288 39.144 41.7288C39.3115 41.7288 39.4473 41.5912 39.4473 41.4216V35.8994C39.4473 35.7297 39.3115 35.5922 39.144 35.5922C38.9766 35.5922 38.8408 35.7297 38.8408 35.8994V41.4216Z" fill="#A15F29" fill-opacity="0.1"/>
<path opacity="0.3" d="M33.989 51.2402C33.989 51.4098 34.1248 51.5474 34.2922 51.5474C34.4597 51.5474 34.5955 51.4098 34.5955 51.2402V45.718C34.5955 45.5483 34.4597 45.4108 34.2922 45.4108C34.1248 45.4108 33.989 45.5483 33.989 45.718V51.2402Z" fill="#A15F29" fill-opacity="0.1"/>
<path opacity="0.3" d="M35.202 40.1943C35.202 40.3639 35.3378 40.5015 35.5052 40.5015C35.6727 40.5015 35.8085 40.3639 35.8085 40.1943V34.0584C35.8085 33.8888 35.6727 33.7512 35.5052 33.7512C35.3378 33.7512 35.202 33.8888 35.202 34.0584V40.1943Z" fill="#A15F29" fill-opacity="0.1"/>
<path opacity="0.3" d="M30.3502 48.7856C30.3502 48.9552 30.486 49.0928 30.6534 49.0928C30.8209 49.0928 30.9567 48.9552 30.9567 48.7856V42.6497C30.9567 42.4801 30.8209 42.3425 30.6534 42.3425C30.486 42.3425 30.3502 42.4801 30.3502 42.6497V48.7856Z" fill="#A15F29" fill-opacity="0.1"/>
<path opacity="0.3" d="M36.415 52.4675C36.415 52.6371 36.5508 52.7747 36.7182 52.7747C36.8857 52.7747 37.0215 52.6371 37.0215 52.4675V46.9453C37.0215 46.7756 36.8857 46.6381 36.7182 46.6381C36.5508 46.6381 36.415 46.7756 36.415 46.9453V52.4675Z" fill="#A15F29" fill-opacity="0.1"/>
<path opacity="0.3" d="M31.5633 38.967C31.5633 39.1366 31.6991 39.2742 31.8666 39.2742C32.034 39.2742 32.1698 39.1366 32.1698 38.967V33.4448C32.1698 33.2751 32.034 33.1376 31.8666 33.1376C31.6991 33.1376 31.5633 33.2751 31.5633 33.4448V38.967Z" fill="#A15F29" fill-opacity="0.1"/>
<path opacity="0.3" d="M32.7762 42.6489C32.7762 42.8185 32.912 42.9561 33.0795 42.9561C33.2469 42.9561 33.3827 42.8185 33.3827 42.6489V37.1267C33.3827 36.957 33.2469 36.8195 33.0795 36.8195C32.912 36.8195 32.7762 36.957 32.7762 37.1267V42.6489Z" fill="#A15F29" fill-opacity="0.1"/>
<path opacity="0.3" d="M31.5633 62.2861C31.5633 62.4557 31.6991 62.5933 31.8666 62.5933C32.034 62.5933 32.1698 62.4557 32.1698 62.2861V56.7639C32.1698 56.5942 32.034 56.4567 31.8666 56.4567C31.6991 56.4567 31.5633 56.5942 31.5633 56.7639V62.2861Z" fill="#A15F29" fill-opacity="0.1"/>
<path opacity="0.3" d="M35.202 51.2402C35.202 51.4098 35.3378 51.5474 35.5052 51.5474C35.6727 51.5474 35.8085 51.4098 35.8085 51.2402V45.718C35.8085 45.5483 35.6727 45.4108 35.5052 45.4108C35.3378 45.4108 35.202 45.5483 35.202 45.718V51.2402Z" fill="#A15F29" fill-opacity="0.1"/>
<path opacity="0.3" d="M30.3502 59.8312C30.3502 60.0009 30.486 60.1384 30.6534 60.1384C30.8209 60.1384 30.9567 60.0009 30.9567 59.8312V54.309C30.9567 54.1394 30.8209 54.0018 30.6534 54.0018C30.486 54.0018 30.3502 54.1394 30.3502 54.309V59.8312Z" fill="#A15F29" fill-opacity="0.1"/>
<path opacity="0.3" d="M38.8408 52.4675C38.8408 52.6371 38.9766 52.7747 39.144 52.7747C39.3115 52.7747 39.4473 52.6371 39.4473 52.4675V50.6272C39.4473 50.4576 39.3115 50.32 39.144 50.32C38.9766 50.32 38.8408 50.4576 38.8408 50.6272V52.4675Z" fill="#A15F29" fill-opacity="0.1"/>
<path opacity="0.3" d="M30.3502 36.5124C30.3502 36.682 30.486 36.8196 30.6534 36.8196C30.8209 36.8196 30.9567 36.682 30.9567 36.5124V34.6721C30.9567 34.5025 30.8209 34.3649 30.6534 34.3649C30.486 34.3649 30.3502 34.5025 30.3502 34.6721V36.5124Z" fill="#A15F29" fill-opacity="0.1"/>
<path opacity="0.3" d="M36.415 36.5124C36.415 36.682 36.5508 36.8196 36.7182 36.8196C36.8857 36.8196 37.0215 36.682 37.0215 36.5124V33.4448C37.0215 33.2752 36.8857 33.1376 36.7182 33.1376C36.5508 33.1376 36.415 33.2752 36.415 33.4448V36.5124Z" fill="#A15F29" fill-opacity="0.1"/>
<path opacity="0.3" d="M33.989 35.8986C33.989 36.0683 34.1248 36.2058 34.2922 36.2058C34.4597 36.2058 34.5955 36.0683 34.5955 35.8986V32.8311C34.5955 32.6614 34.4597 32.5239 34.2922 32.5239C34.1248 32.5239 33.989 32.6614 33.989 32.8311V35.8986Z" fill="#A15F29" fill-opacity="0.1"/>
<path opacity="0.3" d="M31.5633 46.3307C31.5633 46.5004 31.6991 46.6379 31.8666 46.6379C32.034 46.6379 32.1698 46.5004 32.1698 46.3307V43.2632C32.1698 43.0935 32.034 42.956 31.8666 42.956C31.6991 42.956 31.5633 43.0935 31.5633 43.2632V46.3307Z" fill="#A15F29" fill-opacity="0.1"/>
<path opacity="0.3" d="M37.6279 41.4216C37.6279 41.5912 37.7637 41.7288 37.9311 41.7288C38.0986 41.7288 38.2344 41.5912 38.2344 41.4216V39.5813C38.2344 39.4117 38.0986 39.2741 37.9311 39.2741C37.7637 39.2741 37.6279 39.4117 37.6279 39.5813V41.4216Z" fill="#A15F29" fill-opacity="0.1"/>
<path opacity="0.3" d="M32.7762 51.2402C32.7762 51.4098 32.912 51.5474 33.0795 51.5474C33.2469 51.5474 33.3827 51.4098 33.3827 51.2402V49.3999C33.3827 49.2303 33.2469 49.0927 33.0795 49.0927C32.912 49.0927 32.7762 49.2303 32.7762 49.3999V51.2402Z" fill="#A15F29" fill-opacity="0.1"/>
<path opacity="0.3" d="M33.989 38.967C33.989 39.1366 34.1248 39.2742 34.2922 39.2742C34.4597 39.2742 34.5955 39.1366 34.5955 38.967V37.1267C34.5955 36.9571 34.4597 36.8195 34.2922 36.8195C34.1248 36.8195 33.989 36.9571 33.989 37.1267V38.967Z" fill="#A15F29" fill-opacity="0.1"/>
<path opacity="0.3" d="M35.202 43.8762C35.202 44.0458 35.3378 44.1833 35.5052 44.1833C35.6727 44.1833 35.8085 44.0458 35.8085 43.8762V42.0359C35.8085 41.8662 35.6727 41.7287 35.5052 41.7287C35.3378 41.7287 35.202 41.8662 35.202 42.0359V43.8762Z" fill="#A15F29" fill-opacity="0.1"/>
<path opacity="0.3" d="M29.1373 40.808C29.1373 40.9777 29.2731 41.1152 29.4405 41.1152C29.608 41.1152 29.7438 40.9777 29.7438 40.808V38.9678C29.7438 38.7981 29.608 38.6606 29.4405 38.6606C29.2731 38.6606 29.1373 38.7981 29.1373 38.9678V40.808Z" fill="#A15F29" fill-opacity="0.1"/>
<path opacity="0.3" d="M29.1373 53.6948C29.1373 53.8644 29.2731 54.002 29.4405 54.002C29.608 54.002 29.7438 53.8644 29.7438 53.6948V49.3999C29.7438 49.2302 29.608 49.0927 29.4405 49.0927C29.2731 49.0927 29.1373 49.2302 29.1373 49.3999V53.6948Z" fill="#A15F29" fill-opacity="0.1"/>
<path opacity="0.3" d="M30.3502 52.4675C30.3502 52.6371 30.486 52.7747 30.6534 52.7747C30.8209 52.7747 30.9567 52.6371 30.9567 52.4675V50.6272C30.9567 50.4576 30.8209 50.32 30.6534 50.32C30.486 50.32 30.3502 50.4576 30.3502 50.6272V52.4675Z" fill="#A15F29" fill-opacity="0.1"/>
<path opacity="0.3" d="M37.6279 37.7397C37.6279 37.9093 37.7637 38.0469 37.9311 38.0469C38.0986 38.0469 38.2344 37.9093 38.2344 37.7397V34.6721C38.2344 34.5025 38.0986 34.3649 37.9311 34.3649C37.7637 34.3649 37.6279 34.5025 37.6279 34.6721V37.7397Z" fill="#A15F29" fill-opacity="0.1"/>
<path opacity="0.3" d="M33.989 43.8762C33.989 44.0458 34.1248 44.1833 34.2922 44.1833C34.4597 44.1833 34.5955 44.0458 34.5955 43.8762V40.8086C34.5955 40.6389 34.4597 40.5014 34.2922 40.5014C34.1248 40.5014 33.989 40.6389 33.989 40.8086V43.8762Z" fill="#A15F29" fill-opacity="0.1"/>
<path opacity="0.3" d="M32.7762 34.6713C32.7762 34.841 32.912 34.9785 33.0795 34.9785C33.2469 34.9785 33.3827 34.841 33.3827 34.6713V32.8311C33.3827 32.6614 33.2469 32.5239 33.0795 32.5239C32.912 32.5239 32.7762 32.6614 32.7762 32.8311V34.6713Z" fill="#A15F29" fill-opacity="0.1"/>
<path opacity="0.3" d="M30.3502 41.4216C30.3502 41.5912 30.486 41.7288 30.6534 41.7288C30.8209 41.7288 30.9567 41.5912 30.9567 41.4216V38.354C30.9567 38.1843 30.8209 38.0468 30.6534 38.0468C30.486 38.0468 30.3502 38.1843 30.3502 38.354V41.4216Z" fill="#A15F29" fill-opacity="0.1"/>
<path opacity="0.3" d="M32.7762 47.5583C32.7762 47.7279 32.912 47.8655 33.0795 47.8655C33.2469 47.8655 33.3827 47.7279 33.3827 47.5583V44.4907C33.3827 44.3211 33.2469 44.1835 33.0795 44.1835C32.912 44.1835 32.7762 44.3211 32.7762 44.4907V47.5583Z" fill="#A15F29" fill-opacity="0.1"/>
<path opacity="0.3" d="M29.1373 37.7397C29.1373 37.9093 29.2731 38.0469 29.4405 38.0469C29.608 38.0469 29.7438 37.9093 29.7438 37.7397V34.6721C29.7438 34.5025 29.608 34.3649 29.4405 34.3649C29.2731 34.3649 29.1373 34.5025 29.1373 34.6721V37.7397Z" fill="#A15F29" fill-opacity="0.1"/>
<path opacity="0.3" fill-rule="evenodd" clip-rule="evenodd" d="M38.2344 54.002H37.6279V51.8531C37.6279 51.6842 37.763 51.5473 37.9298 51.5473H37.9325C38.0992 51.5473 38.2344 51.6842 38.2344 51.8531V54.002Z" fill="#A15F29" fill-opacity="0.1"/>
<path opacity="0.3" fill-rule="evenodd" clip-rule="evenodd" d="M35.8085 54.002H35.202V53.0804C35.202 52.9115 35.3372 52.7746 35.5039 52.7746H35.5066C35.6733 52.7746 35.8085 52.9115 35.8085 53.0804V54.002Z" fill="#A15F29" fill-opacity="0.1"/>
<path opacity="0.3" fill-rule="evenodd" clip-rule="evenodd" d="M33.3827 54.002H32.7762V53.0804C32.7762 52.9115 32.9114 52.7746 33.0781 52.7746H33.0808C33.2475 52.7746 33.3827 52.9115 33.3827 53.0804V54.002Z" fill="#A15F29" fill-opacity="0.1"/>
<path opacity="0.3" fill-rule="evenodd" clip-rule="evenodd" d="M37.6278 54.002H38.2343V56.1508C38.2343 56.3197 38.0991 56.4566 37.9324 56.4566H37.9297C37.7629 56.4566 37.6278 56.3197 37.6278 56.1508V54.002Z" fill="#A15F29" fill-opacity="0.1"/>
<path opacity="0.3" fill-rule="evenodd" clip-rule="evenodd" d="M35.202 54.002H35.8085V57.3781C35.8085 57.547 35.6734 57.6839 35.5066 57.6839H35.5039C35.3372 57.6839 35.202 57.547 35.202 57.3781V54.002Z" fill="#A15F29" fill-opacity="0.1"/>
<path opacity="0.3" fill-rule="evenodd" clip-rule="evenodd" d="M32.7761 54.002H33.3826V54.9235C33.3826 55.0924 33.2474 55.2293 33.0807 55.2293H33.078C32.9113 55.2293 32.7761 55.0924 32.7761 54.9235V54.002Z" fill="#A15F29" fill-opacity="0.1"/>
</g>
<path d="M57.0846 0H12.1065C6.10508 0 1.23999 4.92868 1.23999 11.0085V111.723C1.23999 117.803 6.10508 122.732 12.1065 122.732H57.0846C63.086 122.732 67.9511 117.803 67.9511 111.723V11.0085C67.9511 4.92868 63.086 0 57.0846 0Z" fill="url(#paint6_linear)"/>
<path d="M57.0846 122.449H8.51752L41.8962 98.0127L67.951 11.4974V111.44C67.951 117.52 63.086 122.449 57.0846 122.449Z" fill="url(#paint7_linear)" fill-opacity="0.15"/>
<path opacity="0.663342" d="M56.0407 0C55.9771 0.108213 7.85426 0.0824929 7.85426 0C-1.92261 0 0.13144 15.8144 0.13144 74.8972C0.13144 109.417 62.4413 146.411 62.4413 79.3316C62.4413 12.2523 65.0077 0.0824929 56.0407 0Z" fill="url(#paint8_radial)" fill-opacity="0.89"/>
<g opacity="0.592285" filter="url(#filter0_f)">
<path d="M59.4576 4.02417H9.65237C9.02558 4.02417 8.51746 4.53893 8.51746 5.17392C8.51746 5.80892 9.02558 6.32368 9.65237 6.32368H59.4576C60.0844 6.32368 60.5926 5.80892 60.5926 5.17392C60.5926 4.53893 60.0844 4.02417 59.4576 4.02417Z" fill="white"/>
</g>
<path fill-rule="evenodd" clip-rule="evenodd" d="M33.4841 22.6947C34.3815 22.1836 35.5503 22.1813 36.4468 22.6947C40.9574 25.2308 45.4694 27.7628 49.9792 30.3004C50.8275 30.7758 51.3948 31.7151 51.3863 32.6877V47.9455C51.3925 48.9583 50.7691 49.92 49.8742 50.3847C45.3784 52.9067 40.885 55.4319 36.39 57.9539C35.4741 58.475 34.2818 58.4349 33.3945 57.8711C32.0467 57.0936 30.6966 56.32 29.3486 55.5433C29.0732 55.3799 28.7627 55.2499 28.5682 54.9842C28.7401 54.7536 29.0475 54.7248 29.2973 54.6242C29.8599 54.4461 30.3767 54.1604 30.8935 53.8831C31.0242 53.7941 31.1838 53.8282 31.3091 53.9079C32.4616 54.5654 33.604 55.2421 34.7604 55.8933C35.0071 56.035 35.2569 55.8469 35.4678 55.7299C39.8795 53.2489 44.2966 50.7773 48.7076 48.2955C48.871 48.2172 48.9614 48.0446 48.9481 47.8665C48.9512 42.8332 48.9489 37.7991 48.9496 32.7659C48.9683 32.5638 48.8508 32.3779 48.6671 32.2952C44.1869 29.7847 39.7091 27.2703 35.2297 24.7592C35.0708 24.6505 34.8612 24.6502 34.702 24.7584C30.2226 27.2703 25.7456 29.787 21.2662 32.2974C21.0831 32.3803 20.9603 32.563 20.9821 32.7659C20.9829 37.7991 20.9821 42.8332 20.9821 47.8672C20.9662 48.0453 21.0634 48.2143 21.2257 48.2908C22.421 48.9653 23.6179 49.635 24.8141 50.3072C25.4879 50.6681 26.3153 50.8825 27.0577 50.606C27.7128 50.3722 28.1721 49.707 28.1596 49.0148C28.1658 44.011 28.1565 39.0064 28.1642 34.0033C28.1478 33.7811 28.3596 33.5976 28.5767 33.6185C29.151 33.6147 29.7261 33.6108 30.3005 33.6201C30.5402 33.6147 30.7052 33.8539 30.6756 34.0777C30.6732 39.1132 30.6817 44.1488 30.6717 49.1844C30.6732 50.5264 30.1191 51.9867 28.8716 52.6433C27.3347 53.4355 25.4351 53.2675 23.9167 52.5079C22.6023 51.8551 21.3479 51.0847 20.0568 50.3853C19.1595 49.9232 18.5392 48.9576 18.5454 47.9456V32.6877C18.5361 31.695 19.126 30.7386 20.0007 30.2701C24.4957 27.746 28.9899 25.22 33.4841 22.6947Z" fill="url(#paint9_linear)"/>
<path fill-rule="evenodd" clip-rule="evenodd" d="M36.5607 33.3182C38.4607 33.1972 40.4947 33.2465 42.2045 34.1728C43.5283 34.8827 44.2622 36.3726 44.2855 37.8281C44.2486 38.0244 44.0412 38.1327 43.8518 38.1192C43.3006 38.1185 42.7492 38.1266 42.1979 38.1155C41.964 38.1244 41.8281 37.911 41.7988 37.7064C41.6404 37.01 41.2566 36.3203 40.5943 35.9844C39.5776 35.4806 38.3987 35.5059 37.2901 35.5164C36.4807 35.559 35.6104 35.6283 34.9247 36.0994C34.3983 36.4561 34.2384 37.1764 34.4263 37.7565C34.6034 38.173 35.0892 38.3074 35.4867 38.4312C37.7765 39.0239 40.2029 38.9649 42.449 39.7449C43.3789 40.0629 44.2885 40.681 44.6068 41.6446C45.0232 42.936 44.8407 44.4796 43.9123 45.5164C43.1594 46.3696 42.0629 46.8339 40.9692 47.0861C39.5142 47.4072 38.0043 47.4153 36.5268 47.2728C35.1374 47.116 33.6916 46.7548 32.6191 45.8179C31.7019 45.0298 31.254 43.8018 31.2984 42.6166C31.309 42.4164 31.5104 42.2768 31.7042 42.2933C32.2593 42.2888 32.8144 42.2873 33.3696 42.294C33.5913 42.2783 33.7557 42.468 33.7671 42.6748C33.8695 43.3383 34.1215 44.0347 34.7061 44.4281C35.8344 45.1485 37.2501 45.0991 38.542 45.1193C39.6123 45.0723 40.8138 45.0581 41.6872 44.358C42.1481 43.9587 42.2846 43.2906 42.16 42.7158C42.0251 42.2306 41.5122 42.0045 41.0717 41.8566C38.8113 41.149 36.3578 41.4057 34.1192 40.6055C33.2104 40.2876 32.3316 39.6867 31.9825 38.7627C31.4953 37.4549 31.7185 35.8374 32.7442 34.8356C33.7443 33.8392 35.188 33.4554 36.5607 33.3181V33.3182Z" fill="url(#paint10_linear)"/>
</g>
<defs>
<filter id="filter0_f" x="2.26746" y="-2.22583" width="64.5751" height="14.7995" filterUnits="userSpaceOnUse" color-interpolation-filters="sRGB">
<feFlood flood-opacity="0" result="BackgroundImageFix"/>
<feBlend mode="normal" in="SourceGraphic" in2="BackgroundImageFix" result="shape"/>
<feGaussianBlur stdDeviation="3.125" result="effect1_foregroundBlur"/>
</filter>
<linearGradient id="paint0_linear" x1="34.5433" y1="0.0647189" x2="34.5433" y2="122.625" gradientUnits="userSpaceOnUse">
<stop offset="0.000158361" stop-color="#DFEBEA"/>
<stop offset="0.335594" stop-color="white"/>
<stop offset="1" stop-color="#F6F6F6"/>
</linearGradient>
<linearGradient id="paint1_linear" x1="34.5433" y1="90.8494" x2="34.5433" y2="122.732" gradientUnits="userSpaceOnUse">
<stop stop-color="#70A81E"/>
<stop offset="1" stop-color="#528D12"/>
</linearGradient>
<linearGradient id="paint2_linear" x1="34.5956" y1="0" x2="34.5956" y2="70.7437" gradientUnits="userSpaceOnUse">
<stop stop-color="white"/>
<stop offset="1" stop-color="white" stop-opacity="0"/>
</linearGradient>
<linearGradient id="paint3_linear" x1="34.555" y1="71.1226" x2="34.555" y2="110.484" gradientUnits="userSpaceOnUse">
<stop stop-color="#8CC84B"/>
<stop offset="1" stop-color="#62A11F"/>
</linearGradient>
<linearGradient id="paint4_linear" x1="34.5146" y1="0" x2="34.5146" y2="44.1834" gradientUnits="userSpaceOnUse">
<stop stop-color="white"/>
<stop offset="0.576409" stop-color="white" stop-opacity="0"/>
</linearGradient>
<linearGradient id="paint5_linear" x1="34.5572" y1="71.37" x2="35.4092" y2="122.718" gradientUnits="userSpaceOnUse">
<stop stop-color="white" stop-opacity="0"/>
<stop offset="1" stop-color="white" stop-opacity="0.420782"/>
</linearGradient>
<linearGradient id="paint6_linear" x1="34.5956" y1="97.741" x2="34.5956" y2="122.732" gradientUnits="userSpaceOnUse">
<stop stop-opacity="0"/>
<stop offset="1" stop-opacity="0.158517"/>
</linearGradient>
<linearGradient id="paint7_linear" x1="45.1346" y1="116.804" x2="33.5613" y2="101.331" gradientUnits="userSpaceOnUse">
<stop stop-color="#0626B8"/>
<stop offset="1" stop-color="#0626B8" stop-opacity="0"/>
</linearGradient>
<radialGradient id="paint8_radial" cx="0" cy="0" r="1" gradientUnits="userSpaceOnUse" gradientTransform="translate(31.3665 -6.1041) rotate(180) scale(36.4282 46.5222)">
<stop stop-color="white"/>
<stop offset="1" stop-color="white" stop-opacity="0"/>
</radialGradient>
<linearGradient id="paint9_linear" x1="34.9658" y1="22.3105" x2="34.9658" y2="58.3206" gradientUnits="userSpaceOnUse">
<stop stop-color="#8CC84B"/>
<stop offset="1" stop-color="#62A11F"/>
</linearGradient>
<linearGradient id="paint10_linear" x1="38.0568" y1="33.2703" x2="38.0568" y2="47.3612" gradientUnits="userSpaceOnUse">
<stop stop-color="#A3BD10"/>
<stop offset="1" stop-color="#62A11F"/>
</linearGradient>
<clipPath id="clip0">
<rect width="68" height="155" fill="white"/>
</clipPath>
</defs>
</svg>
