<svg width="68" height="155" viewBox="0 0 68 155" fill="none" xmlns="http://www.w3.org/2000/svg">
<g clip-path="url(#clip0)">
<path d="M27.5282 122.047H39.7268V148.898C39.7268 151.594 37.5522 153.78 34.8697 153.78H32.3853C29.7028 153.78 27.5282 151.594 27.5282 148.898V122.047Z" fill="black"/>
<path d="M10.9286 0H56.2214C62.2571 0 67.15 4.91782 67.15 10.9843V111.063C67.15 117.129 62.2571 122.047 56.2214 122.047H10.9286C4.89289 122.047 0 117.129 0 111.063V10.9843C0 4.91782 4.89289 0 10.9286 0ZM10.9286 4.88189C7.57541 4.88189 4.85714 7.61401 4.85714 10.9843V111.063C4.85714 114.433 7.57541 117.165 10.9286 117.165H56.2214C59.5746 117.165 62.2929 114.433 62.2929 111.063V10.9843C62.2929 7.61401 59.5746 4.88189 56.2214 4.88189H10.9286Z" fill="black"/>
<mask id="mask0" mask-type="alpha" maskUnits="userSpaceOnUse" x="-2" y="8" width="69" height="43">
<path d="M65.9358 8.54333H-1.21423V50.0394H65.9358V8.54333Z" fill="white" stroke="#979797"/>
</mask>
<g mask="url(#mask0)">
<path d="M1.18585 53.7326C10.1602 42.0853 19.7882 38.3237 30.6114 41.9498C43.7442 46.3497 56.2684 43.9114 67.8371 34.7578L68.9951 32.3603V12.2048L64.1367 9.76477C54.1393 17.3089 43.7137 19.159 32.5314 15.4126C19.0397 10.8924 6.80103 15.9104 -3.64363 29.9199L-4.25 31.7496V51.8644L1.18585 53.7326ZM1.82143 32.7795C10.6317 21.3557 20.0599 17.6667 30.6114 21.2018C41.9003 24.9839 52.7411 23.8613 62.9236 17.8963V30.8514C53.2824 38.0198 43.2544 39.7531 32.5314 36.1606C21.3385 32.4106 10.9981 35.0812 1.82143 43.8861V32.7795Z" fill="black"/>
</g>
<mask id="mask1" mask-type="alpha" maskUnits="userSpaceOnUse" x="0" y="29" width="68" height="42">
<path d="M67.15 29.2914H0V70.7874H67.15V29.2914Z" fill="white"/>
</mask>
<g mask="url(#mask1)">
<path d="M2.40008 74.4806C11.3744 62.8333 21.0024 59.0717 31.8257 62.6978C44.9584 67.0977 57.4826 64.6594 69.0513 55.5058L70.2093 53.1084V32.9528L65.3509 30.5128C55.3535 38.0569 44.9279 39.907 33.7456 36.1606C20.254 31.6405 8.01527 36.6584 -2.42939 50.6679L-3.03577 52.4976V72.6124L2.40008 74.4806ZM3.03566 53.5275C11.8459 42.1037 21.2741 38.4147 31.8257 41.9498C43.1146 45.7319 53.9553 44.6094 64.1379 38.6444V51.5995C54.4966 58.7679 44.4686 60.5012 33.7456 56.9086C22.5527 53.1586 12.2123 55.8292 3.03566 64.6341V53.5275Z" fill="black"/>
</g>
<mask id="mask2" mask-type="alpha" maskUnits="userSpaceOnUse" x="0" y="50" width="68" height="42">
<path d="M67.15 50.0393H0V91.5354H67.15V50.0393Z" fill="white"/>
</mask>
<g mask="url(#mask2)">
<path d="M2.40008 95.2286C11.3744 83.5813 21.0024 79.8196 31.8257 83.4458C44.9584 87.8457 57.4826 85.4074 69.0513 76.2537L70.2093 73.8563V53.7008L65.3509 51.2607C55.3535 58.8048 44.9279 60.6549 33.7456 56.9085C20.254 52.3884 8.01527 57.4064 -2.42939 71.4158L-3.03577 73.2455V93.3604L2.40008 95.2286ZM3.03566 74.2754C11.8459 62.8517 21.2741 59.1626 31.8257 62.6977C43.1146 66.4799 53.9553 65.3573 64.1379 59.3923V72.3474C54.4966 79.5158 44.4686 81.2491 33.7456 77.6566C22.5527 73.9066 12.2123 76.5771 3.03566 85.3821V74.2754Z" fill="black"/>
</g>
<mask id="mask3" mask-type="alpha" maskUnits="userSpaceOnUse" x="0" y="70" width="68" height="43">
<path d="M67.15 70.7874H0V112.283H67.15V70.7874Z" fill="white"/>
</mask>
<g mask="url(#mask3)">
<path d="M2.40008 115.977C11.3744 104.329 21.0024 100.568 31.8257 104.194C44.9584 108.594 57.4826 106.155 69.0513 97.0018L70.2093 94.6043V74.4488L65.3509 72.0088C55.3535 79.5529 44.9279 81.403 33.7456 77.6566C20.254 73.1364 8.01527 78.1544 -2.42939 92.1639L-3.03577 93.9936V114.108L2.40008 115.977ZM3.03566 95.0235C11.8459 83.5997 21.2741 79.9107 31.8257 83.4458C43.1146 87.2279 53.9553 86.1053 64.1379 80.1404V93.0955C54.4966 100.264 44.4686 101.997 33.7456 98.4046C22.5527 94.6546 12.2123 97.3252 3.03566 106.13V95.0235Z" fill="black"/>
</g>
</g>
<defs>
<clipPath id="clip0">
<rect width="68" height="155" fill="white"/>
</clipPath>
</defs>
</svg>
